G04 #@! TF.FileFunction,Soldermask,Top*
%FSLAX46Y46*%
G04 Gerber Fmt 4.6, Leading zero omitted, Abs format (unit mm)*
G04 Created by KiCad (PCBNEW 4.0.7) date 04/20/20 00:53:53*
%MOMM*%
%LPD*%
G01*
G04 APERTURE LIST*
%ADD10C,0.100000*%
%ADD11R,1.700000X1.900000*%
%ADD12R,1.900000X1.650000*%
%ADD13R,1.650000X1.900000*%
%ADD14R,1.400000X1.400000*%
%ADD15R,1.900000X1.700000*%
%ADD16R,2.900000X2.400000*%
%ADD17O,4.900000X2.400000*%
%ADD18C,1.900000*%
%ADD19C,2.500000*%
%ADD20R,3.400000X3.400000*%
%ADD21C,3.400000*%
%ADD22R,2.400000X2.400000*%
%ADD23R,1.900000X0.850000*%
G04 APERTURE END LIST*
D10*
D11*
X82296000Y-93138000D03*
X82296000Y-95838000D03*
D12*
X105775000Y-89775000D03*
X108275000Y-89775000D03*
X100750000Y-94500000D03*
X103250000Y-94500000D03*
X89428000Y-94996000D03*
X91928000Y-94996000D03*
X74696000Y-91186000D03*
X77196000Y-91186000D03*
X74696000Y-97790000D03*
X77196000Y-97790000D03*
D13*
X84582000Y-87650000D03*
X84582000Y-90150000D03*
D14*
X110490000Y-89896000D03*
X110490000Y-87396000D03*
X110490000Y-94722000D03*
X110490000Y-92222000D03*
X77196000Y-95758000D03*
X74696000Y-95758000D03*
D15*
X108375000Y-92275000D03*
X105675000Y-92275000D03*
X105584000Y-94488000D03*
X108284000Y-94488000D03*
X105725000Y-87675000D03*
X108425000Y-87675000D03*
X94154000Y-94742000D03*
X96854000Y-94742000D03*
X94408000Y-89662000D03*
X97108000Y-89662000D03*
D11*
X92400000Y-89950000D03*
X92400000Y-92650000D03*
X88646000Y-90344000D03*
X88646000Y-93044000D03*
D15*
X87202000Y-95250000D03*
X84502000Y-95250000D03*
X74596000Y-93218000D03*
X77296000Y-93218000D03*
X92122000Y-84582000D03*
X94822000Y-84582000D03*
X89488000Y-85090000D03*
X86788000Y-85090000D03*
D16*
X82296000Y-89376000D03*
X82296000Y-85376000D03*
D17*
X108450000Y-98625000D03*
X102100000Y-98650000D03*
X108200000Y-84350000D03*
X102100000Y-84400000D03*
D12*
X102850000Y-88900000D03*
X100350000Y-88900000D03*
X92476000Y-87122000D03*
X94976000Y-87122000D03*
D13*
X79502000Y-95738000D03*
X79502000Y-93238000D03*
D18*
X70800000Y-91694000D03*
X70800000Y-94234000D03*
D19*
X65720000Y-96774000D03*
X65720000Y-86614000D03*
D20*
X68072000Y-89408000D03*
D21*
X68072000Y-94488000D03*
D22*
X112776000Y-91186000D03*
X112522000Y-87122000D03*
X80675000Y-98300000D03*
X78486000Y-88646000D03*
X74168000Y-88646000D03*
X85852000Y-98298000D03*
X78486000Y-85090000D03*
X74168000Y-85090000D03*
D23*
X102930000Y-91836000D03*
X102930000Y-90536000D03*
X100270000Y-91186000D03*
X97630000Y-92650000D03*
X97630000Y-91350000D03*
X94970000Y-92000000D03*
X86928000Y-92852000D03*
X86928000Y-91552000D03*
X84268000Y-92202000D03*
M02*
