G04 #@! TF.FileFunction,Soldermask,Top*
%FSLAX46Y46*%
G04 Gerber Fmt 4.6, Leading zero omitted, Abs format (unit mm)*
G04 Created by KiCad (PCBNEW 4.0.7) date 04/21/20 19:50:21*
%MOMM*%
%LPD*%
G01*
G04 APERTURE LIST*
%ADD10C,0.100000*%
%ADD11R,1.900000X1.650000*%
%ADD12R,1.900000X1.700000*%
%ADD13R,1.650000X1.900000*%
%ADD14R,1.400000X1.400000*%
%ADD15R,1.700000X1.900000*%
%ADD16R,2.900000X2.400000*%
%ADD17O,4.900000X2.400000*%
%ADD18R,4.400000X2.400000*%
%ADD19R,2.400000X2.400000*%
%ADD20R,1.400000X2.900000*%
%ADD21R,2.400000X4.400000*%
%ADD22R,5.480000X2.900000*%
%ADD23R,5.480000X1.900000*%
G04 APERTURE END LIST*
D10*
D11*
X97262000Y-86360000D03*
X94762000Y-86360000D03*
D12*
X83150000Y-96000000D03*
X80450000Y-96000000D03*
D11*
X105310000Y-92730000D03*
X107810000Y-92730000D03*
D13*
X100584000Y-99040000D03*
X100584000Y-96540000D03*
X90650000Y-90525000D03*
X90650000Y-93025000D03*
D11*
X74696000Y-91186000D03*
X77196000Y-91186000D03*
X74696000Y-97790000D03*
X77196000Y-97790000D03*
X83400000Y-88250000D03*
X85900000Y-88250000D03*
D14*
X77196000Y-95758000D03*
X74696000Y-95758000D03*
D15*
X102362000Y-96440000D03*
X102362000Y-99140000D03*
D12*
X95850000Y-96300000D03*
X98550000Y-96300000D03*
X90800000Y-96275000D03*
X93500000Y-96275000D03*
D15*
X97825000Y-88200000D03*
X97825000Y-90900000D03*
D12*
X74596000Y-93218000D03*
X77296000Y-93218000D03*
X82950000Y-85350000D03*
X80250000Y-85350000D03*
X83000000Y-83600000D03*
X80300000Y-83600000D03*
D16*
X80700000Y-92800000D03*
X80700000Y-88800000D03*
D17*
X95250000Y-98806000D03*
X88000000Y-98900000D03*
X95520000Y-83940000D03*
X87884000Y-83820000D03*
D11*
X99500000Y-86140000D03*
X102000000Y-86140000D03*
D18*
X111400000Y-92800000D03*
X111350000Y-86200000D03*
D19*
X80675000Y-98300000D03*
X77725000Y-88700000D03*
X74168000Y-88646000D03*
X83500000Y-98400000D03*
X77700000Y-85075000D03*
X74168000Y-85090000D03*
D15*
X105250000Y-90390000D03*
X105250000Y-87690000D03*
D12*
X90650000Y-88250000D03*
X87950000Y-88250000D03*
D20*
X99890000Y-93480000D03*
X101390000Y-93480000D03*
X102890000Y-93480000D03*
D21*
X101390000Y-89520000D03*
D10*
G36*
X102590000Y-91295000D02*
X102090000Y-92445000D01*
X100690000Y-92445000D01*
X100190000Y-91295000D01*
X102590000Y-91295000D01*
X102590000Y-91295000D01*
G37*
D20*
X92875000Y-93605000D03*
X94375000Y-93605000D03*
X95875000Y-93605000D03*
D21*
X94375000Y-89645000D03*
D10*
G36*
X95575000Y-91420000D02*
X95075000Y-92570000D01*
X93675000Y-92570000D01*
X93175000Y-91420000D01*
X95575000Y-91420000D01*
X95575000Y-91420000D01*
G37*
D20*
X85500000Y-95480000D03*
X87000000Y-95480000D03*
X88500000Y-95480000D03*
D21*
X87000000Y-91520000D03*
D10*
G36*
X88200000Y-93295000D02*
X87700000Y-94445000D01*
X86300000Y-94445000D01*
X85800000Y-93295000D01*
X88200000Y-93295000D01*
X88200000Y-93295000D01*
G37*
D22*
X68550000Y-87450000D03*
X68550000Y-94950000D03*
D23*
X68550000Y-91200000D03*
D12*
X68950000Y-98700000D03*
X71650000Y-98700000D03*
M02*
