M48
;DRILL file {KiCad 4.0.7} date 04/19/20 23:04:18
;FORMAT={-:-/ absolute / metric / decimal}
FMAT,2
METRIC,TZ
T1C0.400
T2C0.900
T3C1.000
T4C1.520
%
G90
G05
M71
T1
X63.525Y-88.175
X63.575Y-86.725
X63.75Y-89.65
X63.85Y-91.025
X63.95Y-85.1
X64.7Y-92.25
X65.175Y-83.525
X65.975Y-93.4
X67.35Y-83.05
X67.75Y-98.675
X67.85Y-97.2
X68.Y-100.075
X69.6Y-82.95
X69.85Y-100.1
X71.7Y-82.95
X71.9Y-99.95
X73.875Y-83.15
X74.325Y-99.85
X76.05Y-83.15
X76.35Y-99.85
X76.575Y-99.85
X78.Y-99.875
X78.5Y-83.15
X79.75Y-100.
X80.325Y-89.95
X80.625Y-83.375
X81.5Y-99.95
X82.55Y-99.025
X82.65Y-83.375
X83.075Y-99.95
X83.45Y-97.175
X84.2Y-99.05
X84.225Y-88.975
X84.4Y-99.95
X84.45Y-96.825
X85.225Y-83.425
X85.925Y-100.1
X87.3Y-86.5
X87.4Y-100.075
X87.45Y-83.25
X87.5Y-99.2
X88.325Y-86.575
X88.65Y-99.2
X88.85Y-100.075
X89.2Y-86.525
X89.675Y-83.55
X90.25Y-86.475
X90.475Y-98.6
X90.525Y-96.725
X90.525Y-100.
X90.55Y-93.35
X90.6Y-90.025
X90.7Y-87.95
X91.075Y-86.4
X91.425Y-83.425
X92.025Y-100.
X93.475Y-99.925
X93.675Y-83.7
X95.175Y-99.95
X95.95Y-83.85
X96.5Y-100.
X96.975Y-83.1
X97.35Y-98.925
X98.1Y-100.2
X98.525Y-97.85
X98.675Y-93.15
X98.725Y-83.05
X98.9Y-84.3
X98.9Y-87.225
X99.Y-90.9
X99.025Y-88.575
X99.15Y-85.525
X99.3Y-92.05
X99.85Y-100.275
X100.4Y-82.95
X101.325Y-100.325
X102.125Y-82.9
X102.525Y-89.05
X102.95Y-100.325
X103.925Y-82.925
X104.625Y-88.75
X105.025Y-100.25
X105.725Y-82.85
X106.875Y-100.3
X107.6Y-82.775
X107.725Y-96.95
X108.1Y-100.35
X108.925Y-86.125
X109.075Y-96.9
X109.325Y-82.825
X110.05Y-100.3
X110.375Y-85.775
X110.55Y-97.225
X110.6Y-82.975
X111.175Y-85.725
X111.2Y-97.875
X111.3Y-100.025
X111.475Y-99.
X111.5Y-83.875
X111.9Y-93.65
X111.9Y-97.025
X112.Y-95.3
T2
X70.8Y-91.694
X70.8Y-94.234
T3
X74.168Y-85.09
X74.168Y-88.646
X78.486Y-85.09
X78.486Y-88.646
X80.675Y-98.3
X85.852Y-98.298
T4
X68.072Y-89.408
X68.072Y-94.488
T0
M30
