M48
;DRILL file {KiCad 4.0.7} date 04/20/20 23:00:40
;FORMAT={-:-/ absolute / metric / decimal}
FMAT,2
METRIC,TZ
T1C0.400
T2C1.000
%
G90
G05
M71
T1
X66.4Y-98.6
X66.6Y-97.6
X66.7Y-100.3
X67.4Y-96.9
X67.8Y-100.6
X68.4Y-84.8
X68.55Y-87.45
X68.55Y-94.95
X68.9Y-83.7
X69.3Y-100.6
X70.Y-82.9
X71.Y-100.6
X71.4Y-82.8
X72.7Y-100.6
X73.8Y-100.5
X73.815Y-82.6
X74.325Y-99.85
X75.96Y-82.65
X76.35Y-99.85
X76.575Y-99.85
X78.Y-99.875
X78.41Y-82.65
X79.75Y-100.
X80.01Y-82.55
X80.5Y-90.6
X80.5Y-95.
X81.5Y-99.95
X81.6Y-95.1
X81.65Y-90.625
X83.075Y-99.95
X83.3Y-94.45
X83.312Y-82.55
X83.45Y-93.15
X84.4Y-99.95
X85.598Y-82.55
X85.925Y-100.1
X87.4Y-100.075
X87.75Y-82.57
X88.85Y-100.075
X89.825Y-82.55
X90.525Y-100.
X91.3Y-82.525
X91.825Y-85.775
X92.025Y-100.
X92.83Y-82.65
X93.325Y-86.55
X93.475Y-99.925
X94.14Y-82.63
X95.175Y-99.95
X96.5Y-99.8
X96.525Y-82.65
X96.96Y-84.63
X97.Y-100.3
X98.55Y-82.625
X98.6Y-100.5
X99.05Y-87.8
X99.7Y-89.7
X99.8Y-88.225
X99.975Y-93.25
X100.025Y-90.8
X100.025Y-92.325
X100.1Y-100.5
X100.35Y-82.6
X100.45Y-87.575
X101.7Y-100.6
X102.2Y-82.5
X103.Y-100.6
X104.Y-82.525
X104.5Y-87.5
X104.5Y-100.5
X105.2Y-98.6
X105.2Y-99.9
X105.5Y-97.8
X105.99Y-82.44
X107.225Y-96.775
X107.425Y-95.375
X108.625Y-95.3
T2
X74.168Y-85.09
X74.168Y-88.646
X77.7Y-85.075
X77.725Y-88.7
X80.675Y-98.3
X83.5Y-98.4
X112.5Y-86.23
X112.72Y-92.75
T0
M30
