M48
;DRILL file {KiCad 4.0.7} date 04/19/20 17:36:27
;FORMAT={-:-/ absolute / metric / decimal}
FMAT,2
METRIC,TZ
T1C0.400
T2C0.900
T3C1.200
T4C1.500
T5C1.520
T6C2.000
%
G90
G05
M71
T1
X42.47Y-102.88
X42.47Y-105.22
X42.56Y-82.52
X42.58Y-86.5
X42.69Y-87.96
X42.79Y-108.07
X42.85Y-110.03
X42.92Y-90.64
X42.92Y-95.55
X42.92Y-100.08
X42.94Y-111.98
X42.97Y-93.04
X43.14Y-98.01
X44.46Y-113.5
X44.73Y-95.63
X44.83Y-82.03
X46.1Y-113.65
X46.52Y-95.06
X46.8Y-82.05
X48.23Y-113.5
X48.62Y-82.12
X49.55Y-95.51
X49.77Y-109.58
X49.93Y-107.01
X50.66Y-81.98
X50.67Y-113.84
X50.9Y-95.5
X52.28Y-95.74
X52.77Y-113.92
X53.34Y-95.69
X53.76Y-82.22
X55.04Y-95.86
X55.25Y-113.84
X55.99Y-97.04
X56.43Y-82.41
X57.11Y-113.92
X57.19Y-98.1
X58.84Y-98.29
X59.28Y-82.33
X59.78Y-113.88
X60.27Y-89.73
X60.29Y-92.44
X60.31Y-90.95
X60.69Y-98.32
X60.86Y-93.33
X62.14Y-82.42
X62.18Y-113.92
X62.59Y-98.35
X64.39Y-113.88
X64.76Y-98.54
X64.82Y-82.53
X66.33Y-98.66
X67.28Y-113.92
X67.67Y-98.8
X67.95Y-82.26
X68.2Y-112.93
X69.26Y-98.88
X69.38Y-113.96
X70.8Y-82.26
X71.17Y-114.11
X72.77Y-114.34
X73.152Y-89.408
X73.48Y-98.99
X73.76Y-82.31
X74.676Y-83.82
X74.676Y-85.598
X74.676Y-92.456
X74.87Y-114.22
X75.438Y-87.884
X75.438Y-93.472
X75.49Y-98.94
X75.692Y-86.36
X75.692Y-95.25
X75.692Y-96.774
X75.946Y-97.79
X76.92Y-114.34
X76.93Y-98.98
X77.52Y-82.41
X78.7Y-98.88
X79.21Y-114.34
X80.14Y-98.92
X80.72Y-82.5
X81.15Y-114.41
X81.28Y-90.932
X81.4Y-98.96
X82.98Y-83.48
X83.01Y-85.47
X83.48Y-114.33
X83.58Y-99.04
X83.82Y-90.678
X84.04Y-86.39
X84.04Y-89.35
X84.46Y-82.32
X84.88Y-99.02
X86.45Y-99.13
X86.81Y-114.27
X87.57Y-82.41
X87.884Y-88.9
X87.884Y-97.028
X88.29Y-98.13
X88.65Y-99.1
X89.408Y-94.996
X89.52Y-114.05
X89.87Y-84.6
X90.04Y-85.77
X90.11Y-87.46
X90.17Y-89.154
X90.17Y-90.424
X90.17Y-91.694
X90.83Y-99.27
X90.86Y-82.41
X91.07Y-94.24
X91.32Y-93.
X91.32Y-95.16
X92.32Y-113.58
X92.33Y-97.82
X92.76Y-99.19
X94.06Y-82.54
X94.64Y-113.69
X94.77Y-99.24
X96.32Y-99.25
X96.34Y-82.36
X96.77Y-113.58
X97.16Y-90.31
X97.16Y-91.33
X97.6Y-89.08
X97.67Y-88.01
X97.79Y-92.01
X97.98Y-82.36
X97.99Y-99.33
X98.02Y-84.52
X98.04Y-83.3
X98.07Y-85.8
X98.3Y-87.29
X98.41Y-92.68
X98.41Y-97.66
X98.55Y-94.57
X98.8Y-98.53
X98.83Y-113.58
X100.24Y-99.36
X100.6Y-82.13
X101.27Y-113.23
X101.82Y-89.04
X102.15Y-99.25
X102.93Y-88.96
X102.96Y-82.24
X103.63Y-113.39
X103.886Y-90.932
X103.97Y-99.1
X104.61Y-82.28
X106.22Y-113.39
X106.48Y-82.31
X106.57Y-99.14
X108.47Y-99.02
X108.74Y-82.53
X109.58Y-113.69
X110.03Y-100.43
X111.62Y-82.87
X111.75Y-99.06
X111.9Y-113.65
X112.28Y-110.76
X112.32Y-86.75
X112.32Y-90.25
X112.32Y-101.73
X112.32Y-108.59
X112.36Y-112.24
X112.37Y-91.4
X112.37Y-103.32
X112.4Y-104.89
X112.4Y-106.72
X112.46Y-89.04
X112.46Y-99.86
X112.51Y-85.08
X112.53Y-92.78
X112.71Y-83.23
X112.88Y-94.35
X113.Y-95.54
X113.5Y-99.52
X113.63Y-96.38
X115.23Y-96.34
X115.37Y-99.56
X117.21Y-96.39
X117.46Y-99.56
X119.16Y-96.34
X119.25Y-99.71
X120.97Y-99.52
X120.98Y-96.37
X122.77Y-96.45
X123.29Y-99.63
X124.56Y-96.53
X125.81Y-99.52
X126.34Y-96.5
X127.75Y-99.33
X128.05Y-96.58
X129.39Y-96.7
X129.5Y-99.29
X131.29Y-96.47
X131.71Y-99.36
X133.62Y-99.48
X133.65Y-96.43
X135.71Y-99.59
X135.79Y-96.35
T2
X80.91Y-101.11
X83.45Y-101.11
T3
X71.628Y-87.63
X71.628Y-92.63
X76.668Y-90.13
T4
X44.75Y-84.6
X68.072Y-105.156
X68.072Y-109.728
X91.694Y-102.87
X91.694Y-108.204
X138.938Y-98.044
T5
X78.624Y-103.838
X83.704Y-103.838
T6
X52.07Y-85.852
X52.07Y-89.662
X52.07Y-93.472
X56.896Y-85.852
X56.896Y-89.662
X56.896Y-93.472
T0
M30
