M48
;DRILL file {KiCad 4.0.7} date 04/23/20 09:41:12
;FORMAT={-:-/ absolute / metric / decimal}
FMAT,2
METRIC,TZ
T1C0.400
T2C1.000
%
G90
G05
M71
T1
X66.4Y-98.6
X66.6Y-97.6
X66.7Y-100.3
X67.4Y-96.9
X67.8Y-100.6
X68.4Y-84.8
X68.55Y-87.45
X68.55Y-94.95
X68.9Y-83.7
X69.3Y-81.7
X69.3Y-100.6
X71.Y-81.45
X71.Y-100.6
X72.7Y-100.6
X73.125Y-81.4
X73.8Y-100.5
X74.625Y-100.35
X76.085Y-81.375
X76.1Y-100.5
X78.4Y-100.375
X78.51Y-81.475
X79.55Y-88.575
X79.85Y-100.4
X80.95Y-82.225
X81.125Y-89.675
X81.6Y-100.35
X82.075Y-89.625
X83.075Y-100.45
X83.312Y-85.852
X83.312Y-87.122
X83.55Y-82.2
X84.4Y-100.45
X85.498Y-81.65
X85.598Y-87.122
X86.025Y-100.5
X87.5Y-81.5
X87.5Y-100.475
X89.2Y-100.5
X90.125Y-81.45
X90.725Y-100.5
X91.68Y-82.31
X92.225Y-100.5
X92.9Y-81.4
X92.964Y-87.884
X93.675Y-100.425
X94.234Y-87.122
X94.44Y-81.43
X95.375Y-100.45
X95.758Y-88.138
X96.4Y-100.4
X97.Y-81.5
X97.028Y-86.36
X97.43Y-100.45
X98.6Y-100.5
X98.8Y-81.5
X98.806Y-87.376
X99.314Y-85.598
X100.1Y-100.5
X100.24Y-97.2
X100.45Y-81.5
X101.41Y-98.65
X101.7Y-100.6
X101.854Y-87.122
X101.854Y-87.884
X101.854Y-88.9
X102.3Y-81.4
X102.77Y-97.09
X103.Y-100.6
X104.Y-82.525
X105.99Y-82.44
T2
X74.168Y-85.09
X74.168Y-88.646
X77.7Y-85.075
X77.725Y-88.7
X80.675Y-98.3
X83.5Y-98.4
X111.35Y-86.2
X111.4Y-92.8
T0
M30
