G04 #@! TF.FileFunction,Legend,Top*
%FSLAX46Y46*%
G04 Gerber Fmt 4.6, Leading zero omitted, Abs format (unit mm)*
G04 Created by KiCad (PCBNEW 4.0.7) date 04/19/20 23:04:16*
%MOMM*%
%LPD*%
G01*
G04 APERTURE LIST*
%ADD10C,0.100000*%
%ADD11C,0.120000*%
%ADD12C,0.300000*%
%ADD13C,0.150000*%
%ADD14C,0.200000*%
G04 APERTURE END LIST*
D10*
D11*
X81416000Y-95088000D02*
X81416000Y-93888000D01*
X83176000Y-93888000D02*
X83176000Y-95088000D01*
X95760000Y-89606000D02*
X95760000Y-90536000D01*
X95760000Y-92766000D02*
X95760000Y-91836000D01*
X95760000Y-92766000D02*
X97920000Y-92766000D01*
X95760000Y-89606000D02*
X97220000Y-89606000D01*
X107525000Y-88925000D02*
X106525000Y-88925000D01*
X106525000Y-90625000D02*
X107525000Y-90625000D01*
X101846000Y-93638000D02*
X100846000Y-93638000D01*
X100846000Y-95338000D02*
X101846000Y-95338000D01*
X91178000Y-94146000D02*
X90178000Y-94146000D01*
X90178000Y-95846000D02*
X91178000Y-95846000D01*
X76446000Y-90336000D02*
X75446000Y-90336000D01*
X75446000Y-92036000D02*
X76446000Y-92036000D01*
X76446000Y-96940000D02*
X75446000Y-96940000D01*
X75446000Y-98640000D02*
X76446000Y-98640000D01*
X87130000Y-88734000D02*
X88130000Y-88734000D01*
X88130000Y-87034000D02*
X87130000Y-87034000D01*
X109640000Y-90546000D02*
X111340000Y-90546000D01*
X111340000Y-90546000D02*
X111340000Y-87396000D01*
X109640000Y-90546000D02*
X109640000Y-87396000D01*
X109640000Y-95372000D02*
X111340000Y-95372000D01*
X111340000Y-95372000D02*
X111340000Y-92222000D01*
X109640000Y-95372000D02*
X109640000Y-92222000D01*
X77846000Y-96608000D02*
X77846000Y-94908000D01*
X77846000Y-94908000D02*
X74696000Y-94908000D01*
X77846000Y-96608000D02*
X74696000Y-96608000D01*
X100840000Y-89606000D02*
X100840000Y-90536000D01*
X100840000Y-92766000D02*
X100840000Y-91836000D01*
X100840000Y-92766000D02*
X103000000Y-92766000D01*
X100840000Y-89606000D02*
X102300000Y-89606000D01*
X84838000Y-90622000D02*
X84838000Y-91552000D01*
X84838000Y-93782000D02*
X84838000Y-92852000D01*
X84838000Y-93782000D02*
X86998000Y-93782000D01*
X84838000Y-90622000D02*
X86298000Y-90622000D01*
X106425000Y-91395000D02*
X107625000Y-91395000D01*
X107625000Y-93155000D02*
X106425000Y-93155000D01*
X107534000Y-95368000D02*
X106334000Y-95368000D01*
X106334000Y-93608000D02*
X107534000Y-93608000D01*
X107675000Y-88555000D02*
X106475000Y-88555000D01*
X106475000Y-86795000D02*
X107675000Y-86795000D01*
X96090000Y-95350000D02*
X94890000Y-95350000D01*
X94890000Y-93590000D02*
X96090000Y-93590000D01*
X99170000Y-97420000D02*
X97970000Y-97420000D01*
X97970000Y-95660000D02*
X99170000Y-95660000D01*
X91576000Y-90008000D02*
X91576000Y-88808000D01*
X93336000Y-88808000D02*
X93336000Y-90008000D01*
X87766000Y-92294000D02*
X87766000Y-91094000D01*
X89526000Y-91094000D02*
X89526000Y-92294000D01*
X85252000Y-94370000D02*
X86452000Y-94370000D01*
X86452000Y-96130000D02*
X85252000Y-96130000D01*
X76546000Y-94098000D02*
X75346000Y-94098000D01*
X75346000Y-92338000D02*
X76546000Y-92338000D01*
X94072000Y-85970000D02*
X92872000Y-85970000D01*
X92872000Y-84210000D02*
X94072000Y-84210000D01*
X87138000Y-84340000D02*
X90338000Y-84340000D01*
X90338000Y-85840000D02*
X87138000Y-85840000D01*
X90338000Y-85840000D02*
X90338000Y-84340000D01*
X80816000Y-86376000D02*
X80816000Y-88376000D01*
X83776000Y-88376000D02*
X83776000Y-86376000D01*
X101675000Y-88775000D02*
X102675000Y-88775000D01*
X102675000Y-87075000D02*
X101675000Y-87075000D01*
X96512000Y-87034000D02*
X95512000Y-87034000D01*
X95512000Y-88734000D02*
X96512000Y-88734000D01*
X78652000Y-93988000D02*
X78652000Y-94988000D01*
X80352000Y-94988000D02*
X80352000Y-93988000D01*
D12*
X58420000Y-99094000D02*
X72120000Y-99094000D01*
X72120000Y-84294000D02*
X58420000Y-84294000D01*
X72120000Y-84294000D02*
X72120000Y-99094000D01*
X58420000Y-84294000D02*
X58420000Y-99094000D01*
D13*
X81653143Y-91892381D02*
X81319809Y-91416190D01*
X81081714Y-91892381D02*
X81081714Y-90892381D01*
X81462667Y-90892381D01*
X81557905Y-90940000D01*
X81605524Y-90987619D01*
X81653143Y-91082857D01*
X81653143Y-91225714D01*
X81605524Y-91320952D01*
X81557905Y-91368571D01*
X81462667Y-91416190D01*
X81081714Y-91416190D01*
X82605524Y-91892381D02*
X82034095Y-91892381D01*
X82319809Y-91892381D02*
X82319809Y-90892381D01*
X82224571Y-91035238D01*
X82129333Y-91130476D01*
X82034095Y-91178095D01*
X83224571Y-90892381D02*
X83319810Y-90892381D01*
X83415048Y-90940000D01*
X83462667Y-90987619D01*
X83510286Y-91082857D01*
X83557905Y-91273333D01*
X83557905Y-91511429D01*
X83510286Y-91701905D01*
X83462667Y-91797143D01*
X83415048Y-91844762D01*
X83319810Y-91892381D01*
X83224571Y-91892381D01*
X83129333Y-91844762D01*
X83081714Y-91797143D01*
X83034095Y-91701905D01*
X82986476Y-91511429D01*
X82986476Y-91273333D01*
X83034095Y-91082857D01*
X83081714Y-90987619D01*
X83129333Y-90940000D01*
X83224571Y-90892381D01*
X94392762Y-90463619D02*
X94297524Y-90416000D01*
X94202286Y-90320762D01*
X94059429Y-90177905D01*
X93964190Y-90130286D01*
X93868952Y-90130286D01*
X93916571Y-90368381D02*
X93821333Y-90320762D01*
X93726095Y-90225524D01*
X93678476Y-90035048D01*
X93678476Y-89701714D01*
X93726095Y-89511238D01*
X93821333Y-89416000D01*
X93916571Y-89368381D01*
X94107048Y-89368381D01*
X94202286Y-89416000D01*
X94297524Y-89511238D01*
X94345143Y-89701714D01*
X94345143Y-90035048D01*
X94297524Y-90225524D01*
X94202286Y-90320762D01*
X94107048Y-90368381D01*
X93916571Y-90368381D01*
X94726095Y-89463619D02*
X94773714Y-89416000D01*
X94868952Y-89368381D01*
X95107048Y-89368381D01*
X95202286Y-89416000D01*
X95249905Y-89463619D01*
X95297524Y-89558857D01*
X95297524Y-89654095D01*
X95249905Y-89796952D01*
X94678476Y-90368381D01*
X95297524Y-90368381D01*
X104497143Y-89828666D02*
X104544762Y-89876285D01*
X104592381Y-90019142D01*
X104592381Y-90114380D01*
X104544762Y-90257238D01*
X104449524Y-90352476D01*
X104354286Y-90400095D01*
X104163810Y-90447714D01*
X104020952Y-90447714D01*
X103830476Y-90400095D01*
X103735238Y-90352476D01*
X103640000Y-90257238D01*
X103592381Y-90114380D01*
X103592381Y-90019142D01*
X103640000Y-89876285D01*
X103687619Y-89828666D01*
X104592381Y-88876285D02*
X104592381Y-89447714D01*
X104592381Y-89162000D02*
X103592381Y-89162000D01*
X103735238Y-89257238D01*
X103830476Y-89352476D01*
X103878095Y-89447714D01*
X98909143Y-94654666D02*
X98956762Y-94702285D01*
X99004381Y-94845142D01*
X99004381Y-94940380D01*
X98956762Y-95083238D01*
X98861524Y-95178476D01*
X98766286Y-95226095D01*
X98575810Y-95273714D01*
X98432952Y-95273714D01*
X98242476Y-95226095D01*
X98147238Y-95178476D01*
X98052000Y-95083238D01*
X98004381Y-94940380D01*
X98004381Y-94845142D01*
X98052000Y-94702285D01*
X98099619Y-94654666D01*
X98004381Y-94321333D02*
X98004381Y-93702285D01*
X98385333Y-94035619D01*
X98385333Y-93892761D01*
X98432952Y-93797523D01*
X98480571Y-93749904D01*
X98575810Y-93702285D01*
X98813905Y-93702285D01*
X98909143Y-93749904D01*
X98956762Y-93797523D01*
X99004381Y-93892761D01*
X99004381Y-94178476D01*
X98956762Y-94273714D01*
X98909143Y-94321333D01*
X90511334Y-93575143D02*
X90463715Y-93622762D01*
X90320858Y-93670381D01*
X90225620Y-93670381D01*
X90082762Y-93622762D01*
X89987524Y-93527524D01*
X89939905Y-93432286D01*
X89892286Y-93241810D01*
X89892286Y-93098952D01*
X89939905Y-92908476D01*
X89987524Y-92813238D01*
X90082762Y-92718000D01*
X90225620Y-92670381D01*
X90320858Y-92670381D01*
X90463715Y-92718000D01*
X90511334Y-92765619D01*
X91416096Y-92670381D02*
X90939905Y-92670381D01*
X90892286Y-93146571D01*
X90939905Y-93098952D01*
X91035143Y-93051333D01*
X91273239Y-93051333D01*
X91368477Y-93098952D01*
X91416096Y-93146571D01*
X91463715Y-93241810D01*
X91463715Y-93479905D01*
X91416096Y-93575143D01*
X91368477Y-93622762D01*
X91273239Y-93670381D01*
X91035143Y-93670381D01*
X90939905Y-93622762D01*
X90892286Y-93575143D01*
X73255143Y-91352666D02*
X73302762Y-91400285D01*
X73350381Y-91543142D01*
X73350381Y-91638380D01*
X73302762Y-91781238D01*
X73207524Y-91876476D01*
X73112286Y-91924095D01*
X72921810Y-91971714D01*
X72778952Y-91971714D01*
X72588476Y-91924095D01*
X72493238Y-91876476D01*
X72398000Y-91781238D01*
X72350381Y-91638380D01*
X72350381Y-91543142D01*
X72398000Y-91400285D01*
X72445619Y-91352666D01*
X72350381Y-90495523D02*
X72350381Y-90686000D01*
X72398000Y-90781238D01*
X72445619Y-90828857D01*
X72588476Y-90924095D01*
X72778952Y-90971714D01*
X73159905Y-90971714D01*
X73255143Y-90924095D01*
X73302762Y-90876476D01*
X73350381Y-90781238D01*
X73350381Y-90590761D01*
X73302762Y-90495523D01*
X73255143Y-90447904D01*
X73159905Y-90400285D01*
X72921810Y-90400285D01*
X72826571Y-90447904D01*
X72778952Y-90495523D01*
X72731333Y-90590761D01*
X72731333Y-90781238D01*
X72778952Y-90876476D01*
X72826571Y-90924095D01*
X72921810Y-90971714D01*
X73255143Y-97702666D02*
X73302762Y-97750285D01*
X73350381Y-97893142D01*
X73350381Y-97988380D01*
X73302762Y-98131238D01*
X73207524Y-98226476D01*
X73112286Y-98274095D01*
X72921810Y-98321714D01*
X72778952Y-98321714D01*
X72588476Y-98274095D01*
X72493238Y-98226476D01*
X72398000Y-98131238D01*
X72350381Y-97988380D01*
X72350381Y-97893142D01*
X72398000Y-97750285D01*
X72445619Y-97702666D01*
X72778952Y-97131238D02*
X72731333Y-97226476D01*
X72683714Y-97274095D01*
X72588476Y-97321714D01*
X72540857Y-97321714D01*
X72445619Y-97274095D01*
X72398000Y-97226476D01*
X72350381Y-97131238D01*
X72350381Y-96940761D01*
X72398000Y-96845523D01*
X72445619Y-96797904D01*
X72540857Y-96750285D01*
X72588476Y-96750285D01*
X72683714Y-96797904D01*
X72731333Y-96845523D01*
X72778952Y-96940761D01*
X72778952Y-97131238D01*
X72826571Y-97226476D01*
X72874190Y-97274095D01*
X72969429Y-97321714D01*
X73159905Y-97321714D01*
X73255143Y-97274095D01*
X73302762Y-97226476D01*
X73350381Y-97131238D01*
X73350381Y-96940761D01*
X73302762Y-96845523D01*
X73255143Y-96797904D01*
X73159905Y-96750285D01*
X72969429Y-96750285D01*
X72874190Y-96797904D01*
X72826571Y-96845523D01*
X72778952Y-96940761D01*
X85193143Y-88050666D02*
X85240762Y-88098285D01*
X85288381Y-88241142D01*
X85288381Y-88336380D01*
X85240762Y-88479238D01*
X85145524Y-88574476D01*
X85050286Y-88622095D01*
X84859810Y-88669714D01*
X84716952Y-88669714D01*
X84526476Y-88622095D01*
X84431238Y-88574476D01*
X84336000Y-88479238D01*
X84288381Y-88336380D01*
X84288381Y-88241142D01*
X84336000Y-88098285D01*
X84383619Y-88050666D01*
X85288381Y-87574476D02*
X85288381Y-87384000D01*
X85240762Y-87288761D01*
X85193143Y-87241142D01*
X85050286Y-87145904D01*
X84859810Y-87098285D01*
X84478857Y-87098285D01*
X84383619Y-87145904D01*
X84336000Y-87193523D01*
X84288381Y-87288761D01*
X84288381Y-87479238D01*
X84336000Y-87574476D01*
X84383619Y-87622095D01*
X84478857Y-87669714D01*
X84716952Y-87669714D01*
X84812190Y-87622095D01*
X84859810Y-87574476D01*
X84907429Y-87479238D01*
X84907429Y-87288761D01*
X84859810Y-87193523D01*
X84812190Y-87145904D01*
X84716952Y-87098285D01*
X110005905Y-91638381D02*
X110005905Y-90638381D01*
X110244000Y-90638381D01*
X110386858Y-90686000D01*
X110482096Y-90781238D01*
X110529715Y-90876476D01*
X110577334Y-91066952D01*
X110577334Y-91209810D01*
X110529715Y-91400286D01*
X110482096Y-91495524D01*
X110386858Y-91590762D01*
X110244000Y-91638381D01*
X110005905Y-91638381D01*
X111529715Y-91638381D02*
X110958286Y-91638381D01*
X111244000Y-91638381D02*
X111244000Y-90638381D01*
X111148762Y-90781238D01*
X111053524Y-90876476D01*
X110958286Y-90924095D01*
X109751905Y-96718381D02*
X109751905Y-95718381D01*
X109990000Y-95718381D01*
X110132858Y-95766000D01*
X110228096Y-95861238D01*
X110275715Y-95956476D01*
X110323334Y-96146952D01*
X110323334Y-96289810D01*
X110275715Y-96480286D01*
X110228096Y-96575524D01*
X110132858Y-96670762D01*
X109990000Y-96718381D01*
X109751905Y-96718381D01*
X110704286Y-95813619D02*
X110751905Y-95766000D01*
X110847143Y-95718381D01*
X111085239Y-95718381D01*
X111180477Y-95766000D01*
X111228096Y-95813619D01*
X111275715Y-95908857D01*
X111275715Y-96004095D01*
X111228096Y-96146952D01*
X110656667Y-96718381D01*
X111275715Y-96718381D01*
X73350381Y-96496095D02*
X72350381Y-96496095D01*
X72350381Y-96258000D01*
X72398000Y-96115142D01*
X72493238Y-96019904D01*
X72588476Y-95972285D01*
X72778952Y-95924666D01*
X72921810Y-95924666D01*
X73112286Y-95972285D01*
X73207524Y-96019904D01*
X73302762Y-96115142D01*
X73350381Y-96258000D01*
X73350381Y-96496095D01*
X72350381Y-95019904D02*
X72350381Y-95496095D01*
X72826571Y-95543714D01*
X72778952Y-95496095D01*
X72731333Y-95400857D01*
X72731333Y-95162761D01*
X72778952Y-95067523D01*
X72826571Y-95019904D01*
X72921810Y-94972285D01*
X73159905Y-94972285D01*
X73255143Y-95019904D01*
X73302762Y-95067523D01*
X73350381Y-95162761D01*
X73350381Y-95400857D01*
X73302762Y-95496095D01*
X73255143Y-95543714D01*
X99629762Y-90433619D02*
X99534524Y-90386000D01*
X99439286Y-90290762D01*
X99296429Y-90147905D01*
X99201190Y-90100286D01*
X99105952Y-90100286D01*
X99153571Y-90338381D02*
X99058333Y-90290762D01*
X98963095Y-90195524D01*
X98915476Y-90005048D01*
X98915476Y-89671714D01*
X98963095Y-89481238D01*
X99058333Y-89386000D01*
X99153571Y-89338381D01*
X99344048Y-89338381D01*
X99439286Y-89386000D01*
X99534524Y-89481238D01*
X99582143Y-89671714D01*
X99582143Y-90005048D01*
X99534524Y-90195524D01*
X99439286Y-90290762D01*
X99344048Y-90338381D01*
X99153571Y-90338381D01*
X100534524Y-90338381D02*
X99963095Y-90338381D01*
X100248809Y-90338381D02*
X100248809Y-89338381D01*
X100153571Y-89481238D01*
X100058333Y-89576476D01*
X99963095Y-89624095D01*
X85248762Y-90463619D02*
X85153524Y-90416000D01*
X85058286Y-90320762D01*
X84915429Y-90177905D01*
X84820190Y-90130286D01*
X84724952Y-90130286D01*
X84772571Y-90368381D02*
X84677333Y-90320762D01*
X84582095Y-90225524D01*
X84534476Y-90035048D01*
X84534476Y-89701714D01*
X84582095Y-89511238D01*
X84677333Y-89416000D01*
X84772571Y-89368381D01*
X84963048Y-89368381D01*
X85058286Y-89416000D01*
X85153524Y-89511238D01*
X85201143Y-89701714D01*
X85201143Y-90035048D01*
X85153524Y-90225524D01*
X85058286Y-90320762D01*
X84963048Y-90368381D01*
X84772571Y-90368381D01*
X85534476Y-89368381D02*
X86153524Y-89368381D01*
X85820190Y-89749333D01*
X85963048Y-89749333D01*
X86058286Y-89796952D01*
X86105905Y-89844571D01*
X86153524Y-89939810D01*
X86153524Y-90177905D01*
X86105905Y-90273143D01*
X86058286Y-90320762D01*
X85963048Y-90368381D01*
X85677333Y-90368381D01*
X85582095Y-90320762D01*
X85534476Y-90273143D01*
X104352381Y-92341666D02*
X103876190Y-92675000D01*
X104352381Y-92913095D02*
X103352381Y-92913095D01*
X103352381Y-92532142D01*
X103400000Y-92436904D01*
X103447619Y-92389285D01*
X103542857Y-92341666D01*
X103685714Y-92341666D01*
X103780952Y-92389285D01*
X103828571Y-92436904D01*
X103876190Y-92532142D01*
X103876190Y-92913095D01*
X104352381Y-91389285D02*
X104352381Y-91960714D01*
X104352381Y-91675000D02*
X103352381Y-91675000D01*
X103495238Y-91770238D01*
X103590476Y-91865476D01*
X103638095Y-91960714D01*
X106513334Y-96718381D02*
X106180000Y-96242190D01*
X105941905Y-96718381D02*
X105941905Y-95718381D01*
X106322858Y-95718381D01*
X106418096Y-95766000D01*
X106465715Y-95813619D01*
X106513334Y-95908857D01*
X106513334Y-96051714D01*
X106465715Y-96146952D01*
X106418096Y-96194571D01*
X106322858Y-96242190D01*
X105941905Y-96242190D01*
X106894286Y-95813619D02*
X106941905Y-95766000D01*
X107037143Y-95718381D01*
X107275239Y-95718381D01*
X107370477Y-95766000D01*
X107418096Y-95813619D01*
X107465715Y-95908857D01*
X107465715Y-96004095D01*
X107418096Y-96146952D01*
X106846667Y-96718381D01*
X107465715Y-96718381D01*
X107021334Y-86812381D02*
X106688000Y-86336190D01*
X106449905Y-86812381D02*
X106449905Y-85812381D01*
X106830858Y-85812381D01*
X106926096Y-85860000D01*
X106973715Y-85907619D01*
X107021334Y-86002857D01*
X107021334Y-86145714D01*
X106973715Y-86240952D01*
X106926096Y-86288571D01*
X106830858Y-86336190D01*
X106449905Y-86336190D01*
X107354667Y-85812381D02*
X107973715Y-85812381D01*
X107640381Y-86193333D01*
X107783239Y-86193333D01*
X107878477Y-86240952D01*
X107926096Y-86288571D01*
X107973715Y-86383810D01*
X107973715Y-86621905D01*
X107926096Y-86717143D01*
X107878477Y-86764762D01*
X107783239Y-86812381D01*
X107497524Y-86812381D01*
X107402286Y-86764762D01*
X107354667Y-86717143D01*
X94575334Y-93416381D02*
X94242000Y-92940190D01*
X94003905Y-93416381D02*
X94003905Y-92416381D01*
X94384858Y-92416381D01*
X94480096Y-92464000D01*
X94527715Y-92511619D01*
X94575334Y-92606857D01*
X94575334Y-92749714D01*
X94527715Y-92844952D01*
X94480096Y-92892571D01*
X94384858Y-92940190D01*
X94003905Y-92940190D01*
X95432477Y-92749714D02*
X95432477Y-93416381D01*
X95194381Y-92368762D02*
X94956286Y-93083048D01*
X95575334Y-93083048D01*
X102342381Y-96646666D02*
X101866190Y-96980000D01*
X102342381Y-97218095D02*
X101342381Y-97218095D01*
X101342381Y-96837142D01*
X101390000Y-96741904D01*
X101437619Y-96694285D01*
X101532857Y-96646666D01*
X101675714Y-96646666D01*
X101770952Y-96694285D01*
X101818571Y-96741904D01*
X101866190Y-96837142D01*
X101866190Y-97218095D01*
X101342381Y-95741904D02*
X101342381Y-96218095D01*
X101818571Y-96265714D01*
X101770952Y-96218095D01*
X101723333Y-96122857D01*
X101723333Y-95884761D01*
X101770952Y-95789523D01*
X101818571Y-95741904D01*
X101913810Y-95694285D01*
X102151905Y-95694285D01*
X102247143Y-95741904D01*
X102294762Y-95789523D01*
X102342381Y-95884761D01*
X102342381Y-96122857D01*
X102294762Y-96218095D01*
X102247143Y-96265714D01*
X92289334Y-86812381D02*
X91956000Y-86336190D01*
X91717905Y-86812381D02*
X91717905Y-85812381D01*
X92098858Y-85812381D01*
X92194096Y-85860000D01*
X92241715Y-85907619D01*
X92289334Y-86002857D01*
X92289334Y-86145714D01*
X92241715Y-86240952D01*
X92194096Y-86288571D01*
X92098858Y-86336190D01*
X91717905Y-86336190D01*
X93146477Y-85812381D02*
X92956000Y-85812381D01*
X92860762Y-85860000D01*
X92813143Y-85907619D01*
X92717905Y-86050476D01*
X92670286Y-86240952D01*
X92670286Y-86621905D01*
X92717905Y-86717143D01*
X92765524Y-86764762D01*
X92860762Y-86812381D01*
X93051239Y-86812381D01*
X93146477Y-86764762D01*
X93194096Y-86717143D01*
X93241715Y-86621905D01*
X93241715Y-86383810D01*
X93194096Y-86288571D01*
X93146477Y-86240952D01*
X93051239Y-86193333D01*
X92860762Y-86193333D01*
X92765524Y-86240952D01*
X92717905Y-86288571D01*
X92670286Y-86383810D01*
X90876381Y-91352666D02*
X90400190Y-91686000D01*
X90876381Y-91924095D02*
X89876381Y-91924095D01*
X89876381Y-91543142D01*
X89924000Y-91447904D01*
X89971619Y-91400285D01*
X90066857Y-91352666D01*
X90209714Y-91352666D01*
X90304952Y-91400285D01*
X90352571Y-91447904D01*
X90400190Y-91543142D01*
X90400190Y-91924095D01*
X89876381Y-91019333D02*
X89876381Y-90352666D01*
X90876381Y-90781238D01*
X87209334Y-97226381D02*
X86876000Y-96750190D01*
X86637905Y-97226381D02*
X86637905Y-96226381D01*
X87018858Y-96226381D01*
X87114096Y-96274000D01*
X87161715Y-96321619D01*
X87209334Y-96416857D01*
X87209334Y-96559714D01*
X87161715Y-96654952D01*
X87114096Y-96702571D01*
X87018858Y-96750190D01*
X86637905Y-96750190D01*
X87780762Y-96654952D02*
X87685524Y-96607333D01*
X87637905Y-96559714D01*
X87590286Y-96464476D01*
X87590286Y-96416857D01*
X87637905Y-96321619D01*
X87685524Y-96274000D01*
X87780762Y-96226381D01*
X87971239Y-96226381D01*
X88066477Y-96274000D01*
X88114096Y-96321619D01*
X88161715Y-96416857D01*
X88161715Y-96464476D01*
X88114096Y-96559714D01*
X88066477Y-96607333D01*
X87971239Y-96654952D01*
X87780762Y-96654952D01*
X87685524Y-96702571D01*
X87637905Y-96750190D01*
X87590286Y-96845429D01*
X87590286Y-97035905D01*
X87637905Y-97131143D01*
X87685524Y-97178762D01*
X87780762Y-97226381D01*
X87971239Y-97226381D01*
X88066477Y-97178762D01*
X88114096Y-97131143D01*
X88161715Y-97035905D01*
X88161715Y-96845429D01*
X88114096Y-96750190D01*
X88066477Y-96702571D01*
X87971239Y-96654952D01*
X73350381Y-93384666D02*
X72874190Y-93718000D01*
X73350381Y-93956095D02*
X72350381Y-93956095D01*
X72350381Y-93575142D01*
X72398000Y-93479904D01*
X72445619Y-93432285D01*
X72540857Y-93384666D01*
X72683714Y-93384666D01*
X72778952Y-93432285D01*
X72826571Y-93479904D01*
X72874190Y-93575142D01*
X72874190Y-93956095D01*
X73350381Y-92908476D02*
X73350381Y-92718000D01*
X73302762Y-92622761D01*
X73255143Y-92575142D01*
X73112286Y-92479904D01*
X72921810Y-92432285D01*
X72540857Y-92432285D01*
X72445619Y-92479904D01*
X72398000Y-92527523D01*
X72350381Y-92622761D01*
X72350381Y-92813238D01*
X72398000Y-92908476D01*
X72445619Y-92956095D01*
X72540857Y-93003714D01*
X72778952Y-93003714D01*
X72874190Y-92956095D01*
X72921810Y-92908476D01*
X72969429Y-92813238D01*
X72969429Y-92622761D01*
X72921810Y-92527523D01*
X72874190Y-92479904D01*
X72778952Y-92432285D01*
X96639143Y-85542381D02*
X96305809Y-85066190D01*
X96067714Y-85542381D02*
X96067714Y-84542381D01*
X96448667Y-84542381D01*
X96543905Y-84590000D01*
X96591524Y-84637619D01*
X96639143Y-84732857D01*
X96639143Y-84875714D01*
X96591524Y-84970952D01*
X96543905Y-85018571D01*
X96448667Y-85066190D01*
X96067714Y-85066190D01*
X97591524Y-85542381D02*
X97020095Y-85542381D01*
X97305809Y-85542381D02*
X97305809Y-84542381D01*
X97210571Y-84685238D01*
X97115333Y-84780476D01*
X97020095Y-84828095D01*
X98448667Y-84875714D02*
X98448667Y-85542381D01*
X98210571Y-84494762D02*
X97972476Y-85209048D01*
X98591524Y-85209048D01*
X85542381Y-85828095D02*
X84542381Y-85828095D01*
X84542381Y-85590000D01*
X84590000Y-85447142D01*
X84685238Y-85351904D01*
X84780476Y-85304285D01*
X84970952Y-85256666D01*
X85113810Y-85256666D01*
X85304286Y-85304285D01*
X85399524Y-85351904D01*
X85494762Y-85447142D01*
X85542381Y-85590000D01*
X85542381Y-85828095D01*
X84542381Y-84399523D02*
X84542381Y-84590000D01*
X84590000Y-84685238D01*
X84637619Y-84732857D01*
X84780476Y-84828095D01*
X84970952Y-84875714D01*
X85351905Y-84875714D01*
X85447143Y-84828095D01*
X85494762Y-84780476D01*
X85542381Y-84685238D01*
X85542381Y-84494761D01*
X85494762Y-84399523D01*
X85447143Y-84351904D01*
X85351905Y-84304285D01*
X85113810Y-84304285D01*
X85018571Y-84351904D01*
X84970952Y-84399523D01*
X84923333Y-84494761D01*
X84923333Y-84685238D01*
X84970952Y-84780476D01*
X85018571Y-84828095D01*
X85113810Y-84875714D01*
X81633143Y-87713143D02*
X81585524Y-87760762D01*
X81442667Y-87808381D01*
X81347429Y-87808381D01*
X81204571Y-87760762D01*
X81109333Y-87665524D01*
X81061714Y-87570286D01*
X81014095Y-87379810D01*
X81014095Y-87236952D01*
X81061714Y-87046476D01*
X81109333Y-86951238D01*
X81204571Y-86856000D01*
X81347429Y-86808381D01*
X81442667Y-86808381D01*
X81585524Y-86856000D01*
X81633143Y-86903619D01*
X82585524Y-87808381D02*
X82014095Y-87808381D01*
X82299809Y-87808381D02*
X82299809Y-86808381D01*
X82204571Y-86951238D01*
X82109333Y-87046476D01*
X82014095Y-87094095D01*
X83442667Y-86808381D02*
X83252190Y-86808381D01*
X83156952Y-86856000D01*
X83109333Y-86903619D01*
X83014095Y-87046476D01*
X82966476Y-87236952D01*
X82966476Y-87617905D01*
X83014095Y-87713143D01*
X83061714Y-87760762D01*
X83156952Y-87808381D01*
X83347429Y-87808381D01*
X83442667Y-87760762D01*
X83490286Y-87713143D01*
X83537905Y-87617905D01*
X83537905Y-87379810D01*
X83490286Y-87284571D01*
X83442667Y-87236952D01*
X83347429Y-87189333D01*
X83156952Y-87189333D01*
X83061714Y-87236952D01*
X83014095Y-87284571D01*
X82966476Y-87379810D01*
X101933334Y-86732143D02*
X101885715Y-86779762D01*
X101742858Y-86827381D01*
X101647620Y-86827381D01*
X101504762Y-86779762D01*
X101409524Y-86684524D01*
X101361905Y-86589286D01*
X101314286Y-86398810D01*
X101314286Y-86255952D01*
X101361905Y-86065476D01*
X101409524Y-85970238D01*
X101504762Y-85875000D01*
X101647620Y-85827381D01*
X101742858Y-85827381D01*
X101885715Y-85875000D01*
X101933334Y-85922619D01*
X102314286Y-85922619D02*
X102361905Y-85875000D01*
X102457143Y-85827381D01*
X102695239Y-85827381D01*
X102790477Y-85875000D01*
X102838096Y-85922619D01*
X102885715Y-86017857D01*
X102885715Y-86113095D01*
X102838096Y-86255952D01*
X102266667Y-86827381D01*
X102885715Y-86827381D01*
X95845334Y-86491143D02*
X95797715Y-86538762D01*
X95654858Y-86586381D01*
X95559620Y-86586381D01*
X95416762Y-86538762D01*
X95321524Y-86443524D01*
X95273905Y-86348286D01*
X95226286Y-86157810D01*
X95226286Y-86014952D01*
X95273905Y-85824476D01*
X95321524Y-85729238D01*
X95416762Y-85634000D01*
X95559620Y-85586381D01*
X95654858Y-85586381D01*
X95797715Y-85634000D01*
X95845334Y-85681619D01*
X96702477Y-85919714D02*
X96702477Y-86586381D01*
X96464381Y-85538762D02*
X96226286Y-86253048D01*
X96845334Y-86253048D01*
X79335334Y-91797143D02*
X79287715Y-91844762D01*
X79144858Y-91892381D01*
X79049620Y-91892381D01*
X78906762Y-91844762D01*
X78811524Y-91749524D01*
X78763905Y-91654286D01*
X78716286Y-91463810D01*
X78716286Y-91320952D01*
X78763905Y-91130476D01*
X78811524Y-91035238D01*
X78906762Y-90940000D01*
X79049620Y-90892381D01*
X79144858Y-90892381D01*
X79287715Y-90940000D01*
X79335334Y-90987619D01*
X79668667Y-90892381D02*
X80335334Y-90892381D01*
X79906762Y-91892381D01*
D14*
X64984381Y-92503523D02*
X65698667Y-92503523D01*
X65841524Y-92551143D01*
X65936762Y-92646381D01*
X65984381Y-92789238D01*
X65984381Y-92884476D01*
X65079619Y-92074952D02*
X65032000Y-92027333D01*
X64984381Y-91932095D01*
X64984381Y-91693999D01*
X65032000Y-91598761D01*
X65079619Y-91551142D01*
X65174857Y-91503523D01*
X65270095Y-91503523D01*
X65412952Y-91551142D01*
X65984381Y-92122571D01*
X65984381Y-91503523D01*
X64984381Y-90598761D02*
X64984381Y-91074952D01*
X65460571Y-91122571D01*
X65412952Y-91074952D01*
X65365333Y-90979714D01*
X65365333Y-90741618D01*
X65412952Y-90646380D01*
X65460571Y-90598761D01*
X65555810Y-90551142D01*
X65793905Y-90551142D01*
X65889143Y-90598761D01*
X65936762Y-90646380D01*
X65984381Y-90741618D01*
X65984381Y-90979714D01*
X65936762Y-91074952D01*
X65889143Y-91122571D01*
X63857143Y-95884476D02*
X63904762Y-95932095D01*
X63952381Y-96074952D01*
X63952381Y-96170190D01*
X63904762Y-96313048D01*
X63809524Y-96408286D01*
X63714286Y-96455905D01*
X63523810Y-96503524D01*
X63380952Y-96503524D01*
X63190476Y-96455905D01*
X63095238Y-96408286D01*
X63000000Y-96313048D01*
X62952381Y-96170190D01*
X62952381Y-96074952D01*
X63000000Y-95932095D01*
X63047619Y-95884476D01*
X63952381Y-95313048D02*
X63904762Y-95408286D01*
X63857143Y-95455905D01*
X63761905Y-95503524D01*
X63476190Y-95503524D01*
X63380952Y-95455905D01*
X63333333Y-95408286D01*
X63285714Y-95313048D01*
X63285714Y-95170190D01*
X63333333Y-95074952D01*
X63380952Y-95027333D01*
X63476190Y-94979714D01*
X63761905Y-94979714D01*
X63857143Y-95027333D01*
X63904762Y-95074952D01*
X63952381Y-95170190D01*
X63952381Y-95313048D01*
X63285714Y-94551143D02*
X63952381Y-94551143D01*
X63380952Y-94551143D02*
X63333333Y-94503524D01*
X63285714Y-94408286D01*
X63285714Y-94265428D01*
X63333333Y-94170190D01*
X63428571Y-94122571D01*
X63952381Y-94122571D01*
X63285714Y-93646381D02*
X63952381Y-93646381D01*
X63380952Y-93646381D02*
X63333333Y-93598762D01*
X63285714Y-93503524D01*
X63285714Y-93360666D01*
X63333333Y-93265428D01*
X63428571Y-93217809D01*
X63952381Y-93217809D01*
X64047619Y-92979714D02*
X64047619Y-92217809D01*
X63857143Y-91408285D02*
X63904762Y-91455904D01*
X63952381Y-91598761D01*
X63952381Y-91693999D01*
X63904762Y-91836857D01*
X63809524Y-91932095D01*
X63714286Y-91979714D01*
X63523810Y-92027333D01*
X63380952Y-92027333D01*
X63190476Y-91979714D01*
X63095238Y-91932095D01*
X63000000Y-91836857D01*
X62952381Y-91693999D01*
X62952381Y-91598761D01*
X63000000Y-91455904D01*
X63047619Y-91408285D01*
X63952381Y-90836857D02*
X63904762Y-90932095D01*
X63857143Y-90979714D01*
X63761905Y-91027333D01*
X63476190Y-91027333D01*
X63380952Y-90979714D01*
X63333333Y-90932095D01*
X63285714Y-90836857D01*
X63285714Y-90693999D01*
X63333333Y-90598761D01*
X63380952Y-90551142D01*
X63476190Y-90503523D01*
X63761905Y-90503523D01*
X63857143Y-90551142D01*
X63904762Y-90598761D01*
X63952381Y-90693999D01*
X63952381Y-90836857D01*
X63952381Y-89646380D02*
X63428571Y-89646380D01*
X63333333Y-89693999D01*
X63285714Y-89789237D01*
X63285714Y-89979714D01*
X63333333Y-90074952D01*
X63904762Y-89646380D02*
X63952381Y-89741618D01*
X63952381Y-89979714D01*
X63904762Y-90074952D01*
X63809524Y-90122571D01*
X63714286Y-90122571D01*
X63619048Y-90074952D01*
X63571429Y-89979714D01*
X63571429Y-89741618D01*
X63523810Y-89646380D01*
X63952381Y-89265428D02*
X63285714Y-88741618D01*
X63285714Y-89265428D02*
X63952381Y-88741618D01*
X63952381Y-88360666D02*
X63285714Y-88360666D01*
X62952381Y-88360666D02*
X63000000Y-88408285D01*
X63047619Y-88360666D01*
X63000000Y-88313047D01*
X62952381Y-88360666D01*
X63047619Y-88360666D01*
X63952381Y-87455904D02*
X63428571Y-87455904D01*
X63333333Y-87503523D01*
X63285714Y-87598761D01*
X63285714Y-87789238D01*
X63333333Y-87884476D01*
X63904762Y-87455904D02*
X63952381Y-87551142D01*
X63952381Y-87789238D01*
X63904762Y-87884476D01*
X63809524Y-87932095D01*
X63714286Y-87932095D01*
X63619048Y-87884476D01*
X63571429Y-87789238D01*
X63571429Y-87551142D01*
X63523810Y-87455904D01*
X63952381Y-86836857D02*
X63904762Y-86932095D01*
X63809524Y-86979714D01*
X62952381Y-86979714D01*
M02*
