G04 #@! TF.FileFunction,Copper,L1,Top,Signal*
%FSLAX46Y46*%
G04 Gerber Fmt 4.6, Leading zero omitted, Abs format (unit mm)*
G04 Created by KiCad (PCBNEW 4.0.7) date 04/20/20 23:00:39*
%MOMM*%
%LPD*%
G01*
G04 APERTURE LIST*
%ADD10C,0.100000*%
%ADD11R,1.500000X1.300000*%
%ADD12R,1.500000X1.250000*%
%ADD13R,1.250000X1.500000*%
%ADD14R,1.000000X1.000000*%
%ADD15R,1.300000X1.500000*%
%ADD16R,2.500000X2.000000*%
%ADD17R,4.000000X2.000000*%
%ADD18R,2.000000X2.000000*%
%ADD19R,1.000000X2.500000*%
%ADD20R,2.000000X4.000000*%
%ADD21R,5.080000X2.500000*%
%ADD22R,5.080000X1.500000*%
%ADD23C,0.600000*%
%ADD24C,0.350000*%
%ADD25C,0.500000*%
G04 APERTURE END LIST*
D10*
D11*
X84450000Y-96200000D03*
X81750000Y-96200000D03*
D12*
X106954000Y-92710000D03*
X109454000Y-92710000D03*
X99900000Y-96600000D03*
X102400000Y-96600000D03*
D13*
X91948000Y-94254000D03*
X91948000Y-96754000D03*
D12*
X74696000Y-91186000D03*
X77196000Y-91186000D03*
X74696000Y-97790000D03*
X77196000Y-97790000D03*
D13*
X84600000Y-94100000D03*
X84600000Y-91600000D03*
D14*
X77196000Y-95758000D03*
X74696000Y-95758000D03*
D11*
X104330000Y-86340000D03*
X107030000Y-86340000D03*
X105800000Y-96550000D03*
X108500000Y-96550000D03*
X109150000Y-88200000D03*
X106450000Y-88200000D03*
X96150000Y-94775000D03*
X98850000Y-94775000D03*
D15*
X94325000Y-98150000D03*
X94325000Y-95450000D03*
X93750000Y-89600000D03*
X93750000Y-92300000D03*
X84700000Y-89375000D03*
X84700000Y-86675000D03*
D11*
X86750000Y-86525000D03*
X89450000Y-86525000D03*
X74596000Y-93218000D03*
X77296000Y-93218000D03*
X89582000Y-83820000D03*
X92282000Y-83820000D03*
X87202000Y-83820000D03*
X84502000Y-83820000D03*
D16*
X80875000Y-89150000D03*
X80875000Y-85150000D03*
D12*
X99700000Y-86525000D03*
X102200000Y-86525000D03*
X94675000Y-87575000D03*
X92175000Y-87575000D03*
D17*
X112720000Y-92750000D03*
X112500000Y-86230000D03*
D18*
X80675000Y-98300000D03*
X77725000Y-88700000D03*
X74168000Y-88646000D03*
X83500000Y-98400000D03*
X77700000Y-85075000D03*
X74168000Y-85090000D03*
D11*
X106346000Y-90170000D03*
X109046000Y-90170000D03*
D15*
X91948000Y-92282000D03*
X91948000Y-89582000D03*
D19*
X101075000Y-93655000D03*
X102575000Y-93655000D03*
X104075000Y-93655000D03*
D20*
X102575000Y-89695000D03*
D10*
G36*
X103575000Y-91670000D02*
X103075000Y-92420000D01*
X102075000Y-92420000D01*
X101575000Y-91670000D01*
X103575000Y-91670000D01*
X103575000Y-91670000D01*
G37*
D19*
X95650000Y-92205000D03*
X97150000Y-92205000D03*
X98650000Y-92205000D03*
D20*
X97150000Y-88245000D03*
D10*
G36*
X98150000Y-90220000D02*
X97650000Y-90970000D01*
X96650000Y-90970000D01*
X96150000Y-90220000D01*
X98150000Y-90220000D01*
X98150000Y-90220000D01*
G37*
D19*
X86600000Y-94180000D03*
X88100000Y-94180000D03*
X89600000Y-94180000D03*
D20*
X88100000Y-90220000D03*
D10*
G36*
X89100000Y-92195000D02*
X88600000Y-92945000D01*
X87600000Y-92945000D01*
X87100000Y-92195000D01*
X89100000Y-92195000D01*
X89100000Y-92195000D01*
G37*
D21*
X68550000Y-87450000D03*
X68550000Y-94950000D03*
D22*
X68550000Y-91200000D03*
D11*
X68950000Y-98700000D03*
X71650000Y-98700000D03*
D23*
X107225000Y-96775000D03*
X105500000Y-97800000D03*
X105200000Y-98600000D03*
X105200000Y-99900000D03*
X104500000Y-100500000D03*
X103000000Y-100600000D03*
X101700000Y-100600000D03*
X100100000Y-100500000D03*
X98600000Y-100500000D03*
X97000000Y-100300000D03*
X96500000Y-99800000D03*
X73815000Y-82600000D03*
X75960000Y-82650000D03*
X78410000Y-82650000D03*
X80010000Y-82550000D03*
X83312000Y-82550000D03*
X85598000Y-82550000D03*
X87750000Y-82570000D03*
X89825000Y-82550000D03*
X91300000Y-82525000D03*
X68400000Y-84800000D03*
X68900000Y-83700000D03*
X70000000Y-82900000D03*
X71400000Y-82800000D03*
X68550000Y-87450000D03*
X67400000Y-96900000D03*
X66600000Y-97600000D03*
X66400000Y-98600000D03*
X66700000Y-100300000D03*
X67800000Y-100600000D03*
X69300000Y-100600000D03*
X71000000Y-100600000D03*
X72700000Y-100600000D03*
X73800000Y-100500000D03*
X68550000Y-94950000D03*
X80500000Y-95000000D03*
X81600000Y-95100000D03*
X91825000Y-85775000D03*
X93325000Y-86550000D03*
X81650000Y-90625000D03*
X80500000Y-90600000D03*
X83450000Y-93150000D03*
X83300000Y-94450000D03*
X96525000Y-82650000D03*
X96960000Y-84630000D03*
X92830000Y-82650000D03*
X94140000Y-82630000D03*
X100450000Y-87575000D03*
X99975000Y-93250000D03*
X100025000Y-92325000D03*
X100025000Y-90800000D03*
X99700000Y-89700000D03*
X99800000Y-88225000D03*
X99050000Y-87800000D03*
X107425000Y-95375000D03*
X108625000Y-95300000D03*
X104500000Y-87500000D03*
X105990000Y-82440000D03*
X104000000Y-82525000D03*
X102200000Y-82500000D03*
X100350000Y-82600000D03*
X98550000Y-82625000D03*
X76350000Y-99850000D03*
X74325000Y-99850000D03*
X76575000Y-99850000D03*
X79750000Y-100000000D03*
X78000000Y-99875000D03*
X81500000Y-99950000D03*
X83075000Y-99950000D03*
X85925000Y-100100000D03*
X84400000Y-99950000D03*
X87400000Y-100075000D03*
X88850000Y-100075000D03*
X90525000Y-100000000D03*
X92025000Y-100000000D03*
X93475000Y-99925000D03*
X95175000Y-99950000D03*
D24*
X107450000Y-96550000D02*
X107225000Y-96775000D01*
X107450000Y-96550000D02*
X108500000Y-96550000D01*
X107225000Y-97175000D02*
X107225000Y-96775000D01*
X106800000Y-97600000D02*
X107225000Y-97175000D01*
X105700000Y-97600000D02*
X106800000Y-97600000D01*
X105500000Y-97800000D02*
X105700000Y-97600000D01*
X105200000Y-99900000D02*
X105200000Y-98600000D01*
X103100000Y-100500000D02*
X104500000Y-100500000D01*
X103000000Y-100600000D02*
X103100000Y-100500000D01*
X100200000Y-100600000D02*
X101700000Y-100600000D01*
X100100000Y-100500000D02*
X100200000Y-100600000D01*
X97200000Y-100500000D02*
X98600000Y-100500000D01*
X97000000Y-100300000D02*
X97200000Y-100500000D01*
X73815000Y-82600000D02*
X71600000Y-82600000D01*
X75960000Y-82650000D02*
X78410000Y-82650000D01*
X80010000Y-82550000D02*
X83312000Y-82550000D01*
X85598000Y-82550000D02*
X85773000Y-82375000D01*
X85773000Y-82375000D02*
X87750000Y-82570000D01*
X89825000Y-82550000D02*
X89950000Y-82425000D01*
X89950000Y-82425000D02*
X91300000Y-82525000D01*
X92830000Y-82650000D02*
X92805000Y-82675000D01*
X91300000Y-82525000D02*
X92805000Y-82675000D01*
X68550000Y-84950000D02*
X68550000Y-87450000D01*
X68400000Y-84800000D02*
X68550000Y-84950000D01*
X69200000Y-83700000D02*
X68900000Y-83700000D01*
X70000000Y-82900000D02*
X69200000Y-83700000D01*
X71600000Y-82600000D02*
X71400000Y-82800000D01*
X74325000Y-99850000D02*
X74325000Y-99975000D01*
X67300000Y-96900000D02*
X67400000Y-96900000D01*
X66600000Y-97600000D02*
X67300000Y-96900000D01*
X66400000Y-100000000D02*
X66400000Y-98600000D01*
X66700000Y-100300000D02*
X66400000Y-100000000D01*
X69300000Y-100600000D02*
X67800000Y-100600000D01*
X72700000Y-100600000D02*
X71000000Y-100600000D01*
X74325000Y-99975000D02*
X73800000Y-100500000D01*
X81750000Y-96200000D02*
X81700000Y-96200000D01*
X81700000Y-96200000D02*
X80500000Y-95000000D01*
X81750000Y-96200000D02*
X81750000Y-95250000D01*
X81750000Y-95250000D02*
X81600000Y-95100000D01*
D25*
X92830000Y-82650000D02*
X92830000Y-83272000D01*
X92830000Y-83272000D02*
X92282000Y-83820000D01*
X74696000Y-97790000D02*
X74696000Y-99479000D01*
X74696000Y-99479000D02*
X74325000Y-99850000D01*
D24*
X89450000Y-86525000D02*
X89575002Y-86525000D01*
X89575002Y-86525000D02*
X90325002Y-85775000D01*
X90325002Y-85775000D02*
X91825000Y-85775000D01*
X92175000Y-87575000D02*
X92300000Y-87575000D01*
X92300000Y-87575000D02*
X93325000Y-86550000D01*
X92175000Y-87575000D02*
X91225000Y-87575000D01*
X91225000Y-87575000D02*
X90175000Y-86525000D01*
X90175000Y-86525000D02*
X89450000Y-86525000D01*
X80875000Y-89150000D02*
X80875000Y-89850000D01*
X80875000Y-89850000D02*
X81650000Y-90625000D01*
X80875000Y-89150000D02*
X80875000Y-89260000D01*
X80875000Y-89260000D02*
X80500000Y-90600000D01*
X84600000Y-94100000D02*
X84400000Y-94100000D01*
X84400000Y-94100000D02*
X83450000Y-93150000D01*
X84600000Y-94100000D02*
X83650000Y-94100000D01*
X83650000Y-94100000D02*
X83300000Y-94450000D01*
X96525000Y-82650000D02*
X96575000Y-82600000D01*
X96575000Y-82600000D02*
X96851737Y-82603503D01*
X96525000Y-84195000D02*
X96525000Y-82650000D01*
X96960000Y-84630000D02*
X96525000Y-84195000D01*
X94140000Y-82630000D02*
X94166497Y-82603503D01*
X94166497Y-82603503D02*
X96851737Y-82603503D01*
X99765000Y-86525000D02*
X100450000Y-87575000D01*
X100025000Y-90800000D02*
X100025000Y-92325000D01*
X99700000Y-88325000D02*
X99700000Y-89700000D01*
X99800000Y-88225000D02*
X99700000Y-88325000D01*
X99070000Y-87780000D02*
X99050000Y-87800000D01*
X99070000Y-87780000D02*
X99700000Y-86525000D01*
X92175000Y-87575000D02*
X92225000Y-87575000D01*
X99700000Y-86525000D02*
X99765000Y-86525000D01*
X108500000Y-96550000D02*
X108500000Y-96450000D01*
X108500000Y-96450000D02*
X107425000Y-95375000D01*
X108500000Y-96550000D02*
X108500000Y-95425000D01*
X108500000Y-95425000D02*
X108625000Y-95300000D01*
X106450000Y-88200000D02*
X106100000Y-88200000D01*
X106100000Y-88200000D02*
X105400000Y-87500000D01*
X105400000Y-87500000D02*
X104500000Y-87500000D01*
X104750000Y-82460000D02*
X105990000Y-82440000D01*
X100400000Y-82550000D02*
X102200000Y-82500000D01*
X100350000Y-82600000D02*
X100400000Y-82550000D01*
X96851737Y-82603503D02*
X98550000Y-82625000D01*
X104000000Y-82525000D02*
X104750000Y-82460000D01*
D25*
X112455000Y-86275000D02*
X112500000Y-86230000D01*
D24*
X81204000Y-88821000D02*
X80875000Y-89150000D01*
X92282000Y-83820000D02*
X92710000Y-83820000D01*
X92436000Y-83974000D02*
X92282000Y-83820000D01*
X80875000Y-89150000D02*
X81859000Y-89150000D01*
X76350000Y-99850000D02*
X76575000Y-99850000D01*
X78125000Y-100000000D02*
X79750000Y-100000000D01*
X78000000Y-99875000D02*
X78125000Y-100000000D01*
X83500000Y-98600000D02*
X83500000Y-98400000D01*
X92282000Y-83820000D02*
X92282000Y-83577000D01*
X92282000Y-83820000D02*
X92282000Y-83708000D01*
X80875000Y-89150000D02*
X79844000Y-89466000D01*
X81500000Y-99950000D02*
X83075000Y-99950000D01*
X85775000Y-99950000D02*
X85925000Y-100100000D01*
X85775000Y-99950000D02*
X84400000Y-99950000D01*
X106450000Y-88200000D02*
X107076000Y-88200000D01*
X87400000Y-100075000D02*
X88850000Y-100075000D01*
X90525000Y-100000000D02*
X92025000Y-100000000D01*
X93475000Y-99925000D02*
X93500000Y-99950000D01*
X93500000Y-99950000D02*
X95175000Y-99950000D01*
X106100000Y-92710000D02*
X106100000Y-90416000D01*
X106100000Y-90416000D02*
X106346000Y-90170000D01*
X106954000Y-92710000D02*
X106100000Y-92710000D01*
X106100000Y-92710000D02*
X105020000Y-92710000D01*
X105020000Y-92710000D02*
X104075000Y-93655000D01*
X112720000Y-92750000D02*
X109494000Y-92750000D01*
X109494000Y-92750000D02*
X109454000Y-92710000D01*
X98850000Y-94775000D02*
X98850000Y-92405000D01*
X98850000Y-92405000D02*
X98650000Y-92205000D01*
X98850000Y-94775000D02*
X98850000Y-95550000D01*
X98850000Y-95550000D02*
X99900000Y-96600000D01*
X101075000Y-93655000D02*
X101075000Y-95275000D01*
X101075000Y-95275000D02*
X102400000Y-96600000D01*
X105800000Y-96550000D02*
X102450000Y-96550000D01*
X102450000Y-96550000D02*
X102400000Y-96600000D01*
X91948000Y-94254000D02*
X89674000Y-94254000D01*
X89674000Y-94254000D02*
X89600000Y-94180000D01*
X91948000Y-94254000D02*
X91948000Y-92282000D01*
D25*
X97150000Y-90595000D02*
X97150000Y-88245000D01*
X97150000Y-92205000D02*
X97150000Y-90595000D01*
D24*
X96150000Y-94775000D02*
X96150000Y-96300000D01*
X95696000Y-96754000D02*
X91948000Y-96754000D01*
X96150000Y-96300000D02*
X95696000Y-96754000D01*
X92048000Y-96854000D02*
X91948000Y-96754000D01*
X97150000Y-88245000D02*
X97150000Y-88250000D01*
X97150000Y-88250000D02*
X94525000Y-90875000D01*
X93750000Y-91150000D02*
X93750000Y-92300000D01*
X94025000Y-90875000D02*
X93750000Y-91150000D01*
X94525000Y-90875000D02*
X94025000Y-90875000D01*
X97130000Y-88245000D02*
X97150000Y-88245000D01*
X97150000Y-92205000D02*
X97150000Y-93775000D01*
X97150000Y-93775000D02*
X96150000Y-94775000D01*
D25*
X74696000Y-91186000D02*
X68564000Y-91186000D01*
X68564000Y-91186000D02*
X68550000Y-91200000D01*
D24*
X77296000Y-93218000D02*
X77296000Y-91286000D01*
X77296000Y-91286000D02*
X77196000Y-91186000D01*
X84450000Y-96200000D02*
X84200000Y-96200000D01*
X84200000Y-96200000D02*
X80618000Y-93218000D01*
X80618000Y-93218000D02*
X77296000Y-93218000D01*
X84472000Y-96178000D02*
X84450000Y-96200000D01*
X86600000Y-94180000D02*
X86600000Y-95300000D01*
X86600000Y-95300000D02*
X86000000Y-95900000D01*
X86000000Y-95900000D02*
X84450000Y-96200000D01*
X77216000Y-91166000D02*
X77196000Y-91186000D01*
X77296000Y-93218000D02*
X77296000Y-93298000D01*
X77196000Y-97790000D02*
X77196000Y-97496000D01*
X77196000Y-97496000D02*
X76400000Y-96700000D01*
X71650000Y-97750000D02*
X71650000Y-98700000D01*
X72700000Y-96700000D02*
X71650000Y-97750000D01*
X76400000Y-96700000D02*
X72700000Y-96700000D01*
X77196000Y-97790000D02*
X80167000Y-97792000D01*
X80167000Y-97792000D02*
X80675000Y-98300000D01*
X77196000Y-95758000D02*
X77196000Y-97790000D01*
D25*
X88100000Y-92570000D02*
X88100000Y-90220000D01*
X88100000Y-94180000D02*
X88100000Y-92570000D01*
D24*
X84600000Y-91600000D02*
X86720000Y-91600000D01*
X86720000Y-91600000D02*
X88100000Y-90220000D01*
D25*
X102575000Y-92045000D02*
X102575000Y-89695000D01*
D24*
X102575000Y-93655000D02*
X102575000Y-89695000D01*
X84700000Y-89375000D02*
X83000000Y-89375000D01*
X95225000Y-85025000D02*
X95975000Y-85775000D01*
X83750000Y-85025000D02*
X95225000Y-85025000D01*
X83150000Y-85625000D02*
X83750000Y-85025000D01*
X83150000Y-89225000D02*
X83150000Y-85625000D01*
X83000000Y-89375000D02*
X83150000Y-89225000D01*
X84700000Y-89375000D02*
X84700000Y-91500000D01*
X84700000Y-91500000D02*
X84600000Y-91600000D01*
X102200000Y-86525000D02*
X102000000Y-86525000D01*
X102000000Y-86525000D02*
X100950000Y-85475000D01*
X100950000Y-85475000D02*
X96275000Y-85475000D01*
X96275000Y-85475000D02*
X95975000Y-85775000D01*
X95350000Y-86900000D02*
X94675000Y-87575000D01*
X95975000Y-85775000D02*
X95350000Y-86400000D01*
X95350000Y-86400000D02*
X95350000Y-86900000D01*
X102200000Y-86525000D02*
X104045000Y-86625000D01*
X104045000Y-86625000D02*
X104330000Y-86340000D01*
X94675000Y-87575000D02*
X94675000Y-88925000D01*
X94675000Y-88925000D02*
X93750000Y-89600000D01*
X102200000Y-86525000D02*
X102390000Y-86525000D01*
X102390000Y-86525000D02*
X102575000Y-87075000D01*
X102575000Y-87075000D02*
X102575000Y-89695000D01*
X102220000Y-86505000D02*
X102200000Y-86525000D01*
X87202000Y-83820000D02*
X89582000Y-83820000D01*
X77725000Y-88700000D02*
X76963000Y-88700000D01*
X76963000Y-88700000D02*
X74168000Y-85090000D01*
X74596000Y-93218000D02*
X74596000Y-95658000D01*
X74596000Y-95658000D02*
X74696000Y-95758000D01*
X80875000Y-85150000D02*
X80875000Y-84410000D01*
X80875000Y-84410000D02*
X82430000Y-83820000D01*
X82430000Y-83820000D02*
X84502000Y-83820000D01*
X84216000Y-84106000D02*
X84502000Y-83820000D01*
X81161000Y-84864000D02*
X80875000Y-85150000D01*
X77700000Y-85075000D02*
X80589000Y-84864000D01*
X80589000Y-84864000D02*
X80875000Y-85150000D01*
X107030000Y-86630000D02*
X109150000Y-88200000D01*
X109150000Y-88200000D02*
X109150000Y-90066000D01*
X109150000Y-90066000D02*
X109046000Y-90170000D01*
X107030000Y-86340000D02*
X107030000Y-86630000D01*
X86750000Y-86525000D02*
X86750000Y-86950000D01*
X86750000Y-86950000D02*
X87450000Y-87650000D01*
X90941000Y-88575000D02*
X91948000Y-89582000D01*
X90925000Y-88575000D02*
X90941000Y-88575000D01*
X90000000Y-87650000D02*
X90925000Y-88575000D01*
X87450000Y-87650000D02*
X90000000Y-87650000D01*
X86750000Y-86525000D02*
X84850000Y-86525000D01*
X84850000Y-86525000D02*
X84700000Y-86675000D01*
X95650000Y-92205000D02*
X95650000Y-92575000D01*
X95650000Y-92575000D02*
X94325000Y-93900000D01*
X94325000Y-93900000D02*
X94325000Y-95450000D01*
X94200000Y-95600000D02*
X94200000Y-95050000D01*
X95650000Y-93025000D02*
X95650000Y-92205000D01*
D25*
G36*
X73141554Y-92270492D02*
X73081307Y-92568000D01*
X73081307Y-93868000D01*
X73133604Y-94145933D01*
X73297862Y-94401198D01*
X73548492Y-94572446D01*
X73671000Y-94597255D01*
X73671000Y-94704587D01*
X73662802Y-94709862D01*
X73491554Y-94960492D01*
X73431307Y-95258000D01*
X73431307Y-95775000D01*
X72700000Y-95775000D01*
X72346017Y-95845411D01*
X72045926Y-96045926D01*
X71848000Y-96243852D01*
X71848000Y-95764500D01*
X71658500Y-95575000D01*
X69800000Y-95575000D01*
X69800000Y-96768500D01*
X69989500Y-96958000D01*
X71133852Y-96958000D01*
X70995926Y-97095926D01*
X70864983Y-97291896D01*
X70622067Y-97337604D01*
X70447401Y-97449998D01*
X70171972Y-97449998D01*
X70129373Y-97407399D01*
X69850776Y-97292000D01*
X69514500Y-97292000D01*
X69325000Y-97481500D01*
X69325000Y-98375000D01*
X69700000Y-98375000D01*
X69700000Y-99025000D01*
X69325000Y-99025000D01*
X69325000Y-99918500D01*
X69514500Y-100108000D01*
X69850776Y-100108000D01*
X70129373Y-99992601D01*
X70171972Y-99950002D01*
X70449633Y-99950002D01*
X70602492Y-100054446D01*
X70900000Y-100114693D01*
X72400000Y-100114693D01*
X72677933Y-100062396D01*
X72933198Y-99898138D01*
X73104446Y-99647508D01*
X73164693Y-99350000D01*
X73164693Y-98292000D01*
X73188000Y-98292000D01*
X73188000Y-98565775D01*
X73303398Y-98844372D01*
X73516627Y-99057601D01*
X73795224Y-99173000D01*
X74131500Y-99173000D01*
X74321000Y-98983500D01*
X74321000Y-98102500D01*
X73377500Y-98102500D01*
X73188000Y-98292000D01*
X73164693Y-98292000D01*
X73164693Y-98050000D01*
X73112396Y-97772067D01*
X73043362Y-97664786D01*
X73083148Y-97625000D01*
X75446000Y-97625000D01*
X75446000Y-98102500D01*
X75071000Y-98102500D01*
X75071000Y-98983500D01*
X75260500Y-99173000D01*
X75596776Y-99173000D01*
X75875373Y-99057601D01*
X75892972Y-99040002D01*
X76032222Y-99040002D01*
X76148492Y-99119446D01*
X76446000Y-99179693D01*
X77946000Y-99179693D01*
X78223933Y-99127396D01*
X78479198Y-98963138D01*
X78648075Y-98715978D01*
X78910307Y-98716154D01*
X78910307Y-99300000D01*
X78962604Y-99577933D01*
X79126862Y-99833198D01*
X79377492Y-100004446D01*
X79675000Y-100064693D01*
X81675000Y-100064693D01*
X81952933Y-100012396D01*
X82006167Y-99978141D01*
X82070627Y-100042601D01*
X82349224Y-100158000D01*
X82810500Y-100158000D01*
X83000000Y-99968500D01*
X83000000Y-98900000D01*
X84000000Y-98900000D01*
X84000000Y-99968500D01*
X84189500Y-100158000D01*
X84650776Y-100158000D01*
X84929373Y-100042601D01*
X85142602Y-99829372D01*
X85258000Y-99550775D01*
X85258000Y-99089500D01*
X85068500Y-98900000D01*
X84000000Y-98900000D01*
X83000000Y-98900000D01*
X82500000Y-98900000D01*
X82500000Y-97900000D01*
X83000000Y-97900000D01*
X83000000Y-97608000D01*
X83000002Y-97608000D01*
X83000002Y-97450002D01*
X83249633Y-97450002D01*
X83402492Y-97554446D01*
X83700000Y-97614693D01*
X84000000Y-97614693D01*
X84000000Y-97900000D01*
X85068500Y-97900000D01*
X85258000Y-97710500D01*
X85258000Y-97603779D01*
X85477933Y-97562396D01*
X85733198Y-97398138D01*
X85904446Y-97147508D01*
X85964693Y-96850000D01*
X85964693Y-96849000D01*
X86175770Y-96808146D01*
X86262305Y-96772825D01*
X86353983Y-96754589D01*
X86427768Y-96705288D01*
X86509923Y-96671754D01*
X86576356Y-96606004D01*
X86654074Y-96554074D01*
X87013455Y-96194693D01*
X87100000Y-96194693D01*
X87359177Y-96145925D01*
X87600000Y-96194693D01*
X88600000Y-96194693D01*
X88859177Y-96145925D01*
X89100000Y-96194693D01*
X90100000Y-96194693D01*
X90377933Y-96142396D01*
X90558307Y-96026329D01*
X90558307Y-97504000D01*
X90610604Y-97781933D01*
X90774862Y-98037198D01*
X91025492Y-98208446D01*
X91323000Y-98268693D01*
X92573000Y-98268693D01*
X92850933Y-98216396D01*
X92917000Y-98173883D01*
X92917000Y-99400002D01*
X93103028Y-99400002D01*
X93245628Y-99542602D01*
X93524225Y-99658000D01*
X93810500Y-99658000D01*
X94000000Y-99468500D01*
X94000000Y-98525000D01*
X94650000Y-98525000D01*
X94650000Y-99468500D01*
X94839500Y-99658000D01*
X95125775Y-99658000D01*
X95404372Y-99542602D01*
X95617601Y-99329373D01*
X95733000Y-99050776D01*
X95733000Y-98714500D01*
X95543500Y-98525000D01*
X94650000Y-98525000D01*
X94000000Y-98525000D01*
X93675000Y-98525000D01*
X93675000Y-97775000D01*
X94000000Y-97775000D01*
X94000000Y-97679000D01*
X94650000Y-97679000D01*
X94650000Y-97775000D01*
X95543500Y-97775000D01*
X95639500Y-97679000D01*
X95696000Y-97679000D01*
X96049983Y-97608589D01*
X96350074Y-97408074D01*
X96804074Y-96954074D01*
X97004589Y-96653983D01*
X97075000Y-96300000D01*
X97075000Y-96156764D01*
X97177933Y-96137396D01*
X97433198Y-95973138D01*
X97499260Y-95876452D01*
X97551862Y-95958198D01*
X97802492Y-96129446D01*
X98100000Y-96189693D01*
X98186317Y-96189693D01*
X98195926Y-96204074D01*
X98385307Y-96393455D01*
X98385307Y-97225000D01*
X98437604Y-97502933D01*
X98601862Y-97758198D01*
X98852492Y-97929446D01*
X99150000Y-97989693D01*
X99452140Y-97989693D01*
X99174438Y-98405304D01*
X99041227Y-99075000D01*
X99174438Y-99744696D01*
X99553790Y-100312437D01*
X100094646Y-100673825D01*
X65925000Y-100757388D01*
X65925000Y-99214500D01*
X67442000Y-99214500D01*
X67442000Y-99500775D01*
X67557398Y-99779372D01*
X67770627Y-99992601D01*
X68049224Y-100108000D01*
X68385500Y-100108000D01*
X68575000Y-99918500D01*
X68575000Y-99025000D01*
X67631500Y-99025000D01*
X67442000Y-99214500D01*
X65925000Y-99214500D01*
X65925000Y-97899225D01*
X67442000Y-97899225D01*
X67442000Y-98185500D01*
X67631500Y-98375000D01*
X68575000Y-98375000D01*
X68575000Y-97481500D01*
X68385500Y-97292000D01*
X68049224Y-97292000D01*
X67770627Y-97407399D01*
X67557398Y-97620628D01*
X67442000Y-97899225D01*
X65925000Y-97899225D01*
X65925000Y-96958000D01*
X67110500Y-96958000D01*
X67300000Y-96768500D01*
X67300000Y-95575000D01*
X67280000Y-95575000D01*
X67280000Y-94325000D01*
X67300000Y-94325000D01*
X67300000Y-93131500D01*
X69800000Y-93131500D01*
X69800000Y-94325000D01*
X71658500Y-94325000D01*
X71848000Y-94135500D01*
X71848000Y-93549224D01*
X71732601Y-93270627D01*
X71519372Y-93057398D01*
X71240775Y-92942000D01*
X69989500Y-92942000D01*
X69800000Y-93131500D01*
X67300000Y-93131500D01*
X67110500Y-92942000D01*
X65925000Y-92942000D01*
X65925000Y-92697480D01*
X66010000Y-92714693D01*
X71090000Y-92714693D01*
X71367933Y-92662396D01*
X71623198Y-92498138D01*
X71794446Y-92247508D01*
X71806902Y-92186000D01*
X73199285Y-92186000D01*
X73141554Y-92270492D01*
X73141554Y-92270492D01*
G37*
X73141554Y-92270492D02*
X73081307Y-92568000D01*
X73081307Y-93868000D01*
X73133604Y-94145933D01*
X73297862Y-94401198D01*
X73548492Y-94572446D01*
X73671000Y-94597255D01*
X73671000Y-94704587D01*
X73662802Y-94709862D01*
X73491554Y-94960492D01*
X73431307Y-95258000D01*
X73431307Y-95775000D01*
X72700000Y-95775000D01*
X72346017Y-95845411D01*
X72045926Y-96045926D01*
X71848000Y-96243852D01*
X71848000Y-95764500D01*
X71658500Y-95575000D01*
X69800000Y-95575000D01*
X69800000Y-96768500D01*
X69989500Y-96958000D01*
X71133852Y-96958000D01*
X70995926Y-97095926D01*
X70864983Y-97291896D01*
X70622067Y-97337604D01*
X70447401Y-97449998D01*
X70171972Y-97449998D01*
X70129373Y-97407399D01*
X69850776Y-97292000D01*
X69514500Y-97292000D01*
X69325000Y-97481500D01*
X69325000Y-98375000D01*
X69700000Y-98375000D01*
X69700000Y-99025000D01*
X69325000Y-99025000D01*
X69325000Y-99918500D01*
X69514500Y-100108000D01*
X69850776Y-100108000D01*
X70129373Y-99992601D01*
X70171972Y-99950002D01*
X70449633Y-99950002D01*
X70602492Y-100054446D01*
X70900000Y-100114693D01*
X72400000Y-100114693D01*
X72677933Y-100062396D01*
X72933198Y-99898138D01*
X73104446Y-99647508D01*
X73164693Y-99350000D01*
X73164693Y-98292000D01*
X73188000Y-98292000D01*
X73188000Y-98565775D01*
X73303398Y-98844372D01*
X73516627Y-99057601D01*
X73795224Y-99173000D01*
X74131500Y-99173000D01*
X74321000Y-98983500D01*
X74321000Y-98102500D01*
X73377500Y-98102500D01*
X73188000Y-98292000D01*
X73164693Y-98292000D01*
X73164693Y-98050000D01*
X73112396Y-97772067D01*
X73043362Y-97664786D01*
X73083148Y-97625000D01*
X75446000Y-97625000D01*
X75446000Y-98102500D01*
X75071000Y-98102500D01*
X75071000Y-98983500D01*
X75260500Y-99173000D01*
X75596776Y-99173000D01*
X75875373Y-99057601D01*
X75892972Y-99040002D01*
X76032222Y-99040002D01*
X76148492Y-99119446D01*
X76446000Y-99179693D01*
X77946000Y-99179693D01*
X78223933Y-99127396D01*
X78479198Y-98963138D01*
X78648075Y-98715978D01*
X78910307Y-98716154D01*
X78910307Y-99300000D01*
X78962604Y-99577933D01*
X79126862Y-99833198D01*
X79377492Y-100004446D01*
X79675000Y-100064693D01*
X81675000Y-100064693D01*
X81952933Y-100012396D01*
X82006167Y-99978141D01*
X82070627Y-100042601D01*
X82349224Y-100158000D01*
X82810500Y-100158000D01*
X83000000Y-99968500D01*
X83000000Y-98900000D01*
X84000000Y-98900000D01*
X84000000Y-99968500D01*
X84189500Y-100158000D01*
X84650776Y-100158000D01*
X84929373Y-100042601D01*
X85142602Y-99829372D01*
X85258000Y-99550775D01*
X85258000Y-99089500D01*
X85068500Y-98900000D01*
X84000000Y-98900000D01*
X83000000Y-98900000D01*
X82500000Y-98900000D01*
X82500000Y-97900000D01*
X83000000Y-97900000D01*
X83000000Y-97608000D01*
X83000002Y-97608000D01*
X83000002Y-97450002D01*
X83249633Y-97450002D01*
X83402492Y-97554446D01*
X83700000Y-97614693D01*
X84000000Y-97614693D01*
X84000000Y-97900000D01*
X85068500Y-97900000D01*
X85258000Y-97710500D01*
X85258000Y-97603779D01*
X85477933Y-97562396D01*
X85733198Y-97398138D01*
X85904446Y-97147508D01*
X85964693Y-96850000D01*
X85964693Y-96849000D01*
X86175770Y-96808146D01*
X86262305Y-96772825D01*
X86353983Y-96754589D01*
X86427768Y-96705288D01*
X86509923Y-96671754D01*
X86576356Y-96606004D01*
X86654074Y-96554074D01*
X87013455Y-96194693D01*
X87100000Y-96194693D01*
X87359177Y-96145925D01*
X87600000Y-96194693D01*
X88600000Y-96194693D01*
X88859177Y-96145925D01*
X89100000Y-96194693D01*
X90100000Y-96194693D01*
X90377933Y-96142396D01*
X90558307Y-96026329D01*
X90558307Y-97504000D01*
X90610604Y-97781933D01*
X90774862Y-98037198D01*
X91025492Y-98208446D01*
X91323000Y-98268693D01*
X92573000Y-98268693D01*
X92850933Y-98216396D01*
X92917000Y-98173883D01*
X92917000Y-99400002D01*
X93103028Y-99400002D01*
X93245628Y-99542602D01*
X93524225Y-99658000D01*
X93810500Y-99658000D01*
X94000000Y-99468500D01*
X94000000Y-98525000D01*
X94650000Y-98525000D01*
X94650000Y-99468500D01*
X94839500Y-99658000D01*
X95125775Y-99658000D01*
X95404372Y-99542602D01*
X95617601Y-99329373D01*
X95733000Y-99050776D01*
X95733000Y-98714500D01*
X95543500Y-98525000D01*
X94650000Y-98525000D01*
X94000000Y-98525000D01*
X93675000Y-98525000D01*
X93675000Y-97775000D01*
X94000000Y-97775000D01*
X94000000Y-97679000D01*
X94650000Y-97679000D01*
X94650000Y-97775000D01*
X95543500Y-97775000D01*
X95639500Y-97679000D01*
X95696000Y-97679000D01*
X96049983Y-97608589D01*
X96350074Y-97408074D01*
X96804074Y-96954074D01*
X97004589Y-96653983D01*
X97075000Y-96300000D01*
X97075000Y-96156764D01*
X97177933Y-96137396D01*
X97433198Y-95973138D01*
X97499260Y-95876452D01*
X97551862Y-95958198D01*
X97802492Y-96129446D01*
X98100000Y-96189693D01*
X98186317Y-96189693D01*
X98195926Y-96204074D01*
X98385307Y-96393455D01*
X98385307Y-97225000D01*
X98437604Y-97502933D01*
X98601862Y-97758198D01*
X98852492Y-97929446D01*
X99150000Y-97989693D01*
X99452140Y-97989693D01*
X99174438Y-98405304D01*
X99041227Y-99075000D01*
X99174438Y-99744696D01*
X99553790Y-100312437D01*
X100094646Y-100673825D01*
X65925000Y-100757388D01*
X65925000Y-99214500D01*
X67442000Y-99214500D01*
X67442000Y-99500775D01*
X67557398Y-99779372D01*
X67770627Y-99992601D01*
X68049224Y-100108000D01*
X68385500Y-100108000D01*
X68575000Y-99918500D01*
X68575000Y-99025000D01*
X67631500Y-99025000D01*
X67442000Y-99214500D01*
X65925000Y-99214500D01*
X65925000Y-97899225D01*
X67442000Y-97899225D01*
X67442000Y-98185500D01*
X67631500Y-98375000D01*
X68575000Y-98375000D01*
X68575000Y-97481500D01*
X68385500Y-97292000D01*
X68049224Y-97292000D01*
X67770627Y-97407399D01*
X67557398Y-97620628D01*
X67442000Y-97899225D01*
X65925000Y-97899225D01*
X65925000Y-96958000D01*
X67110500Y-96958000D01*
X67300000Y-96768500D01*
X67300000Y-95575000D01*
X67280000Y-95575000D01*
X67280000Y-94325000D01*
X67300000Y-94325000D01*
X67300000Y-93131500D01*
X69800000Y-93131500D01*
X69800000Y-94325000D01*
X71658500Y-94325000D01*
X71848000Y-94135500D01*
X71848000Y-93549224D01*
X71732601Y-93270627D01*
X71519372Y-93057398D01*
X71240775Y-92942000D01*
X69989500Y-92942000D01*
X69800000Y-93131500D01*
X67300000Y-93131500D01*
X67110500Y-92942000D01*
X65925000Y-92942000D01*
X65925000Y-92697480D01*
X66010000Y-92714693D01*
X71090000Y-92714693D01*
X71367933Y-92662396D01*
X71623198Y-92498138D01*
X71794446Y-92247508D01*
X71806902Y-92186000D01*
X73199285Y-92186000D01*
X73141554Y-92270492D01*
G36*
X104337604Y-97477933D02*
X104501862Y-97733198D01*
X104752492Y-97904446D01*
X105050000Y-97964693D01*
X105635436Y-97964693D01*
X105374438Y-98355304D01*
X105241227Y-99025000D01*
X105374438Y-99694696D01*
X105753790Y-100262437D01*
X106321531Y-100641789D01*
X106405006Y-100658393D01*
X104120087Y-100663981D01*
X104646210Y-100312437D01*
X105025562Y-99744696D01*
X105158773Y-99075000D01*
X105025562Y-98405304D01*
X104646210Y-97837563D01*
X104103596Y-97475000D01*
X104337052Y-97475000D01*
X104337604Y-97477933D01*
X104337604Y-97477933D01*
G37*
X104337604Y-97477933D02*
X104501862Y-97733198D01*
X104752492Y-97904446D01*
X105050000Y-97964693D01*
X105635436Y-97964693D01*
X105374438Y-98355304D01*
X105241227Y-99025000D01*
X105374438Y-99694696D01*
X105753790Y-100262437D01*
X106321531Y-100641789D01*
X106405006Y-100658393D01*
X104120087Y-100663981D01*
X104646210Y-100312437D01*
X105025562Y-99744696D01*
X105158773Y-99075000D01*
X105025562Y-98405304D01*
X104646210Y-97837563D01*
X104103596Y-97475000D01*
X104337052Y-97475000D01*
X104337604Y-97477933D01*
G36*
X108875000Y-96225000D02*
X109047440Y-96225000D01*
X109047440Y-96875000D01*
X108875000Y-96875000D01*
X108875000Y-97200000D01*
X108125000Y-97200000D01*
X108125000Y-96875000D01*
X107750000Y-96875000D01*
X107750000Y-96225000D01*
X108125000Y-96225000D01*
X108125000Y-95900000D01*
X108875000Y-95900000D01*
X108875000Y-96225000D01*
X108875000Y-96225000D01*
G37*
X108875000Y-96225000D02*
X109047440Y-96225000D01*
X109047440Y-96875000D01*
X108875000Y-96875000D01*
X108875000Y-97200000D01*
X108125000Y-97200000D01*
X108125000Y-96875000D01*
X107750000Y-96875000D01*
X107750000Y-96225000D01*
X108125000Y-96225000D01*
X108125000Y-95900000D01*
X108875000Y-95900000D01*
X108875000Y-96225000D01*
G36*
X81062947Y-94792000D02*
X80499998Y-94792000D01*
X80499998Y-94978028D01*
X80357398Y-95120628D01*
X80242000Y-95399225D01*
X80242000Y-95685500D01*
X80431500Y-95875000D01*
X81375000Y-95875000D01*
X81375000Y-95550000D01*
X81973462Y-95550000D01*
X82125000Y-95676155D01*
X82125000Y-95875000D01*
X82363854Y-95875000D01*
X82500000Y-95988341D01*
X82500000Y-96525000D01*
X82125000Y-96525000D01*
X82125000Y-96699747D01*
X81972508Y-96595554D01*
X81675000Y-96535307D01*
X81375000Y-96535307D01*
X81375000Y-96525000D01*
X80431500Y-96525000D01*
X80421193Y-96535307D01*
X79675000Y-96535307D01*
X79397067Y-96587604D01*
X79141802Y-96751862D01*
X79063639Y-96866257D01*
X78644824Y-96865975D01*
X78494138Y-96631802D01*
X78394727Y-96563878D01*
X78400446Y-96555508D01*
X78460693Y-96258000D01*
X78460693Y-95258000D01*
X78408396Y-94980067D01*
X78244138Y-94724802D01*
X78095657Y-94623349D01*
X78323933Y-94580396D01*
X78579198Y-94416138D01*
X78750446Y-94165508D01*
X78755004Y-94143000D01*
X80283363Y-94143000D01*
X81062947Y-94792000D01*
X81062947Y-94792000D01*
G37*
X81062947Y-94792000D02*
X80499998Y-94792000D01*
X80499998Y-94978028D01*
X80357398Y-95120628D01*
X80242000Y-95399225D01*
X80242000Y-95685500D01*
X80431500Y-95875000D01*
X81375000Y-95875000D01*
X81375000Y-95550000D01*
X81973462Y-95550000D01*
X82125000Y-95676155D01*
X82125000Y-95875000D01*
X82363854Y-95875000D01*
X82500000Y-95988341D01*
X82500000Y-96525000D01*
X82125000Y-96525000D01*
X82125000Y-96699747D01*
X81972508Y-96595554D01*
X81675000Y-96535307D01*
X81375000Y-96535307D01*
X81375000Y-96525000D01*
X80431500Y-96525000D01*
X80421193Y-96535307D01*
X79675000Y-96535307D01*
X79397067Y-96587604D01*
X79141802Y-96751862D01*
X79063639Y-96866257D01*
X78644824Y-96865975D01*
X78494138Y-96631802D01*
X78394727Y-96563878D01*
X78400446Y-96555508D01*
X78460693Y-96258000D01*
X78460693Y-95258000D01*
X78408396Y-94980067D01*
X78244138Y-94724802D01*
X78095657Y-94623349D01*
X78323933Y-94580396D01*
X78579198Y-94416138D01*
X78750446Y-94165508D01*
X78755004Y-94143000D01*
X80283363Y-94143000D01*
X81062947Y-94792000D01*
G36*
X79327492Y-86854446D02*
X79625000Y-86914693D01*
X82125000Y-86914693D01*
X82225000Y-86895877D01*
X82225000Y-87392000D01*
X81689500Y-87392000D01*
X81500000Y-87581500D01*
X81500000Y-88650000D01*
X82125000Y-88650000D01*
X82125000Y-89123631D01*
X82075000Y-89375000D01*
X82125000Y-89626371D01*
X82125000Y-89650000D01*
X81500000Y-89650000D01*
X81500000Y-90718500D01*
X81689500Y-90908000D01*
X82275775Y-90908000D01*
X82554372Y-90792602D01*
X82767601Y-90579373D01*
X82841899Y-90400002D01*
X82883000Y-90400002D01*
X82883000Y-90276727D01*
X83000000Y-90300000D01*
X83318236Y-90300000D01*
X83337604Y-90402933D01*
X83354647Y-90429418D01*
X83270554Y-90552492D01*
X83210307Y-90850000D01*
X83210307Y-92350000D01*
X83262604Y-92627933D01*
X83349998Y-92763748D01*
X83349998Y-92903028D01*
X83332399Y-92920627D01*
X83217000Y-93199224D01*
X83217000Y-93535500D01*
X83406500Y-93725000D01*
X84287500Y-93725000D01*
X84287500Y-93350000D01*
X84912500Y-93350000D01*
X84912500Y-93725000D01*
X85225000Y-93725000D01*
X85225000Y-94475000D01*
X84912500Y-94475000D01*
X84912500Y-94785307D01*
X84287500Y-94785307D01*
X84287500Y-94475000D01*
X83573671Y-94475000D01*
X81209819Y-92507103D01*
X81087629Y-92440684D01*
X80971982Y-92363411D01*
X80930172Y-92355095D01*
X80892721Y-92334737D01*
X80754409Y-92320133D01*
X80618000Y-92293000D01*
X78758948Y-92293000D01*
X78758396Y-92290067D01*
X78645873Y-92115201D01*
X78650446Y-92108508D01*
X78710693Y-91811000D01*
X78710693Y-90561000D01*
X78692571Y-90464693D01*
X78725000Y-90464693D01*
X78919720Y-90428054D01*
X78982399Y-90579373D01*
X79195628Y-90792602D01*
X79474225Y-90908000D01*
X80060500Y-90908000D01*
X80250000Y-90718500D01*
X80250000Y-89650000D01*
X79625000Y-89650000D01*
X79625000Y-88650000D01*
X80250000Y-88650000D01*
X80250000Y-87581500D01*
X80060500Y-87392000D01*
X79474225Y-87392000D01*
X79429871Y-87410372D01*
X79273138Y-87166802D01*
X79022508Y-86995554D01*
X78725000Y-86935307D01*
X76766547Y-86935307D01*
X76691128Y-86837896D01*
X76700000Y-86839693D01*
X78700000Y-86839693D01*
X78977933Y-86787396D01*
X79107417Y-86704075D01*
X79327492Y-86854446D01*
X79327492Y-86854446D01*
G37*
X79327492Y-86854446D02*
X79625000Y-86914693D01*
X82125000Y-86914693D01*
X82225000Y-86895877D01*
X82225000Y-87392000D01*
X81689500Y-87392000D01*
X81500000Y-87581500D01*
X81500000Y-88650000D01*
X82125000Y-88650000D01*
X82125000Y-89123631D01*
X82075000Y-89375000D01*
X82125000Y-89626371D01*
X82125000Y-89650000D01*
X81500000Y-89650000D01*
X81500000Y-90718500D01*
X81689500Y-90908000D01*
X82275775Y-90908000D01*
X82554372Y-90792602D01*
X82767601Y-90579373D01*
X82841899Y-90400002D01*
X82883000Y-90400002D01*
X82883000Y-90276727D01*
X83000000Y-90300000D01*
X83318236Y-90300000D01*
X83337604Y-90402933D01*
X83354647Y-90429418D01*
X83270554Y-90552492D01*
X83210307Y-90850000D01*
X83210307Y-92350000D01*
X83262604Y-92627933D01*
X83349998Y-92763748D01*
X83349998Y-92903028D01*
X83332399Y-92920627D01*
X83217000Y-93199224D01*
X83217000Y-93535500D01*
X83406500Y-93725000D01*
X84287500Y-93725000D01*
X84287500Y-93350000D01*
X84912500Y-93350000D01*
X84912500Y-93725000D01*
X85225000Y-93725000D01*
X85225000Y-94475000D01*
X84912500Y-94475000D01*
X84912500Y-94785307D01*
X84287500Y-94785307D01*
X84287500Y-94475000D01*
X83573671Y-94475000D01*
X81209819Y-92507103D01*
X81087629Y-92440684D01*
X80971982Y-92363411D01*
X80930172Y-92355095D01*
X80892721Y-92334737D01*
X80754409Y-92320133D01*
X80618000Y-92293000D01*
X78758948Y-92293000D01*
X78758396Y-92290067D01*
X78645873Y-92115201D01*
X78650446Y-92108508D01*
X78710693Y-91811000D01*
X78710693Y-90561000D01*
X78692571Y-90464693D01*
X78725000Y-90464693D01*
X78919720Y-90428054D01*
X78982399Y-90579373D01*
X79195628Y-90792602D01*
X79474225Y-90908000D01*
X80060500Y-90908000D01*
X80250000Y-90718500D01*
X80250000Y-89650000D01*
X79625000Y-89650000D01*
X79625000Y-88650000D01*
X80250000Y-88650000D01*
X80250000Y-87581500D01*
X80060500Y-87392000D01*
X79474225Y-87392000D01*
X79429871Y-87410372D01*
X79273138Y-87166802D01*
X79022508Y-86995554D01*
X78725000Y-86935307D01*
X76766547Y-86935307D01*
X76691128Y-86837896D01*
X76700000Y-86839693D01*
X78700000Y-86839693D01*
X78977933Y-86787396D01*
X79107417Y-86704075D01*
X79327492Y-86854446D01*
G36*
X100450000Y-86837500D02*
X100075000Y-86837500D01*
X100075000Y-87718500D01*
X100264500Y-87908000D01*
X100600776Y-87908000D01*
X100810307Y-87821209D01*
X100810307Y-91640307D01*
X100575000Y-91640307D01*
X100297067Y-91692604D01*
X100041802Y-91856862D01*
X99914693Y-92042892D01*
X99914693Y-90955000D01*
X99862396Y-90677067D01*
X99698138Y-90421802D01*
X99447508Y-90250554D01*
X99150000Y-90190307D01*
X98914693Y-90190307D01*
X98914693Y-87908000D01*
X99135500Y-87908000D01*
X99325000Y-87718500D01*
X99325000Y-86837500D01*
X98950000Y-86837500D01*
X98950000Y-86400000D01*
X100450000Y-86400000D01*
X100450000Y-86837500D01*
X100450000Y-86837500D01*
G37*
X100450000Y-86837500D02*
X100075000Y-86837500D01*
X100075000Y-87718500D01*
X100264500Y-87908000D01*
X100600776Y-87908000D01*
X100810307Y-87821209D01*
X100810307Y-91640307D01*
X100575000Y-91640307D01*
X100297067Y-91692604D01*
X100041802Y-91856862D01*
X99914693Y-92042892D01*
X99914693Y-90955000D01*
X99862396Y-90677067D01*
X99698138Y-90421802D01*
X99447508Y-90250554D01*
X99150000Y-90190307D01*
X98914693Y-90190307D01*
X98914693Y-87908000D01*
X99135500Y-87908000D01*
X99325000Y-87718500D01*
X99325000Y-86837500D01*
X98950000Y-86837500D01*
X98950000Y-86400000D01*
X100450000Y-86400000D01*
X100450000Y-86837500D01*
G36*
X109047440Y-82370000D02*
X106931227Y-82370000D01*
X106261531Y-82503211D01*
X105693790Y-82882563D01*
X105314438Y-83450304D01*
X105198978Y-84030759D01*
X105075562Y-83410304D01*
X104696210Y-82842563D01*
X104128469Y-82463211D01*
X103458773Y-82330000D01*
X100841227Y-82330000D01*
X100171531Y-82463211D01*
X99603790Y-82842563D01*
X99224438Y-83410304D01*
X99091227Y-84080000D01*
X99184716Y-84550000D01*
X96275000Y-84550000D01*
X96094126Y-84585978D01*
X95879074Y-84370926D01*
X95578983Y-84170411D01*
X95225000Y-84100000D01*
X91532000Y-84100000D01*
X91532000Y-83495000D01*
X91907000Y-83495000D01*
X91907000Y-82601500D01*
X92657000Y-82601500D01*
X92657000Y-83495000D01*
X93600500Y-83495000D01*
X93790000Y-83305500D01*
X93790000Y-83019225D01*
X93674602Y-82740628D01*
X93461373Y-82527399D01*
X93182776Y-82412000D01*
X92846500Y-82412000D01*
X92657000Y-82601500D01*
X91907000Y-82601500D01*
X91717500Y-82412000D01*
X91381224Y-82412000D01*
X91102627Y-82527399D01*
X91060028Y-82569998D01*
X90782367Y-82569998D01*
X90629508Y-82465554D01*
X90332000Y-82405307D01*
X88832000Y-82405307D01*
X88554067Y-82457604D01*
X88391228Y-82562387D01*
X88249508Y-82465554D01*
X87952000Y-82405307D01*
X86452000Y-82405307D01*
X86174067Y-82457604D01*
X85918802Y-82621862D01*
X85852740Y-82718548D01*
X85800138Y-82636802D01*
X85549508Y-82465554D01*
X85252000Y-82405307D01*
X83752000Y-82405307D01*
X83474067Y-82457604D01*
X83218802Y-82621862D01*
X83047554Y-82872492D01*
X83042996Y-82895000D01*
X82430000Y-82895000D01*
X82266377Y-82927547D01*
X82101861Y-82955159D01*
X80968166Y-83385307D01*
X79625000Y-83385307D01*
X79347067Y-83437604D01*
X79217583Y-83520925D01*
X78997508Y-83370554D01*
X78700000Y-83310307D01*
X76700000Y-83310307D01*
X76422067Y-83362604D01*
X76166802Y-83526862D01*
X75995554Y-83777492D01*
X75935307Y-84075000D01*
X75935307Y-85861684D01*
X75932693Y-85858307D01*
X75932693Y-84090000D01*
X75880396Y-83812067D01*
X75716138Y-83556802D01*
X75465508Y-83385554D01*
X75168000Y-83325307D01*
X73168000Y-83325307D01*
X72890067Y-83377604D01*
X72634802Y-83541862D01*
X72463554Y-83792492D01*
X72403307Y-84090000D01*
X72403307Y-86090000D01*
X72455604Y-86367933D01*
X72619862Y-86623198D01*
X72870492Y-86794446D01*
X73168000Y-86854693D01*
X74364453Y-86854693D01*
X74668000Y-87246752D01*
X74668000Y-88146000D01*
X75168000Y-88146000D01*
X75168000Y-89146000D01*
X74668000Y-89146000D01*
X74668000Y-89646000D01*
X73668000Y-89646000D01*
X73668000Y-89146000D01*
X72599500Y-89146000D01*
X72410000Y-89335500D01*
X72410000Y-89796775D01*
X72525398Y-90075372D01*
X72636026Y-90186000D01*
X71805018Y-90186000D01*
X71802396Y-90172067D01*
X71638138Y-89916802D01*
X71387508Y-89745554D01*
X71090000Y-89685307D01*
X66010000Y-89685307D01*
X65925000Y-89701301D01*
X65925000Y-89458000D01*
X67110500Y-89458000D01*
X67300000Y-89268500D01*
X67300000Y-88075000D01*
X69800000Y-88075000D01*
X69800000Y-89268500D01*
X69989500Y-89458000D01*
X71240775Y-89458000D01*
X71519372Y-89342602D01*
X71732601Y-89129373D01*
X71848000Y-88850776D01*
X71848000Y-88264500D01*
X71658500Y-88075000D01*
X69800000Y-88075000D01*
X67300000Y-88075000D01*
X67280000Y-88075000D01*
X67280000Y-87495225D01*
X72410000Y-87495225D01*
X72410000Y-87956500D01*
X72599500Y-88146000D01*
X73668000Y-88146000D01*
X73668000Y-87077500D01*
X73478500Y-86888000D01*
X73017224Y-86888000D01*
X72738627Y-87003399D01*
X72525398Y-87216628D01*
X72410000Y-87495225D01*
X67280000Y-87495225D01*
X67280000Y-86825000D01*
X67300000Y-86825000D01*
X67300000Y-85631500D01*
X69800000Y-85631500D01*
X69800000Y-86825000D01*
X71658500Y-86825000D01*
X71848000Y-86635500D01*
X71848000Y-86049224D01*
X71732601Y-85770627D01*
X71519372Y-85557398D01*
X71240775Y-85442000D01*
X69989500Y-85442000D01*
X69800000Y-85631500D01*
X67300000Y-85631500D01*
X67110500Y-85442000D01*
X65925000Y-85442000D01*
X65925000Y-82241389D01*
X109047440Y-82135932D01*
X109047440Y-82370000D01*
X109047440Y-82370000D01*
G37*
X109047440Y-82370000D02*
X106931227Y-82370000D01*
X106261531Y-82503211D01*
X105693790Y-82882563D01*
X105314438Y-83450304D01*
X105198978Y-84030759D01*
X105075562Y-83410304D01*
X104696210Y-82842563D01*
X104128469Y-82463211D01*
X103458773Y-82330000D01*
X100841227Y-82330000D01*
X100171531Y-82463211D01*
X99603790Y-82842563D01*
X99224438Y-83410304D01*
X99091227Y-84080000D01*
X99184716Y-84550000D01*
X96275000Y-84550000D01*
X96094126Y-84585978D01*
X95879074Y-84370926D01*
X95578983Y-84170411D01*
X95225000Y-84100000D01*
X91532000Y-84100000D01*
X91532000Y-83495000D01*
X91907000Y-83495000D01*
X91907000Y-82601500D01*
X92657000Y-82601500D01*
X92657000Y-83495000D01*
X93600500Y-83495000D01*
X93790000Y-83305500D01*
X93790000Y-83019225D01*
X93674602Y-82740628D01*
X93461373Y-82527399D01*
X93182776Y-82412000D01*
X92846500Y-82412000D01*
X92657000Y-82601500D01*
X91907000Y-82601500D01*
X91717500Y-82412000D01*
X91381224Y-82412000D01*
X91102627Y-82527399D01*
X91060028Y-82569998D01*
X90782367Y-82569998D01*
X90629508Y-82465554D01*
X90332000Y-82405307D01*
X88832000Y-82405307D01*
X88554067Y-82457604D01*
X88391228Y-82562387D01*
X88249508Y-82465554D01*
X87952000Y-82405307D01*
X86452000Y-82405307D01*
X86174067Y-82457604D01*
X85918802Y-82621862D01*
X85852740Y-82718548D01*
X85800138Y-82636802D01*
X85549508Y-82465554D01*
X85252000Y-82405307D01*
X83752000Y-82405307D01*
X83474067Y-82457604D01*
X83218802Y-82621862D01*
X83047554Y-82872492D01*
X83042996Y-82895000D01*
X82430000Y-82895000D01*
X82266377Y-82927547D01*
X82101861Y-82955159D01*
X80968166Y-83385307D01*
X79625000Y-83385307D01*
X79347067Y-83437604D01*
X79217583Y-83520925D01*
X78997508Y-83370554D01*
X78700000Y-83310307D01*
X76700000Y-83310307D01*
X76422067Y-83362604D01*
X76166802Y-83526862D01*
X75995554Y-83777492D01*
X75935307Y-84075000D01*
X75935307Y-85861684D01*
X75932693Y-85858307D01*
X75932693Y-84090000D01*
X75880396Y-83812067D01*
X75716138Y-83556802D01*
X75465508Y-83385554D01*
X75168000Y-83325307D01*
X73168000Y-83325307D01*
X72890067Y-83377604D01*
X72634802Y-83541862D01*
X72463554Y-83792492D01*
X72403307Y-84090000D01*
X72403307Y-86090000D01*
X72455604Y-86367933D01*
X72619862Y-86623198D01*
X72870492Y-86794446D01*
X73168000Y-86854693D01*
X74364453Y-86854693D01*
X74668000Y-87246752D01*
X74668000Y-88146000D01*
X75168000Y-88146000D01*
X75168000Y-89146000D01*
X74668000Y-89146000D01*
X74668000Y-89646000D01*
X73668000Y-89646000D01*
X73668000Y-89146000D01*
X72599500Y-89146000D01*
X72410000Y-89335500D01*
X72410000Y-89796775D01*
X72525398Y-90075372D01*
X72636026Y-90186000D01*
X71805018Y-90186000D01*
X71802396Y-90172067D01*
X71638138Y-89916802D01*
X71387508Y-89745554D01*
X71090000Y-89685307D01*
X66010000Y-89685307D01*
X65925000Y-89701301D01*
X65925000Y-89458000D01*
X67110500Y-89458000D01*
X67300000Y-89268500D01*
X67300000Y-88075000D01*
X69800000Y-88075000D01*
X69800000Y-89268500D01*
X69989500Y-89458000D01*
X71240775Y-89458000D01*
X71519372Y-89342602D01*
X71732601Y-89129373D01*
X71848000Y-88850776D01*
X71848000Y-88264500D01*
X71658500Y-88075000D01*
X69800000Y-88075000D01*
X67300000Y-88075000D01*
X67280000Y-88075000D01*
X67280000Y-87495225D01*
X72410000Y-87495225D01*
X72410000Y-87956500D01*
X72599500Y-88146000D01*
X73668000Y-88146000D01*
X73668000Y-87077500D01*
X73478500Y-86888000D01*
X73017224Y-86888000D01*
X72738627Y-87003399D01*
X72525398Y-87216628D01*
X72410000Y-87495225D01*
X67280000Y-87495225D01*
X67280000Y-86825000D01*
X67300000Y-86825000D01*
X67300000Y-85631500D01*
X69800000Y-85631500D01*
X69800000Y-86825000D01*
X71658500Y-86825000D01*
X71848000Y-86635500D01*
X71848000Y-86049224D01*
X71732601Y-85770627D01*
X71519372Y-85557398D01*
X71240775Y-85442000D01*
X69989500Y-85442000D01*
X69800000Y-85631500D01*
X67300000Y-85631500D01*
X67110500Y-85442000D01*
X65925000Y-85442000D01*
X65925000Y-82241389D01*
X109047440Y-82135932D01*
X109047440Y-82370000D01*
G36*
X106280000Y-87754693D02*
X106825000Y-87754693D01*
X106825000Y-87875000D01*
X107156882Y-87875000D01*
X107200000Y-87906932D01*
X107200000Y-88525000D01*
X106825000Y-88525000D01*
X106825000Y-88660000D01*
X106075000Y-88660000D01*
X106075000Y-88525000D01*
X105131500Y-88525000D01*
X104996500Y-88660000D01*
X104339693Y-88660000D01*
X104339693Y-87754693D01*
X105011193Y-87754693D01*
X105131500Y-87875000D01*
X106075000Y-87875000D01*
X106075000Y-87713179D01*
X106280000Y-87754693D01*
X106280000Y-87754693D01*
G37*
X106280000Y-87754693D02*
X106825000Y-87754693D01*
X106825000Y-87875000D01*
X107156882Y-87875000D01*
X107200000Y-87906932D01*
X107200000Y-88525000D01*
X106825000Y-88525000D01*
X106825000Y-88660000D01*
X106075000Y-88660000D01*
X106075000Y-88525000D01*
X105131500Y-88525000D01*
X104996500Y-88660000D01*
X104339693Y-88660000D01*
X104339693Y-87754693D01*
X105011193Y-87754693D01*
X105131500Y-87875000D01*
X106075000Y-87875000D01*
X106075000Y-87713179D01*
X106280000Y-87754693D01*
G36*
X94495411Y-86046017D02*
X94467705Y-86185307D01*
X93925000Y-86185307D01*
X93647067Y-86237604D01*
X93511252Y-86324998D01*
X93371972Y-86324998D01*
X93354373Y-86307399D01*
X93075776Y-86192000D01*
X92739500Y-86192000D01*
X92550000Y-86381500D01*
X92550000Y-87262500D01*
X92925000Y-87262500D01*
X92925000Y-87887500D01*
X92550000Y-87887500D01*
X92550000Y-88067307D01*
X91800000Y-88067307D01*
X91800000Y-87887500D01*
X91545647Y-87887500D01*
X91425000Y-87766853D01*
X91425000Y-87262500D01*
X91800000Y-87262500D01*
X91800000Y-86381500D01*
X91610500Y-86192000D01*
X91274224Y-86192000D01*
X90995627Y-86307399D01*
X90978028Y-86324998D01*
X90958000Y-86324998D01*
X90958000Y-85950000D01*
X94559568Y-85950000D01*
X94495411Y-86046017D01*
X94495411Y-86046017D01*
G37*
X94495411Y-86046017D02*
X94467705Y-86185307D01*
X93925000Y-86185307D01*
X93647067Y-86237604D01*
X93511252Y-86324998D01*
X93371972Y-86324998D01*
X93354373Y-86307399D01*
X93075776Y-86192000D01*
X92739500Y-86192000D01*
X92550000Y-86381500D01*
X92550000Y-87262500D01*
X92925000Y-87262500D01*
X92925000Y-87887500D01*
X92550000Y-87887500D01*
X92550000Y-88067307D01*
X91800000Y-88067307D01*
X91800000Y-87887500D01*
X91545647Y-87887500D01*
X91425000Y-87766853D01*
X91425000Y-87262500D01*
X91800000Y-87262500D01*
X91800000Y-86381500D01*
X91610500Y-86192000D01*
X91274224Y-86192000D01*
X90995627Y-86307399D01*
X90978028Y-86324998D01*
X90958000Y-86324998D01*
X90958000Y-85950000D01*
X94559568Y-85950000D01*
X94495411Y-86046017D01*
G36*
X89825000Y-86200000D02*
X90200000Y-86200000D01*
X90200000Y-86764782D01*
X90000000Y-86725000D01*
X88700000Y-86725000D01*
X88700000Y-86200000D01*
X89075000Y-86200000D01*
X89075000Y-85950000D01*
X89825000Y-85950000D01*
X89825000Y-86200000D01*
X89825000Y-86200000D01*
G37*
X89825000Y-86200000D02*
X90200000Y-86200000D01*
X90200000Y-86764782D01*
X90000000Y-86725000D01*
X88700000Y-86725000D01*
X88700000Y-86200000D01*
X89075000Y-86200000D01*
X89075000Y-85950000D01*
X89825000Y-85950000D01*
X89825000Y-86200000D01*
M02*
