M48
;DRILL file {KiCad 4.0.7} date 04/21/20 19:50:22
;FORMAT={-:-/ absolute / metric / decimal}
FMAT,2
METRIC,TZ
T1C0.400
T2C1.000
%
G90
G05
M71
T1
X66.4Y-98.6
X66.6Y-97.6
X66.7Y-100.3
X67.4Y-96.9
X67.8Y-100.6
X68.4Y-84.8
X68.55Y-87.45
X68.55Y-94.95
X68.9Y-83.7
X69.3Y-100.6
X70.Y-82.9
X71.Y-100.6
X71.2Y-82.5
X72.7Y-100.6
X73.615Y-82.3
X73.8Y-100.5
X74.625Y-100.35
X75.96Y-82.35
X76.1Y-100.5
X78.4Y-100.375
X78.41Y-82.35
X78.9Y-92.9
X79.1Y-95.9
X79.2Y-96.9
X79.85Y-100.4
X79.91Y-82.35
X80.7Y-86.4
X81.5Y-85.3
X81.6Y-100.35
X81.8Y-96.
X82.5Y-93.2
X83.075Y-100.45
X83.212Y-82.35
X83.4Y-87.2
X83.5Y-89.6
X84.4Y-100.45
X84.6Y-88.3
X85.598Y-82.35
X86.025Y-100.5
X87.5Y-100.475
X87.75Y-82.37
X89.2Y-100.5
X89.825Y-82.35
X90.725Y-100.5
X91.4Y-82.425
X92.225Y-100.5
X92.9Y-82.3
X92.9Y-86.7
X93.675Y-100.425
X94.14Y-82.33
X95.375Y-100.45
X96.Y-86.3
X96.Y-87.3
X96.4Y-100.4
X96.7Y-82.4
X97.Y-100.3
X98.552Y-82.296
X98.6Y-100.5
X99.568Y-87.376
X100.1Y-100.5
X100.35Y-82.6
X100.584Y-86.106
X100.7Y-87.
X101.7Y-100.6
X102.2Y-82.5
X103.Y-100.6
X103.4Y-98.6
X103.6Y-99.7
X104.Y-82.525
X105.99Y-82.44
T2
X74.168Y-85.09
X74.168Y-88.646
X77.7Y-85.075
X77.725Y-88.7
X80.675Y-98.3
X83.5Y-98.4
X111.35Y-86.2
X111.4Y-92.8
T0
M30
