G04 #@! TF.FileFunction,Soldermask,Top*
%FSLAX46Y46*%
G04 Gerber Fmt 4.6, Leading zero omitted, Abs format (unit mm)*
G04 Created by KiCad (PCBNEW 4.0.7) date 04/20/20 23:00:39*
%MOMM*%
%LPD*%
G01*
G04 APERTURE LIST*
%ADD10C,0.100000*%
%ADD11R,1.900000X1.700000*%
%ADD12R,1.900000X1.650000*%
%ADD13R,1.650000X1.900000*%
%ADD14R,1.400000X1.400000*%
%ADD15R,1.700000X1.900000*%
%ADD16R,2.900000X2.400000*%
%ADD17O,4.900000X2.400000*%
%ADD18R,4.400000X2.400000*%
%ADD19R,2.400000X2.400000*%
%ADD20R,1.400000X2.900000*%
%ADD21R,2.400000X4.400000*%
%ADD22R,5.480000X2.900000*%
%ADD23R,5.480000X1.900000*%
G04 APERTURE END LIST*
D10*
D11*
X84450000Y-96200000D03*
X81750000Y-96200000D03*
D12*
X106954000Y-92710000D03*
X109454000Y-92710000D03*
X99900000Y-96600000D03*
X102400000Y-96600000D03*
D13*
X91948000Y-94254000D03*
X91948000Y-96754000D03*
D12*
X74696000Y-91186000D03*
X77196000Y-91186000D03*
X74696000Y-97790000D03*
X77196000Y-97790000D03*
D13*
X84600000Y-94100000D03*
X84600000Y-91600000D03*
D14*
X77196000Y-95758000D03*
X74696000Y-95758000D03*
D11*
X104330000Y-86340000D03*
X107030000Y-86340000D03*
X105800000Y-96550000D03*
X108500000Y-96550000D03*
X109150000Y-88200000D03*
X106450000Y-88200000D03*
X96150000Y-94775000D03*
X98850000Y-94775000D03*
D15*
X94325000Y-98150000D03*
X94325000Y-95450000D03*
X93750000Y-89600000D03*
X93750000Y-92300000D03*
X84700000Y-89375000D03*
X84700000Y-86675000D03*
D11*
X86750000Y-86525000D03*
X89450000Y-86525000D03*
X74596000Y-93218000D03*
X77296000Y-93218000D03*
X89582000Y-83820000D03*
X92282000Y-83820000D03*
X87202000Y-83820000D03*
X84502000Y-83820000D03*
D16*
X80875000Y-89150000D03*
X80875000Y-85150000D03*
D17*
X108300000Y-99025000D03*
X102100000Y-99075000D03*
X108240000Y-84120000D03*
X102150000Y-84080000D03*
D12*
X99700000Y-86525000D03*
X102200000Y-86525000D03*
X94675000Y-87575000D03*
X92175000Y-87575000D03*
D18*
X112720000Y-92750000D03*
X112500000Y-86230000D03*
D19*
X80675000Y-98300000D03*
X77725000Y-88700000D03*
X74168000Y-88646000D03*
X83500000Y-98400000D03*
X77700000Y-85075000D03*
X74168000Y-85090000D03*
D11*
X106346000Y-90170000D03*
X109046000Y-90170000D03*
D15*
X91948000Y-92282000D03*
X91948000Y-89582000D03*
D20*
X101075000Y-93655000D03*
X102575000Y-93655000D03*
X104075000Y-93655000D03*
D21*
X102575000Y-89695000D03*
D10*
G36*
X103775000Y-91470000D02*
X103275000Y-92620000D01*
X101875000Y-92620000D01*
X101375000Y-91470000D01*
X103775000Y-91470000D01*
X103775000Y-91470000D01*
G37*
D20*
X95650000Y-92205000D03*
X97150000Y-92205000D03*
X98650000Y-92205000D03*
D21*
X97150000Y-88245000D03*
D10*
G36*
X98350000Y-90020000D02*
X97850000Y-91170000D01*
X96450000Y-91170000D01*
X95950000Y-90020000D01*
X98350000Y-90020000D01*
X98350000Y-90020000D01*
G37*
D20*
X86600000Y-94180000D03*
X88100000Y-94180000D03*
X89600000Y-94180000D03*
D21*
X88100000Y-90220000D03*
D10*
G36*
X89300000Y-91995000D02*
X88800000Y-93145000D01*
X87400000Y-93145000D01*
X86900000Y-91995000D01*
X89300000Y-91995000D01*
X89300000Y-91995000D01*
G37*
D22*
X68550000Y-87450000D03*
X68550000Y-94950000D03*
D23*
X68550000Y-91200000D03*
D11*
X68950000Y-98700000D03*
X71650000Y-98700000D03*
M02*
