G04 #@! TF.FileFunction,Legend,Bot*
%FSLAX46Y46*%
G04 Gerber Fmt 4.6, Leading zero omitted, Abs format (unit mm)*
G04 Created by KiCad (PCBNEW 4.0.7) date 04/20/20 23:00:39*
%MOMM*%
%LPD*%
G01*
G04 APERTURE LIST*
%ADD10C,0.100000*%
%ADD11C,0.150000*%
G04 APERTURE END LIST*
D10*
D11*
X107624190Y-91195381D02*
X107957524Y-90719190D01*
X108195619Y-91195381D02*
X108195619Y-90195381D01*
X107814666Y-90195381D01*
X107719428Y-90243000D01*
X107671809Y-90290619D01*
X107624190Y-90385857D01*
X107624190Y-90528714D01*
X107671809Y-90623952D01*
X107719428Y-90671571D01*
X107814666Y-90719190D01*
X108195619Y-90719190D01*
X106862285Y-90671571D02*
X107195619Y-90671571D01*
X107195619Y-91195381D02*
X107195619Y-90195381D01*
X106719428Y-90195381D01*
X105576571Y-91195381D02*
X105576571Y-90195381D01*
X105195618Y-90195381D01*
X105100380Y-90243000D01*
X105052761Y-90290619D01*
X105005142Y-90385857D01*
X105005142Y-90528714D01*
X105052761Y-90623952D01*
X105100380Y-90671571D01*
X105195618Y-90719190D01*
X105576571Y-90719190D01*
X104005142Y-91195381D02*
X104338476Y-90719190D01*
X104576571Y-91195381D02*
X104576571Y-90195381D01*
X104195618Y-90195381D01*
X104100380Y-90243000D01*
X104052761Y-90290619D01*
X104005142Y-90385857D01*
X104005142Y-90528714D01*
X104052761Y-90623952D01*
X104100380Y-90671571D01*
X104195618Y-90719190D01*
X104576571Y-90719190D01*
X103386095Y-90195381D02*
X103195618Y-90195381D01*
X103100380Y-90243000D01*
X103005142Y-90338238D01*
X102957523Y-90528714D01*
X102957523Y-90862048D01*
X103005142Y-91052524D01*
X103100380Y-91147762D01*
X103195618Y-91195381D01*
X103386095Y-91195381D01*
X103481333Y-91147762D01*
X103576571Y-91052524D01*
X103624190Y-90862048D01*
X103624190Y-90528714D01*
X103576571Y-90338238D01*
X103481333Y-90243000D01*
X103386095Y-90195381D01*
X102195618Y-90671571D02*
X102052761Y-90719190D01*
X102005142Y-90766810D01*
X101957523Y-90862048D01*
X101957523Y-91004905D01*
X102005142Y-91100143D01*
X102052761Y-91147762D01*
X102147999Y-91195381D01*
X102528952Y-91195381D01*
X102528952Y-90195381D01*
X102195618Y-90195381D01*
X102100380Y-90243000D01*
X102052761Y-90290619D01*
X102005142Y-90385857D01*
X102005142Y-90481095D01*
X102052761Y-90576333D01*
X102100380Y-90623952D01*
X102195618Y-90671571D01*
X102528952Y-90671571D01*
X101528952Y-90671571D02*
X101195618Y-90671571D01*
X101052761Y-91195381D02*
X101528952Y-91195381D01*
X101528952Y-90195381D01*
X101052761Y-90195381D01*
X108743238Y-92321571D02*
X108600381Y-92369190D01*
X108552762Y-92416810D01*
X108505143Y-92512048D01*
X108505143Y-92654905D01*
X108552762Y-92750143D01*
X108600381Y-92797762D01*
X108695619Y-92845381D01*
X109076572Y-92845381D01*
X109076572Y-91845381D01*
X108743238Y-91845381D01*
X108648000Y-91893000D01*
X108600381Y-91940619D01*
X108552762Y-92035857D01*
X108552762Y-92131095D01*
X108600381Y-92226333D01*
X108648000Y-92273952D01*
X108743238Y-92321571D01*
X109076572Y-92321571D01*
X107886096Y-92369190D02*
X107886096Y-92845381D01*
X108219429Y-91845381D02*
X107886096Y-92369190D01*
X107552762Y-91845381D01*
X106457524Y-92845381D02*
X106457524Y-91845381D01*
X106219429Y-91845381D01*
X106076571Y-91893000D01*
X105981333Y-91988238D01*
X105933714Y-92083476D01*
X105886095Y-92273952D01*
X105886095Y-92416810D01*
X105933714Y-92607286D01*
X105981333Y-92702524D01*
X106076571Y-92797762D01*
X106219429Y-92845381D01*
X106457524Y-92845381D01*
X104695619Y-92845381D02*
X104695619Y-91845381D01*
X104362285Y-92559667D01*
X104028952Y-91845381D01*
X104028952Y-92845381D01*
X103600381Y-92559667D02*
X103124190Y-92559667D01*
X103695619Y-92845381D02*
X103362286Y-91845381D01*
X103028952Y-92845381D01*
X102124190Y-92845381D02*
X102457524Y-92369190D01*
X102695619Y-92845381D02*
X102695619Y-91845381D01*
X102314666Y-91845381D01*
X102219428Y-91893000D01*
X102171809Y-91940619D01*
X102124190Y-92035857D01*
X102124190Y-92178714D01*
X102171809Y-92273952D01*
X102219428Y-92321571D01*
X102314666Y-92369190D01*
X102695619Y-92369190D01*
X101695619Y-92845381D02*
X101695619Y-91845381D01*
X101124190Y-92845381D02*
X101552762Y-92273952D01*
X101124190Y-91845381D02*
X101695619Y-92416810D01*
X100743238Y-92797762D02*
X100600381Y-92845381D01*
X100362285Y-92845381D01*
X100267047Y-92797762D01*
X100219428Y-92750143D01*
X100171809Y-92654905D01*
X100171809Y-92559667D01*
X100219428Y-92464429D01*
X100267047Y-92416810D01*
X100362285Y-92369190D01*
X100552762Y-92321571D01*
X100648000Y-92273952D01*
X100695619Y-92226333D01*
X100743238Y-92131095D01*
X100743238Y-92035857D01*
X100695619Y-91940619D01*
X100648000Y-91893000D01*
X100552762Y-91845381D01*
X100314666Y-91845381D01*
X100171809Y-91893000D01*
X106576571Y-94495381D02*
X106576571Y-93495381D01*
X106005142Y-94495381D02*
X106433714Y-93923952D01*
X106005142Y-93495381D02*
X106576571Y-94066810D01*
X105671809Y-93495381D02*
X105433714Y-94495381D01*
X105243237Y-93781095D01*
X105052761Y-94495381D01*
X104814666Y-93495381D01*
X104005142Y-93828714D02*
X104005142Y-94495381D01*
X104243238Y-93447762D02*
X104481333Y-94162048D01*
X103862285Y-94162048D01*
X103624190Y-93495381D02*
X103052761Y-93495381D01*
X103338476Y-94495381D02*
X103338476Y-93495381D01*
X102719428Y-94495381D02*
X102719428Y-93495381D01*
X109481333Y-96050143D02*
X109528952Y-96097762D01*
X109671809Y-96145381D01*
X109767047Y-96145381D01*
X109909905Y-96097762D01*
X110005143Y-96002524D01*
X110052762Y-95907286D01*
X110100381Y-95716810D01*
X110100381Y-95573952D01*
X110052762Y-95383476D01*
X110005143Y-95288238D01*
X109909905Y-95193000D01*
X109767047Y-95145381D01*
X109671809Y-95145381D01*
X109528952Y-95193000D01*
X109481333Y-95240619D01*
X108481333Y-96050143D02*
X108528952Y-96097762D01*
X108671809Y-96145381D01*
X108767047Y-96145381D01*
X108909905Y-96097762D01*
X109005143Y-96002524D01*
X109052762Y-95907286D01*
X109100381Y-95716810D01*
X109100381Y-95573952D01*
X109052762Y-95383476D01*
X109005143Y-95288238D01*
X108909905Y-95193000D01*
X108767047Y-95145381D01*
X108671809Y-95145381D01*
X108528952Y-95193000D01*
X108481333Y-95240619D01*
X108052762Y-95764429D02*
X107290857Y-95764429D01*
X106481333Y-95621571D02*
X106338476Y-95669190D01*
X106290857Y-95716810D01*
X106243238Y-95812048D01*
X106243238Y-95954905D01*
X106290857Y-96050143D01*
X106338476Y-96097762D01*
X106433714Y-96145381D01*
X106814667Y-96145381D01*
X106814667Y-95145381D01*
X106481333Y-95145381D01*
X106386095Y-95193000D01*
X106338476Y-95240619D01*
X106290857Y-95335857D01*
X106290857Y-95431095D01*
X106338476Y-95526333D01*
X106386095Y-95573952D01*
X106481333Y-95621571D01*
X106814667Y-95621571D01*
X105624191Y-95669190D02*
X105624191Y-96145381D01*
X105957524Y-95145381D02*
X105624191Y-95669190D01*
X105290857Y-95145381D01*
X104957524Y-95764429D02*
X104195619Y-95764429D01*
X103767048Y-96097762D02*
X103624191Y-96145381D01*
X103386095Y-96145381D01*
X103290857Y-96097762D01*
X103243238Y-96050143D01*
X103195619Y-95954905D01*
X103195619Y-95859667D01*
X103243238Y-95764429D01*
X103290857Y-95716810D01*
X103386095Y-95669190D01*
X103576572Y-95621571D01*
X103671810Y-95573952D01*
X103719429Y-95526333D01*
X103767048Y-95431095D01*
X103767048Y-95335857D01*
X103719429Y-95240619D01*
X103671810Y-95193000D01*
X103576572Y-95145381D01*
X103338476Y-95145381D01*
X103195619Y-95193000D01*
X102814667Y-95859667D02*
X102338476Y-95859667D01*
X102909905Y-96145381D02*
X102576572Y-95145381D01*
X102243238Y-96145381D01*
X100719428Y-95478714D02*
X100719428Y-96145381D01*
X100957524Y-95097762D02*
X101195619Y-95812048D01*
X100576571Y-95812048D01*
X100195619Y-96050143D02*
X100148000Y-96097762D01*
X100195619Y-96145381D01*
X100243238Y-96097762D01*
X100195619Y-96050143D01*
X100195619Y-96145381D01*
X99528953Y-95145381D02*
X99433714Y-95145381D01*
X99338476Y-95193000D01*
X99290857Y-95240619D01*
X99243238Y-95335857D01*
X99195619Y-95526333D01*
X99195619Y-95764429D01*
X99243238Y-95954905D01*
X99290857Y-96050143D01*
X99338476Y-96097762D01*
X99433714Y-96145381D01*
X99528953Y-96145381D01*
X99624191Y-96097762D01*
X99671810Y-96050143D01*
X99719429Y-95954905D01*
X99767048Y-95764429D01*
X99767048Y-95526333D01*
X99719429Y-95335857D01*
X99671810Y-95240619D01*
X99624191Y-95193000D01*
X99528953Y-95145381D01*
X113551904Y-87370000D02*
X113647142Y-87322381D01*
X113789999Y-87322381D01*
X113932857Y-87370000D01*
X114028095Y-87465238D01*
X114075714Y-87560476D01*
X114123333Y-87750952D01*
X114123333Y-87893810D01*
X114075714Y-88084286D01*
X114028095Y-88179524D01*
X113932857Y-88274762D01*
X113789999Y-88322381D01*
X113694761Y-88322381D01*
X113551904Y-88274762D01*
X113504285Y-88227143D01*
X113504285Y-87893810D01*
X113694761Y-87893810D01*
X113075714Y-88322381D02*
X113075714Y-87322381D01*
X112504285Y-88322381D01*
X112504285Y-87322381D01*
X112028095Y-88322381D02*
X112028095Y-87322381D01*
X111790000Y-87322381D01*
X111647142Y-87370000D01*
X111551904Y-87465238D01*
X111504285Y-87560476D01*
X111456666Y-87750952D01*
X111456666Y-87893810D01*
X111504285Y-88084286D01*
X111551904Y-88179524D01*
X111647142Y-88274762D01*
X111790000Y-88322381D01*
X112028095Y-88322381D01*
X112679047Y-95172381D02*
X113012381Y-94696190D01*
X113250476Y-95172381D02*
X113250476Y-94172381D01*
X112869523Y-94172381D01*
X112774285Y-94220000D01*
X112726666Y-94267619D01*
X112679047Y-94362857D01*
X112679047Y-94505714D01*
X112726666Y-94600952D01*
X112774285Y-94648571D01*
X112869523Y-94696190D01*
X113250476Y-94696190D01*
X111917142Y-94648571D02*
X112250476Y-94648571D01*
X112250476Y-95172381D02*
X112250476Y-94172381D01*
X111774285Y-94172381D01*
X79257143Y-87279762D02*
X79114286Y-87327381D01*
X78876190Y-87327381D01*
X78780952Y-87279762D01*
X78733333Y-87232143D01*
X78685714Y-87136905D01*
X78685714Y-87041667D01*
X78733333Y-86946429D01*
X78780952Y-86898810D01*
X78876190Y-86851190D01*
X79066667Y-86803571D01*
X79161905Y-86755952D01*
X79209524Y-86708333D01*
X79257143Y-86613095D01*
X79257143Y-86517857D01*
X79209524Y-86422619D01*
X79161905Y-86375000D01*
X79066667Y-86327381D01*
X78828571Y-86327381D01*
X78685714Y-86375000D01*
X78352381Y-86327381D02*
X78114286Y-87327381D01*
X77923809Y-86613095D01*
X77733333Y-87327381D01*
X77495238Y-86327381D01*
X74932143Y-87304762D02*
X74789286Y-87352381D01*
X74551190Y-87352381D01*
X74455952Y-87304762D01*
X74408333Y-87257143D01*
X74360714Y-87161905D01*
X74360714Y-87066667D01*
X74408333Y-86971429D01*
X74455952Y-86923810D01*
X74551190Y-86876190D01*
X74741667Y-86828571D01*
X74836905Y-86780952D01*
X74884524Y-86733333D01*
X74932143Y-86638095D01*
X74932143Y-86542857D01*
X74884524Y-86447619D01*
X74836905Y-86400000D01*
X74741667Y-86352381D01*
X74503571Y-86352381D01*
X74360714Y-86400000D01*
X74027381Y-86352381D02*
X73789286Y-87352381D01*
X73598809Y-86638095D01*
X73408333Y-87352381D01*
X73170238Y-86352381D01*
X87061904Y-98200000D02*
X87157142Y-98152381D01*
X87299999Y-98152381D01*
X87442857Y-98200000D01*
X87538095Y-98295238D01*
X87585714Y-98390476D01*
X87633333Y-98580952D01*
X87633333Y-98723810D01*
X87585714Y-98914286D01*
X87538095Y-99009524D01*
X87442857Y-99104762D01*
X87299999Y-99152381D01*
X87204761Y-99152381D01*
X87061904Y-99104762D01*
X87014285Y-99057143D01*
X87014285Y-98723810D01*
X87204761Y-98723810D01*
X86585714Y-99152381D02*
X86585714Y-98152381D01*
X86014285Y-99152381D01*
X86014285Y-98152381D01*
X85538095Y-99152381D02*
X85538095Y-98152381D01*
X85300000Y-98152381D01*
X85157142Y-98200000D01*
X85061904Y-98295238D01*
X85014285Y-98390476D01*
X84966666Y-98580952D01*
X84966666Y-98723810D01*
X85014285Y-98914286D01*
X85061904Y-99009524D01*
X85157142Y-99104762D01*
X85300000Y-99152381D01*
X85538095Y-99152381D01*
X79030952Y-98821429D02*
X78269047Y-98821429D01*
X78649999Y-99202381D02*
X78649999Y-98440476D01*
X86900000Y-96028571D02*
X86566666Y-96028571D01*
X86423809Y-96552381D02*
X86900000Y-96552381D01*
X86900000Y-95552381D01*
X86423809Y-95552381D01*
X85995238Y-96552381D02*
X85995238Y-95552381D01*
X85423809Y-96552381D01*
X85423809Y-95552381D01*
X85090476Y-95552381D02*
X84757143Y-96552381D01*
X84423809Y-95552381D01*
X84090476Y-96028571D02*
X83757142Y-96028571D01*
X83614285Y-96552381D02*
X84090476Y-96552381D01*
X84090476Y-95552381D01*
X83614285Y-95552381D01*
X82709523Y-96552381D02*
X83185714Y-96552381D01*
X83185714Y-95552381D01*
X82185714Y-95552381D02*
X81995237Y-95552381D01*
X81899999Y-95600000D01*
X81804761Y-95695238D01*
X81757142Y-95885714D01*
X81757142Y-96219048D01*
X81804761Y-96409524D01*
X81899999Y-96504762D01*
X81995237Y-96552381D01*
X82185714Y-96552381D01*
X82280952Y-96504762D01*
X82376190Y-96409524D01*
X82423809Y-96219048D01*
X82423809Y-95885714D01*
X82376190Y-95695238D01*
X82280952Y-95600000D01*
X82185714Y-95552381D01*
X81328571Y-96552381D02*
X81328571Y-95552381D01*
X80947618Y-95552381D01*
X80852380Y-95600000D01*
X80804761Y-95647619D01*
X80757142Y-95742857D01*
X80757142Y-95885714D01*
X80804761Y-95980952D01*
X80852380Y-96028571D01*
X80947618Y-96076190D01*
X81328571Y-96076190D01*
X80328571Y-96028571D02*
X79995237Y-96028571D01*
X79852380Y-96552381D02*
X80328571Y-96552381D01*
X80328571Y-95552381D01*
X79852380Y-95552381D01*
X74932142Y-90603571D02*
X74789285Y-90651190D01*
X74741666Y-90698810D01*
X74694047Y-90794048D01*
X74694047Y-90936905D01*
X74741666Y-91032143D01*
X74789285Y-91079762D01*
X74884523Y-91127381D01*
X75265476Y-91127381D01*
X75265476Y-90127381D01*
X74932142Y-90127381D01*
X74836904Y-90175000D01*
X74789285Y-90222619D01*
X74741666Y-90317857D01*
X74741666Y-90413095D01*
X74789285Y-90508333D01*
X74836904Y-90555952D01*
X74932142Y-90603571D01*
X75265476Y-90603571D01*
X74313095Y-90841667D02*
X73836904Y-90841667D01*
X74408333Y-91127381D02*
X74075000Y-90127381D01*
X73741666Y-91127381D01*
X73551190Y-90127381D02*
X72979761Y-90127381D01*
X73265476Y-91127381D02*
X73265476Y-90127381D01*
X72646428Y-90746429D02*
X71884523Y-90746429D01*
X79357142Y-90603571D02*
X79214285Y-90651190D01*
X79166666Y-90698810D01*
X79119047Y-90794048D01*
X79119047Y-90936905D01*
X79166666Y-91032143D01*
X79214285Y-91079762D01*
X79309523Y-91127381D01*
X79690476Y-91127381D01*
X79690476Y-90127381D01*
X79357142Y-90127381D01*
X79261904Y-90175000D01*
X79214285Y-90222619D01*
X79166666Y-90317857D01*
X79166666Y-90413095D01*
X79214285Y-90508333D01*
X79261904Y-90555952D01*
X79357142Y-90603571D01*
X79690476Y-90603571D01*
X78738095Y-90841667D02*
X78261904Y-90841667D01*
X78833333Y-91127381D02*
X78500000Y-90127381D01*
X78166666Y-91127381D01*
X77976190Y-90127381D02*
X77404761Y-90127381D01*
X77690476Y-91127381D02*
X77690476Y-90127381D01*
X77071428Y-90746429D02*
X76309523Y-90746429D01*
X76690475Y-91127381D02*
X76690475Y-90365476D01*
M02*
