G04 #@! TF.FileFunction,Copper,L2,Bot,Signal*
%FSLAX46Y46*%
G04 Gerber Fmt 4.6, Leading zero omitted, Abs format (unit mm)*
G04 Created by KiCad (PCBNEW 4.0.7) date 04/28/20 20:54:32*
%MOMM*%
%LPD*%
G01*
G04 APERTURE LIST*
%ADD10C,0.100000*%
%ADD11R,4.000000X1.500000*%
%ADD12R,2.000000X2.000000*%
%ADD13R,5.080000X2.500000*%
%ADD14C,0.600000*%
%ADD15C,1.500000*%
%ADD16C,0.350000*%
%ADD17C,0.500000*%
%ADD18C,0.254000*%
G04 APERTURE END LIST*
D10*
D11*
X115570000Y-92964000D03*
X115570000Y-84074000D03*
D12*
X80620000Y-99150000D03*
X77725000Y-88700000D03*
X74168000Y-88646000D03*
X83620000Y-99090000D03*
X77700000Y-85075000D03*
X74168000Y-85090000D03*
D13*
X68550000Y-87450000D03*
X68550000Y-94950000D03*
D14*
X83250000Y-94500000D03*
X83750000Y-92000000D03*
X82260000Y-89390000D03*
X81290000Y-87220000D03*
X77370000Y-97120000D03*
X78550000Y-97110000D03*
X76110000Y-96970000D03*
X72760000Y-95360000D03*
X73870000Y-94840000D03*
X73990000Y-93970000D03*
X92964000Y-87884000D03*
X94234000Y-87122000D03*
X95758000Y-88138000D03*
X99314000Y-85598000D03*
X97028000Y-86360000D03*
X98806000Y-87376000D03*
X101854000Y-87884000D03*
X101854000Y-87122000D03*
X101854000Y-88900000D03*
X79550000Y-88575000D03*
X85598000Y-87122000D03*
X83312000Y-87122000D03*
X83312000Y-85852000D03*
X100240000Y-97200000D03*
X101410000Y-98650000D03*
X102770000Y-97090000D03*
X95375000Y-100450000D03*
X93675000Y-100425000D03*
X92225000Y-100500000D03*
X90725000Y-100500000D03*
X89200000Y-100500000D03*
X87500000Y-100475000D03*
X84440000Y-100660000D03*
X86025000Y-100500000D03*
X83115000Y-100660000D03*
X81650000Y-100660000D03*
X78430000Y-100650000D03*
X79900000Y-100710000D03*
X103000000Y-100600000D03*
X101700000Y-100600000D03*
X100100000Y-100500000D03*
X98600000Y-100500000D03*
X97430000Y-100450000D03*
X96400000Y-100400000D03*
X73125000Y-81400000D03*
X76085000Y-81375000D03*
X78510000Y-81475000D03*
X80950000Y-82225000D03*
X83550000Y-82200000D03*
X85498000Y-81650000D03*
X87500000Y-81500000D03*
X90125000Y-81450000D03*
X91680000Y-82310000D03*
X68400000Y-84800000D03*
X68900000Y-83700000D03*
X69300000Y-81700000D03*
X71000000Y-81450000D03*
X68550000Y-87450000D03*
X67400000Y-96900000D03*
X66600000Y-97600000D03*
X66400000Y-98600000D03*
X66700000Y-100300000D03*
X67800000Y-100600000D03*
X69300000Y-100600000D03*
X71000000Y-100600000D03*
X72700000Y-100600000D03*
X73800000Y-100500000D03*
X68550000Y-94950000D03*
X92900000Y-81400000D03*
X94440000Y-81430000D03*
X76100000Y-100500000D03*
X74625000Y-100350000D03*
X97000000Y-81500000D03*
X100540000Y-82690000D03*
X102550000Y-82480000D03*
X102300000Y-81400000D03*
X100450000Y-81500000D03*
X98800000Y-81500000D03*
D15*
X115570000Y-84074000D02*
X102616000Y-84074000D01*
X102616000Y-84074000D02*
X102362000Y-83820000D01*
D16*
X78430000Y-100650000D02*
X77000000Y-100375000D01*
X92300000Y-100425000D02*
X93675000Y-100425000D01*
X92225000Y-100500000D02*
X92300000Y-100425000D01*
X89275000Y-100425000D02*
X90725000Y-100500000D01*
X89200000Y-100500000D02*
X89275000Y-100425000D01*
X86050000Y-100475000D02*
X87500000Y-100475000D01*
X86025000Y-100500000D02*
X86050000Y-100475000D01*
X83115000Y-100660000D02*
X84440000Y-100660000D01*
X79900000Y-100710000D02*
X79950000Y-100660000D01*
X79950000Y-100660000D02*
X81650000Y-100660000D01*
X77000000Y-100375000D02*
X76100000Y-100500000D01*
X96400000Y-100400000D02*
X97430000Y-100450000D01*
X101700000Y-100600000D02*
X103000000Y-100600000D01*
X98600000Y-100500000D02*
X100100000Y-100500000D01*
X95375000Y-100450000D02*
X96250000Y-100550000D01*
X96250000Y-100550000D02*
X96400000Y-100400000D01*
X73125000Y-81400000D02*
X76085000Y-81375000D01*
X78510000Y-81475000D02*
X78765000Y-81350000D01*
X78765000Y-81350000D02*
X80950000Y-82225000D01*
X83550000Y-82200000D02*
X83600000Y-82250000D01*
X83600000Y-82250000D02*
X85498000Y-81650000D01*
X87500000Y-81500000D02*
X88530000Y-81445000D01*
X88530000Y-81445000D02*
X90125000Y-81450000D01*
X68400000Y-84200000D02*
X68400000Y-84800000D01*
X68900000Y-83700000D02*
X68400000Y-84200000D01*
X70300000Y-81500000D02*
X69300000Y-81700000D01*
X71000000Y-81450000D02*
X70300000Y-81500000D01*
X67400000Y-96900000D02*
X68550000Y-95750000D01*
X66600000Y-98400000D02*
X66600000Y-97600000D01*
X66400000Y-98600000D02*
X66600000Y-98400000D01*
X67500000Y-100300000D02*
X66700000Y-100300000D01*
X67800000Y-100600000D02*
X67500000Y-100300000D01*
X71000000Y-100600000D02*
X69300000Y-100600000D01*
X73700000Y-100600000D02*
X72700000Y-100600000D01*
X73800000Y-100500000D02*
X73700000Y-100600000D01*
X68550000Y-95750000D02*
X68550000Y-94950000D01*
D17*
X115570000Y-84074000D02*
X115570000Y-83887600D01*
D16*
X92900000Y-81400000D02*
X92920000Y-81380000D01*
X92920000Y-81380000D02*
X94440000Y-81430000D01*
X76325000Y-100500000D02*
X76350000Y-100525000D01*
X74625000Y-100350000D02*
X76100000Y-100500000D01*
X95375000Y-100450000D02*
X95425000Y-100500000D01*
X100540000Y-82690000D02*
X100707640Y-82857640D01*
X102325000Y-81425000D02*
X102550000Y-82480000D01*
X102300000Y-81400000D02*
X102325000Y-81425000D01*
X98900000Y-81400000D02*
X100450000Y-81500000D01*
X98800000Y-81500000D02*
X98900000Y-81400000D01*
D18*
G36*
X103752352Y-81238788D02*
X103386727Y-81483091D01*
X103142424Y-81848716D01*
X103056636Y-82280000D01*
X103142424Y-82711284D01*
X103386727Y-83076909D01*
X103752352Y-83321212D01*
X104183636Y-83407000D01*
X106373000Y-83407000D01*
X106373000Y-85052426D01*
X106369012Y-85055091D01*
X106124709Y-85420716D01*
X106038921Y-85852000D01*
X106124709Y-86283284D01*
X106326845Y-86585802D01*
X106168788Y-86822352D01*
X106083000Y-87253636D01*
X106083000Y-87623000D01*
X104500000Y-87623000D01*
X104450590Y-87633006D01*
X104408965Y-87661447D01*
X104381685Y-87703841D01*
X104373000Y-87750000D01*
X104373000Y-93513000D01*
X104023636Y-93513000D01*
X103592352Y-93598788D01*
X103226727Y-93843091D01*
X102982424Y-94208716D01*
X102896636Y-94640000D01*
X102982424Y-95071284D01*
X103176177Y-95361256D01*
X103123091Y-95396727D01*
X102878788Y-95762352D01*
X102793000Y-96193636D01*
X102793000Y-99806364D01*
X102878788Y-100237648D01*
X103123091Y-100603273D01*
X103488716Y-100847576D01*
X103920000Y-100933364D01*
X104351284Y-100847576D01*
X104373000Y-100833066D01*
X104373000Y-101298000D01*
X66202000Y-101298000D01*
X66202000Y-98150000D01*
X78980717Y-98150000D01*
X78980717Y-100150000D01*
X79024437Y-100382352D01*
X79161757Y-100595753D01*
X79371283Y-100738917D01*
X79620000Y-100789283D01*
X81620000Y-100789283D01*
X81852352Y-100745563D01*
X82065753Y-100608243D01*
X82136572Y-100504597D01*
X82260302Y-100628327D01*
X82493691Y-100725000D01*
X83334250Y-100725000D01*
X83493000Y-100566250D01*
X83493000Y-99217000D01*
X83473000Y-99217000D01*
X83473000Y-98963000D01*
X83493000Y-98963000D01*
X83493000Y-97613750D01*
X83747000Y-97613750D01*
X83747000Y-98963000D01*
X83767000Y-98963000D01*
X83767000Y-99217000D01*
X83747000Y-99217000D01*
X83747000Y-100566250D01*
X83905750Y-100725000D01*
X84746309Y-100725000D01*
X84979698Y-100628327D01*
X85158327Y-100449699D01*
X85255000Y-100216310D01*
X85255000Y-99619181D01*
X85543173Y-100050463D01*
X86071010Y-100403152D01*
X86693636Y-100527000D01*
X89306364Y-100527000D01*
X89928990Y-100403152D01*
X90456827Y-100050463D01*
X90809516Y-99522626D01*
X90933364Y-98900000D01*
X90914667Y-98806000D01*
X92316636Y-98806000D01*
X92440484Y-99428626D01*
X92793173Y-99956463D01*
X93321010Y-100309152D01*
X93943636Y-100433000D01*
X96556364Y-100433000D01*
X97178990Y-100309152D01*
X97706827Y-99956463D01*
X98059516Y-99428626D01*
X98183364Y-98806000D01*
X98059516Y-98183374D01*
X97706827Y-97655537D01*
X97178990Y-97302848D01*
X96556364Y-97179000D01*
X93943636Y-97179000D01*
X93321010Y-97302848D01*
X92793173Y-97655537D01*
X92440484Y-98183374D01*
X92316636Y-98806000D01*
X90914667Y-98806000D01*
X90809516Y-98277374D01*
X90456827Y-97749537D01*
X89928990Y-97396848D01*
X89306364Y-97273000D01*
X86693636Y-97273000D01*
X86071010Y-97396848D01*
X85543173Y-97749537D01*
X85255000Y-98180819D01*
X85255000Y-97963690D01*
X85158327Y-97730301D01*
X84979698Y-97551673D01*
X84746309Y-97455000D01*
X83905750Y-97455000D01*
X83747000Y-97613750D01*
X83493000Y-97613750D01*
X83334250Y-97455000D01*
X82493691Y-97455000D01*
X82260302Y-97551673D01*
X82089787Y-97722187D01*
X82078243Y-97704247D01*
X81868717Y-97561083D01*
X81620000Y-97510717D01*
X79620000Y-97510717D01*
X79387648Y-97554437D01*
X79174247Y-97691757D01*
X79031083Y-97901283D01*
X78980717Y-98150000D01*
X66202000Y-98150000D01*
X66202000Y-96835000D01*
X68264250Y-96835000D01*
X68423000Y-96676250D01*
X68423000Y-95077000D01*
X68677000Y-95077000D01*
X68677000Y-96676250D01*
X68835750Y-96835000D01*
X71216310Y-96835000D01*
X71449699Y-96738327D01*
X71628327Y-96559698D01*
X71725000Y-96326309D01*
X71725000Y-95235750D01*
X71566250Y-95077000D01*
X68677000Y-95077000D01*
X68423000Y-95077000D01*
X68403000Y-95077000D01*
X68403000Y-94823000D01*
X68423000Y-94823000D01*
X68423000Y-93223750D01*
X68677000Y-93223750D01*
X68677000Y-94823000D01*
X71566250Y-94823000D01*
X71725000Y-94664250D01*
X71725000Y-93573691D01*
X71628327Y-93340302D01*
X71449699Y-93161673D01*
X71216310Y-93065000D01*
X68835750Y-93065000D01*
X68677000Y-93223750D01*
X68423000Y-93223750D01*
X68264250Y-93065000D01*
X66202000Y-93065000D01*
X66202000Y-89335000D01*
X68264250Y-89335000D01*
X68423000Y-89176250D01*
X68423000Y-87577000D01*
X68677000Y-87577000D01*
X68677000Y-89176250D01*
X68835750Y-89335000D01*
X71216310Y-89335000D01*
X71449699Y-89238327D01*
X71628327Y-89059698D01*
X71681324Y-88931750D01*
X72533000Y-88931750D01*
X72533000Y-89772310D01*
X72629673Y-90005699D01*
X72808302Y-90184327D01*
X73041691Y-90281000D01*
X73882250Y-90281000D01*
X74041000Y-90122250D01*
X74041000Y-88773000D01*
X74295000Y-88773000D01*
X74295000Y-90122250D01*
X74453750Y-90281000D01*
X75294309Y-90281000D01*
X75527698Y-90184327D01*
X75706327Y-90005699D01*
X75803000Y-89772310D01*
X75803000Y-88931750D01*
X75644250Y-88773000D01*
X74295000Y-88773000D01*
X74041000Y-88773000D01*
X72691750Y-88773000D01*
X72533000Y-88931750D01*
X71681324Y-88931750D01*
X71725000Y-88826309D01*
X71725000Y-87735750D01*
X71566250Y-87577000D01*
X68677000Y-87577000D01*
X68423000Y-87577000D01*
X68403000Y-87577000D01*
X68403000Y-87519690D01*
X72533000Y-87519690D01*
X72533000Y-88360250D01*
X72691750Y-88519000D01*
X74041000Y-88519000D01*
X74041000Y-87169750D01*
X74295000Y-87169750D01*
X74295000Y-88519000D01*
X75644250Y-88519000D01*
X75803000Y-88360250D01*
X75803000Y-87700000D01*
X76085717Y-87700000D01*
X76085717Y-89700000D01*
X76129437Y-89932352D01*
X76266757Y-90145753D01*
X76476283Y-90288917D01*
X76725000Y-90339283D01*
X78725000Y-90339283D01*
X78957352Y-90295563D01*
X79170753Y-90158243D01*
X79313917Y-89948717D01*
X79364283Y-89700000D01*
X79364283Y-87700000D01*
X79320563Y-87467648D01*
X79183243Y-87254247D01*
X78973717Y-87111083D01*
X78725000Y-87060717D01*
X76725000Y-87060717D01*
X76492648Y-87104437D01*
X76279247Y-87241757D01*
X76136083Y-87451283D01*
X76085717Y-87700000D01*
X75803000Y-87700000D01*
X75803000Y-87519690D01*
X75706327Y-87286301D01*
X75527698Y-87107673D01*
X75294309Y-87011000D01*
X74453750Y-87011000D01*
X74295000Y-87169750D01*
X74041000Y-87169750D01*
X73882250Y-87011000D01*
X73041691Y-87011000D01*
X72808302Y-87107673D01*
X72629673Y-87286301D01*
X72533000Y-87519690D01*
X68403000Y-87519690D01*
X68403000Y-87323000D01*
X68423000Y-87323000D01*
X68423000Y-85723750D01*
X68677000Y-85723750D01*
X68677000Y-87323000D01*
X71566250Y-87323000D01*
X71725000Y-87164250D01*
X71725000Y-86073691D01*
X71628327Y-85840302D01*
X71449699Y-85661673D01*
X71216310Y-85565000D01*
X68835750Y-85565000D01*
X68677000Y-85723750D01*
X68423000Y-85723750D01*
X68264250Y-85565000D01*
X66202000Y-85565000D01*
X66202000Y-84090000D01*
X72528717Y-84090000D01*
X72528717Y-86090000D01*
X72572437Y-86322352D01*
X72709757Y-86535753D01*
X72919283Y-86678917D01*
X73168000Y-86729283D01*
X75168000Y-86729283D01*
X75400352Y-86685563D01*
X75613753Y-86548243D01*
X75756917Y-86338717D01*
X75807283Y-86090000D01*
X75807283Y-84090000D01*
X75804461Y-84075000D01*
X76060717Y-84075000D01*
X76060717Y-86075000D01*
X76104437Y-86307352D01*
X76241757Y-86520753D01*
X76451283Y-86663917D01*
X76700000Y-86714283D01*
X78700000Y-86714283D01*
X78932352Y-86670563D01*
X79145753Y-86533243D01*
X79288917Y-86323717D01*
X79339283Y-86075000D01*
X79339283Y-84075000D01*
X79295563Y-83842648D01*
X79158243Y-83629247D01*
X78948717Y-83486083D01*
X78700000Y-83435717D01*
X76700000Y-83435717D01*
X76467648Y-83479437D01*
X76254247Y-83616757D01*
X76111083Y-83826283D01*
X76060717Y-84075000D01*
X75804461Y-84075000D01*
X75763563Y-83857648D01*
X75626243Y-83644247D01*
X75416717Y-83501083D01*
X75168000Y-83450717D01*
X73168000Y-83450717D01*
X72935648Y-83494437D01*
X72722247Y-83631757D01*
X72579083Y-83841283D01*
X72528717Y-84090000D01*
X66202000Y-84090000D01*
X66202000Y-83000000D01*
X84966636Y-83000000D01*
X85090484Y-83622626D01*
X85443173Y-84150463D01*
X85971010Y-84503152D01*
X86593636Y-84627000D01*
X89206364Y-84627000D01*
X89828990Y-84503152D01*
X90356827Y-84150463D01*
X90709516Y-83622626D01*
X90833364Y-83000000D01*
X92566636Y-83000000D01*
X92690484Y-83622626D01*
X93043173Y-84150463D01*
X93571010Y-84503152D01*
X94193636Y-84627000D01*
X96806364Y-84627000D01*
X97428990Y-84503152D01*
X97956827Y-84150463D01*
X98309516Y-83622626D01*
X98433364Y-83000000D01*
X98309516Y-82377374D01*
X97956827Y-81849537D01*
X97428990Y-81496848D01*
X96806364Y-81373000D01*
X94193636Y-81373000D01*
X93571010Y-81496848D01*
X93043173Y-81849537D01*
X92690484Y-82377374D01*
X92566636Y-83000000D01*
X90833364Y-83000000D01*
X90709516Y-82377374D01*
X90356827Y-81849537D01*
X89828990Y-81496848D01*
X89206364Y-81373000D01*
X86593636Y-81373000D01*
X85971010Y-81496848D01*
X85443173Y-81849537D01*
X85090484Y-82377374D01*
X84966636Y-83000000D01*
X66202000Y-83000000D01*
X66202000Y-81202000D01*
X103937297Y-81202000D01*
X103752352Y-81238788D01*
X103752352Y-81238788D01*
G37*
X103752352Y-81238788D02*
X103386727Y-81483091D01*
X103142424Y-81848716D01*
X103056636Y-82280000D01*
X103142424Y-82711284D01*
X103386727Y-83076909D01*
X103752352Y-83321212D01*
X104183636Y-83407000D01*
X106373000Y-83407000D01*
X106373000Y-85052426D01*
X106369012Y-85055091D01*
X106124709Y-85420716D01*
X106038921Y-85852000D01*
X106124709Y-86283284D01*
X106326845Y-86585802D01*
X106168788Y-86822352D01*
X106083000Y-87253636D01*
X106083000Y-87623000D01*
X104500000Y-87623000D01*
X104450590Y-87633006D01*
X104408965Y-87661447D01*
X104381685Y-87703841D01*
X104373000Y-87750000D01*
X104373000Y-93513000D01*
X104023636Y-93513000D01*
X103592352Y-93598788D01*
X103226727Y-93843091D01*
X102982424Y-94208716D01*
X102896636Y-94640000D01*
X102982424Y-95071284D01*
X103176177Y-95361256D01*
X103123091Y-95396727D01*
X102878788Y-95762352D01*
X102793000Y-96193636D01*
X102793000Y-99806364D01*
X102878788Y-100237648D01*
X103123091Y-100603273D01*
X103488716Y-100847576D01*
X103920000Y-100933364D01*
X104351284Y-100847576D01*
X104373000Y-100833066D01*
X104373000Y-101298000D01*
X66202000Y-101298000D01*
X66202000Y-98150000D01*
X78980717Y-98150000D01*
X78980717Y-100150000D01*
X79024437Y-100382352D01*
X79161757Y-100595753D01*
X79371283Y-100738917D01*
X79620000Y-100789283D01*
X81620000Y-100789283D01*
X81852352Y-100745563D01*
X82065753Y-100608243D01*
X82136572Y-100504597D01*
X82260302Y-100628327D01*
X82493691Y-100725000D01*
X83334250Y-100725000D01*
X83493000Y-100566250D01*
X83493000Y-99217000D01*
X83473000Y-99217000D01*
X83473000Y-98963000D01*
X83493000Y-98963000D01*
X83493000Y-97613750D01*
X83747000Y-97613750D01*
X83747000Y-98963000D01*
X83767000Y-98963000D01*
X83767000Y-99217000D01*
X83747000Y-99217000D01*
X83747000Y-100566250D01*
X83905750Y-100725000D01*
X84746309Y-100725000D01*
X84979698Y-100628327D01*
X85158327Y-100449699D01*
X85255000Y-100216310D01*
X85255000Y-99619181D01*
X85543173Y-100050463D01*
X86071010Y-100403152D01*
X86693636Y-100527000D01*
X89306364Y-100527000D01*
X89928990Y-100403152D01*
X90456827Y-100050463D01*
X90809516Y-99522626D01*
X90933364Y-98900000D01*
X90914667Y-98806000D01*
X92316636Y-98806000D01*
X92440484Y-99428626D01*
X92793173Y-99956463D01*
X93321010Y-100309152D01*
X93943636Y-100433000D01*
X96556364Y-100433000D01*
X97178990Y-100309152D01*
X97706827Y-99956463D01*
X98059516Y-99428626D01*
X98183364Y-98806000D01*
X98059516Y-98183374D01*
X97706827Y-97655537D01*
X97178990Y-97302848D01*
X96556364Y-97179000D01*
X93943636Y-97179000D01*
X93321010Y-97302848D01*
X92793173Y-97655537D01*
X92440484Y-98183374D01*
X92316636Y-98806000D01*
X90914667Y-98806000D01*
X90809516Y-98277374D01*
X90456827Y-97749537D01*
X89928990Y-97396848D01*
X89306364Y-97273000D01*
X86693636Y-97273000D01*
X86071010Y-97396848D01*
X85543173Y-97749537D01*
X85255000Y-98180819D01*
X85255000Y-97963690D01*
X85158327Y-97730301D01*
X84979698Y-97551673D01*
X84746309Y-97455000D01*
X83905750Y-97455000D01*
X83747000Y-97613750D01*
X83493000Y-97613750D01*
X83334250Y-97455000D01*
X82493691Y-97455000D01*
X82260302Y-97551673D01*
X82089787Y-97722187D01*
X82078243Y-97704247D01*
X81868717Y-97561083D01*
X81620000Y-97510717D01*
X79620000Y-97510717D01*
X79387648Y-97554437D01*
X79174247Y-97691757D01*
X79031083Y-97901283D01*
X78980717Y-98150000D01*
X66202000Y-98150000D01*
X66202000Y-96835000D01*
X68264250Y-96835000D01*
X68423000Y-96676250D01*
X68423000Y-95077000D01*
X68677000Y-95077000D01*
X68677000Y-96676250D01*
X68835750Y-96835000D01*
X71216310Y-96835000D01*
X71449699Y-96738327D01*
X71628327Y-96559698D01*
X71725000Y-96326309D01*
X71725000Y-95235750D01*
X71566250Y-95077000D01*
X68677000Y-95077000D01*
X68423000Y-95077000D01*
X68403000Y-95077000D01*
X68403000Y-94823000D01*
X68423000Y-94823000D01*
X68423000Y-93223750D01*
X68677000Y-93223750D01*
X68677000Y-94823000D01*
X71566250Y-94823000D01*
X71725000Y-94664250D01*
X71725000Y-93573691D01*
X71628327Y-93340302D01*
X71449699Y-93161673D01*
X71216310Y-93065000D01*
X68835750Y-93065000D01*
X68677000Y-93223750D01*
X68423000Y-93223750D01*
X68264250Y-93065000D01*
X66202000Y-93065000D01*
X66202000Y-89335000D01*
X68264250Y-89335000D01*
X68423000Y-89176250D01*
X68423000Y-87577000D01*
X68677000Y-87577000D01*
X68677000Y-89176250D01*
X68835750Y-89335000D01*
X71216310Y-89335000D01*
X71449699Y-89238327D01*
X71628327Y-89059698D01*
X71681324Y-88931750D01*
X72533000Y-88931750D01*
X72533000Y-89772310D01*
X72629673Y-90005699D01*
X72808302Y-90184327D01*
X73041691Y-90281000D01*
X73882250Y-90281000D01*
X74041000Y-90122250D01*
X74041000Y-88773000D01*
X74295000Y-88773000D01*
X74295000Y-90122250D01*
X74453750Y-90281000D01*
X75294309Y-90281000D01*
X75527698Y-90184327D01*
X75706327Y-90005699D01*
X75803000Y-89772310D01*
X75803000Y-88931750D01*
X75644250Y-88773000D01*
X74295000Y-88773000D01*
X74041000Y-88773000D01*
X72691750Y-88773000D01*
X72533000Y-88931750D01*
X71681324Y-88931750D01*
X71725000Y-88826309D01*
X71725000Y-87735750D01*
X71566250Y-87577000D01*
X68677000Y-87577000D01*
X68423000Y-87577000D01*
X68403000Y-87577000D01*
X68403000Y-87519690D01*
X72533000Y-87519690D01*
X72533000Y-88360250D01*
X72691750Y-88519000D01*
X74041000Y-88519000D01*
X74041000Y-87169750D01*
X74295000Y-87169750D01*
X74295000Y-88519000D01*
X75644250Y-88519000D01*
X75803000Y-88360250D01*
X75803000Y-87700000D01*
X76085717Y-87700000D01*
X76085717Y-89700000D01*
X76129437Y-89932352D01*
X76266757Y-90145753D01*
X76476283Y-90288917D01*
X76725000Y-90339283D01*
X78725000Y-90339283D01*
X78957352Y-90295563D01*
X79170753Y-90158243D01*
X79313917Y-89948717D01*
X79364283Y-89700000D01*
X79364283Y-87700000D01*
X79320563Y-87467648D01*
X79183243Y-87254247D01*
X78973717Y-87111083D01*
X78725000Y-87060717D01*
X76725000Y-87060717D01*
X76492648Y-87104437D01*
X76279247Y-87241757D01*
X76136083Y-87451283D01*
X76085717Y-87700000D01*
X75803000Y-87700000D01*
X75803000Y-87519690D01*
X75706327Y-87286301D01*
X75527698Y-87107673D01*
X75294309Y-87011000D01*
X74453750Y-87011000D01*
X74295000Y-87169750D01*
X74041000Y-87169750D01*
X73882250Y-87011000D01*
X73041691Y-87011000D01*
X72808302Y-87107673D01*
X72629673Y-87286301D01*
X72533000Y-87519690D01*
X68403000Y-87519690D01*
X68403000Y-87323000D01*
X68423000Y-87323000D01*
X68423000Y-85723750D01*
X68677000Y-85723750D01*
X68677000Y-87323000D01*
X71566250Y-87323000D01*
X71725000Y-87164250D01*
X71725000Y-86073691D01*
X71628327Y-85840302D01*
X71449699Y-85661673D01*
X71216310Y-85565000D01*
X68835750Y-85565000D01*
X68677000Y-85723750D01*
X68423000Y-85723750D01*
X68264250Y-85565000D01*
X66202000Y-85565000D01*
X66202000Y-84090000D01*
X72528717Y-84090000D01*
X72528717Y-86090000D01*
X72572437Y-86322352D01*
X72709757Y-86535753D01*
X72919283Y-86678917D01*
X73168000Y-86729283D01*
X75168000Y-86729283D01*
X75400352Y-86685563D01*
X75613753Y-86548243D01*
X75756917Y-86338717D01*
X75807283Y-86090000D01*
X75807283Y-84090000D01*
X75804461Y-84075000D01*
X76060717Y-84075000D01*
X76060717Y-86075000D01*
X76104437Y-86307352D01*
X76241757Y-86520753D01*
X76451283Y-86663917D01*
X76700000Y-86714283D01*
X78700000Y-86714283D01*
X78932352Y-86670563D01*
X79145753Y-86533243D01*
X79288917Y-86323717D01*
X79339283Y-86075000D01*
X79339283Y-84075000D01*
X79295563Y-83842648D01*
X79158243Y-83629247D01*
X78948717Y-83486083D01*
X78700000Y-83435717D01*
X76700000Y-83435717D01*
X76467648Y-83479437D01*
X76254247Y-83616757D01*
X76111083Y-83826283D01*
X76060717Y-84075000D01*
X75804461Y-84075000D01*
X75763563Y-83857648D01*
X75626243Y-83644247D01*
X75416717Y-83501083D01*
X75168000Y-83450717D01*
X73168000Y-83450717D01*
X72935648Y-83494437D01*
X72722247Y-83631757D01*
X72579083Y-83841283D01*
X72528717Y-84090000D01*
X66202000Y-84090000D01*
X66202000Y-83000000D01*
X84966636Y-83000000D01*
X85090484Y-83622626D01*
X85443173Y-84150463D01*
X85971010Y-84503152D01*
X86593636Y-84627000D01*
X89206364Y-84627000D01*
X89828990Y-84503152D01*
X90356827Y-84150463D01*
X90709516Y-83622626D01*
X90833364Y-83000000D01*
X92566636Y-83000000D01*
X92690484Y-83622626D01*
X93043173Y-84150463D01*
X93571010Y-84503152D01*
X94193636Y-84627000D01*
X96806364Y-84627000D01*
X97428990Y-84503152D01*
X97956827Y-84150463D01*
X98309516Y-83622626D01*
X98433364Y-83000000D01*
X98309516Y-82377374D01*
X97956827Y-81849537D01*
X97428990Y-81496848D01*
X96806364Y-81373000D01*
X94193636Y-81373000D01*
X93571010Y-81496848D01*
X93043173Y-81849537D01*
X92690484Y-82377374D01*
X92566636Y-83000000D01*
X90833364Y-83000000D01*
X90709516Y-82377374D01*
X90356827Y-81849537D01*
X89828990Y-81496848D01*
X89206364Y-81373000D01*
X86593636Y-81373000D01*
X85971010Y-81496848D01*
X85443173Y-81849537D01*
X85090484Y-82377374D01*
X84966636Y-83000000D01*
X66202000Y-83000000D01*
X66202000Y-81202000D01*
X103937297Y-81202000D01*
X103752352Y-81238788D01*
M02*
