G04 #@! TF.FileFunction,Legend,Bot*
%FSLAX46Y46*%
G04 Gerber Fmt 4.6, Leading zero omitted, Abs format (unit mm)*
G04 Created by KiCad (PCBNEW 4.0.7) date 04/19/20 17:36:26*
%MOMM*%
%LPD*%
G01*
G04 APERTURE LIST*
%ADD10C,0.100000*%
%ADD11C,0.150000*%
G04 APERTURE END LIST*
D10*
D11*
X107624190Y-91195381D02*
X107957524Y-90719190D01*
X108195619Y-91195381D02*
X108195619Y-90195381D01*
X107814666Y-90195381D01*
X107719428Y-90243000D01*
X107671809Y-90290619D01*
X107624190Y-90385857D01*
X107624190Y-90528714D01*
X107671809Y-90623952D01*
X107719428Y-90671571D01*
X107814666Y-90719190D01*
X108195619Y-90719190D01*
X106862285Y-90671571D02*
X107195619Y-90671571D01*
X107195619Y-91195381D02*
X107195619Y-90195381D01*
X106719428Y-90195381D01*
X105576571Y-91195381D02*
X105576571Y-90195381D01*
X105195618Y-90195381D01*
X105100380Y-90243000D01*
X105052761Y-90290619D01*
X105005142Y-90385857D01*
X105005142Y-90528714D01*
X105052761Y-90623952D01*
X105100380Y-90671571D01*
X105195618Y-90719190D01*
X105576571Y-90719190D01*
X104005142Y-91195381D02*
X104338476Y-90719190D01*
X104576571Y-91195381D02*
X104576571Y-90195381D01*
X104195618Y-90195381D01*
X104100380Y-90243000D01*
X104052761Y-90290619D01*
X104005142Y-90385857D01*
X104005142Y-90528714D01*
X104052761Y-90623952D01*
X104100380Y-90671571D01*
X104195618Y-90719190D01*
X104576571Y-90719190D01*
X103386095Y-90195381D02*
X103195618Y-90195381D01*
X103100380Y-90243000D01*
X103005142Y-90338238D01*
X102957523Y-90528714D01*
X102957523Y-90862048D01*
X103005142Y-91052524D01*
X103100380Y-91147762D01*
X103195618Y-91195381D01*
X103386095Y-91195381D01*
X103481333Y-91147762D01*
X103576571Y-91052524D01*
X103624190Y-90862048D01*
X103624190Y-90528714D01*
X103576571Y-90338238D01*
X103481333Y-90243000D01*
X103386095Y-90195381D01*
X102195618Y-90671571D02*
X102052761Y-90719190D01*
X102005142Y-90766810D01*
X101957523Y-90862048D01*
X101957523Y-91004905D01*
X102005142Y-91100143D01*
X102052761Y-91147762D01*
X102147999Y-91195381D01*
X102528952Y-91195381D01*
X102528952Y-90195381D01*
X102195618Y-90195381D01*
X102100380Y-90243000D01*
X102052761Y-90290619D01*
X102005142Y-90385857D01*
X102005142Y-90481095D01*
X102052761Y-90576333D01*
X102100380Y-90623952D01*
X102195618Y-90671571D01*
X102528952Y-90671571D01*
X101528952Y-90671571D02*
X101195618Y-90671571D01*
X101052761Y-91195381D02*
X101528952Y-91195381D01*
X101528952Y-90195381D01*
X101052761Y-90195381D01*
X108743238Y-92321571D02*
X108600381Y-92369190D01*
X108552762Y-92416810D01*
X108505143Y-92512048D01*
X108505143Y-92654905D01*
X108552762Y-92750143D01*
X108600381Y-92797762D01*
X108695619Y-92845381D01*
X109076572Y-92845381D01*
X109076572Y-91845381D01*
X108743238Y-91845381D01*
X108648000Y-91893000D01*
X108600381Y-91940619D01*
X108552762Y-92035857D01*
X108552762Y-92131095D01*
X108600381Y-92226333D01*
X108648000Y-92273952D01*
X108743238Y-92321571D01*
X109076572Y-92321571D01*
X107886096Y-92369190D02*
X107886096Y-92845381D01*
X108219429Y-91845381D02*
X107886096Y-92369190D01*
X107552762Y-91845381D01*
X106457524Y-92845381D02*
X106457524Y-91845381D01*
X106219429Y-91845381D01*
X106076571Y-91893000D01*
X105981333Y-91988238D01*
X105933714Y-92083476D01*
X105886095Y-92273952D01*
X105886095Y-92416810D01*
X105933714Y-92607286D01*
X105981333Y-92702524D01*
X106076571Y-92797762D01*
X106219429Y-92845381D01*
X106457524Y-92845381D01*
X104695619Y-92845381D02*
X104695619Y-91845381D01*
X104362285Y-92559667D01*
X104028952Y-91845381D01*
X104028952Y-92845381D01*
X103600381Y-92559667D02*
X103124190Y-92559667D01*
X103695619Y-92845381D02*
X103362286Y-91845381D01*
X103028952Y-92845381D01*
X102124190Y-92845381D02*
X102457524Y-92369190D01*
X102695619Y-92845381D02*
X102695619Y-91845381D01*
X102314666Y-91845381D01*
X102219428Y-91893000D01*
X102171809Y-91940619D01*
X102124190Y-92035857D01*
X102124190Y-92178714D01*
X102171809Y-92273952D01*
X102219428Y-92321571D01*
X102314666Y-92369190D01*
X102695619Y-92369190D01*
X101695619Y-92845381D02*
X101695619Y-91845381D01*
X101124190Y-92845381D02*
X101552762Y-92273952D01*
X101124190Y-91845381D02*
X101695619Y-92416810D01*
X100743238Y-92797762D02*
X100600381Y-92845381D01*
X100362285Y-92845381D01*
X100267047Y-92797762D01*
X100219428Y-92750143D01*
X100171809Y-92654905D01*
X100171809Y-92559667D01*
X100219428Y-92464429D01*
X100267047Y-92416810D01*
X100362285Y-92369190D01*
X100552762Y-92321571D01*
X100648000Y-92273952D01*
X100695619Y-92226333D01*
X100743238Y-92131095D01*
X100743238Y-92035857D01*
X100695619Y-91940619D01*
X100648000Y-91893000D01*
X100552762Y-91845381D01*
X100314666Y-91845381D01*
X100171809Y-91893000D01*
X106576571Y-94495381D02*
X106576571Y-93495381D01*
X106005142Y-94495381D02*
X106433714Y-93923952D01*
X106005142Y-93495381D02*
X106576571Y-94066810D01*
X105671809Y-93495381D02*
X105433714Y-94495381D01*
X105243237Y-93781095D01*
X105052761Y-94495381D01*
X104814666Y-93495381D01*
X104005142Y-93828714D02*
X104005142Y-94495381D01*
X104243238Y-93447762D02*
X104481333Y-94162048D01*
X103862285Y-94162048D01*
X103624190Y-93495381D02*
X103052761Y-93495381D01*
X103338476Y-94495381D02*
X103338476Y-93495381D01*
X102719428Y-94495381D02*
X102719428Y-93495381D01*
X109481333Y-96050143D02*
X109528952Y-96097762D01*
X109671809Y-96145381D01*
X109767047Y-96145381D01*
X109909905Y-96097762D01*
X110005143Y-96002524D01*
X110052762Y-95907286D01*
X110100381Y-95716810D01*
X110100381Y-95573952D01*
X110052762Y-95383476D01*
X110005143Y-95288238D01*
X109909905Y-95193000D01*
X109767047Y-95145381D01*
X109671809Y-95145381D01*
X109528952Y-95193000D01*
X109481333Y-95240619D01*
X108481333Y-96050143D02*
X108528952Y-96097762D01*
X108671809Y-96145381D01*
X108767047Y-96145381D01*
X108909905Y-96097762D01*
X109005143Y-96002524D01*
X109052762Y-95907286D01*
X109100381Y-95716810D01*
X109100381Y-95573952D01*
X109052762Y-95383476D01*
X109005143Y-95288238D01*
X108909905Y-95193000D01*
X108767047Y-95145381D01*
X108671809Y-95145381D01*
X108528952Y-95193000D01*
X108481333Y-95240619D01*
X108052762Y-95764429D02*
X107290857Y-95764429D01*
X106481333Y-95621571D02*
X106338476Y-95669190D01*
X106290857Y-95716810D01*
X106243238Y-95812048D01*
X106243238Y-95954905D01*
X106290857Y-96050143D01*
X106338476Y-96097762D01*
X106433714Y-96145381D01*
X106814667Y-96145381D01*
X106814667Y-95145381D01*
X106481333Y-95145381D01*
X106386095Y-95193000D01*
X106338476Y-95240619D01*
X106290857Y-95335857D01*
X106290857Y-95431095D01*
X106338476Y-95526333D01*
X106386095Y-95573952D01*
X106481333Y-95621571D01*
X106814667Y-95621571D01*
X105624191Y-95669190D02*
X105624191Y-96145381D01*
X105957524Y-95145381D02*
X105624191Y-95669190D01*
X105290857Y-95145381D01*
X104957524Y-95764429D02*
X104195619Y-95764429D01*
X103767048Y-96097762D02*
X103624191Y-96145381D01*
X103386095Y-96145381D01*
X103290857Y-96097762D01*
X103243238Y-96050143D01*
X103195619Y-95954905D01*
X103195619Y-95859667D01*
X103243238Y-95764429D01*
X103290857Y-95716810D01*
X103386095Y-95669190D01*
X103576572Y-95621571D01*
X103671810Y-95573952D01*
X103719429Y-95526333D01*
X103767048Y-95431095D01*
X103767048Y-95335857D01*
X103719429Y-95240619D01*
X103671810Y-95193000D01*
X103576572Y-95145381D01*
X103338476Y-95145381D01*
X103195619Y-95193000D01*
X102814667Y-95859667D02*
X102338476Y-95859667D01*
X102909905Y-96145381D02*
X102576572Y-95145381D01*
X102243238Y-96145381D01*
X100719428Y-95478714D02*
X100719428Y-96145381D01*
X100957524Y-95097762D02*
X101195619Y-95812048D01*
X100576571Y-95812048D01*
X100195619Y-96050143D02*
X100148000Y-96097762D01*
X100195619Y-96145381D01*
X100243238Y-96097762D01*
X100195619Y-96050143D01*
X100195619Y-96145381D01*
X99528953Y-95145381D02*
X99433714Y-95145381D01*
X99338476Y-95193000D01*
X99290857Y-95240619D01*
X99243238Y-95335857D01*
X99195619Y-95526333D01*
X99195619Y-95764429D01*
X99243238Y-95954905D01*
X99290857Y-96050143D01*
X99338476Y-96097762D01*
X99433714Y-96145381D01*
X99528953Y-96145381D01*
X99624191Y-96097762D01*
X99671810Y-96050143D01*
X99719429Y-95954905D01*
X99767048Y-95764429D01*
X99767048Y-95526333D01*
X99719429Y-95335857D01*
X99671810Y-95240619D01*
X99624191Y-95193000D01*
X99528953Y-95145381D01*
M02*
