M48
;DRILL file {KiCad 4.0.7} date 04/19/20 17:36:27
;FORMAT={-:-/ absolute / metric / decimal}
FMAT,2
METRIC,TZ
T1C1.000
T2C2.000
T3C2.100
%
G90
G05
M71
T3
X75.83Y-106.19
X85.99Y-106.19
T1
X114.554Y-83.054G85X114.554Y-82.554
G05
X114.554Y-88.872G85X114.554Y-85.372
G05
X114.554Y-94.714G85X114.554Y-91.214
G05
X114.554Y-101.628G85X114.554Y-105.128
G05
X114.554Y-110.97G85X114.554Y-107.47
G05
X114.554Y-114.542G85X114.554Y-113.042
G05
X116.868Y-94.488G85X120.368Y-94.488
G05
X116.868Y-101.346G85X120.368Y-101.346
G05
X122.964Y-101.346G85X126.464Y-101.346
G05
X123.218Y-94.488G85X126.718Y-94.488
G05
X129.01Y-101.27G85X132.51Y-101.27
G05
X129.06Y-94.488G85X132.56Y-94.488
G05
X135.11Y-101.23G85X138.61Y-101.23
G05
X135.156Y-94.488G85X138.656Y-94.488
G05
T2
X100.775Y-110.025G85X103.275Y-110.025
G05
X100.85Y-84.4G85X103.35Y-84.4
G05
X106.95Y-84.35G85X109.45Y-84.35
G05
X106.954Y-109.982G85X109.454Y-109.982
G05
T0
M30
