G04 #@! TF.FileFunction,Soldermask,Top*
%FSLAX46Y46*%
G04 Gerber Fmt 4.6, Leading zero omitted, Abs format (unit mm)*
G04 Created by KiCad (PCBNEW 4.0.7) date 04/23/20 09:41:11*
%MOMM*%
%LPD*%
G01*
G04 APERTURE LIST*
%ADD10C,0.100000*%
%ADD11R,1.900000X1.650000*%
%ADD12R,1.700000X1.900000*%
%ADD13R,1.650000X1.900000*%
%ADD14R,1.400000X1.400000*%
%ADD15R,1.900000X1.700000*%
%ADD16O,4.900000X2.400000*%
%ADD17R,4.400000X2.400000*%
%ADD18R,2.400000X2.400000*%
%ADD19R,5.480000X2.900000*%
%ADD20R,5.480000X1.900000*%
%ADD21R,1.300000X1.200000*%
%ADD22R,1.200000X1.300000*%
G04 APERTURE END LIST*
D10*
D11*
X95750000Y-86375000D03*
X98250000Y-86375000D03*
D12*
X84230000Y-91260000D03*
X84230000Y-93960000D03*
D11*
X105310000Y-92730000D03*
X107810000Y-92730000D03*
X96990000Y-94120000D03*
X99490000Y-94120000D03*
D13*
X91186000Y-94214000D03*
X91186000Y-91714000D03*
D11*
X74696000Y-91186000D03*
X77196000Y-91186000D03*
X74696000Y-97790000D03*
X77196000Y-97790000D03*
D13*
X84582000Y-85872000D03*
X84582000Y-88372000D03*
D14*
X77196000Y-95758000D03*
X74696000Y-95758000D03*
D12*
X101530000Y-94430000D03*
X101530000Y-97130000D03*
X93300000Y-91450000D03*
X93300000Y-94150000D03*
D15*
X94375000Y-88250000D03*
X97075000Y-88250000D03*
D12*
X92350000Y-86550000D03*
X92350000Y-89250000D03*
D15*
X74596000Y-93218000D03*
X77296000Y-93218000D03*
X73550000Y-82700000D03*
X70850000Y-82700000D03*
X75650000Y-82700000D03*
X78350000Y-82700000D03*
D16*
X95250000Y-98806000D03*
X88000000Y-98900000D03*
X95500000Y-83000000D03*
X87900000Y-83000000D03*
D11*
X103050000Y-88470000D03*
X100550000Y-88470000D03*
D17*
X111400000Y-92800000D03*
X111350000Y-86200000D03*
D18*
X80675000Y-98300000D03*
X77725000Y-88700000D03*
X74168000Y-88646000D03*
X83500000Y-98400000D03*
X77700000Y-85075000D03*
X74168000Y-85090000D03*
D12*
X105250000Y-90390000D03*
X105250000Y-87690000D03*
D15*
X88980000Y-94440000D03*
X86280000Y-94440000D03*
D19*
X68550000Y-87450000D03*
X68550000Y-94950000D03*
D20*
X68550000Y-91200000D03*
D15*
X68950000Y-98700000D03*
X71650000Y-98700000D03*
D13*
X81280000Y-88372000D03*
X81280000Y-85872000D03*
D15*
X100475000Y-86575000D03*
X103175000Y-86575000D03*
D12*
X90110000Y-88930000D03*
X90110000Y-86230000D03*
X86614000Y-88472000D03*
X86614000Y-85772000D03*
D21*
X102400000Y-92450000D03*
X102400000Y-90550000D03*
X100400000Y-91500000D03*
X97130000Y-92410000D03*
X97130000Y-90510000D03*
X95130000Y-91460000D03*
D22*
X89310000Y-90560000D03*
X87410000Y-90560000D03*
X88360000Y-92560000D03*
M02*
