G04 #@! TF.FileFunction,Legend,Top*
%FSLAX46Y46*%
G04 Gerber Fmt 4.6, Leading zero omitted, Abs format (unit mm)*
G04 Created by KiCad (PCBNEW 4.0.7) date 04/20/20 11:02:01*
%MOMM*%
%LPD*%
G01*
G04 APERTURE LIST*
%ADD10C,0.100000*%
%ADD11C,0.120000*%
%ADD12C,0.150000*%
G04 APERTURE END LIST*
D10*
D11*
X80050000Y-95020000D02*
X81250000Y-95020000D01*
X81250000Y-96780000D02*
X80050000Y-96780000D01*
X108704000Y-91860000D02*
X107704000Y-91860000D01*
X107704000Y-93560000D02*
X108704000Y-93560000D01*
X101650000Y-95750000D02*
X100650000Y-95750000D01*
X100650000Y-97450000D02*
X101650000Y-97450000D01*
X92798000Y-96004000D02*
X92798000Y-95004000D01*
X91098000Y-95004000D02*
X91098000Y-96004000D01*
X76446000Y-90336000D02*
X75446000Y-90336000D01*
X75446000Y-92036000D02*
X76446000Y-92036000D01*
X76446000Y-96940000D02*
X75446000Y-96940000D01*
X75446000Y-98640000D02*
X76446000Y-98640000D01*
X83750000Y-92350000D02*
X83750000Y-93350000D01*
X85450000Y-93350000D02*
X85450000Y-92350000D01*
X77846000Y-96608000D02*
X77846000Y-94908000D01*
X77846000Y-94908000D02*
X74696000Y-94908000D01*
X77846000Y-96608000D02*
X74696000Y-96608000D01*
X106280000Y-87220000D02*
X105080000Y-87220000D01*
X105080000Y-85460000D02*
X106280000Y-85460000D01*
X107750000Y-97430000D02*
X106550000Y-97430000D01*
X106550000Y-95670000D02*
X107750000Y-95670000D01*
X107200000Y-87320000D02*
X108400000Y-87320000D01*
X108400000Y-89080000D02*
X107200000Y-89080000D01*
X98100000Y-95655000D02*
X96900000Y-95655000D01*
X96900000Y-93895000D02*
X98100000Y-93895000D01*
X95205000Y-96200000D02*
X95205000Y-97400000D01*
X93445000Y-97400000D02*
X93445000Y-96200000D01*
X92870000Y-91550000D02*
X92870000Y-90350000D01*
X94630000Y-90350000D02*
X94630000Y-91550000D01*
X85580000Y-87425000D02*
X85580000Y-88625000D01*
X83820000Y-88625000D02*
X83820000Y-87425000D01*
X88700000Y-87405000D02*
X87500000Y-87405000D01*
X87500000Y-85645000D02*
X88700000Y-85645000D01*
X76546000Y-94098000D02*
X75346000Y-94098000D01*
X75346000Y-92338000D02*
X76546000Y-92338000D01*
X91532000Y-84700000D02*
X90332000Y-84700000D01*
X90332000Y-82940000D02*
X91532000Y-82940000D01*
X84852000Y-83070000D02*
X88052000Y-83070000D01*
X88052000Y-84570000D02*
X84852000Y-84570000D01*
X88052000Y-84570000D02*
X88052000Y-83070000D01*
X79395000Y-86150000D02*
X79395000Y-88150000D01*
X82355000Y-88150000D02*
X82355000Y-86150000D01*
X101450000Y-85675000D02*
X100450000Y-85675000D01*
X100450000Y-87375000D02*
X101450000Y-87375000D01*
X92925000Y-88425000D02*
X93925000Y-88425000D01*
X93925000Y-86725000D02*
X92925000Y-86725000D01*
X81272000Y-92368000D02*
X80272000Y-92368000D01*
X80272000Y-94068000D02*
X81272000Y-94068000D01*
X108296000Y-91050000D02*
X107096000Y-91050000D01*
X107096000Y-89290000D02*
X108296000Y-89290000D01*
X92828000Y-90332000D02*
X92828000Y-91532000D01*
X91068000Y-91532000D02*
X91068000Y-90332000D01*
X103775000Y-89895000D02*
X104975000Y-89895000D01*
X104975000Y-89895000D02*
X104975000Y-92595000D01*
X100175000Y-93895000D02*
X100175000Y-89895000D01*
X100175000Y-89895000D02*
X101375000Y-89895000D01*
X98350000Y-88445000D02*
X99550000Y-88445000D01*
X99550000Y-88445000D02*
X99550000Y-91145000D01*
X94750000Y-92445000D02*
X94750000Y-88445000D01*
X94750000Y-88445000D02*
X95950000Y-88445000D01*
X89300000Y-90420000D02*
X90500000Y-90420000D01*
X90500000Y-90420000D02*
X90500000Y-93120000D01*
X85700000Y-94420000D02*
X85700000Y-90420000D01*
X85700000Y-90420000D02*
X86900000Y-90420000D01*
D12*
X83957143Y-96552381D02*
X83623809Y-96076190D01*
X83385714Y-96552381D02*
X83385714Y-95552381D01*
X83766667Y-95552381D01*
X83861905Y-95600000D01*
X83909524Y-95647619D01*
X83957143Y-95742857D01*
X83957143Y-95885714D01*
X83909524Y-95980952D01*
X83861905Y-96028571D01*
X83766667Y-96076190D01*
X83385714Y-96076190D01*
X84909524Y-96552381D02*
X84338095Y-96552381D01*
X84623809Y-96552381D02*
X84623809Y-95552381D01*
X84528571Y-95695238D01*
X84433333Y-95790476D01*
X84338095Y-95838095D01*
X85528571Y-95552381D02*
X85623810Y-95552381D01*
X85719048Y-95600000D01*
X85766667Y-95647619D01*
X85814286Y-95742857D01*
X85861905Y-95933333D01*
X85861905Y-96171429D01*
X85814286Y-96361905D01*
X85766667Y-96457143D01*
X85719048Y-96504762D01*
X85623810Y-96552381D01*
X85528571Y-96552381D01*
X85433333Y-96504762D01*
X85385714Y-96457143D01*
X85338095Y-96361905D01*
X85290476Y-96171429D01*
X85290476Y-95933333D01*
X85338095Y-95742857D01*
X85385714Y-95647619D01*
X85433333Y-95600000D01*
X85528571Y-95552381D01*
X107983334Y-94682143D02*
X107935715Y-94729762D01*
X107792858Y-94777381D01*
X107697620Y-94777381D01*
X107554762Y-94729762D01*
X107459524Y-94634524D01*
X107411905Y-94539286D01*
X107364286Y-94348810D01*
X107364286Y-94205952D01*
X107411905Y-94015476D01*
X107459524Y-93920238D01*
X107554762Y-93825000D01*
X107697620Y-93777381D01*
X107792858Y-93777381D01*
X107935715Y-93825000D01*
X107983334Y-93872619D01*
X108935715Y-94777381D02*
X108364286Y-94777381D01*
X108650000Y-94777381D02*
X108650000Y-93777381D01*
X108554762Y-93920238D01*
X108459524Y-94015476D01*
X108364286Y-94063095D01*
X104507143Y-96841666D02*
X104554762Y-96889285D01*
X104602381Y-97032142D01*
X104602381Y-97127380D01*
X104554762Y-97270238D01*
X104459524Y-97365476D01*
X104364286Y-97413095D01*
X104173810Y-97460714D01*
X104030952Y-97460714D01*
X103840476Y-97413095D01*
X103745238Y-97365476D01*
X103650000Y-97270238D01*
X103602381Y-97127380D01*
X103602381Y-97032142D01*
X103650000Y-96889285D01*
X103697619Y-96841666D01*
X103602381Y-96508333D02*
X103602381Y-95889285D01*
X103983333Y-96222619D01*
X103983333Y-96079761D01*
X104030952Y-95984523D01*
X104078571Y-95936904D01*
X104173810Y-95889285D01*
X104411905Y-95889285D01*
X104507143Y-95936904D01*
X104554762Y-95984523D01*
X104602381Y-96079761D01*
X104602381Y-96365476D01*
X104554762Y-96460714D01*
X104507143Y-96508333D01*
X91781334Y-98909143D02*
X91733715Y-98956762D01*
X91590858Y-99004381D01*
X91495620Y-99004381D01*
X91352762Y-98956762D01*
X91257524Y-98861524D01*
X91209905Y-98766286D01*
X91162286Y-98575810D01*
X91162286Y-98432952D01*
X91209905Y-98242476D01*
X91257524Y-98147238D01*
X91352762Y-98052000D01*
X91495620Y-98004381D01*
X91590858Y-98004381D01*
X91733715Y-98052000D01*
X91781334Y-98099619D01*
X92686096Y-98004381D02*
X92209905Y-98004381D01*
X92162286Y-98480571D01*
X92209905Y-98432952D01*
X92305143Y-98385333D01*
X92543239Y-98385333D01*
X92638477Y-98432952D01*
X92686096Y-98480571D01*
X92733715Y-98575810D01*
X92733715Y-98813905D01*
X92686096Y-98909143D01*
X92638477Y-98956762D01*
X92543239Y-99004381D01*
X92305143Y-99004381D01*
X92209905Y-98956762D01*
X92162286Y-98909143D01*
X73255143Y-91352666D02*
X73302762Y-91400285D01*
X73350381Y-91543142D01*
X73350381Y-91638380D01*
X73302762Y-91781238D01*
X73207524Y-91876476D01*
X73112286Y-91924095D01*
X72921810Y-91971714D01*
X72778952Y-91971714D01*
X72588476Y-91924095D01*
X72493238Y-91876476D01*
X72398000Y-91781238D01*
X72350381Y-91638380D01*
X72350381Y-91543142D01*
X72398000Y-91400285D01*
X72445619Y-91352666D01*
X72350381Y-90495523D02*
X72350381Y-90686000D01*
X72398000Y-90781238D01*
X72445619Y-90828857D01*
X72588476Y-90924095D01*
X72778952Y-90971714D01*
X73159905Y-90971714D01*
X73255143Y-90924095D01*
X73302762Y-90876476D01*
X73350381Y-90781238D01*
X73350381Y-90590761D01*
X73302762Y-90495523D01*
X73255143Y-90447904D01*
X73159905Y-90400285D01*
X72921810Y-90400285D01*
X72826571Y-90447904D01*
X72778952Y-90495523D01*
X72731333Y-90590761D01*
X72731333Y-90781238D01*
X72778952Y-90876476D01*
X72826571Y-90924095D01*
X72921810Y-90971714D01*
X73255143Y-97702666D02*
X73302762Y-97750285D01*
X73350381Y-97893142D01*
X73350381Y-97988380D01*
X73302762Y-98131238D01*
X73207524Y-98226476D01*
X73112286Y-98274095D01*
X72921810Y-98321714D01*
X72778952Y-98321714D01*
X72588476Y-98274095D01*
X72493238Y-98226476D01*
X72398000Y-98131238D01*
X72350381Y-97988380D01*
X72350381Y-97893142D01*
X72398000Y-97750285D01*
X72445619Y-97702666D01*
X72778952Y-97131238D02*
X72731333Y-97226476D01*
X72683714Y-97274095D01*
X72588476Y-97321714D01*
X72540857Y-97321714D01*
X72445619Y-97274095D01*
X72398000Y-97226476D01*
X72350381Y-97131238D01*
X72350381Y-96940761D01*
X72398000Y-96845523D01*
X72445619Y-96797904D01*
X72540857Y-96750285D01*
X72588476Y-96750285D01*
X72683714Y-96797904D01*
X72731333Y-96845523D01*
X72778952Y-96940761D01*
X72778952Y-97131238D01*
X72826571Y-97226476D01*
X72874190Y-97274095D01*
X72969429Y-97321714D01*
X73159905Y-97321714D01*
X73255143Y-97274095D01*
X73302762Y-97226476D01*
X73350381Y-97131238D01*
X73350381Y-96940761D01*
X73302762Y-96845523D01*
X73255143Y-96797904D01*
X73159905Y-96750285D01*
X72969429Y-96750285D01*
X72874190Y-96797904D01*
X72826571Y-96845523D01*
X72778952Y-96940761D01*
X83482143Y-91291666D02*
X83529762Y-91339285D01*
X83577381Y-91482142D01*
X83577381Y-91577380D01*
X83529762Y-91720238D01*
X83434524Y-91815476D01*
X83339286Y-91863095D01*
X83148810Y-91910714D01*
X83005952Y-91910714D01*
X82815476Y-91863095D01*
X82720238Y-91815476D01*
X82625000Y-91720238D01*
X82577381Y-91577380D01*
X82577381Y-91482142D01*
X82625000Y-91339285D01*
X82672619Y-91291666D01*
X83577381Y-90815476D02*
X83577381Y-90625000D01*
X83529762Y-90529761D01*
X83482143Y-90482142D01*
X83339286Y-90386904D01*
X83148810Y-90339285D01*
X82767857Y-90339285D01*
X82672619Y-90386904D01*
X82625000Y-90434523D01*
X82577381Y-90529761D01*
X82577381Y-90720238D01*
X82625000Y-90815476D01*
X82672619Y-90863095D01*
X82767857Y-90910714D01*
X83005952Y-90910714D01*
X83101190Y-90863095D01*
X83148810Y-90815476D01*
X83196429Y-90720238D01*
X83196429Y-90529761D01*
X83148810Y-90434523D01*
X83101190Y-90386904D01*
X83005952Y-90339285D01*
X73350381Y-96496095D02*
X72350381Y-96496095D01*
X72350381Y-96258000D01*
X72398000Y-96115142D01*
X72493238Y-96019904D01*
X72588476Y-95972285D01*
X72778952Y-95924666D01*
X72921810Y-95924666D01*
X73112286Y-95972285D01*
X73207524Y-96019904D01*
X73302762Y-96115142D01*
X73350381Y-96258000D01*
X73350381Y-96496095D01*
X72350381Y-95019904D02*
X72350381Y-95496095D01*
X72826571Y-95543714D01*
X72778952Y-95496095D01*
X72731333Y-95400857D01*
X72731333Y-95162761D01*
X72778952Y-95067523D01*
X72826571Y-95019904D01*
X72921810Y-94972285D01*
X73159905Y-94972285D01*
X73255143Y-95019904D01*
X73302762Y-95067523D01*
X73350381Y-95162761D01*
X73350381Y-95400857D01*
X73302762Y-95496095D01*
X73255143Y-95543714D01*
X109522381Y-86386666D02*
X109046190Y-86720000D01*
X109522381Y-86958095D02*
X108522381Y-86958095D01*
X108522381Y-86577142D01*
X108570000Y-86481904D01*
X108617619Y-86434285D01*
X108712857Y-86386666D01*
X108855714Y-86386666D01*
X108950952Y-86434285D01*
X108998571Y-86481904D01*
X109046190Y-86577142D01*
X109046190Y-86958095D01*
X109522381Y-85434285D02*
X109522381Y-86005714D01*
X109522381Y-85720000D02*
X108522381Y-85720000D01*
X108665238Y-85815238D01*
X108760476Y-85910476D01*
X108808095Y-86005714D01*
X110602381Y-96691666D02*
X110126190Y-97025000D01*
X110602381Y-97263095D02*
X109602381Y-97263095D01*
X109602381Y-96882142D01*
X109650000Y-96786904D01*
X109697619Y-96739285D01*
X109792857Y-96691666D01*
X109935714Y-96691666D01*
X110030952Y-96739285D01*
X110078571Y-96786904D01*
X110126190Y-96882142D01*
X110126190Y-97263095D01*
X109697619Y-96310714D02*
X109650000Y-96263095D01*
X109602381Y-96167857D01*
X109602381Y-95929761D01*
X109650000Y-95834523D01*
X109697619Y-95786904D01*
X109792857Y-95739285D01*
X109888095Y-95739285D01*
X110030952Y-95786904D01*
X110602381Y-96358333D01*
X110602381Y-95739285D01*
X110913334Y-88692381D02*
X110580000Y-88216190D01*
X110341905Y-88692381D02*
X110341905Y-87692381D01*
X110722858Y-87692381D01*
X110818096Y-87740000D01*
X110865715Y-87787619D01*
X110913334Y-87882857D01*
X110913334Y-88025714D01*
X110865715Y-88120952D01*
X110818096Y-88168571D01*
X110722858Y-88216190D01*
X110341905Y-88216190D01*
X111246667Y-87692381D02*
X111865715Y-87692381D01*
X111532381Y-88073333D01*
X111675239Y-88073333D01*
X111770477Y-88120952D01*
X111818096Y-88168571D01*
X111865715Y-88263810D01*
X111865715Y-88501905D01*
X111818096Y-88597143D01*
X111770477Y-88644762D01*
X111675239Y-88692381D01*
X111389524Y-88692381D01*
X111294286Y-88644762D01*
X111246667Y-88597143D01*
X97108334Y-96902381D02*
X96775000Y-96426190D01*
X96536905Y-96902381D02*
X96536905Y-95902381D01*
X96917858Y-95902381D01*
X97013096Y-95950000D01*
X97060715Y-95997619D01*
X97108334Y-96092857D01*
X97108334Y-96235714D01*
X97060715Y-96330952D01*
X97013096Y-96378571D01*
X96917858Y-96426190D01*
X96536905Y-96426190D01*
X97965477Y-96235714D02*
X97965477Y-96902381D01*
X97727381Y-95854762D02*
X97489286Y-96569048D01*
X98108334Y-96569048D01*
X96427381Y-98466666D02*
X95951190Y-98800000D01*
X96427381Y-99038095D02*
X95427381Y-99038095D01*
X95427381Y-98657142D01*
X95475000Y-98561904D01*
X95522619Y-98514285D01*
X95617857Y-98466666D01*
X95760714Y-98466666D01*
X95855952Y-98514285D01*
X95903571Y-98561904D01*
X95951190Y-98657142D01*
X95951190Y-99038095D01*
X95427381Y-97561904D02*
X95427381Y-98038095D01*
X95903571Y-98085714D01*
X95855952Y-98038095D01*
X95808333Y-97942857D01*
X95808333Y-97704761D01*
X95855952Y-97609523D01*
X95903571Y-97561904D01*
X95998810Y-97514285D01*
X96236905Y-97514285D01*
X96332143Y-97561904D01*
X96379762Y-97609523D01*
X96427381Y-97704761D01*
X96427381Y-97942857D01*
X96379762Y-98038095D01*
X96332143Y-98085714D01*
X93583334Y-94302381D02*
X93250000Y-93826190D01*
X93011905Y-94302381D02*
X93011905Y-93302381D01*
X93392858Y-93302381D01*
X93488096Y-93350000D01*
X93535715Y-93397619D01*
X93583334Y-93492857D01*
X93583334Y-93635714D01*
X93535715Y-93730952D01*
X93488096Y-93778571D01*
X93392858Y-93826190D01*
X93011905Y-93826190D01*
X94440477Y-93302381D02*
X94250000Y-93302381D01*
X94154762Y-93350000D01*
X94107143Y-93397619D01*
X94011905Y-93540476D01*
X93964286Y-93730952D01*
X93964286Y-94111905D01*
X94011905Y-94207143D01*
X94059524Y-94254762D01*
X94154762Y-94302381D01*
X94345239Y-94302381D01*
X94440477Y-94254762D01*
X94488096Y-94207143D01*
X94535715Y-94111905D01*
X94535715Y-93873810D01*
X94488096Y-93778571D01*
X94440477Y-93730952D01*
X94345239Y-93683333D01*
X94154762Y-93683333D01*
X94059524Y-93730952D01*
X94011905Y-93778571D01*
X93964286Y-93873810D01*
X83577381Y-89316666D02*
X83101190Y-89650000D01*
X83577381Y-89888095D02*
X82577381Y-89888095D01*
X82577381Y-89507142D01*
X82625000Y-89411904D01*
X82672619Y-89364285D01*
X82767857Y-89316666D01*
X82910714Y-89316666D01*
X83005952Y-89364285D01*
X83053571Y-89411904D01*
X83101190Y-89507142D01*
X83101190Y-89888095D01*
X82577381Y-88983333D02*
X82577381Y-88316666D01*
X83577381Y-88745238D01*
X91533334Y-86827381D02*
X91200000Y-86351190D01*
X90961905Y-86827381D02*
X90961905Y-85827381D01*
X91342858Y-85827381D01*
X91438096Y-85875000D01*
X91485715Y-85922619D01*
X91533334Y-86017857D01*
X91533334Y-86160714D01*
X91485715Y-86255952D01*
X91438096Y-86303571D01*
X91342858Y-86351190D01*
X90961905Y-86351190D01*
X92104762Y-86255952D02*
X92009524Y-86208333D01*
X91961905Y-86160714D01*
X91914286Y-86065476D01*
X91914286Y-86017857D01*
X91961905Y-85922619D01*
X92009524Y-85875000D01*
X92104762Y-85827381D01*
X92295239Y-85827381D01*
X92390477Y-85875000D01*
X92438096Y-85922619D01*
X92485715Y-86017857D01*
X92485715Y-86065476D01*
X92438096Y-86160714D01*
X92390477Y-86208333D01*
X92295239Y-86255952D01*
X92104762Y-86255952D01*
X92009524Y-86303571D01*
X91961905Y-86351190D01*
X91914286Y-86446429D01*
X91914286Y-86636905D01*
X91961905Y-86732143D01*
X92009524Y-86779762D01*
X92104762Y-86827381D01*
X92295239Y-86827381D01*
X92390477Y-86779762D01*
X92438096Y-86732143D01*
X92485715Y-86636905D01*
X92485715Y-86446429D01*
X92438096Y-86351190D01*
X92390477Y-86303571D01*
X92295239Y-86255952D01*
X73350381Y-93384666D02*
X72874190Y-93718000D01*
X73350381Y-93956095D02*
X72350381Y-93956095D01*
X72350381Y-93575142D01*
X72398000Y-93479904D01*
X72445619Y-93432285D01*
X72540857Y-93384666D01*
X72683714Y-93384666D01*
X72778952Y-93432285D01*
X72826571Y-93479904D01*
X72874190Y-93575142D01*
X72874190Y-93956095D01*
X73350381Y-92908476D02*
X73350381Y-92718000D01*
X73302762Y-92622761D01*
X73255143Y-92575142D01*
X73112286Y-92479904D01*
X72921810Y-92432285D01*
X72540857Y-92432285D01*
X72445619Y-92479904D01*
X72398000Y-92527523D01*
X72350381Y-92622761D01*
X72350381Y-92813238D01*
X72398000Y-92908476D01*
X72445619Y-92956095D01*
X72540857Y-93003714D01*
X72778952Y-93003714D01*
X72874190Y-92956095D01*
X72921810Y-92908476D01*
X72969429Y-92813238D01*
X72969429Y-92622761D01*
X72921810Y-92527523D01*
X72874190Y-92479904D01*
X72778952Y-92432285D01*
X94099143Y-84272381D02*
X93765809Y-83796190D01*
X93527714Y-84272381D02*
X93527714Y-83272381D01*
X93908667Y-83272381D01*
X94003905Y-83320000D01*
X94051524Y-83367619D01*
X94099143Y-83462857D01*
X94099143Y-83605714D01*
X94051524Y-83700952D01*
X94003905Y-83748571D01*
X93908667Y-83796190D01*
X93527714Y-83796190D01*
X95051524Y-84272381D02*
X94480095Y-84272381D01*
X94765809Y-84272381D02*
X94765809Y-83272381D01*
X94670571Y-83415238D01*
X94575333Y-83510476D01*
X94480095Y-83558095D01*
X95908667Y-83605714D02*
X95908667Y-84272381D01*
X95670571Y-83224762D02*
X95432476Y-83939048D01*
X96051524Y-83939048D01*
X81303905Y-83510381D02*
X81303905Y-82510381D01*
X81542000Y-82510381D01*
X81684858Y-82558000D01*
X81780096Y-82653238D01*
X81827715Y-82748476D01*
X81875334Y-82938952D01*
X81875334Y-83081810D01*
X81827715Y-83272286D01*
X81780096Y-83367524D01*
X81684858Y-83462762D01*
X81542000Y-83510381D01*
X81303905Y-83510381D01*
X82732477Y-82510381D02*
X82542000Y-82510381D01*
X82446762Y-82558000D01*
X82399143Y-82605619D01*
X82303905Y-82748476D01*
X82256286Y-82938952D01*
X82256286Y-83319905D01*
X82303905Y-83415143D01*
X82351524Y-83462762D01*
X82446762Y-83510381D01*
X82637239Y-83510381D01*
X82732477Y-83462762D01*
X82780096Y-83415143D01*
X82827715Y-83319905D01*
X82827715Y-83081810D01*
X82780096Y-82986571D01*
X82732477Y-82938952D01*
X82637239Y-82891333D01*
X82446762Y-82891333D01*
X82351524Y-82938952D01*
X82303905Y-82986571D01*
X82256286Y-83081810D01*
X80212143Y-87487143D02*
X80164524Y-87534762D01*
X80021667Y-87582381D01*
X79926429Y-87582381D01*
X79783571Y-87534762D01*
X79688333Y-87439524D01*
X79640714Y-87344286D01*
X79593095Y-87153810D01*
X79593095Y-87010952D01*
X79640714Y-86820476D01*
X79688333Y-86725238D01*
X79783571Y-86630000D01*
X79926429Y-86582381D01*
X80021667Y-86582381D01*
X80164524Y-86630000D01*
X80212143Y-86677619D01*
X81164524Y-87582381D02*
X80593095Y-87582381D01*
X80878809Y-87582381D02*
X80878809Y-86582381D01*
X80783571Y-86725238D01*
X80688333Y-86820476D01*
X80593095Y-86868095D01*
X82021667Y-86582381D02*
X81831190Y-86582381D01*
X81735952Y-86630000D01*
X81688333Y-86677619D01*
X81593095Y-86820476D01*
X81545476Y-87010952D01*
X81545476Y-87391905D01*
X81593095Y-87487143D01*
X81640714Y-87534762D01*
X81735952Y-87582381D01*
X81926429Y-87582381D01*
X82021667Y-87534762D01*
X82069286Y-87487143D01*
X82116905Y-87391905D01*
X82116905Y-87153810D01*
X82069286Y-87058571D01*
X82021667Y-87010952D01*
X81926429Y-86963333D01*
X81735952Y-86963333D01*
X81640714Y-87010952D01*
X81593095Y-87058571D01*
X81545476Y-87153810D01*
X98573334Y-84757143D02*
X98525715Y-84804762D01*
X98382858Y-84852381D01*
X98287620Y-84852381D01*
X98144762Y-84804762D01*
X98049524Y-84709524D01*
X98001905Y-84614286D01*
X97954286Y-84423810D01*
X97954286Y-84280952D01*
X98001905Y-84090476D01*
X98049524Y-83995238D01*
X98144762Y-83900000D01*
X98287620Y-83852381D01*
X98382858Y-83852381D01*
X98525715Y-83900000D01*
X98573334Y-83947619D01*
X98954286Y-83947619D02*
X99001905Y-83900000D01*
X99097143Y-83852381D01*
X99335239Y-83852381D01*
X99430477Y-83900000D01*
X99478096Y-83947619D01*
X99525715Y-84042857D01*
X99525715Y-84138095D01*
X99478096Y-84280952D01*
X98906667Y-84852381D01*
X99525715Y-84852381D01*
X94758334Y-86482143D02*
X94710715Y-86529762D01*
X94567858Y-86577381D01*
X94472620Y-86577381D01*
X94329762Y-86529762D01*
X94234524Y-86434524D01*
X94186905Y-86339286D01*
X94139286Y-86148810D01*
X94139286Y-86005952D01*
X94186905Y-85815476D01*
X94234524Y-85720238D01*
X94329762Y-85625000D01*
X94472620Y-85577381D01*
X94567858Y-85577381D01*
X94710715Y-85625000D01*
X94758334Y-85672619D01*
X95615477Y-85910714D02*
X95615477Y-86577381D01*
X95377381Y-85529762D02*
X95139286Y-86244048D01*
X95758334Y-86244048D01*
X80605334Y-91797143D02*
X80557715Y-91844762D01*
X80414858Y-91892381D01*
X80319620Y-91892381D01*
X80176762Y-91844762D01*
X80081524Y-91749524D01*
X80033905Y-91654286D01*
X79986286Y-91463810D01*
X79986286Y-91320952D01*
X80033905Y-91130476D01*
X80081524Y-91035238D01*
X80176762Y-90940000D01*
X80319620Y-90892381D01*
X80414858Y-90892381D01*
X80557715Y-90940000D01*
X80605334Y-90987619D01*
X80938667Y-90892381D02*
X81605334Y-90892381D01*
X81176762Y-91892381D01*
X110797143Y-90562381D02*
X110463809Y-90086190D01*
X110225714Y-90562381D02*
X110225714Y-89562381D01*
X110606667Y-89562381D01*
X110701905Y-89610000D01*
X110749524Y-89657619D01*
X110797143Y-89752857D01*
X110797143Y-89895714D01*
X110749524Y-89990952D01*
X110701905Y-90038571D01*
X110606667Y-90086190D01*
X110225714Y-90086190D01*
X111749524Y-90562381D02*
X111178095Y-90562381D01*
X111463809Y-90562381D02*
X111463809Y-89562381D01*
X111368571Y-89705238D01*
X111273333Y-89800476D01*
X111178095Y-89848095D01*
X112701905Y-90562381D02*
X112130476Y-90562381D01*
X112416190Y-90562381D02*
X112416190Y-89562381D01*
X112320952Y-89705238D01*
X112225714Y-89800476D01*
X112130476Y-89848095D01*
X90577381Y-89492857D02*
X90101190Y-89826191D01*
X90577381Y-90064286D02*
X89577381Y-90064286D01*
X89577381Y-89683333D01*
X89625000Y-89588095D01*
X89672619Y-89540476D01*
X89767857Y-89492857D01*
X89910714Y-89492857D01*
X90005952Y-89540476D01*
X90053571Y-89588095D01*
X90101190Y-89683333D01*
X90101190Y-90064286D01*
X90577381Y-88540476D02*
X90577381Y-89111905D01*
X90577381Y-88826191D02*
X89577381Y-88826191D01*
X89720238Y-88921429D01*
X89815476Y-89016667D01*
X89863095Y-89111905D01*
X89672619Y-88159524D02*
X89625000Y-88111905D01*
X89577381Y-88016667D01*
X89577381Y-87778571D01*
X89625000Y-87683333D01*
X89672619Y-87635714D01*
X89767857Y-87588095D01*
X89863095Y-87588095D01*
X90005952Y-87635714D01*
X90577381Y-88207143D01*
X90577381Y-87588095D01*
X101272619Y-88795238D02*
X101225000Y-88890476D01*
X101129762Y-88985714D01*
X100986905Y-89128571D01*
X100939286Y-89223810D01*
X100939286Y-89319048D01*
X101177381Y-89271429D02*
X101129762Y-89366667D01*
X101034524Y-89461905D01*
X100844048Y-89509524D01*
X100510714Y-89509524D01*
X100320238Y-89461905D01*
X100225000Y-89366667D01*
X100177381Y-89271429D01*
X100177381Y-89080952D01*
X100225000Y-88985714D01*
X100320238Y-88890476D01*
X100510714Y-88842857D01*
X100844048Y-88842857D01*
X101034524Y-88890476D01*
X101129762Y-88985714D01*
X101177381Y-89080952D01*
X101177381Y-89271429D01*
X101177381Y-87890476D02*
X101177381Y-88461905D01*
X101177381Y-88176191D02*
X100177381Y-88176191D01*
X100320238Y-88271429D01*
X100415476Y-88366667D01*
X100463095Y-88461905D01*
X99522619Y-89870238D02*
X99475000Y-89965476D01*
X99379762Y-90060714D01*
X99236905Y-90203571D01*
X99189286Y-90298810D01*
X99189286Y-90394048D01*
X99427381Y-90346429D02*
X99379762Y-90441667D01*
X99284524Y-90536905D01*
X99094048Y-90584524D01*
X98760714Y-90584524D01*
X98570238Y-90536905D01*
X98475000Y-90441667D01*
X98427381Y-90346429D01*
X98427381Y-90155952D01*
X98475000Y-90060714D01*
X98570238Y-89965476D01*
X98760714Y-89917857D01*
X99094048Y-89917857D01*
X99284524Y-89965476D01*
X99379762Y-90060714D01*
X99427381Y-90155952D01*
X99427381Y-90346429D01*
X98522619Y-89536905D02*
X98475000Y-89489286D01*
X98427381Y-89394048D01*
X98427381Y-89155952D01*
X98475000Y-89060714D01*
X98522619Y-89013095D01*
X98617857Y-88965476D01*
X98713095Y-88965476D01*
X98855952Y-89013095D01*
X99427381Y-89584524D01*
X99427381Y-88965476D01*
X86697619Y-89195238D02*
X86650000Y-89290476D01*
X86554762Y-89385714D01*
X86411905Y-89528571D01*
X86364286Y-89623810D01*
X86364286Y-89719048D01*
X86602381Y-89671429D02*
X86554762Y-89766667D01*
X86459524Y-89861905D01*
X86269048Y-89909524D01*
X85935714Y-89909524D01*
X85745238Y-89861905D01*
X85650000Y-89766667D01*
X85602381Y-89671429D01*
X85602381Y-89480952D01*
X85650000Y-89385714D01*
X85745238Y-89290476D01*
X85935714Y-89242857D01*
X86269048Y-89242857D01*
X86459524Y-89290476D01*
X86554762Y-89385714D01*
X86602381Y-89480952D01*
X86602381Y-89671429D01*
X85602381Y-88909524D02*
X85602381Y-88290476D01*
X85983333Y-88623810D01*
X85983333Y-88480952D01*
X86030952Y-88385714D01*
X86078571Y-88338095D01*
X86173810Y-88290476D01*
X86411905Y-88290476D01*
X86507143Y-88338095D01*
X86554762Y-88385714D01*
X86602381Y-88480952D01*
X86602381Y-88766667D01*
X86554762Y-88861905D01*
X86507143Y-88909524D01*
X71812381Y-88834523D02*
X72526667Y-88834523D01*
X72669524Y-88882143D01*
X72764762Y-88977381D01*
X72812381Y-89120238D01*
X72812381Y-89215476D01*
X71907619Y-88405952D02*
X71860000Y-88358333D01*
X71812381Y-88263095D01*
X71812381Y-88024999D01*
X71860000Y-87929761D01*
X71907619Y-87882142D01*
X72002857Y-87834523D01*
X72098095Y-87834523D01*
X72240952Y-87882142D01*
X72812381Y-88453571D01*
X72812381Y-87834523D01*
X71812381Y-86929761D02*
X71812381Y-87405952D01*
X72288571Y-87453571D01*
X72240952Y-87405952D01*
X72193333Y-87310714D01*
X72193333Y-87072618D01*
X72240952Y-86977380D01*
X72288571Y-86929761D01*
X72383810Y-86882142D01*
X72621905Y-86882142D01*
X72717143Y-86929761D01*
X72764762Y-86977380D01*
X72812381Y-87072618D01*
X72812381Y-87310714D01*
X72764762Y-87405952D01*
X72717143Y-87453571D01*
M02*
