G04 #@! TF.FileFunction,Copper,L1,Top,Signal*
%FSLAX46Y46*%
G04 Gerber Fmt 4.6, Leading zero omitted, Abs format (unit mm)*
G04 Created by KiCad (PCBNEW 4.0.7) date 04/20/20 00:53:53*
%MOMM*%
%LPD*%
G01*
G04 APERTURE LIST*
%ADD10C,0.100000*%
%ADD11R,1.300000X1.500000*%
%ADD12R,1.500000X1.250000*%
%ADD13R,1.250000X1.500000*%
%ADD14R,1.000000X1.000000*%
%ADD15R,1.500000X1.300000*%
%ADD16R,2.500000X2.000000*%
%ADD17C,1.500000*%
%ADD18R,3.000000X3.000000*%
%ADD19C,3.000000*%
%ADD20R,2.000000X2.000000*%
%ADD21R,1.500000X0.450000*%
%ADD22C,0.600000*%
%ADD23C,0.350000*%
%ADD24C,0.250000*%
%ADD25C,0.500000*%
G04 APERTURE END LIST*
D10*
D11*
X82296000Y-93138000D03*
X82296000Y-95838000D03*
D12*
X105775000Y-89775000D03*
X108275000Y-89775000D03*
X100750000Y-94500000D03*
X103250000Y-94500000D03*
X89428000Y-94996000D03*
X91928000Y-94996000D03*
X74696000Y-91186000D03*
X77196000Y-91186000D03*
X74696000Y-97790000D03*
X77196000Y-97790000D03*
D13*
X84582000Y-87650000D03*
X84582000Y-90150000D03*
D14*
X110490000Y-89896000D03*
X110490000Y-87396000D03*
X110490000Y-94722000D03*
X110490000Y-92222000D03*
X77196000Y-95758000D03*
X74696000Y-95758000D03*
D15*
X108375000Y-92275000D03*
X105675000Y-92275000D03*
X105584000Y-94488000D03*
X108284000Y-94488000D03*
X105725000Y-87675000D03*
X108425000Y-87675000D03*
X94154000Y-94742000D03*
X96854000Y-94742000D03*
X94408000Y-89662000D03*
X97108000Y-89662000D03*
D11*
X92400000Y-89950000D03*
X92400000Y-92650000D03*
X88646000Y-90344000D03*
X88646000Y-93044000D03*
D15*
X87202000Y-95250000D03*
X84502000Y-95250000D03*
X74596000Y-93218000D03*
X77296000Y-93218000D03*
X92122000Y-84582000D03*
X94822000Y-84582000D03*
X89488000Y-85090000D03*
X86788000Y-85090000D03*
D16*
X82296000Y-89376000D03*
X82296000Y-85376000D03*
D12*
X102850000Y-88900000D03*
X100350000Y-88900000D03*
X92476000Y-87122000D03*
X94976000Y-87122000D03*
D13*
X79502000Y-95738000D03*
X79502000Y-93238000D03*
D17*
X70800000Y-91694000D03*
X70800000Y-94234000D03*
D18*
X68072000Y-89408000D03*
D19*
X68072000Y-94488000D03*
D20*
X112776000Y-91186000D03*
X112522000Y-87122000D03*
X80675000Y-98300000D03*
X78486000Y-88646000D03*
X74168000Y-88646000D03*
X85852000Y-98298000D03*
X78486000Y-85090000D03*
X74168000Y-85090000D03*
D21*
X102930000Y-91836000D03*
X102930000Y-90536000D03*
X100270000Y-91186000D03*
X97630000Y-92650000D03*
X97630000Y-91350000D03*
X94970000Y-92000000D03*
X86928000Y-92852000D03*
X86928000Y-91552000D03*
X84268000Y-92202000D03*
D22*
X97028000Y-88138000D03*
X95758000Y-88138000D03*
X96520000Y-86360000D03*
X85598000Y-86614000D03*
X84328000Y-86360000D03*
X86106000Y-88646000D03*
X93726000Y-88392000D03*
X94742000Y-88392000D03*
X95758000Y-89408000D03*
X104140000Y-88646000D03*
X103886000Y-87630000D03*
X102870000Y-87376000D03*
X98500000Y-96700000D03*
X98500000Y-95700000D03*
X98200000Y-94800000D03*
X99000000Y-90900000D03*
X99060000Y-91948000D03*
X99060000Y-93218000D03*
X98806000Y-88138000D03*
X99060000Y-89916000D03*
X80264000Y-88900000D03*
X98525000Y-97850000D03*
X97350000Y-98925000D03*
X90475000Y-98600000D03*
X90525000Y-96725000D03*
X90500000Y-93700000D03*
X90500000Y-91000000D03*
X90700000Y-87950000D03*
X91075000Y-86400000D03*
X98900000Y-87225000D03*
X98900000Y-84300000D03*
X99150000Y-85525000D03*
X94996000Y-83058000D03*
X111175000Y-85725000D03*
X111500000Y-83875000D03*
X110600000Y-82975000D03*
X109325000Y-82825000D03*
X107600000Y-82775000D03*
X105725000Y-82850000D03*
X103925000Y-82925000D03*
X102125000Y-82900000D03*
X100400000Y-82950000D03*
X98725000Y-83050000D03*
X96975000Y-83100000D03*
X65975000Y-93400000D03*
X64700000Y-92250000D03*
X63850000Y-91025000D03*
X63750000Y-89650000D03*
X63525000Y-88175000D03*
X63575000Y-86725000D03*
X63950000Y-85100000D03*
X65175000Y-83525000D03*
X67350000Y-83050000D03*
X69600000Y-82950000D03*
X71700000Y-82950000D03*
X73875000Y-83150000D03*
X76050000Y-83150000D03*
X78500000Y-83150000D03*
X80625000Y-83375000D03*
X82650000Y-83375000D03*
X85225000Y-83425000D03*
X87450000Y-83250000D03*
X89675000Y-83550000D03*
X91425000Y-83425000D03*
X93675000Y-83192000D03*
X111900000Y-93650000D03*
X112000000Y-95300000D03*
X111900000Y-97025000D03*
X109075000Y-96900000D03*
X85925000Y-100100000D03*
X87400000Y-100075000D03*
X88850000Y-100075000D03*
X90525000Y-100000000D03*
X92025000Y-100000000D03*
X93475000Y-99925000D03*
X95175000Y-99950000D03*
X96500000Y-100000000D03*
X98100000Y-100200000D03*
X99850000Y-100275000D03*
X101325000Y-100325000D03*
X102950000Y-100325000D03*
X105025000Y-100250000D03*
X106875000Y-100300000D03*
X108100000Y-100350000D03*
X110050000Y-100300000D03*
X111300000Y-100025000D03*
X111475000Y-99000000D03*
X111200000Y-97875000D03*
X110550000Y-97225000D03*
X76350000Y-99850000D03*
X74325000Y-99850000D03*
X71900000Y-99950000D03*
X69850000Y-100100000D03*
X68000000Y-100075000D03*
X67750000Y-98675000D03*
X67850000Y-97200000D03*
X76575000Y-99850000D03*
X84400000Y-99950000D03*
X83075000Y-99950000D03*
X81500000Y-99950000D03*
X79750000Y-100000000D03*
X78000000Y-99875000D03*
X107725000Y-96950000D03*
X110375000Y-85775000D03*
X108925000Y-86125000D03*
X88650000Y-99200000D03*
X87500000Y-99200000D03*
X84200000Y-99050000D03*
X82550000Y-99025000D03*
X83450000Y-97175000D03*
X84450000Y-96825000D03*
X80325000Y-89950000D03*
D23*
X100096000Y-96364000D02*
X99920000Y-96540000D01*
X100300000Y-96160000D02*
X99920000Y-96540000D01*
X94976000Y-87122000D02*
X96012000Y-87122000D01*
X96012000Y-87122000D02*
X97028000Y-88138000D01*
X94976000Y-87122000D02*
X94976000Y-87356000D01*
X94976000Y-87356000D02*
X95758000Y-88138000D01*
X94976000Y-87122000D02*
X94996000Y-87122000D01*
X94996000Y-87122000D02*
X96266000Y-86360000D01*
X96266000Y-86360000D02*
X96520000Y-86360000D01*
X94822000Y-84582000D02*
X95250000Y-84582000D01*
X94976000Y-84736000D02*
X94822000Y-84582000D01*
X94976000Y-87122000D02*
X94976000Y-87610000D01*
X84582000Y-87650000D02*
X84022000Y-87650000D01*
X84022000Y-87650000D02*
X82296000Y-89376000D01*
X84582000Y-87650000D02*
X84582000Y-87376000D01*
X84582000Y-87376000D02*
X85598000Y-86614000D01*
X84582000Y-87650000D02*
X84582000Y-86614000D01*
X84582000Y-86614000D02*
X84328000Y-86360000D01*
X84582000Y-87650000D02*
X85110000Y-87650000D01*
X85110000Y-87650000D02*
X86106000Y-88646000D01*
X94408000Y-89662000D02*
X94408000Y-89074000D01*
X94408000Y-89074000D02*
X93726000Y-88392000D01*
X94408000Y-89662000D02*
X94408000Y-88980000D01*
X94408000Y-88980000D02*
X94742000Y-88392000D01*
X94408000Y-89662000D02*
X95504000Y-89662000D01*
X95504000Y-89662000D02*
X95758000Y-89408000D01*
X102850000Y-88900000D02*
X103886000Y-88900000D01*
X103886000Y-88900000D02*
X104140000Y-88646000D01*
X102850000Y-88900000D02*
X102850000Y-88666000D01*
X102850000Y-88666000D02*
X103886000Y-87630000D01*
X102850000Y-88900000D02*
X102850000Y-87396000D01*
X102850000Y-87396000D02*
X102870000Y-87376000D01*
X99000000Y-90900000D02*
X99000000Y-89976000D01*
X98525000Y-96725000D02*
X98500000Y-96700000D01*
X98500000Y-95700000D02*
X98200000Y-94800000D01*
X99300000Y-92525000D02*
X99060000Y-91948000D01*
X99060000Y-93218000D02*
X99300000Y-92525000D01*
X98525000Y-97850000D02*
X98525000Y-96725000D01*
X98900000Y-88044000D02*
X98900000Y-87225000D01*
X98806000Y-88138000D02*
X98900000Y-88044000D01*
X99000000Y-89976000D02*
X99060000Y-89916000D01*
X82296000Y-89376000D02*
X80740000Y-89376000D01*
X80740000Y-89376000D02*
X80264000Y-88900000D01*
X82296000Y-89376000D02*
X83280000Y-89376000D01*
X98425000Y-97850000D02*
X98525000Y-97850000D01*
X97350000Y-98925000D02*
X98425000Y-97850000D01*
X90475000Y-98600000D02*
X90575000Y-98500000D01*
X90575000Y-98500000D02*
X90575000Y-96775000D01*
X90575000Y-96775000D02*
X90525000Y-96725000D01*
X90500000Y-93700000D02*
X90550000Y-92325000D01*
X90550000Y-92325000D02*
X90600000Y-92275000D01*
X90600000Y-92275000D02*
X90500000Y-91000000D01*
X90700000Y-87950000D02*
X91075000Y-87575000D01*
X91075000Y-87575000D02*
X91075000Y-86400000D01*
X98900000Y-85275000D02*
X98900000Y-84300000D01*
X99150000Y-85525000D02*
X98900000Y-85275000D01*
X94822000Y-84470000D02*
X94996000Y-83058000D01*
X111175000Y-85725000D02*
X112522000Y-87072000D01*
X110600000Y-82975000D02*
X111500000Y-83875000D01*
X107650000Y-82825000D02*
X109325000Y-82825000D01*
X107600000Y-82775000D02*
X107650000Y-82825000D01*
X104000000Y-82850000D02*
X105725000Y-82850000D01*
X103925000Y-82925000D02*
X104000000Y-82850000D01*
X100450000Y-82900000D02*
X102125000Y-82900000D01*
X100400000Y-82950000D02*
X100450000Y-82900000D01*
X97025000Y-83050000D02*
X98725000Y-83050000D01*
X96975000Y-83100000D02*
X97025000Y-83050000D01*
X65975000Y-93400000D02*
X64825000Y-92250000D01*
X64825000Y-92250000D02*
X64700000Y-92250000D01*
X63850000Y-91025000D02*
X63750000Y-90925000D01*
X63750000Y-90925000D02*
X63750000Y-89650000D01*
X63525000Y-88175000D02*
X63575000Y-88125000D01*
X63575000Y-88125000D02*
X63575000Y-86725000D01*
X63950000Y-85100000D02*
X65175000Y-83875000D01*
X65175000Y-83875000D02*
X65175000Y-83525000D01*
X67350000Y-83050000D02*
X67450000Y-82950000D01*
X67450000Y-82950000D02*
X69600000Y-82950000D01*
X71700000Y-82950000D02*
X71900000Y-83150000D01*
X71900000Y-83150000D02*
X73875000Y-83150000D01*
X76050000Y-83150000D02*
X78500000Y-83150000D01*
X80625000Y-83375000D02*
X82650000Y-83375000D01*
X85225000Y-83425000D02*
X85400000Y-83250000D01*
X85400000Y-83250000D02*
X87450000Y-83250000D01*
X89675000Y-83550000D02*
X89800000Y-83425000D01*
X89800000Y-83425000D02*
X91425000Y-83425000D01*
X94822000Y-84339000D02*
X93675000Y-83192000D01*
X111200000Y-97875000D02*
X111200000Y-97725000D01*
X111975000Y-93725000D02*
X111900000Y-93650000D01*
X111975000Y-95275000D02*
X111975000Y-93725000D01*
X112000000Y-95300000D02*
X111975000Y-95275000D01*
X111200000Y-97725000D02*
X111900000Y-97025000D01*
X109075000Y-96900000D02*
X110225000Y-96900000D01*
X109075000Y-95525000D02*
X109075000Y-96900000D01*
X108284000Y-94734000D02*
X109075000Y-95525000D01*
X85775000Y-99950000D02*
X85925000Y-100100000D01*
X87400000Y-100075000D02*
X88850000Y-100075000D01*
X90525000Y-100000000D02*
X92025000Y-100000000D01*
X93475000Y-99925000D02*
X93500000Y-99950000D01*
X93500000Y-99950000D02*
X95175000Y-99950000D01*
X85775000Y-99950000D02*
X84400000Y-99950000D01*
X97900000Y-100000000D02*
X96500000Y-100000000D01*
X98100000Y-100200000D02*
X97900000Y-100000000D01*
X101275000Y-100275000D02*
X99850000Y-100275000D01*
X101325000Y-100325000D02*
X101275000Y-100275000D01*
X104950000Y-100325000D02*
X102950000Y-100325000D01*
X105025000Y-100250000D02*
X104950000Y-100325000D01*
X108050000Y-100300000D02*
X106875000Y-100300000D01*
X108100000Y-100350000D02*
X108050000Y-100300000D01*
X111025000Y-100300000D02*
X110050000Y-100300000D01*
X111300000Y-100025000D02*
X111025000Y-100300000D01*
X111475000Y-98150000D02*
X111475000Y-99000000D01*
X111200000Y-97875000D02*
X111475000Y-98150000D01*
X110225000Y-96900000D02*
X110550000Y-97225000D01*
X76350000Y-99850000D02*
X76575000Y-99850000D01*
X72000000Y-99850000D02*
X74325000Y-99850000D01*
X71900000Y-99950000D02*
X72000000Y-99850000D01*
X68025000Y-100100000D02*
X69850000Y-100100000D01*
X68000000Y-100075000D02*
X68025000Y-100100000D01*
X67750000Y-97300000D02*
X67750000Y-98675000D01*
X67850000Y-97200000D02*
X67750000Y-97300000D01*
X81500000Y-99950000D02*
X83075000Y-99950000D01*
X78125000Y-100000000D02*
X79750000Y-100000000D01*
X78000000Y-99875000D02*
X78125000Y-100000000D01*
X84400000Y-99950000D02*
X85852000Y-98498000D01*
X85852000Y-98498000D02*
X85852000Y-98298000D01*
X102850000Y-88900000D02*
X102850000Y-88925000D01*
X102850000Y-88900000D02*
X102850000Y-89275000D01*
X108284000Y-94488000D02*
X108284000Y-96391000D01*
X108284000Y-96391000D02*
X107725000Y-96950000D01*
X108284000Y-94488000D02*
X108284000Y-94734000D01*
X108284000Y-94488000D02*
X110256000Y-94488000D01*
X110256000Y-94488000D02*
X110490000Y-94722000D01*
X112522000Y-87122000D02*
X112522000Y-87072000D01*
X110490000Y-87396000D02*
X110490000Y-85890000D01*
X110490000Y-85890000D02*
X110375000Y-85775000D01*
X110490000Y-87396000D02*
X108704000Y-87396000D01*
X108704000Y-87396000D02*
X108425000Y-87675000D01*
X108425000Y-87675000D02*
X108425000Y-86625000D01*
X108425000Y-86625000D02*
X108925000Y-86125000D01*
X94822000Y-84582000D02*
X94822000Y-84339000D01*
X94822000Y-84582000D02*
X94822000Y-84470000D01*
X85852000Y-98298000D02*
X86598000Y-98298000D01*
X86598000Y-98298000D02*
X87500000Y-99200000D01*
X85852000Y-98298000D02*
X84952000Y-98298000D01*
X84952000Y-98298000D02*
X84200000Y-99050000D01*
X82296000Y-95838000D02*
X82296000Y-96021000D01*
X82296000Y-96021000D02*
X83450000Y-97175000D01*
X84450000Y-96825000D02*
X84502000Y-96773000D01*
X84502000Y-96773000D02*
X84502000Y-95250000D01*
X82296000Y-89376000D02*
X80899000Y-89376000D01*
X80899000Y-89376000D02*
X80325000Y-89950000D01*
X112522000Y-87122000D02*
X110764000Y-87122000D01*
X110764000Y-87122000D02*
X110490000Y-87396000D01*
X102850000Y-88900000D02*
X102850000Y-89440000D01*
X102850000Y-88900000D02*
X102850000Y-88906000D01*
X102850000Y-88906000D02*
X103311000Y-89367000D01*
X102930000Y-91836000D02*
X105236000Y-91836000D01*
X105236000Y-91836000D02*
X105675000Y-92275000D01*
X105650000Y-92250000D02*
X105675000Y-92275000D01*
X105775000Y-89775000D02*
X105775000Y-92175000D01*
X105775000Y-92175000D02*
X105675000Y-92275000D01*
X105725000Y-87675000D02*
X105725000Y-89725000D01*
X105725000Y-89725000D02*
X105775000Y-89775000D01*
X110490000Y-89896000D02*
X111486000Y-89896000D01*
X111486000Y-89896000D02*
X112776000Y-91186000D01*
X110490000Y-89896000D02*
X108396000Y-89896000D01*
X108396000Y-89896000D02*
X108275000Y-89775000D01*
X110490000Y-89896000D02*
X110490000Y-90678000D01*
X110490000Y-90678000D02*
X110490000Y-92222000D01*
X97630000Y-92650000D02*
X97630000Y-93980000D01*
X97630000Y-93980000D02*
X97616000Y-93980000D01*
X100750000Y-94500000D02*
X100342000Y-94500000D01*
X100342000Y-94500000D02*
X99822000Y-93980000D01*
X99822000Y-93980000D02*
X97616000Y-93980000D01*
X97616000Y-93980000D02*
X96854000Y-94742000D01*
X97630000Y-92650000D02*
X97375000Y-92650000D01*
X96854000Y-94742000D02*
X96854000Y-94292000D01*
D24*
X96872000Y-94760000D02*
X96854000Y-94742000D01*
D23*
X97070000Y-94526000D02*
X96854000Y-94742000D01*
X103250000Y-94500000D02*
X103250000Y-94360000D01*
X103250000Y-94360000D02*
X101600000Y-92710000D01*
X101996000Y-90536000D02*
X102930000Y-90536000D01*
X101854000Y-90678000D02*
X101996000Y-90536000D01*
X101854000Y-90932000D02*
X101854000Y-90678000D01*
X101600000Y-91186000D02*
X101854000Y-90932000D01*
X101600000Y-92710000D02*
X101600000Y-91186000D01*
X103250000Y-94500000D02*
X102882000Y-94500000D01*
X103250000Y-94500000D02*
X105270000Y-94575000D01*
X105270000Y-94575000D02*
X105395000Y-94700000D01*
X103000000Y-94250000D02*
X103250000Y-94500000D01*
X89428000Y-94996000D02*
X89072000Y-94996000D01*
X89072000Y-94996000D02*
X86928000Y-92852000D01*
X86928000Y-92852000D02*
X88454000Y-92852000D01*
X88454000Y-92852000D02*
X88646000Y-93044000D01*
X87202000Y-95250000D02*
X87202000Y-93126000D01*
X87202000Y-93126000D02*
X86928000Y-92852000D01*
X87456000Y-94996000D02*
X87202000Y-95250000D01*
X88754000Y-93044000D02*
X88646000Y-93044000D01*
X94970000Y-92000000D02*
X94970000Y-94688000D01*
X94970000Y-94688000D02*
X94154000Y-94742000D01*
X94970000Y-92000000D02*
X93050000Y-92000000D01*
X93050000Y-92000000D02*
X92400000Y-92650000D01*
X91928000Y-93122000D02*
X92400000Y-92650000D01*
X95300000Y-92000000D02*
X95100000Y-92000000D01*
X91928000Y-94996000D02*
X93346000Y-94996000D01*
X93346000Y-94996000D02*
X94154000Y-94742000D01*
D24*
X92450000Y-92600000D02*
X92400000Y-92650000D01*
D23*
X70800000Y-91694000D02*
X71374000Y-91694000D01*
X71374000Y-91694000D02*
X71882000Y-91186000D01*
X71882000Y-91186000D02*
X74696000Y-91186000D01*
X70800000Y-91694000D02*
X70358000Y-91694000D01*
X70358000Y-91694000D02*
X68072000Y-89408000D01*
X86928000Y-91552000D02*
X85958000Y-91552000D01*
X84900000Y-93380000D02*
X82538000Y-93380000D01*
X85580000Y-92700000D02*
X84900000Y-93380000D01*
X85580000Y-91930000D02*
X85580000Y-92700000D01*
X85958000Y-91552000D02*
X85580000Y-91930000D01*
X82538000Y-93380000D02*
X82296000Y-93138000D01*
X82296000Y-93138000D02*
X79602000Y-93138000D01*
X79602000Y-93138000D02*
X79502000Y-93238000D01*
X79502000Y-93238000D02*
X79502000Y-92202000D01*
X78486000Y-91186000D02*
X77196000Y-91186000D01*
X79502000Y-92202000D02*
X78486000Y-91186000D01*
X82376000Y-93218000D02*
X82296000Y-93138000D01*
X79502000Y-92944000D02*
X79228000Y-92944000D01*
X79602000Y-93044000D02*
X79502000Y-92944000D01*
X77216000Y-91166000D02*
X77196000Y-91186000D01*
X79602000Y-93044000D02*
X79502000Y-92944000D01*
X79502000Y-95738000D02*
X78974000Y-95738000D01*
X78974000Y-95738000D02*
X78232000Y-94996000D01*
X78232000Y-94154000D02*
X77296000Y-93218000D01*
X78232000Y-94996000D02*
X78232000Y-94154000D01*
X77296000Y-93218000D02*
X77296000Y-93298000D01*
X78994000Y-95504000D02*
X80010000Y-95504000D01*
X80010000Y-95504000D02*
X79502000Y-95738000D01*
X77196000Y-97790000D02*
X80167000Y-97792000D01*
X80167000Y-97792000D02*
X80675000Y-98300000D01*
X77196000Y-95758000D02*
X77196000Y-97790000D01*
X92476000Y-87122000D02*
X92476000Y-87102000D01*
X92476000Y-87102000D02*
X93726000Y-85852000D01*
X97842000Y-85598000D02*
X98044000Y-85800000D01*
X96012000Y-85598000D02*
X97842000Y-85598000D01*
X95758000Y-85852000D02*
X96012000Y-85598000D01*
X93726000Y-85852000D02*
X95758000Y-85852000D01*
X92476000Y-87122000D02*
X92476000Y-89874000D01*
X92476000Y-89874000D02*
X92400000Y-89950000D01*
X84582000Y-90150000D02*
X88452000Y-90150000D01*
X88452000Y-90150000D02*
X88646000Y-90344000D01*
X84582000Y-90150000D02*
X84582000Y-91888000D01*
X84582000Y-91888000D02*
X84268000Y-92202000D01*
X100270000Y-91186000D02*
X100270000Y-88980000D01*
X100270000Y-88980000D02*
X100350000Y-88900000D01*
X100350000Y-87142000D02*
X100350000Y-86300000D01*
X100350000Y-88900000D02*
X100350000Y-87142000D01*
X100330000Y-86360000D02*
X100330000Y-86300000D01*
X100330000Y-86320000D02*
X100330000Y-86360000D01*
X100350000Y-86300000D02*
X100330000Y-86320000D01*
X98044000Y-85800000D02*
X98246000Y-85800000D01*
X98246000Y-85800000D02*
X98746000Y-86300000D01*
X98746000Y-86300000D02*
X100330000Y-86300000D01*
X107525000Y-92275000D02*
X108375000Y-92275000D01*
X100330000Y-86300000D02*
X105100000Y-86300000D01*
X107525000Y-92275000D02*
X107125000Y-91875000D01*
X107125000Y-91875000D02*
X107125000Y-86950000D01*
X107125000Y-86950000D02*
X106475000Y-86300000D01*
X106475000Y-86300000D02*
X105100000Y-86300000D01*
X98044000Y-85800000D02*
X98100000Y-85800000D01*
X99762000Y-88834000D02*
X100350000Y-88900000D01*
X92476000Y-87122000D02*
X93026000Y-87122000D01*
X92476000Y-87122000D02*
X91876000Y-87122000D01*
X92400000Y-89950000D02*
X89040000Y-89950000D01*
X89040000Y-89950000D02*
X88646000Y-90344000D01*
D24*
X92400000Y-89950000D02*
X92400000Y-89800000D01*
X88646000Y-90344000D02*
X88856000Y-90344000D01*
X88646000Y-90344000D02*
X88646000Y-90154000D01*
D23*
X88646000Y-90344000D02*
X88681000Y-90344000D01*
X88472000Y-90170000D02*
X88646000Y-90344000D01*
X92574000Y-89776000D02*
X92400000Y-89950000D01*
X100350000Y-88900000D02*
X100350000Y-89025000D01*
X89488000Y-85090000D02*
X92122000Y-84582000D01*
X78486000Y-88646000D02*
X77724000Y-88646000D01*
X77724000Y-88646000D02*
X74168000Y-85090000D01*
X74596000Y-93218000D02*
X74596000Y-95658000D01*
X74596000Y-95658000D02*
X74696000Y-95758000D01*
X82296000Y-85376000D02*
X86502000Y-85376000D01*
X86502000Y-85376000D02*
X86788000Y-85090000D01*
X82582000Y-85090000D02*
X82296000Y-85376000D01*
X78486000Y-85090000D02*
X82010000Y-85090000D01*
X82010000Y-85090000D02*
X82296000Y-85376000D01*
X97108000Y-89662000D02*
X97108000Y-90828000D01*
X97108000Y-90828000D02*
X97630000Y-91350000D01*
D25*
G36*
X99553790Y-83162563D02*
X99174438Y-83730304D01*
X99041227Y-84400000D01*
X99174438Y-85069696D01*
X99378435Y-85375000D01*
X99129148Y-85375000D01*
X98900074Y-85145926D01*
X98599983Y-84945411D01*
X98455194Y-84916611D01*
X98195983Y-84743411D01*
X97842000Y-84673000D01*
X96012000Y-84673000D01*
X95658017Y-84743411D01*
X95413189Y-84907000D01*
X95197000Y-84907000D01*
X95197000Y-84927000D01*
X94447000Y-84927000D01*
X94447000Y-84907000D01*
X94072000Y-84907000D01*
X94072000Y-84257000D01*
X94447000Y-84257000D01*
X94447000Y-83363500D01*
X95197000Y-83363500D01*
X95197000Y-84257000D01*
X96140500Y-84257000D01*
X96330000Y-84067500D01*
X96330000Y-83781225D01*
X96214602Y-83502628D01*
X96001373Y-83289399D01*
X95722776Y-83174000D01*
X95386500Y-83174000D01*
X95197000Y-83363500D01*
X94447000Y-83363500D01*
X94257500Y-83174000D01*
X93921224Y-83174000D01*
X93642627Y-83289399D01*
X93600028Y-83331998D01*
X93322367Y-83331998D01*
X93169508Y-83227554D01*
X92872000Y-83167307D01*
X91372000Y-83167307D01*
X91094067Y-83219604D01*
X90838802Y-83383862D01*
X90667554Y-83634492D01*
X90633526Y-83802527D01*
X90535508Y-83735554D01*
X90238000Y-83675307D01*
X88738000Y-83675307D01*
X88460067Y-83727604D01*
X88204802Y-83891862D01*
X88138740Y-83988548D01*
X88086138Y-83906802D01*
X87835508Y-83735554D01*
X87538000Y-83675307D01*
X86038000Y-83675307D01*
X85760067Y-83727604D01*
X85504802Y-83891862D01*
X85333554Y-84142492D01*
X85273307Y-84440000D01*
X85273307Y-84451000D01*
X84310693Y-84451000D01*
X84310693Y-84376000D01*
X84258396Y-84098067D01*
X84094138Y-83842802D01*
X83843508Y-83671554D01*
X83546000Y-83611307D01*
X81046000Y-83611307D01*
X80768067Y-83663604D01*
X80512802Y-83827862D01*
X80341554Y-84078492D01*
X80324036Y-84165000D01*
X80250693Y-84165000D01*
X80250693Y-84090000D01*
X80198396Y-83812067D01*
X80034138Y-83556802D01*
X79783508Y-83385554D01*
X79486000Y-83325307D01*
X77486000Y-83325307D01*
X77208067Y-83377604D01*
X76952802Y-83541862D01*
X76781554Y-83792492D01*
X76721307Y-84090000D01*
X76721307Y-86090000D01*
X76773604Y-86367933D01*
X76808842Y-86422695D01*
X75932693Y-85546545D01*
X75932693Y-84090000D01*
X75880396Y-83812067D01*
X75716138Y-83556802D01*
X75465508Y-83385554D01*
X75168000Y-83325307D01*
X73168000Y-83325307D01*
X72890067Y-83377604D01*
X72634802Y-83541862D01*
X72463554Y-83792492D01*
X72403307Y-84090000D01*
X72403307Y-86090000D01*
X72455604Y-86367933D01*
X72619862Y-86623198D01*
X72870492Y-86794446D01*
X73168000Y-86854693D01*
X74624545Y-86854693D01*
X74757676Y-86987824D01*
X74668000Y-87077500D01*
X74668000Y-88146000D01*
X75736500Y-88146000D01*
X75826176Y-88056324D01*
X76721307Y-88951454D01*
X76721307Y-89646000D01*
X76749589Y-89796307D01*
X76446000Y-89796307D01*
X76168067Y-89848604D01*
X75943429Y-89993154D01*
X75866445Y-89940553D01*
X75926000Y-89796775D01*
X75926000Y-89335500D01*
X75736500Y-89146000D01*
X74668000Y-89146000D01*
X74668000Y-89646000D01*
X73668000Y-89646000D01*
X73668000Y-89146000D01*
X72599500Y-89146000D01*
X72410000Y-89335500D01*
X72410000Y-89796775D01*
X72525398Y-90075372D01*
X72711026Y-90261000D01*
X71882000Y-90261000D01*
X71528018Y-90331411D01*
X71490440Y-90356520D01*
X71099677Y-90194261D01*
X70502941Y-90193740D01*
X70336693Y-90262432D01*
X70336693Y-87908000D01*
X70284396Y-87630067D01*
X70197628Y-87495225D01*
X72410000Y-87495225D01*
X72410000Y-87956500D01*
X72599500Y-88146000D01*
X73668000Y-88146000D01*
X73668000Y-87077500D01*
X73478500Y-86888000D01*
X73017224Y-86888000D01*
X72738627Y-87003399D01*
X72525398Y-87216628D01*
X72410000Y-87495225D01*
X70197628Y-87495225D01*
X70120138Y-87374802D01*
X69869508Y-87203554D01*
X69572000Y-87143307D01*
X67449224Y-87143307D01*
X67519687Y-86973613D01*
X67520312Y-86257529D01*
X67246855Y-85595714D01*
X66740949Y-85088924D01*
X66079613Y-84814313D01*
X65363529Y-84813688D01*
X64701714Y-85087145D01*
X64194924Y-85593051D01*
X63920313Y-86254387D01*
X63919688Y-86970471D01*
X64193145Y-87632286D01*
X64699051Y-88139076D01*
X65360387Y-88413687D01*
X65807307Y-88414077D01*
X65807307Y-90908000D01*
X65859604Y-91185933D01*
X66023862Y-91441198D01*
X66274492Y-91612446D01*
X66572000Y-91672693D01*
X69028545Y-91672693D01*
X69299781Y-91943929D01*
X69299740Y-91991059D01*
X69527620Y-92542572D01*
X69949209Y-92964897D01*
X70151012Y-93048693D01*
X70149579Y-93053249D01*
X70800000Y-93703670D01*
X71450421Y-93053249D01*
X71449031Y-93048828D01*
X71648572Y-92966380D01*
X72070897Y-92544791D01*
X72240992Y-92135155D01*
X72265148Y-92111000D01*
X73247804Y-92111000D01*
X73249126Y-92113055D01*
X73141554Y-92270492D01*
X73081307Y-92568000D01*
X73081307Y-93868000D01*
X73133604Y-94145933D01*
X73297862Y-94401198D01*
X73548492Y-94572446D01*
X73671000Y-94597255D01*
X73671000Y-94704587D01*
X73662802Y-94709862D01*
X73491554Y-94960492D01*
X73431307Y-95258000D01*
X73431307Y-96258000D01*
X73459343Y-96407000D01*
X73445998Y-96407000D01*
X73445998Y-96593028D01*
X73303398Y-96735628D01*
X73188000Y-97014225D01*
X73188000Y-97288000D01*
X73377500Y-97477500D01*
X74321000Y-97477500D01*
X74321000Y-97165000D01*
X75071000Y-97165000D01*
X75071000Y-97477500D01*
X75446000Y-97477500D01*
X75446000Y-98102500D01*
X75071000Y-98102500D01*
X75071000Y-98983500D01*
X75260500Y-99173000D01*
X75596776Y-99173000D01*
X75875373Y-99057601D01*
X75892972Y-99040002D01*
X76032222Y-99040002D01*
X76148492Y-99119446D01*
X76446000Y-99179693D01*
X77946000Y-99179693D01*
X78223933Y-99127396D01*
X78479198Y-98963138D01*
X78648075Y-98715978D01*
X78910307Y-98716154D01*
X78910307Y-99300000D01*
X78962604Y-99577933D01*
X79126862Y-99833198D01*
X79377492Y-100004446D01*
X79675000Y-100064693D01*
X81675000Y-100064693D01*
X81952933Y-100012396D01*
X82208198Y-99848138D01*
X82379446Y-99597508D01*
X82439693Y-99300000D01*
X82439693Y-98987500D01*
X84094000Y-98987500D01*
X84094000Y-99448775D01*
X84209398Y-99727372D01*
X84422627Y-99940601D01*
X84701224Y-100056000D01*
X85162500Y-100056000D01*
X85352000Y-99866500D01*
X85352000Y-98798000D01*
X86352000Y-98798000D01*
X86352000Y-99866500D01*
X86541500Y-100056000D01*
X87002776Y-100056000D01*
X87281373Y-99940601D01*
X87494602Y-99727372D01*
X87610000Y-99448775D01*
X87610000Y-98987500D01*
X87420500Y-98798000D01*
X86352000Y-98798000D01*
X85352000Y-98798000D01*
X84283500Y-98798000D01*
X84094000Y-98987500D01*
X82439693Y-98987500D01*
X82439693Y-97346000D01*
X83546002Y-97346000D01*
X83546002Y-97088002D01*
X83704000Y-97088002D01*
X83704000Y-96658000D01*
X84420026Y-96658000D01*
X84209398Y-96868628D01*
X84094000Y-97147225D01*
X84094000Y-97608500D01*
X84283500Y-97798000D01*
X85352000Y-97798000D01*
X85352000Y-96729500D01*
X85280500Y-96658000D01*
X85752002Y-96658000D01*
X85752002Y-96500002D01*
X86001633Y-96500002D01*
X86154492Y-96604446D01*
X86422734Y-96658766D01*
X86352000Y-96729500D01*
X86352000Y-97798000D01*
X87420500Y-97798000D01*
X87610000Y-97608500D01*
X87610000Y-97147225D01*
X87494602Y-96868628D01*
X87290667Y-96664693D01*
X87952000Y-96664693D01*
X88229933Y-96612396D01*
X88485198Y-96448138D01*
X88546113Y-96358985D01*
X88678000Y-96385693D01*
X90178000Y-96385693D01*
X90455933Y-96333396D01*
X90680571Y-96188846D01*
X90880492Y-96325446D01*
X91178000Y-96385693D01*
X92678000Y-96385693D01*
X92955933Y-96333396D01*
X93211198Y-96169138D01*
X93242102Y-96123908D01*
X93404000Y-96156693D01*
X94904000Y-96156693D01*
X95181933Y-96104396D01*
X95437198Y-95940138D01*
X95503260Y-95843452D01*
X95555862Y-95925198D01*
X95806492Y-96096446D01*
X96104000Y-96156693D01*
X97604000Y-96156693D01*
X97881933Y-96104396D01*
X98137198Y-95940138D01*
X98308446Y-95689508D01*
X98368693Y-95392000D01*
X98368693Y-94905000D01*
X99235307Y-94905000D01*
X99235307Y-95125000D01*
X99287604Y-95402933D01*
X99451862Y-95658198D01*
X99476690Y-95675162D01*
X99265926Y-95885926D01*
X99065411Y-96186017D01*
X98995000Y-96540000D01*
X99065411Y-96893983D01*
X99265926Y-97194074D01*
X99566017Y-97394589D01*
X99577324Y-97396838D01*
X99553790Y-97412563D01*
X99174438Y-97980304D01*
X99041227Y-98650000D01*
X99174438Y-99319696D01*
X99553790Y-99887437D01*
X99984159Y-100175000D01*
X62825000Y-100175000D01*
X62825000Y-97130471D01*
X63919688Y-97130471D01*
X64193145Y-97792286D01*
X64699051Y-98299076D01*
X65360387Y-98573687D01*
X66076471Y-98574312D01*
X66738286Y-98300855D01*
X66747156Y-98292000D01*
X73188000Y-98292000D01*
X73188000Y-98565775D01*
X73303398Y-98844372D01*
X73516627Y-99057601D01*
X73795224Y-99173000D01*
X74131500Y-99173000D01*
X74321000Y-98983500D01*
X74321000Y-98102500D01*
X73377500Y-98102500D01*
X73188000Y-98292000D01*
X66747156Y-98292000D01*
X67245076Y-97794949D01*
X67519687Y-97133613D01*
X67519972Y-96807798D01*
X67616198Y-96711572D01*
X68293149Y-96779592D01*
X68744639Y-96689784D01*
X68938301Y-96414961D01*
X68072000Y-95548660D01*
X67704304Y-95916356D01*
X67202699Y-95414751D01*
X70149579Y-95414751D01*
X70226928Y-95660753D01*
X70816546Y-95771453D01*
X71373072Y-95660753D01*
X71450421Y-95414751D01*
X70800000Y-94764330D01*
X70149579Y-95414751D01*
X67202699Y-95414751D01*
X66643644Y-94855696D01*
X67011340Y-94488000D01*
X69132660Y-94488000D01*
X69353759Y-94709099D01*
X69373247Y-94807072D01*
X69487727Y-94843067D01*
X69998961Y-95354301D01*
X70273784Y-95160639D01*
X70363592Y-94266851D01*
X70357058Y-94234000D01*
X71330330Y-94234000D01*
X71980751Y-94884421D01*
X72226753Y-94807072D01*
X72337453Y-94217454D01*
X72226753Y-93660928D01*
X71980751Y-93583579D01*
X71330330Y-94234000D01*
X70357058Y-94234000D01*
X70273784Y-93815361D01*
X69998961Y-93621699D01*
X69828165Y-93792495D01*
X69619249Y-93583579D01*
X69373247Y-93660928D01*
X69262547Y-94250546D01*
X69280394Y-94340266D01*
X69132660Y-94488000D01*
X67011340Y-94488000D01*
X66145039Y-93621699D01*
X65870216Y-93815361D01*
X65780408Y-94709149D01*
X65830625Y-94961605D01*
X65818145Y-94974085D01*
X65363529Y-94973688D01*
X64701714Y-95247145D01*
X64194924Y-95753051D01*
X63920313Y-96414387D01*
X63919688Y-97130471D01*
X62825000Y-97130471D01*
X62825000Y-92561039D01*
X67205699Y-92561039D01*
X68072000Y-93427340D01*
X68938301Y-92561039D01*
X68744639Y-92286216D01*
X67850851Y-92196408D01*
X67399361Y-92286216D01*
X67205699Y-92561039D01*
X62825000Y-92561039D01*
X62825000Y-82825000D01*
X100058989Y-82825000D01*
X99553790Y-83162563D01*
X99553790Y-83162563D01*
G37*
X99553790Y-83162563D02*
X99174438Y-83730304D01*
X99041227Y-84400000D01*
X99174438Y-85069696D01*
X99378435Y-85375000D01*
X99129148Y-85375000D01*
X98900074Y-85145926D01*
X98599983Y-84945411D01*
X98455194Y-84916611D01*
X98195983Y-84743411D01*
X97842000Y-84673000D01*
X96012000Y-84673000D01*
X95658017Y-84743411D01*
X95413189Y-84907000D01*
X95197000Y-84907000D01*
X95197000Y-84927000D01*
X94447000Y-84927000D01*
X94447000Y-84907000D01*
X94072000Y-84907000D01*
X94072000Y-84257000D01*
X94447000Y-84257000D01*
X94447000Y-83363500D01*
X95197000Y-83363500D01*
X95197000Y-84257000D01*
X96140500Y-84257000D01*
X96330000Y-84067500D01*
X96330000Y-83781225D01*
X96214602Y-83502628D01*
X96001373Y-83289399D01*
X95722776Y-83174000D01*
X95386500Y-83174000D01*
X95197000Y-83363500D01*
X94447000Y-83363500D01*
X94257500Y-83174000D01*
X93921224Y-83174000D01*
X93642627Y-83289399D01*
X93600028Y-83331998D01*
X93322367Y-83331998D01*
X93169508Y-83227554D01*
X92872000Y-83167307D01*
X91372000Y-83167307D01*
X91094067Y-83219604D01*
X90838802Y-83383862D01*
X90667554Y-83634492D01*
X90633526Y-83802527D01*
X90535508Y-83735554D01*
X90238000Y-83675307D01*
X88738000Y-83675307D01*
X88460067Y-83727604D01*
X88204802Y-83891862D01*
X88138740Y-83988548D01*
X88086138Y-83906802D01*
X87835508Y-83735554D01*
X87538000Y-83675307D01*
X86038000Y-83675307D01*
X85760067Y-83727604D01*
X85504802Y-83891862D01*
X85333554Y-84142492D01*
X85273307Y-84440000D01*
X85273307Y-84451000D01*
X84310693Y-84451000D01*
X84310693Y-84376000D01*
X84258396Y-84098067D01*
X84094138Y-83842802D01*
X83843508Y-83671554D01*
X83546000Y-83611307D01*
X81046000Y-83611307D01*
X80768067Y-83663604D01*
X80512802Y-83827862D01*
X80341554Y-84078492D01*
X80324036Y-84165000D01*
X80250693Y-84165000D01*
X80250693Y-84090000D01*
X80198396Y-83812067D01*
X80034138Y-83556802D01*
X79783508Y-83385554D01*
X79486000Y-83325307D01*
X77486000Y-83325307D01*
X77208067Y-83377604D01*
X76952802Y-83541862D01*
X76781554Y-83792492D01*
X76721307Y-84090000D01*
X76721307Y-86090000D01*
X76773604Y-86367933D01*
X76808842Y-86422695D01*
X75932693Y-85546545D01*
X75932693Y-84090000D01*
X75880396Y-83812067D01*
X75716138Y-83556802D01*
X75465508Y-83385554D01*
X75168000Y-83325307D01*
X73168000Y-83325307D01*
X72890067Y-83377604D01*
X72634802Y-83541862D01*
X72463554Y-83792492D01*
X72403307Y-84090000D01*
X72403307Y-86090000D01*
X72455604Y-86367933D01*
X72619862Y-86623198D01*
X72870492Y-86794446D01*
X73168000Y-86854693D01*
X74624545Y-86854693D01*
X74757676Y-86987824D01*
X74668000Y-87077500D01*
X74668000Y-88146000D01*
X75736500Y-88146000D01*
X75826176Y-88056324D01*
X76721307Y-88951454D01*
X76721307Y-89646000D01*
X76749589Y-89796307D01*
X76446000Y-89796307D01*
X76168067Y-89848604D01*
X75943429Y-89993154D01*
X75866445Y-89940553D01*
X75926000Y-89796775D01*
X75926000Y-89335500D01*
X75736500Y-89146000D01*
X74668000Y-89146000D01*
X74668000Y-89646000D01*
X73668000Y-89646000D01*
X73668000Y-89146000D01*
X72599500Y-89146000D01*
X72410000Y-89335500D01*
X72410000Y-89796775D01*
X72525398Y-90075372D01*
X72711026Y-90261000D01*
X71882000Y-90261000D01*
X71528018Y-90331411D01*
X71490440Y-90356520D01*
X71099677Y-90194261D01*
X70502941Y-90193740D01*
X70336693Y-90262432D01*
X70336693Y-87908000D01*
X70284396Y-87630067D01*
X70197628Y-87495225D01*
X72410000Y-87495225D01*
X72410000Y-87956500D01*
X72599500Y-88146000D01*
X73668000Y-88146000D01*
X73668000Y-87077500D01*
X73478500Y-86888000D01*
X73017224Y-86888000D01*
X72738627Y-87003399D01*
X72525398Y-87216628D01*
X72410000Y-87495225D01*
X70197628Y-87495225D01*
X70120138Y-87374802D01*
X69869508Y-87203554D01*
X69572000Y-87143307D01*
X67449224Y-87143307D01*
X67519687Y-86973613D01*
X67520312Y-86257529D01*
X67246855Y-85595714D01*
X66740949Y-85088924D01*
X66079613Y-84814313D01*
X65363529Y-84813688D01*
X64701714Y-85087145D01*
X64194924Y-85593051D01*
X63920313Y-86254387D01*
X63919688Y-86970471D01*
X64193145Y-87632286D01*
X64699051Y-88139076D01*
X65360387Y-88413687D01*
X65807307Y-88414077D01*
X65807307Y-90908000D01*
X65859604Y-91185933D01*
X66023862Y-91441198D01*
X66274492Y-91612446D01*
X66572000Y-91672693D01*
X69028545Y-91672693D01*
X69299781Y-91943929D01*
X69299740Y-91991059D01*
X69527620Y-92542572D01*
X69949209Y-92964897D01*
X70151012Y-93048693D01*
X70149579Y-93053249D01*
X70800000Y-93703670D01*
X71450421Y-93053249D01*
X71449031Y-93048828D01*
X71648572Y-92966380D01*
X72070897Y-92544791D01*
X72240992Y-92135155D01*
X72265148Y-92111000D01*
X73247804Y-92111000D01*
X73249126Y-92113055D01*
X73141554Y-92270492D01*
X73081307Y-92568000D01*
X73081307Y-93868000D01*
X73133604Y-94145933D01*
X73297862Y-94401198D01*
X73548492Y-94572446D01*
X73671000Y-94597255D01*
X73671000Y-94704587D01*
X73662802Y-94709862D01*
X73491554Y-94960492D01*
X73431307Y-95258000D01*
X73431307Y-96258000D01*
X73459343Y-96407000D01*
X73445998Y-96407000D01*
X73445998Y-96593028D01*
X73303398Y-96735628D01*
X73188000Y-97014225D01*
X73188000Y-97288000D01*
X73377500Y-97477500D01*
X74321000Y-97477500D01*
X74321000Y-97165000D01*
X75071000Y-97165000D01*
X75071000Y-97477500D01*
X75446000Y-97477500D01*
X75446000Y-98102500D01*
X75071000Y-98102500D01*
X75071000Y-98983500D01*
X75260500Y-99173000D01*
X75596776Y-99173000D01*
X75875373Y-99057601D01*
X75892972Y-99040002D01*
X76032222Y-99040002D01*
X76148492Y-99119446D01*
X76446000Y-99179693D01*
X77946000Y-99179693D01*
X78223933Y-99127396D01*
X78479198Y-98963138D01*
X78648075Y-98715978D01*
X78910307Y-98716154D01*
X78910307Y-99300000D01*
X78962604Y-99577933D01*
X79126862Y-99833198D01*
X79377492Y-100004446D01*
X79675000Y-100064693D01*
X81675000Y-100064693D01*
X81952933Y-100012396D01*
X82208198Y-99848138D01*
X82379446Y-99597508D01*
X82439693Y-99300000D01*
X82439693Y-98987500D01*
X84094000Y-98987500D01*
X84094000Y-99448775D01*
X84209398Y-99727372D01*
X84422627Y-99940601D01*
X84701224Y-100056000D01*
X85162500Y-100056000D01*
X85352000Y-99866500D01*
X85352000Y-98798000D01*
X86352000Y-98798000D01*
X86352000Y-99866500D01*
X86541500Y-100056000D01*
X87002776Y-100056000D01*
X87281373Y-99940601D01*
X87494602Y-99727372D01*
X87610000Y-99448775D01*
X87610000Y-98987500D01*
X87420500Y-98798000D01*
X86352000Y-98798000D01*
X85352000Y-98798000D01*
X84283500Y-98798000D01*
X84094000Y-98987500D01*
X82439693Y-98987500D01*
X82439693Y-97346000D01*
X83546002Y-97346000D01*
X83546002Y-97088002D01*
X83704000Y-97088002D01*
X83704000Y-96658000D01*
X84420026Y-96658000D01*
X84209398Y-96868628D01*
X84094000Y-97147225D01*
X84094000Y-97608500D01*
X84283500Y-97798000D01*
X85352000Y-97798000D01*
X85352000Y-96729500D01*
X85280500Y-96658000D01*
X85752002Y-96658000D01*
X85752002Y-96500002D01*
X86001633Y-96500002D01*
X86154492Y-96604446D01*
X86422734Y-96658766D01*
X86352000Y-96729500D01*
X86352000Y-97798000D01*
X87420500Y-97798000D01*
X87610000Y-97608500D01*
X87610000Y-97147225D01*
X87494602Y-96868628D01*
X87290667Y-96664693D01*
X87952000Y-96664693D01*
X88229933Y-96612396D01*
X88485198Y-96448138D01*
X88546113Y-96358985D01*
X88678000Y-96385693D01*
X90178000Y-96385693D01*
X90455933Y-96333396D01*
X90680571Y-96188846D01*
X90880492Y-96325446D01*
X91178000Y-96385693D01*
X92678000Y-96385693D01*
X92955933Y-96333396D01*
X93211198Y-96169138D01*
X93242102Y-96123908D01*
X93404000Y-96156693D01*
X94904000Y-96156693D01*
X95181933Y-96104396D01*
X95437198Y-95940138D01*
X95503260Y-95843452D01*
X95555862Y-95925198D01*
X95806492Y-96096446D01*
X96104000Y-96156693D01*
X97604000Y-96156693D01*
X97881933Y-96104396D01*
X98137198Y-95940138D01*
X98308446Y-95689508D01*
X98368693Y-95392000D01*
X98368693Y-94905000D01*
X99235307Y-94905000D01*
X99235307Y-95125000D01*
X99287604Y-95402933D01*
X99451862Y-95658198D01*
X99476690Y-95675162D01*
X99265926Y-95885926D01*
X99065411Y-96186017D01*
X98995000Y-96540000D01*
X99065411Y-96893983D01*
X99265926Y-97194074D01*
X99566017Y-97394589D01*
X99577324Y-97396838D01*
X99553790Y-97412563D01*
X99174438Y-97980304D01*
X99041227Y-98650000D01*
X99174438Y-99319696D01*
X99553790Y-99887437D01*
X99984159Y-100175000D01*
X62825000Y-100175000D01*
X62825000Y-97130471D01*
X63919688Y-97130471D01*
X64193145Y-97792286D01*
X64699051Y-98299076D01*
X65360387Y-98573687D01*
X66076471Y-98574312D01*
X66738286Y-98300855D01*
X66747156Y-98292000D01*
X73188000Y-98292000D01*
X73188000Y-98565775D01*
X73303398Y-98844372D01*
X73516627Y-99057601D01*
X73795224Y-99173000D01*
X74131500Y-99173000D01*
X74321000Y-98983500D01*
X74321000Y-98102500D01*
X73377500Y-98102500D01*
X73188000Y-98292000D01*
X66747156Y-98292000D01*
X67245076Y-97794949D01*
X67519687Y-97133613D01*
X67519972Y-96807798D01*
X67616198Y-96711572D01*
X68293149Y-96779592D01*
X68744639Y-96689784D01*
X68938301Y-96414961D01*
X68072000Y-95548660D01*
X67704304Y-95916356D01*
X67202699Y-95414751D01*
X70149579Y-95414751D01*
X70226928Y-95660753D01*
X70816546Y-95771453D01*
X71373072Y-95660753D01*
X71450421Y-95414751D01*
X70800000Y-94764330D01*
X70149579Y-95414751D01*
X67202699Y-95414751D01*
X66643644Y-94855696D01*
X67011340Y-94488000D01*
X69132660Y-94488000D01*
X69353759Y-94709099D01*
X69373247Y-94807072D01*
X69487727Y-94843067D01*
X69998961Y-95354301D01*
X70273784Y-95160639D01*
X70363592Y-94266851D01*
X70357058Y-94234000D01*
X71330330Y-94234000D01*
X71980751Y-94884421D01*
X72226753Y-94807072D01*
X72337453Y-94217454D01*
X72226753Y-93660928D01*
X71980751Y-93583579D01*
X71330330Y-94234000D01*
X70357058Y-94234000D01*
X70273784Y-93815361D01*
X69998961Y-93621699D01*
X69828165Y-93792495D01*
X69619249Y-93583579D01*
X69373247Y-93660928D01*
X69262547Y-94250546D01*
X69280394Y-94340266D01*
X69132660Y-94488000D01*
X67011340Y-94488000D01*
X66145039Y-93621699D01*
X65870216Y-93815361D01*
X65780408Y-94709149D01*
X65830625Y-94961605D01*
X65818145Y-94974085D01*
X65363529Y-94973688D01*
X64701714Y-95247145D01*
X64194924Y-95753051D01*
X63920313Y-96414387D01*
X63919688Y-97130471D01*
X62825000Y-97130471D01*
X62825000Y-92561039D01*
X67205699Y-92561039D01*
X68072000Y-93427340D01*
X68938301Y-92561039D01*
X68744639Y-92286216D01*
X67850851Y-92196408D01*
X67399361Y-92286216D01*
X67205699Y-92561039D01*
X62825000Y-92561039D01*
X62825000Y-82825000D01*
X100058989Y-82825000D01*
X99553790Y-83162563D01*
G36*
X108659000Y-94163000D02*
X109232000Y-94163000D01*
X109232000Y-94282500D01*
X109421500Y-94472000D01*
X110240000Y-94472000D01*
X110240000Y-94222000D01*
X110740000Y-94222000D01*
X110740000Y-94472000D01*
X110990000Y-94472000D01*
X110990000Y-94972000D01*
X110740000Y-94972000D01*
X110740000Y-95790500D01*
X110929500Y-95980000D01*
X111140775Y-95980000D01*
X111160084Y-95972002D01*
X111242000Y-95972002D01*
X111242000Y-97755414D01*
X110996210Y-97387563D01*
X110428469Y-97008211D01*
X109758773Y-96875000D01*
X107141227Y-96875000D01*
X106471531Y-97008211D01*
X105903790Y-97387563D01*
X105524438Y-97955304D01*
X105391227Y-98625000D01*
X105524438Y-99294696D01*
X105903790Y-99862437D01*
X106371574Y-100175000D01*
X104215841Y-100175000D01*
X104646210Y-99887437D01*
X105025562Y-99319696D01*
X105158773Y-98650000D01*
X105025562Y-97980304D01*
X104646210Y-97412563D01*
X104078469Y-97033211D01*
X103408773Y-96900000D01*
X100868148Y-96900000D01*
X100954074Y-96814074D01*
X101154589Y-96513983D01*
X101225000Y-96160000D01*
X101171233Y-95889693D01*
X101500000Y-95889693D01*
X101777933Y-95837396D01*
X102002571Y-95692846D01*
X102202492Y-95829446D01*
X102500000Y-95889693D01*
X104000000Y-95889693D01*
X104277933Y-95837396D01*
X104407283Y-95754162D01*
X104536492Y-95842446D01*
X104834000Y-95902693D01*
X106334000Y-95902693D01*
X106611933Y-95850396D01*
X106786599Y-95738002D01*
X107062028Y-95738002D01*
X107104627Y-95780601D01*
X107383224Y-95896000D01*
X107719500Y-95896000D01*
X107909000Y-95706500D01*
X107909000Y-94813000D01*
X108659000Y-94813000D01*
X108659000Y-95706500D01*
X108848500Y-95896000D01*
X109184776Y-95896000D01*
X109463373Y-95780601D01*
X109470000Y-95773974D01*
X109560628Y-95864602D01*
X109839225Y-95980000D01*
X110050500Y-95980000D01*
X110240000Y-95790500D01*
X110240000Y-94972000D01*
X109761500Y-94972000D01*
X109602500Y-94813000D01*
X108659000Y-94813000D01*
X107909000Y-94813000D01*
X107534000Y-94813000D01*
X107534000Y-94163000D01*
X107909000Y-94163000D01*
X107909000Y-93838000D01*
X108659000Y-93838000D01*
X108659000Y-94163000D01*
X108659000Y-94163000D01*
G37*
X108659000Y-94163000D02*
X109232000Y-94163000D01*
X109232000Y-94282500D01*
X109421500Y-94472000D01*
X110240000Y-94472000D01*
X110240000Y-94222000D01*
X110740000Y-94222000D01*
X110740000Y-94472000D01*
X110990000Y-94472000D01*
X110990000Y-94972000D01*
X110740000Y-94972000D01*
X110740000Y-95790500D01*
X110929500Y-95980000D01*
X111140775Y-95980000D01*
X111160084Y-95972002D01*
X111242000Y-95972002D01*
X111242000Y-97755414D01*
X110996210Y-97387563D01*
X110428469Y-97008211D01*
X109758773Y-96875000D01*
X107141227Y-96875000D01*
X106471531Y-97008211D01*
X105903790Y-97387563D01*
X105524438Y-97955304D01*
X105391227Y-98625000D01*
X105524438Y-99294696D01*
X105903790Y-99862437D01*
X106371574Y-100175000D01*
X104215841Y-100175000D01*
X104646210Y-99887437D01*
X105025562Y-99319696D01*
X105158773Y-98650000D01*
X105025562Y-97980304D01*
X104646210Y-97412563D01*
X104078469Y-97033211D01*
X103408773Y-96900000D01*
X100868148Y-96900000D01*
X100954074Y-96814074D01*
X101154589Y-96513983D01*
X101225000Y-96160000D01*
X101171233Y-95889693D01*
X101500000Y-95889693D01*
X101777933Y-95837396D01*
X102002571Y-95692846D01*
X102202492Y-95829446D01*
X102500000Y-95889693D01*
X104000000Y-95889693D01*
X104277933Y-95837396D01*
X104407283Y-95754162D01*
X104536492Y-95842446D01*
X104834000Y-95902693D01*
X106334000Y-95902693D01*
X106611933Y-95850396D01*
X106786599Y-95738002D01*
X107062028Y-95738002D01*
X107104627Y-95780601D01*
X107383224Y-95896000D01*
X107719500Y-95896000D01*
X107909000Y-95706500D01*
X107909000Y-94813000D01*
X108659000Y-94813000D01*
X108659000Y-95706500D01*
X108848500Y-95896000D01*
X109184776Y-95896000D01*
X109463373Y-95780601D01*
X109470000Y-95773974D01*
X109560628Y-95864602D01*
X109839225Y-95980000D01*
X110050500Y-95980000D01*
X110240000Y-95790500D01*
X110240000Y-94972000D01*
X109761500Y-94972000D01*
X109602500Y-94813000D01*
X108659000Y-94813000D01*
X107909000Y-94813000D01*
X107534000Y-94813000D01*
X107534000Y-94163000D01*
X107909000Y-94163000D01*
X107909000Y-93838000D01*
X108659000Y-93838000D01*
X108659000Y-94163000D01*
G36*
X82621000Y-95463000D02*
X82946000Y-95463000D01*
X82946000Y-96213000D01*
X82621000Y-96213000D01*
X82621000Y-96588000D01*
X81971000Y-96588000D01*
X81971000Y-96213000D01*
X81646000Y-96213000D01*
X81646000Y-95463000D01*
X81971000Y-95463000D01*
X81971000Y-95088000D01*
X82621000Y-95088000D01*
X82621000Y-95463000D01*
X82621000Y-95463000D01*
G37*
X82621000Y-95463000D02*
X82946000Y-95463000D01*
X82946000Y-96213000D01*
X82621000Y-96213000D01*
X82621000Y-96588000D01*
X81971000Y-96588000D01*
X81971000Y-96213000D01*
X81646000Y-96213000D01*
X81646000Y-95463000D01*
X81971000Y-95463000D01*
X81971000Y-95088000D01*
X82621000Y-95088000D01*
X82621000Y-95463000D01*
G36*
X84877000Y-94925000D02*
X85252000Y-94925000D01*
X85252000Y-95575000D01*
X84877000Y-95575000D01*
X84877000Y-95900000D01*
X84127000Y-95900000D01*
X84127000Y-95575000D01*
X83752000Y-95575000D01*
X83752000Y-94925000D01*
X84127000Y-94925000D01*
X84127000Y-94600000D01*
X84877000Y-94600000D01*
X84877000Y-94925000D01*
X84877000Y-94925000D01*
G37*
X84877000Y-94925000D02*
X85252000Y-94925000D01*
X85252000Y-95575000D01*
X84877000Y-95575000D01*
X84877000Y-95900000D01*
X84127000Y-95900000D01*
X84127000Y-95575000D01*
X83752000Y-95575000D01*
X83752000Y-94925000D01*
X84127000Y-94925000D01*
X84127000Y-94600000D01*
X84877000Y-94600000D01*
X84877000Y-94925000D01*
G36*
X91037604Y-90977933D02*
X91201862Y-91233198D01*
X91298548Y-91299260D01*
X91216802Y-91351862D01*
X91045554Y-91602492D01*
X90985307Y-91900000D01*
X90985307Y-93400000D01*
X91029388Y-93634270D01*
X90900067Y-93658604D01*
X90675429Y-93803154D01*
X90475508Y-93666554D01*
X90178000Y-93606307D01*
X90060693Y-93606307D01*
X90060693Y-92294000D01*
X90008396Y-92016067D01*
X89844138Y-91760802D01*
X89747452Y-91694740D01*
X89829198Y-91642138D01*
X90000446Y-91391508D01*
X90060693Y-91094000D01*
X90060693Y-90875000D01*
X91018236Y-90875000D01*
X91037604Y-90977933D01*
X91037604Y-90977933D01*
G37*
X91037604Y-90977933D02*
X91201862Y-91233198D01*
X91298548Y-91299260D01*
X91216802Y-91351862D01*
X91045554Y-91602492D01*
X90985307Y-91900000D01*
X90985307Y-93400000D01*
X91029388Y-93634270D01*
X90900067Y-93658604D01*
X90675429Y-93803154D01*
X90475508Y-93666554D01*
X90178000Y-93606307D01*
X90060693Y-93606307D01*
X90060693Y-92294000D01*
X90008396Y-92016067D01*
X89844138Y-91760802D01*
X89747452Y-91694740D01*
X89829198Y-91642138D01*
X90000446Y-91391508D01*
X90060693Y-91094000D01*
X90060693Y-90875000D01*
X91018236Y-90875000D01*
X91037604Y-90977933D01*
G36*
X99222492Y-92115446D02*
X99520000Y-92175693D01*
X100675000Y-92175693D01*
X100675000Y-92710000D01*
X100745411Y-93063983D01*
X100776364Y-93110307D01*
X100100049Y-93110307D01*
X99822000Y-93055000D01*
X99108242Y-93055000D01*
X99144693Y-92875000D01*
X99144693Y-92425000D01*
X99092396Y-92147067D01*
X98997554Y-91999678D01*
X99015220Y-91973823D01*
X99222492Y-92115446D01*
X99222492Y-92115446D01*
G37*
X99222492Y-92115446D02*
X99520000Y-92175693D01*
X100675000Y-92175693D01*
X100675000Y-92710000D01*
X100745411Y-93063983D01*
X100776364Y-93110307D01*
X100100049Y-93110307D01*
X99822000Y-93055000D01*
X99108242Y-93055000D01*
X99144693Y-92875000D01*
X99144693Y-92425000D01*
X99092396Y-92147067D01*
X98997554Y-91999678D01*
X99015220Y-91973823D01*
X99222492Y-92115446D01*
G36*
X80281307Y-86376000D02*
X80333604Y-86653933D01*
X80497862Y-86909198D01*
X80748492Y-87080446D01*
X81046000Y-87140693D01*
X83199000Y-87140693D01*
X83199000Y-87618000D01*
X83110500Y-87618000D01*
X82921000Y-87807500D01*
X82921000Y-88876000D01*
X83199000Y-88876000D01*
X83199000Y-88900002D01*
X83331998Y-88900002D01*
X83331998Y-88986222D01*
X83252554Y-89102492D01*
X83192307Y-89400000D01*
X83192307Y-89876000D01*
X82921000Y-89876000D01*
X82921000Y-90944500D01*
X83110500Y-91134000D01*
X83236337Y-91134000D01*
X83244604Y-91177933D01*
X83293862Y-91254482D01*
X83240067Y-91264604D01*
X82984802Y-91428862D01*
X82851944Y-91623307D01*
X81646000Y-91623307D01*
X81368067Y-91675604D01*
X81112802Y-91839862D01*
X80941554Y-92090492D01*
X80916745Y-92213000D01*
X80839948Y-92213000D01*
X80839396Y-92210067D01*
X80675138Y-91954802D01*
X80424508Y-91783554D01*
X80296148Y-91757560D01*
X80156074Y-91547926D01*
X79140074Y-90531926D01*
X78958637Y-90410693D01*
X79486000Y-90410693D01*
X79763933Y-90358396D01*
X80019198Y-90194138D01*
X80107092Y-90065500D01*
X80288000Y-90065500D01*
X80288000Y-90526776D01*
X80403399Y-90805373D01*
X80616628Y-91018602D01*
X80895225Y-91134000D01*
X81481500Y-91134000D01*
X81671000Y-90944500D01*
X81671000Y-89876000D01*
X80477500Y-89876000D01*
X80288000Y-90065500D01*
X80107092Y-90065500D01*
X80190446Y-89943508D01*
X80250693Y-89646000D01*
X80250693Y-88225224D01*
X80288000Y-88225224D01*
X80288000Y-88686500D01*
X80477500Y-88876000D01*
X81671000Y-88876000D01*
X81671000Y-87807500D01*
X81481500Y-87618000D01*
X80895225Y-87618000D01*
X80616628Y-87733398D01*
X80403399Y-87946627D01*
X80288000Y-88225224D01*
X80250693Y-88225224D01*
X80250693Y-87646000D01*
X80198396Y-87368067D01*
X80034138Y-87112802D01*
X79783508Y-86941554D01*
X79486000Y-86881307D01*
X77486000Y-86881307D01*
X77302064Y-86915917D01*
X77163554Y-86777407D01*
X77188492Y-86794446D01*
X77486000Y-86854693D01*
X79486000Y-86854693D01*
X79763933Y-86802396D01*
X80019198Y-86638138D01*
X80190446Y-86387508D01*
X80250693Y-86090000D01*
X80250693Y-86015000D01*
X80281307Y-86015000D01*
X80281307Y-86376000D01*
X80281307Y-86376000D01*
G37*
X80281307Y-86376000D02*
X80333604Y-86653933D01*
X80497862Y-86909198D01*
X80748492Y-87080446D01*
X81046000Y-87140693D01*
X83199000Y-87140693D01*
X83199000Y-87618000D01*
X83110500Y-87618000D01*
X82921000Y-87807500D01*
X82921000Y-88876000D01*
X83199000Y-88876000D01*
X83199000Y-88900002D01*
X83331998Y-88900002D01*
X83331998Y-88986222D01*
X83252554Y-89102492D01*
X83192307Y-89400000D01*
X83192307Y-89876000D01*
X82921000Y-89876000D01*
X82921000Y-90944500D01*
X83110500Y-91134000D01*
X83236337Y-91134000D01*
X83244604Y-91177933D01*
X83293862Y-91254482D01*
X83240067Y-91264604D01*
X82984802Y-91428862D01*
X82851944Y-91623307D01*
X81646000Y-91623307D01*
X81368067Y-91675604D01*
X81112802Y-91839862D01*
X80941554Y-92090492D01*
X80916745Y-92213000D01*
X80839948Y-92213000D01*
X80839396Y-92210067D01*
X80675138Y-91954802D01*
X80424508Y-91783554D01*
X80296148Y-91757560D01*
X80156074Y-91547926D01*
X79140074Y-90531926D01*
X78958637Y-90410693D01*
X79486000Y-90410693D01*
X79763933Y-90358396D01*
X80019198Y-90194138D01*
X80107092Y-90065500D01*
X80288000Y-90065500D01*
X80288000Y-90526776D01*
X80403399Y-90805373D01*
X80616628Y-91018602D01*
X80895225Y-91134000D01*
X81481500Y-91134000D01*
X81671000Y-90944500D01*
X81671000Y-89876000D01*
X80477500Y-89876000D01*
X80288000Y-90065500D01*
X80107092Y-90065500D01*
X80190446Y-89943508D01*
X80250693Y-89646000D01*
X80250693Y-88225224D01*
X80288000Y-88225224D01*
X80288000Y-88686500D01*
X80477500Y-88876000D01*
X81671000Y-88876000D01*
X81671000Y-87807500D01*
X81481500Y-87618000D01*
X80895225Y-87618000D01*
X80616628Y-87733398D01*
X80403399Y-87946627D01*
X80288000Y-88225224D01*
X80250693Y-88225224D01*
X80250693Y-87646000D01*
X80198396Y-87368067D01*
X80034138Y-87112802D01*
X79783508Y-86941554D01*
X79486000Y-86881307D01*
X77486000Y-86881307D01*
X77302064Y-86915917D01*
X77163554Y-86777407D01*
X77188492Y-86794446D01*
X77486000Y-86854693D01*
X79486000Y-86854693D01*
X79763933Y-86802396D01*
X80019198Y-86638138D01*
X80190446Y-86387508D01*
X80250693Y-86090000D01*
X80250693Y-86015000D01*
X80281307Y-86015000D01*
X80281307Y-86376000D01*
G36*
X97690017Y-86654589D02*
X97817873Y-86680021D01*
X98091926Y-86954074D01*
X98392018Y-87154589D01*
X98746000Y-87225000D01*
X99425000Y-87225000D01*
X99425000Y-87543236D01*
X99322067Y-87562604D01*
X99066802Y-87726862D01*
X98895554Y-87977492D01*
X98835307Y-88275000D01*
X98835307Y-89525000D01*
X98887604Y-89802933D01*
X99051862Y-90058198D01*
X99302492Y-90229446D01*
X99322427Y-90233483D01*
X99242067Y-90248604D01*
X98986802Y-90412862D01*
X98884780Y-90562177D01*
X98677508Y-90420554D01*
X98603736Y-90405615D01*
X98622693Y-90312000D01*
X98622693Y-89012000D01*
X98570396Y-88734067D01*
X98406138Y-88478802D01*
X98155508Y-88307554D01*
X97858000Y-88247307D01*
X96358000Y-88247307D01*
X96283683Y-88261291D01*
X96368602Y-88176372D01*
X96484000Y-87897775D01*
X96484000Y-87624000D01*
X96294500Y-87434500D01*
X95351000Y-87434500D01*
X95351000Y-87747000D01*
X94601000Y-87747000D01*
X94601000Y-87434500D01*
X94226000Y-87434500D01*
X94226000Y-86809500D01*
X94601000Y-86809500D01*
X94601000Y-86777000D01*
X95351000Y-86777000D01*
X95351000Y-86809500D01*
X96294500Y-86809500D01*
X96484000Y-86620000D01*
X96484000Y-86523000D01*
X97493081Y-86523000D01*
X97690017Y-86654589D01*
X97690017Y-86654589D01*
G37*
X97690017Y-86654589D02*
X97817873Y-86680021D01*
X98091926Y-86954074D01*
X98392018Y-87154589D01*
X98746000Y-87225000D01*
X99425000Y-87225000D01*
X99425000Y-87543236D01*
X99322067Y-87562604D01*
X99066802Y-87726862D01*
X98895554Y-87977492D01*
X98835307Y-88275000D01*
X98835307Y-89525000D01*
X98887604Y-89802933D01*
X99051862Y-90058198D01*
X99302492Y-90229446D01*
X99322427Y-90233483D01*
X99242067Y-90248604D01*
X98986802Y-90412862D01*
X98884780Y-90562177D01*
X98677508Y-90420554D01*
X98603736Y-90405615D01*
X98622693Y-90312000D01*
X98622693Y-89012000D01*
X98570396Y-88734067D01*
X98406138Y-88478802D01*
X98155508Y-88307554D01*
X97858000Y-88247307D01*
X96358000Y-88247307D01*
X96283683Y-88261291D01*
X96368602Y-88176372D01*
X96484000Y-87897775D01*
X96484000Y-87624000D01*
X96294500Y-87434500D01*
X95351000Y-87434500D01*
X95351000Y-87747000D01*
X94601000Y-87747000D01*
X94601000Y-87434500D01*
X94226000Y-87434500D01*
X94226000Y-86809500D01*
X94601000Y-86809500D01*
X94601000Y-86777000D01*
X95351000Y-86777000D01*
X95351000Y-86809500D01*
X96294500Y-86809500D01*
X96484000Y-86620000D01*
X96484000Y-86523000D01*
X97493081Y-86523000D01*
X97690017Y-86654589D01*
G36*
X94783000Y-89337000D02*
X95158000Y-89337000D01*
X95158000Y-89987000D01*
X94783000Y-89987000D01*
X94783000Y-90312000D01*
X94033000Y-90312000D01*
X94033000Y-89987000D01*
X93814693Y-89987000D01*
X93814693Y-89337000D01*
X94033000Y-89337000D01*
X94033000Y-89012000D01*
X94783000Y-89012000D01*
X94783000Y-89337000D01*
X94783000Y-89337000D01*
G37*
X94783000Y-89337000D02*
X95158000Y-89337000D01*
X95158000Y-89987000D01*
X94783000Y-89987000D01*
X94783000Y-90312000D01*
X94033000Y-90312000D01*
X94033000Y-89987000D01*
X93814693Y-89987000D01*
X93814693Y-89337000D01*
X94033000Y-89337000D01*
X94033000Y-89012000D01*
X94783000Y-89012000D01*
X94783000Y-89337000D01*
G36*
X104210307Y-87649998D02*
X104046972Y-87649998D01*
X104029373Y-87632399D01*
X103750776Y-87517000D01*
X103414500Y-87517000D01*
X103225000Y-87706500D01*
X103225000Y-88587500D01*
X103600000Y-88587500D01*
X103600000Y-89212500D01*
X103225000Y-89212500D01*
X103225000Y-89525000D01*
X102475000Y-89525000D01*
X102475000Y-89212500D01*
X102100000Y-89212500D01*
X102100000Y-88587500D01*
X102475000Y-88587500D01*
X102475000Y-87706500D01*
X102285500Y-87517000D01*
X101949224Y-87517000D01*
X101670627Y-87632399D01*
X101653028Y-87649998D01*
X101513778Y-87649998D01*
X101397508Y-87570554D01*
X101275000Y-87545745D01*
X101275000Y-87225000D01*
X104210307Y-87225000D01*
X104210307Y-87649998D01*
X104210307Y-87649998D01*
G37*
X104210307Y-87649998D02*
X104046972Y-87649998D01*
X104029373Y-87632399D01*
X103750776Y-87517000D01*
X103414500Y-87517000D01*
X103225000Y-87706500D01*
X103225000Y-88587500D01*
X103600000Y-88587500D01*
X103600000Y-89212500D01*
X103225000Y-89212500D01*
X103225000Y-89525000D01*
X102475000Y-89525000D01*
X102475000Y-89212500D01*
X102100000Y-89212500D01*
X102100000Y-88587500D01*
X102475000Y-88587500D01*
X102475000Y-87706500D01*
X102285500Y-87517000D01*
X101949224Y-87517000D01*
X101670627Y-87632399D01*
X101653028Y-87649998D01*
X101513778Y-87649998D01*
X101397508Y-87570554D01*
X101275000Y-87545745D01*
X101275000Y-87225000D01*
X104210307Y-87225000D01*
X104210307Y-87649998D01*
G36*
X91074492Y-85936446D02*
X91185874Y-85959001D01*
X91021554Y-86199492D01*
X90961307Y-86497000D01*
X90961307Y-87070183D01*
X90951000Y-87122000D01*
X90961307Y-87173817D01*
X90961307Y-87747000D01*
X91013604Y-88024933D01*
X91177862Y-88280198D01*
X91428492Y-88451446D01*
X91542034Y-88474439D01*
X91472067Y-88487604D01*
X91216802Y-88651862D01*
X91045554Y-88902492D01*
X91020745Y-89025000D01*
X89791740Y-89025000D01*
X89593508Y-88889554D01*
X89296000Y-88829307D01*
X87996000Y-88829307D01*
X87718067Y-88881604D01*
X87462802Y-89045862D01*
X87340402Y-89225000D01*
X85938764Y-89225000D01*
X85919396Y-89122067D01*
X85832002Y-88986252D01*
X85832002Y-88846972D01*
X85849601Y-88829373D01*
X85965000Y-88550776D01*
X85965000Y-88214500D01*
X85775500Y-88025000D01*
X84894500Y-88025000D01*
X84894500Y-88400000D01*
X84304000Y-88400000D01*
X84304000Y-88125998D01*
X84269500Y-88125998D01*
X84269500Y-88025000D01*
X84221064Y-88025000D01*
X84188601Y-87946627D01*
X83975372Y-87733398D01*
X83957000Y-87725788D01*
X83957000Y-87275000D01*
X84269500Y-87275000D01*
X84269500Y-86900000D01*
X84894500Y-86900000D01*
X84894500Y-87275000D01*
X85775500Y-87275000D01*
X85965000Y-87085500D01*
X85965000Y-86749224D01*
X85849601Y-86470627D01*
X85844478Y-86465504D01*
X86038000Y-86504693D01*
X87538000Y-86504693D01*
X87815933Y-86452396D01*
X88071198Y-86288138D01*
X88137260Y-86191452D01*
X88189862Y-86273198D01*
X88440492Y-86444446D01*
X88738000Y-86504693D01*
X90238000Y-86504693D01*
X90515933Y-86452396D01*
X90771198Y-86288138D01*
X90942446Y-86037508D01*
X90976474Y-85869473D01*
X91074492Y-85936446D01*
X91074492Y-85936446D01*
G37*
X91074492Y-85936446D02*
X91185874Y-85959001D01*
X91021554Y-86199492D01*
X90961307Y-86497000D01*
X90961307Y-87070183D01*
X90951000Y-87122000D01*
X90961307Y-87173817D01*
X90961307Y-87747000D01*
X91013604Y-88024933D01*
X91177862Y-88280198D01*
X91428492Y-88451446D01*
X91542034Y-88474439D01*
X91472067Y-88487604D01*
X91216802Y-88651862D01*
X91045554Y-88902492D01*
X91020745Y-89025000D01*
X89791740Y-89025000D01*
X89593508Y-88889554D01*
X89296000Y-88829307D01*
X87996000Y-88829307D01*
X87718067Y-88881604D01*
X87462802Y-89045862D01*
X87340402Y-89225000D01*
X85938764Y-89225000D01*
X85919396Y-89122067D01*
X85832002Y-88986252D01*
X85832002Y-88846972D01*
X85849601Y-88829373D01*
X85965000Y-88550776D01*
X85965000Y-88214500D01*
X85775500Y-88025000D01*
X84894500Y-88025000D01*
X84894500Y-88400000D01*
X84304000Y-88400000D01*
X84304000Y-88125998D01*
X84269500Y-88125998D01*
X84269500Y-88025000D01*
X84221064Y-88025000D01*
X84188601Y-87946627D01*
X83975372Y-87733398D01*
X83957000Y-87725788D01*
X83957000Y-87275000D01*
X84269500Y-87275000D01*
X84269500Y-86900000D01*
X84894500Y-86900000D01*
X84894500Y-87275000D01*
X85775500Y-87275000D01*
X85965000Y-87085500D01*
X85965000Y-86749224D01*
X85849601Y-86470627D01*
X85844478Y-86465504D01*
X86038000Y-86504693D01*
X87538000Y-86504693D01*
X87815933Y-86452396D01*
X88071198Y-86288138D01*
X88137260Y-86191452D01*
X88189862Y-86273198D01*
X88440492Y-86444446D01*
X88738000Y-86504693D01*
X90238000Y-86504693D01*
X90515933Y-86452396D01*
X90771198Y-86288138D01*
X90942446Y-86037508D01*
X90976474Y-85869473D01*
X91074492Y-85936446D01*
G36*
X111242000Y-85417526D02*
X111092627Y-85479399D01*
X110879398Y-85692628D01*
X110805101Y-85871998D01*
X110764000Y-85871998D01*
X110764000Y-86303500D01*
X110740000Y-86327500D01*
X110740000Y-87146000D01*
X110764000Y-87146000D01*
X110764000Y-87646000D01*
X110740000Y-87646000D01*
X110740000Y-87896000D01*
X110240000Y-87896000D01*
X110240000Y-87646000D01*
X109933000Y-87646000D01*
X109933000Y-87146000D01*
X110240000Y-87146000D01*
X110240000Y-86327500D01*
X110050500Y-86138000D01*
X109839225Y-86138000D01*
X109560628Y-86253398D01*
X109482223Y-86331803D01*
X109325776Y-86267000D01*
X108989500Y-86267000D01*
X108800000Y-86456500D01*
X108800000Y-87350000D01*
X109175000Y-87350000D01*
X109175000Y-88000000D01*
X108800000Y-88000000D01*
X108800000Y-88325000D01*
X108050000Y-88325000D01*
X108050000Y-86456500D01*
X107860500Y-86267000D01*
X107750148Y-86267000D01*
X107583148Y-86100000D01*
X109508773Y-86100000D01*
X110178469Y-85966789D01*
X110746210Y-85587437D01*
X111125562Y-85019696D01*
X111242000Y-84434323D01*
X111242000Y-85417526D01*
X111242000Y-85417526D01*
G37*
X111242000Y-85417526D02*
X111092627Y-85479399D01*
X110879398Y-85692628D01*
X110805101Y-85871998D01*
X110764000Y-85871998D01*
X110764000Y-86303500D01*
X110740000Y-86327500D01*
X110740000Y-87146000D01*
X110764000Y-87146000D01*
X110764000Y-87646000D01*
X110740000Y-87646000D01*
X110740000Y-87896000D01*
X110240000Y-87896000D01*
X110240000Y-87646000D01*
X109933000Y-87646000D01*
X109933000Y-87146000D01*
X110240000Y-87146000D01*
X110240000Y-86327500D01*
X110050500Y-86138000D01*
X109839225Y-86138000D01*
X109560628Y-86253398D01*
X109482223Y-86331803D01*
X109325776Y-86267000D01*
X108989500Y-86267000D01*
X108800000Y-86456500D01*
X108800000Y-87350000D01*
X109175000Y-87350000D01*
X109175000Y-88000000D01*
X108800000Y-88000000D01*
X108800000Y-88325000D01*
X108050000Y-88325000D01*
X108050000Y-86456500D01*
X107860500Y-86267000D01*
X107750148Y-86267000D01*
X107583148Y-86100000D01*
X109508773Y-86100000D01*
X110178469Y-85966789D01*
X110746210Y-85587437D01*
X111125562Y-85019696D01*
X111242000Y-84434323D01*
X111242000Y-85417526D01*
G36*
X105653790Y-83112563D02*
X105274438Y-83680304D01*
X105145027Y-84330895D01*
X105025562Y-83730304D01*
X104646210Y-83162563D01*
X104141011Y-82825000D01*
X106084159Y-82825000D01*
X105653790Y-83112563D01*
X105653790Y-83112563D01*
G37*
X105653790Y-83112563D02*
X105274438Y-83680304D01*
X105145027Y-84330895D01*
X105025562Y-83730304D01*
X104646210Y-83162563D01*
X104141011Y-82825000D01*
X106084159Y-82825000D01*
X105653790Y-83112563D01*
G36*
X111242000Y-84265677D02*
X111125562Y-83680304D01*
X110746210Y-83112563D01*
X110315841Y-82825000D01*
X111242000Y-82825000D01*
X111242000Y-84265677D01*
X111242000Y-84265677D01*
G37*
X111242000Y-84265677D02*
X111125562Y-83680304D01*
X110746210Y-83112563D01*
X110315841Y-82825000D01*
X111242000Y-82825000D01*
X111242000Y-84265677D01*
M02*
