G04 #@! TF.FileFunction,Copper,L1,Top,Signal*
%FSLAX46Y46*%
G04 Gerber Fmt 4.6, Leading zero omitted, Abs format (unit mm)*
G04 Created by KiCad (PCBNEW 4.0.7) date 04/19/20 23:04:16*
%MOMM*%
%LPD*%
G01*
G04 APERTURE LIST*
%ADD10C,0.100000*%
%ADD11R,1.300000X1.500000*%
%ADD12R,0.900000X0.800000*%
%ADD13R,1.500000X1.250000*%
%ADD14R,1.000000X1.000000*%
%ADD15R,1.500000X1.300000*%
%ADD16R,2.500000X2.000000*%
%ADD17R,1.250000X1.500000*%
%ADD18C,1.500000*%
%ADD19R,3.000000X3.000000*%
%ADD20C,3.000000*%
%ADD21R,2.000000X2.000000*%
%ADD22C,0.600000*%
%ADD23C,0.350000*%
%ADD24C,0.500000*%
G04 APERTURE END LIST*
D10*
D11*
X82296000Y-93138000D03*
X82296000Y-95838000D03*
D12*
X97520000Y-92136000D03*
X97520000Y-90236000D03*
X95520000Y-91186000D03*
D13*
X105775000Y-89775000D03*
X108275000Y-89775000D03*
X100096000Y-94488000D03*
X102596000Y-94488000D03*
X89428000Y-94996000D03*
X91928000Y-94996000D03*
X74696000Y-91186000D03*
X77196000Y-91186000D03*
X74696000Y-97790000D03*
X77196000Y-97790000D03*
X88880000Y-87884000D03*
X86380000Y-87884000D03*
D14*
X110490000Y-89896000D03*
X110490000Y-87396000D03*
X110490000Y-94722000D03*
X110490000Y-92222000D03*
X77196000Y-95758000D03*
X74696000Y-95758000D03*
D12*
X102600000Y-92136000D03*
X102600000Y-90236000D03*
X100600000Y-91186000D03*
X86598000Y-93152000D03*
X86598000Y-91252000D03*
X84598000Y-92202000D03*
D15*
X108375000Y-92275000D03*
X105675000Y-92275000D03*
X105584000Y-94488000D03*
X108284000Y-94488000D03*
X105725000Y-87675000D03*
X108425000Y-87675000D03*
X94140000Y-94470000D03*
X96840000Y-94470000D03*
X97220000Y-96540000D03*
X99920000Y-96540000D03*
D11*
X92456000Y-88058000D03*
X92456000Y-90758000D03*
X88646000Y-90344000D03*
X88646000Y-93044000D03*
D15*
X87202000Y-95250000D03*
X84502000Y-95250000D03*
X74596000Y-93218000D03*
X77296000Y-93218000D03*
X92122000Y-85090000D03*
X94822000Y-85090000D03*
X89488000Y-85090000D03*
X86788000Y-85090000D03*
D16*
X82296000Y-89376000D03*
X82296000Y-85376000D03*
D13*
X103425000Y-87925000D03*
X100925000Y-87925000D03*
X94762000Y-87884000D03*
X97262000Y-87884000D03*
D17*
X79502000Y-95738000D03*
X79502000Y-93238000D03*
D18*
X70800000Y-91694000D03*
X70800000Y-94234000D03*
D19*
X68072000Y-89408000D03*
D20*
X68072000Y-94488000D03*
D21*
X112776000Y-91186000D03*
X112522000Y-87122000D03*
X80675000Y-98300000D03*
X78486000Y-88646000D03*
X74168000Y-88646000D03*
X85852000Y-98298000D03*
X78486000Y-85090000D03*
X74168000Y-85090000D03*
D22*
X91075000Y-86400000D03*
X90700000Y-87950000D03*
X90600000Y-90025000D03*
X90550000Y-93350000D03*
X90525000Y-96725000D03*
X90475000Y-98600000D03*
X98900000Y-87225000D03*
X98900000Y-84300000D03*
X99150000Y-85525000D03*
X99025000Y-88575000D03*
X99000000Y-90900000D03*
X99300000Y-92050000D03*
X98675000Y-93150000D03*
X98525000Y-97850000D03*
X97350000Y-98925000D03*
X95950000Y-83850000D03*
X111175000Y-85725000D03*
X111500000Y-83875000D03*
X110600000Y-82975000D03*
X109325000Y-82825000D03*
X107600000Y-82775000D03*
X105725000Y-82850000D03*
X103925000Y-82925000D03*
X102125000Y-82900000D03*
X100400000Y-82950000D03*
X98725000Y-83050000D03*
X96975000Y-83100000D03*
X65975000Y-93400000D03*
X64700000Y-92250000D03*
X63850000Y-91025000D03*
X63750000Y-89650000D03*
X63525000Y-88175000D03*
X63575000Y-86725000D03*
X63950000Y-85100000D03*
X65175000Y-83525000D03*
X67350000Y-83050000D03*
X69600000Y-82950000D03*
X71700000Y-82950000D03*
X73875000Y-83150000D03*
X76050000Y-83150000D03*
X78500000Y-83150000D03*
X80625000Y-83375000D03*
X82650000Y-83375000D03*
X85225000Y-83425000D03*
X87450000Y-83250000D03*
X89675000Y-83550000D03*
X91425000Y-83425000D03*
X93675000Y-83700000D03*
X111900000Y-93650000D03*
X112000000Y-95300000D03*
X111900000Y-97025000D03*
X109075000Y-96900000D03*
X85925000Y-100100000D03*
X87400000Y-100075000D03*
X88850000Y-100075000D03*
X90525000Y-100000000D03*
X92025000Y-100000000D03*
X93475000Y-99925000D03*
X95175000Y-99950000D03*
X96500000Y-100000000D03*
X98100000Y-100200000D03*
X99850000Y-100275000D03*
X101325000Y-100325000D03*
X102950000Y-100325000D03*
X105025000Y-100250000D03*
X106875000Y-100300000D03*
X108100000Y-100350000D03*
X110050000Y-100300000D03*
X111300000Y-100025000D03*
X111475000Y-99000000D03*
X111200000Y-97875000D03*
X110550000Y-97225000D03*
X76350000Y-99850000D03*
X74325000Y-99850000D03*
X71900000Y-99950000D03*
X69850000Y-100100000D03*
X68000000Y-100075000D03*
X67750000Y-98675000D03*
X67850000Y-97200000D03*
X76575000Y-99850000D03*
X84400000Y-99950000D03*
X83075000Y-99950000D03*
X81500000Y-99950000D03*
X79750000Y-100000000D03*
X78000000Y-99875000D03*
X104625000Y-88750000D03*
X102525000Y-89050000D03*
X107725000Y-96950000D03*
X110375000Y-85775000D03*
X108925000Y-86125000D03*
X88650000Y-99200000D03*
X87500000Y-99200000D03*
X84200000Y-99050000D03*
X82550000Y-99025000D03*
X83450000Y-97175000D03*
X84450000Y-96825000D03*
X84225000Y-88975000D03*
X80325000Y-89950000D03*
X90250000Y-86475000D03*
X89200000Y-86525000D03*
X88325000Y-86575000D03*
X87300000Y-86500000D03*
D23*
X91075000Y-87575000D02*
X91075000Y-86400000D01*
X90700000Y-87950000D02*
X91075000Y-87575000D01*
X90600000Y-92275000D02*
X90600000Y-90025000D01*
X90550000Y-92325000D02*
X90600000Y-92275000D01*
X90550000Y-93350000D02*
X90550000Y-92325000D01*
X90575000Y-96775000D02*
X90525000Y-96725000D01*
X90575000Y-98500000D02*
X90575000Y-96775000D01*
X90475000Y-98600000D02*
X90575000Y-98500000D01*
X98241000Y-87884000D02*
X98900000Y-87225000D01*
X97262000Y-87884000D02*
X98241000Y-87884000D01*
X98900000Y-85275000D02*
X98900000Y-84300000D01*
X99150000Y-85525000D02*
X98900000Y-85275000D01*
X98334000Y-87884000D02*
X99025000Y-88575000D01*
X98334000Y-87884000D02*
X97262000Y-87884000D01*
X99000000Y-90900000D02*
X99025000Y-88575000D01*
X99300000Y-92525000D02*
X99300000Y-92050000D01*
X98675000Y-93150000D02*
X99300000Y-92525000D01*
X98425000Y-97850000D02*
X98525000Y-97850000D01*
X97350000Y-98925000D02*
X98425000Y-97850000D01*
X94822000Y-84978000D02*
X95950000Y-83850000D01*
X111175000Y-85725000D02*
X112522000Y-87072000D01*
X110600000Y-82975000D02*
X111500000Y-83875000D01*
X107650000Y-82825000D02*
X109325000Y-82825000D01*
X107600000Y-82775000D02*
X107650000Y-82825000D01*
X104000000Y-82850000D02*
X105725000Y-82850000D01*
X103925000Y-82925000D02*
X104000000Y-82850000D01*
X100450000Y-82900000D02*
X102125000Y-82900000D01*
X100400000Y-82950000D02*
X100450000Y-82900000D01*
X97025000Y-83050000D02*
X98725000Y-83050000D01*
X96975000Y-83100000D02*
X97025000Y-83050000D01*
X65975000Y-93400000D02*
X64825000Y-92250000D01*
X64825000Y-92250000D02*
X64700000Y-92250000D01*
X63850000Y-91025000D02*
X63750000Y-90925000D01*
X63750000Y-90925000D02*
X63750000Y-89650000D01*
X63525000Y-88175000D02*
X63575000Y-88125000D01*
X63575000Y-88125000D02*
X63575000Y-86725000D01*
X63950000Y-85100000D02*
X65175000Y-83875000D01*
X65175000Y-83875000D02*
X65175000Y-83525000D01*
X67350000Y-83050000D02*
X67450000Y-82950000D01*
X67450000Y-82950000D02*
X69600000Y-82950000D01*
X71700000Y-82950000D02*
X71900000Y-83150000D01*
X71900000Y-83150000D02*
X73875000Y-83150000D01*
X76050000Y-83150000D02*
X78500000Y-83150000D01*
X80625000Y-83375000D02*
X82650000Y-83375000D01*
X85225000Y-83425000D02*
X85400000Y-83250000D01*
X85400000Y-83250000D02*
X87450000Y-83250000D01*
X89675000Y-83550000D02*
X89800000Y-83425000D01*
X89800000Y-83425000D02*
X91425000Y-83425000D01*
X94822000Y-84847000D02*
X93675000Y-83700000D01*
X111200000Y-97875000D02*
X111200000Y-97725000D01*
X111975000Y-93725000D02*
X111900000Y-93650000D01*
X111975000Y-95275000D02*
X111975000Y-93725000D01*
X112000000Y-95300000D02*
X111975000Y-95275000D01*
X111200000Y-97725000D02*
X111900000Y-97025000D01*
X109075000Y-96900000D02*
X110225000Y-96900000D01*
X109075000Y-95525000D02*
X109075000Y-96900000D01*
X108284000Y-94734000D02*
X109075000Y-95525000D01*
X85775000Y-99950000D02*
X85925000Y-100100000D01*
X87400000Y-100075000D02*
X88850000Y-100075000D01*
X90525000Y-100000000D02*
X92025000Y-100000000D01*
X93475000Y-99925000D02*
X93500000Y-99950000D01*
X93500000Y-99950000D02*
X95175000Y-99950000D01*
X85775000Y-99950000D02*
X84400000Y-99950000D01*
X97900000Y-100000000D02*
X96500000Y-100000000D01*
X98100000Y-100200000D02*
X97900000Y-100000000D01*
X101275000Y-100275000D02*
X99850000Y-100275000D01*
X101325000Y-100325000D02*
X101275000Y-100275000D01*
X104950000Y-100325000D02*
X102950000Y-100325000D01*
X105025000Y-100250000D02*
X104950000Y-100325000D01*
X108050000Y-100300000D02*
X106875000Y-100300000D01*
X108100000Y-100350000D02*
X108050000Y-100300000D01*
X111025000Y-100300000D02*
X110050000Y-100300000D01*
X111300000Y-100025000D02*
X111025000Y-100300000D01*
X111475000Y-98150000D02*
X111475000Y-99000000D01*
X111200000Y-97875000D02*
X111475000Y-98150000D01*
X110225000Y-96900000D02*
X110550000Y-97225000D01*
X76350000Y-99850000D02*
X76575000Y-99850000D01*
X72000000Y-99850000D02*
X74325000Y-99850000D01*
X71900000Y-99950000D02*
X72000000Y-99850000D01*
X68025000Y-100100000D02*
X69850000Y-100100000D01*
X68000000Y-100075000D02*
X68025000Y-100100000D01*
X67750000Y-97300000D02*
X67750000Y-98675000D01*
X67850000Y-97200000D02*
X67750000Y-97300000D01*
X81500000Y-99950000D02*
X83075000Y-99950000D01*
X78125000Y-100000000D02*
X79750000Y-100000000D01*
X78000000Y-99875000D02*
X78125000Y-100000000D01*
X84400000Y-99950000D02*
X85852000Y-98498000D01*
X85852000Y-98498000D02*
X85852000Y-98298000D01*
X103425000Y-87925000D02*
X103425000Y-87950000D01*
X103425000Y-87950000D02*
X104225000Y-88750000D01*
X104225000Y-88750000D02*
X104625000Y-88750000D01*
X103425000Y-87925000D02*
X103425000Y-88300000D01*
X103425000Y-88300000D02*
X102675000Y-89050000D01*
X102675000Y-89050000D02*
X102525000Y-89050000D01*
X108284000Y-94488000D02*
X108284000Y-96391000D01*
X108284000Y-96391000D02*
X107725000Y-96950000D01*
X108284000Y-94488000D02*
X108284000Y-94734000D01*
X108284000Y-94488000D02*
X110256000Y-94488000D01*
X110256000Y-94488000D02*
X110490000Y-94722000D01*
X112522000Y-87122000D02*
X112522000Y-87072000D01*
X110490000Y-87396000D02*
X110490000Y-85890000D01*
X110490000Y-85890000D02*
X110375000Y-85775000D01*
X110490000Y-87396000D02*
X108704000Y-87396000D01*
X108704000Y-87396000D02*
X108425000Y-87675000D01*
X108425000Y-87675000D02*
X108425000Y-86625000D01*
X108425000Y-86625000D02*
X108925000Y-86125000D01*
X94822000Y-85090000D02*
X94822000Y-84847000D01*
X94822000Y-85090000D02*
X94822000Y-84978000D01*
X85852000Y-98298000D02*
X86598000Y-98298000D01*
X86598000Y-98298000D02*
X87500000Y-99200000D01*
X85852000Y-98298000D02*
X84952000Y-98298000D01*
X84952000Y-98298000D02*
X84200000Y-99050000D01*
X82296000Y-95838000D02*
X82296000Y-96021000D01*
X82296000Y-96021000D02*
X83450000Y-97175000D01*
X84450000Y-96825000D02*
X84502000Y-96773000D01*
X84502000Y-96773000D02*
X84502000Y-95250000D01*
X82296000Y-89376000D02*
X83824000Y-89376000D01*
X83824000Y-89376000D02*
X84225000Y-88975000D01*
X82296000Y-89376000D02*
X80899000Y-89376000D01*
X80899000Y-89376000D02*
X80325000Y-89950000D01*
X88880000Y-87884000D02*
X88684000Y-87884000D01*
X88684000Y-87884000D02*
X87300000Y-86500000D01*
X90250000Y-86475000D02*
X88880000Y-87845000D01*
X88375000Y-86525000D02*
X89200000Y-86525000D01*
X88325000Y-86575000D02*
X88375000Y-86525000D01*
X88880000Y-87845000D02*
X88880000Y-87884000D01*
X112522000Y-87122000D02*
X110764000Y-87122000D01*
X110764000Y-87122000D02*
X110490000Y-87396000D01*
X103425000Y-87925000D02*
X103425000Y-88465000D01*
X103425000Y-87925000D02*
X103425000Y-87931000D01*
X103425000Y-87931000D02*
X103886000Y-88392000D01*
X88880000Y-87884000D02*
X89154000Y-87884000D01*
X102600000Y-92136000D02*
X105650000Y-92250000D01*
X105650000Y-92250000D02*
X105675000Y-92275000D01*
X105775000Y-89775000D02*
X105775000Y-92175000D01*
X105775000Y-92175000D02*
X105675000Y-92275000D01*
X105725000Y-87675000D02*
X105725000Y-89725000D01*
X105725000Y-89725000D02*
X105775000Y-89775000D01*
X110490000Y-92222000D02*
X111740000Y-92222000D01*
X111740000Y-92222000D02*
X112776000Y-91186000D01*
X110490000Y-89896000D02*
X111486000Y-89896000D01*
X111486000Y-89896000D02*
X112776000Y-91186000D01*
X110490000Y-89896000D02*
X108396000Y-89896000D01*
X108396000Y-89896000D02*
X108275000Y-89775000D01*
X110490000Y-89896000D02*
X110490000Y-90678000D01*
X110490000Y-90678000D02*
X110490000Y-92222000D01*
X100096000Y-94488000D02*
X100096000Y-96364000D01*
X100096000Y-96364000D02*
X99920000Y-96540000D01*
X100300000Y-96160000D02*
X99920000Y-96540000D01*
X102600000Y-90236000D02*
X102464000Y-90236000D01*
X102464000Y-90236000D02*
X101475000Y-91225000D01*
X101475000Y-93367000D02*
X102596000Y-94488000D01*
X101475000Y-91225000D02*
X101475000Y-93367000D01*
X102600000Y-90236000D02*
X102222000Y-90236000D01*
X102600000Y-90236000D02*
X102565000Y-90236000D01*
X102596000Y-94488000D02*
X105270000Y-94575000D01*
X105270000Y-94575000D02*
X105395000Y-94700000D01*
X102346000Y-94238000D02*
X102596000Y-94488000D01*
X87202000Y-95250000D02*
X87202000Y-93756000D01*
X87202000Y-93756000D02*
X86598000Y-93152000D01*
X89428000Y-94996000D02*
X87456000Y-94996000D01*
X87456000Y-94996000D02*
X87202000Y-95250000D01*
X88646000Y-93044000D02*
X86706000Y-93044000D01*
X86706000Y-93044000D02*
X86598000Y-93152000D01*
X88754000Y-93044000D02*
X88646000Y-93044000D01*
X86706000Y-93044000D02*
X86598000Y-93152000D01*
X94140000Y-94470000D02*
X92454000Y-94470000D01*
X92454000Y-94470000D02*
X91928000Y-94996000D01*
X94140000Y-94470000D02*
X94140000Y-92566000D01*
X94140000Y-92566000D02*
X95520000Y-91186000D01*
X92456000Y-90758000D02*
X95092000Y-90758000D01*
X95092000Y-90758000D02*
X95520000Y-91186000D01*
X70800000Y-91694000D02*
X71374000Y-91694000D01*
X71374000Y-91694000D02*
X71882000Y-91186000D01*
X71882000Y-91186000D02*
X74696000Y-91186000D01*
X70800000Y-91694000D02*
X70358000Y-91694000D01*
X70358000Y-91694000D02*
X68072000Y-89408000D01*
X82296000Y-93138000D02*
X79602000Y-93138000D01*
X79602000Y-93138000D02*
X79502000Y-93238000D01*
X86598000Y-91252000D02*
X86040000Y-91252000D01*
X84836000Y-93726000D02*
X82884000Y-93726000D01*
X85598000Y-92964000D02*
X84836000Y-93726000D01*
X85598000Y-91694000D02*
X85598000Y-92964000D01*
X86040000Y-91252000D02*
X85598000Y-91694000D01*
X82884000Y-93726000D02*
X82296000Y-93138000D01*
X79502000Y-93238000D02*
X79502000Y-92202000D01*
X78486000Y-91186000D02*
X77196000Y-91186000D01*
X79502000Y-92202000D02*
X78486000Y-91186000D01*
X82376000Y-93218000D02*
X82296000Y-93138000D01*
X79502000Y-92944000D02*
X79228000Y-92944000D01*
X79602000Y-93044000D02*
X79502000Y-92944000D01*
X77216000Y-91166000D02*
X77196000Y-91186000D01*
X86598000Y-91252000D02*
X86448000Y-91252000D01*
X79602000Y-93044000D02*
X79502000Y-92944000D01*
X86598000Y-91252000D02*
X86548000Y-91252000D01*
X79502000Y-95738000D02*
X78974000Y-95738000D01*
X78974000Y-95738000D02*
X78232000Y-94996000D01*
X78232000Y-94154000D02*
X77296000Y-93218000D01*
X78232000Y-94996000D02*
X78232000Y-94154000D01*
X77296000Y-93218000D02*
X77296000Y-93298000D01*
X78994000Y-95504000D02*
X80010000Y-95504000D01*
X80010000Y-95504000D02*
X79502000Y-95738000D01*
X77196000Y-97790000D02*
X80167000Y-97792000D01*
X80167000Y-97792000D02*
X80675000Y-98300000D01*
X77196000Y-95758000D02*
X77196000Y-97790000D01*
X94762000Y-87884000D02*
X94762000Y-87788000D01*
X94762000Y-87788000D02*
X96125000Y-86425000D01*
X99425000Y-86425000D02*
X100925000Y-87925000D01*
X96125000Y-86425000D02*
X99425000Y-86425000D01*
X88646000Y-90344000D02*
X88681000Y-90344000D01*
X88681000Y-90344000D02*
X90025000Y-89000000D01*
X91514000Y-89000000D02*
X92456000Y-88058000D01*
X90025000Y-89000000D02*
X91514000Y-89000000D01*
X84598000Y-92202000D02*
X84598000Y-91352000D01*
X86380000Y-89570000D02*
X86380000Y-87884000D01*
X84598000Y-91352000D02*
X86380000Y-89570000D01*
X88646000Y-90344000D02*
X88058000Y-90344000D01*
X88058000Y-90344000D02*
X86380000Y-88412000D01*
X86380000Y-88412000D02*
X86380000Y-87884000D01*
X88472000Y-90170000D02*
X88646000Y-90344000D01*
X86380000Y-87884000D02*
X86380000Y-87356000D01*
X94762000Y-87884000D02*
X92630000Y-87884000D01*
X92630000Y-87884000D02*
X92456000Y-88058000D01*
X100925000Y-87925000D02*
X100925000Y-88050000D01*
X100925000Y-88050000D02*
X100000000Y-89250000D01*
X100000000Y-90775000D02*
X100600000Y-91186000D01*
X100000000Y-89250000D02*
X100000000Y-90775000D01*
X108375000Y-92275000D02*
X107525000Y-92275000D01*
X102575000Y-86550000D02*
X100925000Y-87925000D01*
X104850000Y-86550000D02*
X102575000Y-86550000D01*
X105100000Y-86300000D02*
X104850000Y-86550000D01*
X106475000Y-86300000D02*
X105100000Y-86300000D01*
X107125000Y-86950000D02*
X106475000Y-86300000D01*
X107125000Y-91875000D02*
X107125000Y-86950000D01*
X107525000Y-92275000D02*
X107125000Y-91875000D01*
X89488000Y-85090000D02*
X92122000Y-85090000D01*
X78486000Y-88646000D02*
X77724000Y-88646000D01*
X77724000Y-88646000D02*
X74168000Y-85090000D01*
X96840000Y-94470000D02*
X96840000Y-93330000D01*
X96840000Y-93330000D02*
X97520000Y-92136000D01*
X96840000Y-94470000D02*
X96840000Y-96160000D01*
X96840000Y-96160000D02*
X97220000Y-96540000D01*
X97056000Y-94254000D02*
X96840000Y-94470000D01*
X74596000Y-93218000D02*
X74596000Y-95658000D01*
X74596000Y-95658000D02*
X74696000Y-95758000D01*
X86788000Y-85090000D02*
X82582000Y-85090000D01*
X82582000Y-85090000D02*
X82296000Y-85376000D01*
X78486000Y-85090000D02*
X82010000Y-85090000D01*
X82010000Y-85090000D02*
X82296000Y-85376000D01*
D24*
G36*
X111750000Y-100175000D02*
X110528426Y-100175000D01*
X110996210Y-99862437D01*
X111375562Y-99294696D01*
X111508773Y-98625000D01*
X111375562Y-97955304D01*
X110996210Y-97387563D01*
X110428469Y-97008211D01*
X109758773Y-96875000D01*
X107141227Y-96875000D01*
X106471531Y-97008211D01*
X105903790Y-97387563D01*
X105524438Y-97955304D01*
X105391227Y-98625000D01*
X105524438Y-99294696D01*
X105903790Y-99862437D01*
X106371574Y-100175000D01*
X104215841Y-100175000D01*
X104646210Y-99887437D01*
X105025562Y-99319696D01*
X105158773Y-98650000D01*
X105025562Y-97980304D01*
X104646210Y-97412563D01*
X104078469Y-97033211D01*
X103408773Y-96900000D01*
X101434693Y-96900000D01*
X101434693Y-95890000D01*
X101402237Y-95717515D01*
X101548492Y-95817446D01*
X101846000Y-95877693D01*
X103346000Y-95877693D01*
X103623933Y-95825396D01*
X103879198Y-95661138D01*
X104016823Y-95459717D01*
X104152621Y-95464135D01*
X104285862Y-95671198D01*
X104536492Y-95842446D01*
X104834000Y-95902693D01*
X106334000Y-95902693D01*
X106611933Y-95850396D01*
X106786599Y-95738002D01*
X107062028Y-95738002D01*
X107104627Y-95780601D01*
X107383224Y-95896000D01*
X107719500Y-95896000D01*
X107909000Y-95706500D01*
X107909000Y-94813000D01*
X108659000Y-94813000D01*
X108659000Y-95706500D01*
X108848500Y-95896000D01*
X109184776Y-95896000D01*
X109463373Y-95780601D01*
X109470000Y-95773974D01*
X109560628Y-95864602D01*
X109839225Y-95980000D01*
X110050500Y-95980000D01*
X110240000Y-95790500D01*
X110240000Y-94972000D01*
X110740000Y-94972000D01*
X110740000Y-95790500D01*
X110929500Y-95980000D01*
X111140775Y-95980000D01*
X111419372Y-95864602D01*
X111632601Y-95651373D01*
X111748000Y-95372776D01*
X111748000Y-95161500D01*
X111558500Y-94972000D01*
X110740000Y-94972000D01*
X110240000Y-94972000D01*
X109761500Y-94972000D01*
X109602500Y-94813000D01*
X108659000Y-94813000D01*
X107909000Y-94813000D01*
X107534000Y-94813000D01*
X107534000Y-94163000D01*
X107909000Y-94163000D01*
X107909000Y-93838000D01*
X108659000Y-93838000D01*
X108659000Y-94163000D01*
X109232000Y-94163000D01*
X109232000Y-94282500D01*
X109421500Y-94472000D01*
X110240000Y-94472000D01*
X110240000Y-94222000D01*
X110740000Y-94222000D01*
X110740000Y-94472000D01*
X111558500Y-94472000D01*
X111748000Y-94282500D01*
X111748000Y-94071224D01*
X111740002Y-94051915D01*
X111740002Y-93464000D01*
X111110602Y-93464000D01*
X111267933Y-93434396D01*
X111523198Y-93270138D01*
X111607335Y-93147000D01*
X111740000Y-93147000D01*
X111750000Y-93145011D01*
X111750000Y-100175000D01*
X111750000Y-100175000D01*
G37*
X111750000Y-100175000D02*
X110528426Y-100175000D01*
X110996210Y-99862437D01*
X111375562Y-99294696D01*
X111508773Y-98625000D01*
X111375562Y-97955304D01*
X110996210Y-97387563D01*
X110428469Y-97008211D01*
X109758773Y-96875000D01*
X107141227Y-96875000D01*
X106471531Y-97008211D01*
X105903790Y-97387563D01*
X105524438Y-97955304D01*
X105391227Y-98625000D01*
X105524438Y-99294696D01*
X105903790Y-99862437D01*
X106371574Y-100175000D01*
X104215841Y-100175000D01*
X104646210Y-99887437D01*
X105025562Y-99319696D01*
X105158773Y-98650000D01*
X105025562Y-97980304D01*
X104646210Y-97412563D01*
X104078469Y-97033211D01*
X103408773Y-96900000D01*
X101434693Y-96900000D01*
X101434693Y-95890000D01*
X101402237Y-95717515D01*
X101548492Y-95817446D01*
X101846000Y-95877693D01*
X103346000Y-95877693D01*
X103623933Y-95825396D01*
X103879198Y-95661138D01*
X104016823Y-95459717D01*
X104152621Y-95464135D01*
X104285862Y-95671198D01*
X104536492Y-95842446D01*
X104834000Y-95902693D01*
X106334000Y-95902693D01*
X106611933Y-95850396D01*
X106786599Y-95738002D01*
X107062028Y-95738002D01*
X107104627Y-95780601D01*
X107383224Y-95896000D01*
X107719500Y-95896000D01*
X107909000Y-95706500D01*
X107909000Y-94813000D01*
X108659000Y-94813000D01*
X108659000Y-95706500D01*
X108848500Y-95896000D01*
X109184776Y-95896000D01*
X109463373Y-95780601D01*
X109470000Y-95773974D01*
X109560628Y-95864602D01*
X109839225Y-95980000D01*
X110050500Y-95980000D01*
X110240000Y-95790500D01*
X110240000Y-94972000D01*
X110740000Y-94972000D01*
X110740000Y-95790500D01*
X110929500Y-95980000D01*
X111140775Y-95980000D01*
X111419372Y-95864602D01*
X111632601Y-95651373D01*
X111748000Y-95372776D01*
X111748000Y-95161500D01*
X111558500Y-94972000D01*
X110740000Y-94972000D01*
X110240000Y-94972000D01*
X109761500Y-94972000D01*
X109602500Y-94813000D01*
X108659000Y-94813000D01*
X107909000Y-94813000D01*
X107534000Y-94813000D01*
X107534000Y-94163000D01*
X107909000Y-94163000D01*
X107909000Y-93838000D01*
X108659000Y-93838000D01*
X108659000Y-94163000D01*
X109232000Y-94163000D01*
X109232000Y-94282500D01*
X109421500Y-94472000D01*
X110240000Y-94472000D01*
X110240000Y-94222000D01*
X110740000Y-94222000D01*
X110740000Y-94472000D01*
X111558500Y-94472000D01*
X111748000Y-94282500D01*
X111748000Y-94071224D01*
X111740002Y-94051915D01*
X111740002Y-93464000D01*
X111110602Y-93464000D01*
X111267933Y-93434396D01*
X111523198Y-93270138D01*
X111607335Y-93147000D01*
X111740000Y-93147000D01*
X111750000Y-93145011D01*
X111750000Y-100175000D01*
G36*
X99553790Y-83162563D02*
X99174438Y-83730304D01*
X99041227Y-84400000D01*
X99174438Y-85069696D01*
X99467622Y-85508478D01*
X99425000Y-85500000D01*
X96225500Y-85500000D01*
X96140500Y-85415000D01*
X95197000Y-85415000D01*
X95197000Y-85740000D01*
X94447000Y-85740000D01*
X94447000Y-85415000D01*
X94072000Y-85415000D01*
X94072000Y-84765000D01*
X94447000Y-84765000D01*
X94447000Y-83871500D01*
X95197000Y-83871500D01*
X95197000Y-84765000D01*
X96140500Y-84765000D01*
X96330000Y-84575500D01*
X96330000Y-84289225D01*
X96214602Y-84010628D01*
X96001373Y-83797399D01*
X95722776Y-83682000D01*
X95386500Y-83682000D01*
X95197000Y-83871500D01*
X94447000Y-83871500D01*
X94257500Y-83682000D01*
X93921224Y-83682000D01*
X93642627Y-83797399D01*
X93600028Y-83839998D01*
X93322367Y-83839998D01*
X93169508Y-83735554D01*
X92872000Y-83675307D01*
X91372000Y-83675307D01*
X91094067Y-83727604D01*
X90838802Y-83891862D01*
X90806729Y-83938802D01*
X90786138Y-83906802D01*
X90535508Y-83735554D01*
X90238000Y-83675307D01*
X88738000Y-83675307D01*
X88460067Y-83727604D01*
X88204802Y-83891862D01*
X88138740Y-83988548D01*
X88086138Y-83906802D01*
X87835508Y-83735554D01*
X87538000Y-83675307D01*
X86038000Y-83675307D01*
X85760067Y-83727604D01*
X85504802Y-83891862D01*
X85333554Y-84142492D01*
X85328996Y-84165000D01*
X84270990Y-84165000D01*
X84258396Y-84098067D01*
X84094138Y-83842802D01*
X83843508Y-83671554D01*
X83546000Y-83611307D01*
X81046000Y-83611307D01*
X80768067Y-83663604D01*
X80512802Y-83827862D01*
X80341554Y-84078492D01*
X80324036Y-84165000D01*
X80250693Y-84165000D01*
X80250693Y-84090000D01*
X80198396Y-83812067D01*
X80034138Y-83556802D01*
X79783508Y-83385554D01*
X79486000Y-83325307D01*
X77486000Y-83325307D01*
X77208067Y-83377604D01*
X76952802Y-83541862D01*
X76781554Y-83792492D01*
X76721307Y-84090000D01*
X76721307Y-86090000D01*
X76773604Y-86367933D01*
X76808842Y-86422695D01*
X75932693Y-85546545D01*
X75932693Y-84090000D01*
X75880396Y-83812067D01*
X75716138Y-83556802D01*
X75465508Y-83385554D01*
X75168000Y-83325307D01*
X73168000Y-83325307D01*
X72890067Y-83377604D01*
X72634802Y-83541862D01*
X72463554Y-83792492D01*
X72403307Y-84090000D01*
X72403307Y-86090000D01*
X72455604Y-86367933D01*
X72619862Y-86623198D01*
X72870492Y-86794446D01*
X73168000Y-86854693D01*
X74624545Y-86854693D01*
X74757676Y-86987824D01*
X74668000Y-87077500D01*
X74668000Y-88146000D01*
X75736500Y-88146000D01*
X75826176Y-88056324D01*
X76721307Y-88951454D01*
X76721307Y-89646000D01*
X76749589Y-89796307D01*
X76446000Y-89796307D01*
X76168067Y-89848604D01*
X75943429Y-89993154D01*
X75866445Y-89940553D01*
X75926000Y-89796775D01*
X75926000Y-89335500D01*
X75736500Y-89146000D01*
X74668000Y-89146000D01*
X74668000Y-89646000D01*
X73668000Y-89646000D01*
X73668000Y-89146000D01*
X72599500Y-89146000D01*
X72410000Y-89335500D01*
X72410000Y-89796775D01*
X72525398Y-90075372D01*
X72711026Y-90261000D01*
X71882000Y-90261000D01*
X71528018Y-90331411D01*
X71490440Y-90356520D01*
X71099677Y-90194261D01*
X70502941Y-90193740D01*
X70336693Y-90262432D01*
X70336693Y-87908000D01*
X70284396Y-87630067D01*
X70197628Y-87495225D01*
X72410000Y-87495225D01*
X72410000Y-87956500D01*
X72599500Y-88146000D01*
X73668000Y-88146000D01*
X73668000Y-87077500D01*
X73478500Y-86888000D01*
X73017224Y-86888000D01*
X72738627Y-87003399D01*
X72525398Y-87216628D01*
X72410000Y-87495225D01*
X70197628Y-87495225D01*
X70120138Y-87374802D01*
X69869508Y-87203554D01*
X69572000Y-87143307D01*
X67449224Y-87143307D01*
X67519687Y-86973613D01*
X67520312Y-86257529D01*
X67246855Y-85595714D01*
X66740949Y-85088924D01*
X66079613Y-84814313D01*
X65363529Y-84813688D01*
X64701714Y-85087145D01*
X64194924Y-85593051D01*
X63920313Y-86254387D01*
X63919688Y-86970471D01*
X64193145Y-87632286D01*
X64699051Y-88139076D01*
X65360387Y-88413687D01*
X65807307Y-88414077D01*
X65807307Y-90908000D01*
X65859604Y-91185933D01*
X66023862Y-91441198D01*
X66274492Y-91612446D01*
X66572000Y-91672693D01*
X69028545Y-91672693D01*
X69299781Y-91943929D01*
X69299740Y-91991059D01*
X69527620Y-92542572D01*
X69949209Y-92964897D01*
X70151012Y-93048693D01*
X70149579Y-93053249D01*
X70800000Y-93703670D01*
X71450421Y-93053249D01*
X71449031Y-93048828D01*
X71648572Y-92966380D01*
X72070897Y-92544791D01*
X72240992Y-92135155D01*
X72265148Y-92111000D01*
X73247804Y-92111000D01*
X73249126Y-92113055D01*
X73141554Y-92270492D01*
X73081307Y-92568000D01*
X73081307Y-93868000D01*
X73133604Y-94145933D01*
X73297862Y-94401198D01*
X73548492Y-94572446D01*
X73671000Y-94597255D01*
X73671000Y-94704587D01*
X73662802Y-94709862D01*
X73491554Y-94960492D01*
X73431307Y-95258000D01*
X73431307Y-96258000D01*
X73459343Y-96407000D01*
X73445998Y-96407000D01*
X73445998Y-96593028D01*
X73303398Y-96735628D01*
X73188000Y-97014225D01*
X73188000Y-97288000D01*
X73377500Y-97477500D01*
X74321000Y-97477500D01*
X74321000Y-97165000D01*
X75071000Y-97165000D01*
X75071000Y-97477500D01*
X75446000Y-97477500D01*
X75446000Y-98102500D01*
X75071000Y-98102500D01*
X75071000Y-98983500D01*
X75260500Y-99173000D01*
X75596776Y-99173000D01*
X75875373Y-99057601D01*
X75892972Y-99040002D01*
X76032222Y-99040002D01*
X76148492Y-99119446D01*
X76446000Y-99179693D01*
X77946000Y-99179693D01*
X78223933Y-99127396D01*
X78479198Y-98963138D01*
X78648075Y-98715978D01*
X78910307Y-98716154D01*
X78910307Y-99300000D01*
X78962604Y-99577933D01*
X79126862Y-99833198D01*
X79377492Y-100004446D01*
X79675000Y-100064693D01*
X81675000Y-100064693D01*
X81952933Y-100012396D01*
X82208198Y-99848138D01*
X82379446Y-99597508D01*
X82439693Y-99300000D01*
X82439693Y-98987500D01*
X84094000Y-98987500D01*
X84094000Y-99448775D01*
X84209398Y-99727372D01*
X84422627Y-99940601D01*
X84701224Y-100056000D01*
X85162500Y-100056000D01*
X85352000Y-99866500D01*
X85352000Y-98798000D01*
X86352000Y-98798000D01*
X86352000Y-99866500D01*
X86541500Y-100056000D01*
X87002776Y-100056000D01*
X87281373Y-99940601D01*
X87494602Y-99727372D01*
X87610000Y-99448775D01*
X87610000Y-98987500D01*
X87420500Y-98798000D01*
X86352000Y-98798000D01*
X85352000Y-98798000D01*
X84283500Y-98798000D01*
X84094000Y-98987500D01*
X82439693Y-98987500D01*
X82439693Y-97346000D01*
X83546002Y-97346000D01*
X83546002Y-97088002D01*
X83704000Y-97088002D01*
X83704000Y-96658000D01*
X84420026Y-96658000D01*
X84209398Y-96868628D01*
X84094000Y-97147225D01*
X84094000Y-97608500D01*
X84283500Y-97798000D01*
X85352000Y-97798000D01*
X85352000Y-96729500D01*
X85280500Y-96658000D01*
X85752002Y-96658000D01*
X85752002Y-96500002D01*
X86001633Y-96500002D01*
X86154492Y-96604446D01*
X86422734Y-96658766D01*
X86352000Y-96729500D01*
X86352000Y-97798000D01*
X87420500Y-97798000D01*
X87610000Y-97608500D01*
X87610000Y-97147225D01*
X87494602Y-96868628D01*
X87290667Y-96664693D01*
X87952000Y-96664693D01*
X88229933Y-96612396D01*
X88485198Y-96448138D01*
X88546113Y-96358985D01*
X88678000Y-96385693D01*
X90178000Y-96385693D01*
X90455933Y-96333396D01*
X90680571Y-96188846D01*
X90880492Y-96325446D01*
X91178000Y-96385693D01*
X92678000Y-96385693D01*
X92955933Y-96333396D01*
X93211198Y-96169138D01*
X93382446Y-95918508D01*
X93389322Y-95884556D01*
X93390000Y-95884693D01*
X94890000Y-95884693D01*
X95167933Y-95832396D01*
X95423198Y-95668138D01*
X95489260Y-95571452D01*
X95541862Y-95653198D01*
X95727566Y-95780084D01*
X95705307Y-95890000D01*
X95705307Y-97190000D01*
X95757604Y-97467933D01*
X95921862Y-97723198D01*
X96172492Y-97894446D01*
X96470000Y-97954693D01*
X97970000Y-97954693D01*
X98247933Y-97902396D01*
X98503198Y-97738138D01*
X98569260Y-97641452D01*
X98621862Y-97723198D01*
X98872492Y-97894446D01*
X99170000Y-97954693D01*
X99191551Y-97954693D01*
X99174438Y-97980304D01*
X99041227Y-98650000D01*
X99174438Y-99319696D01*
X99553790Y-99887437D01*
X99984159Y-100175000D01*
X62825000Y-100175000D01*
X62825000Y-97130471D01*
X63919688Y-97130471D01*
X64193145Y-97792286D01*
X64699051Y-98299076D01*
X65360387Y-98573687D01*
X66076471Y-98574312D01*
X66738286Y-98300855D01*
X66747156Y-98292000D01*
X73188000Y-98292000D01*
X73188000Y-98565775D01*
X73303398Y-98844372D01*
X73516627Y-99057601D01*
X73795224Y-99173000D01*
X74131500Y-99173000D01*
X74321000Y-98983500D01*
X74321000Y-98102500D01*
X73377500Y-98102500D01*
X73188000Y-98292000D01*
X66747156Y-98292000D01*
X67245076Y-97794949D01*
X67519687Y-97133613D01*
X67519972Y-96807798D01*
X67616198Y-96711572D01*
X68293149Y-96779592D01*
X68744639Y-96689784D01*
X68938301Y-96414961D01*
X68072000Y-95548660D01*
X67704304Y-95916356D01*
X67202699Y-95414751D01*
X70149579Y-95414751D01*
X70226928Y-95660753D01*
X70816546Y-95771453D01*
X71373072Y-95660753D01*
X71450421Y-95414751D01*
X70800000Y-94764330D01*
X70149579Y-95414751D01*
X67202699Y-95414751D01*
X66643644Y-94855696D01*
X67011340Y-94488000D01*
X69132660Y-94488000D01*
X69353759Y-94709099D01*
X69373247Y-94807072D01*
X69487727Y-94843067D01*
X69998961Y-95354301D01*
X70273784Y-95160639D01*
X70363592Y-94266851D01*
X70357058Y-94234000D01*
X71330330Y-94234000D01*
X71980751Y-94884421D01*
X72226753Y-94807072D01*
X72337453Y-94217454D01*
X72226753Y-93660928D01*
X71980751Y-93583579D01*
X71330330Y-94234000D01*
X70357058Y-94234000D01*
X70273784Y-93815361D01*
X69998961Y-93621699D01*
X69828165Y-93792495D01*
X69619249Y-93583579D01*
X69373247Y-93660928D01*
X69262547Y-94250546D01*
X69280394Y-94340266D01*
X69132660Y-94488000D01*
X67011340Y-94488000D01*
X66145039Y-93621699D01*
X65870216Y-93815361D01*
X65780408Y-94709149D01*
X65830625Y-94961605D01*
X65818145Y-94974085D01*
X65363529Y-94973688D01*
X64701714Y-95247145D01*
X64194924Y-95753051D01*
X63920313Y-96414387D01*
X63919688Y-97130471D01*
X62825000Y-97130471D01*
X62825000Y-92561039D01*
X67205699Y-92561039D01*
X68072000Y-93427340D01*
X68938301Y-92561039D01*
X68744639Y-92286216D01*
X67850851Y-92196408D01*
X67399361Y-92286216D01*
X67205699Y-92561039D01*
X62825000Y-92561039D01*
X62825000Y-82825000D01*
X100058989Y-82825000D01*
X99553790Y-83162563D01*
X99553790Y-83162563D01*
G37*
X99553790Y-83162563D02*
X99174438Y-83730304D01*
X99041227Y-84400000D01*
X99174438Y-85069696D01*
X99467622Y-85508478D01*
X99425000Y-85500000D01*
X96225500Y-85500000D01*
X96140500Y-85415000D01*
X95197000Y-85415000D01*
X95197000Y-85740000D01*
X94447000Y-85740000D01*
X94447000Y-85415000D01*
X94072000Y-85415000D01*
X94072000Y-84765000D01*
X94447000Y-84765000D01*
X94447000Y-83871500D01*
X95197000Y-83871500D01*
X95197000Y-84765000D01*
X96140500Y-84765000D01*
X96330000Y-84575500D01*
X96330000Y-84289225D01*
X96214602Y-84010628D01*
X96001373Y-83797399D01*
X95722776Y-83682000D01*
X95386500Y-83682000D01*
X95197000Y-83871500D01*
X94447000Y-83871500D01*
X94257500Y-83682000D01*
X93921224Y-83682000D01*
X93642627Y-83797399D01*
X93600028Y-83839998D01*
X93322367Y-83839998D01*
X93169508Y-83735554D01*
X92872000Y-83675307D01*
X91372000Y-83675307D01*
X91094067Y-83727604D01*
X90838802Y-83891862D01*
X90806729Y-83938802D01*
X90786138Y-83906802D01*
X90535508Y-83735554D01*
X90238000Y-83675307D01*
X88738000Y-83675307D01*
X88460067Y-83727604D01*
X88204802Y-83891862D01*
X88138740Y-83988548D01*
X88086138Y-83906802D01*
X87835508Y-83735554D01*
X87538000Y-83675307D01*
X86038000Y-83675307D01*
X85760067Y-83727604D01*
X85504802Y-83891862D01*
X85333554Y-84142492D01*
X85328996Y-84165000D01*
X84270990Y-84165000D01*
X84258396Y-84098067D01*
X84094138Y-83842802D01*
X83843508Y-83671554D01*
X83546000Y-83611307D01*
X81046000Y-83611307D01*
X80768067Y-83663604D01*
X80512802Y-83827862D01*
X80341554Y-84078492D01*
X80324036Y-84165000D01*
X80250693Y-84165000D01*
X80250693Y-84090000D01*
X80198396Y-83812067D01*
X80034138Y-83556802D01*
X79783508Y-83385554D01*
X79486000Y-83325307D01*
X77486000Y-83325307D01*
X77208067Y-83377604D01*
X76952802Y-83541862D01*
X76781554Y-83792492D01*
X76721307Y-84090000D01*
X76721307Y-86090000D01*
X76773604Y-86367933D01*
X76808842Y-86422695D01*
X75932693Y-85546545D01*
X75932693Y-84090000D01*
X75880396Y-83812067D01*
X75716138Y-83556802D01*
X75465508Y-83385554D01*
X75168000Y-83325307D01*
X73168000Y-83325307D01*
X72890067Y-83377604D01*
X72634802Y-83541862D01*
X72463554Y-83792492D01*
X72403307Y-84090000D01*
X72403307Y-86090000D01*
X72455604Y-86367933D01*
X72619862Y-86623198D01*
X72870492Y-86794446D01*
X73168000Y-86854693D01*
X74624545Y-86854693D01*
X74757676Y-86987824D01*
X74668000Y-87077500D01*
X74668000Y-88146000D01*
X75736500Y-88146000D01*
X75826176Y-88056324D01*
X76721307Y-88951454D01*
X76721307Y-89646000D01*
X76749589Y-89796307D01*
X76446000Y-89796307D01*
X76168067Y-89848604D01*
X75943429Y-89993154D01*
X75866445Y-89940553D01*
X75926000Y-89796775D01*
X75926000Y-89335500D01*
X75736500Y-89146000D01*
X74668000Y-89146000D01*
X74668000Y-89646000D01*
X73668000Y-89646000D01*
X73668000Y-89146000D01*
X72599500Y-89146000D01*
X72410000Y-89335500D01*
X72410000Y-89796775D01*
X72525398Y-90075372D01*
X72711026Y-90261000D01*
X71882000Y-90261000D01*
X71528018Y-90331411D01*
X71490440Y-90356520D01*
X71099677Y-90194261D01*
X70502941Y-90193740D01*
X70336693Y-90262432D01*
X70336693Y-87908000D01*
X70284396Y-87630067D01*
X70197628Y-87495225D01*
X72410000Y-87495225D01*
X72410000Y-87956500D01*
X72599500Y-88146000D01*
X73668000Y-88146000D01*
X73668000Y-87077500D01*
X73478500Y-86888000D01*
X73017224Y-86888000D01*
X72738627Y-87003399D01*
X72525398Y-87216628D01*
X72410000Y-87495225D01*
X70197628Y-87495225D01*
X70120138Y-87374802D01*
X69869508Y-87203554D01*
X69572000Y-87143307D01*
X67449224Y-87143307D01*
X67519687Y-86973613D01*
X67520312Y-86257529D01*
X67246855Y-85595714D01*
X66740949Y-85088924D01*
X66079613Y-84814313D01*
X65363529Y-84813688D01*
X64701714Y-85087145D01*
X64194924Y-85593051D01*
X63920313Y-86254387D01*
X63919688Y-86970471D01*
X64193145Y-87632286D01*
X64699051Y-88139076D01*
X65360387Y-88413687D01*
X65807307Y-88414077D01*
X65807307Y-90908000D01*
X65859604Y-91185933D01*
X66023862Y-91441198D01*
X66274492Y-91612446D01*
X66572000Y-91672693D01*
X69028545Y-91672693D01*
X69299781Y-91943929D01*
X69299740Y-91991059D01*
X69527620Y-92542572D01*
X69949209Y-92964897D01*
X70151012Y-93048693D01*
X70149579Y-93053249D01*
X70800000Y-93703670D01*
X71450421Y-93053249D01*
X71449031Y-93048828D01*
X71648572Y-92966380D01*
X72070897Y-92544791D01*
X72240992Y-92135155D01*
X72265148Y-92111000D01*
X73247804Y-92111000D01*
X73249126Y-92113055D01*
X73141554Y-92270492D01*
X73081307Y-92568000D01*
X73081307Y-93868000D01*
X73133604Y-94145933D01*
X73297862Y-94401198D01*
X73548492Y-94572446D01*
X73671000Y-94597255D01*
X73671000Y-94704587D01*
X73662802Y-94709862D01*
X73491554Y-94960492D01*
X73431307Y-95258000D01*
X73431307Y-96258000D01*
X73459343Y-96407000D01*
X73445998Y-96407000D01*
X73445998Y-96593028D01*
X73303398Y-96735628D01*
X73188000Y-97014225D01*
X73188000Y-97288000D01*
X73377500Y-97477500D01*
X74321000Y-97477500D01*
X74321000Y-97165000D01*
X75071000Y-97165000D01*
X75071000Y-97477500D01*
X75446000Y-97477500D01*
X75446000Y-98102500D01*
X75071000Y-98102500D01*
X75071000Y-98983500D01*
X75260500Y-99173000D01*
X75596776Y-99173000D01*
X75875373Y-99057601D01*
X75892972Y-99040002D01*
X76032222Y-99040002D01*
X76148492Y-99119446D01*
X76446000Y-99179693D01*
X77946000Y-99179693D01*
X78223933Y-99127396D01*
X78479198Y-98963138D01*
X78648075Y-98715978D01*
X78910307Y-98716154D01*
X78910307Y-99300000D01*
X78962604Y-99577933D01*
X79126862Y-99833198D01*
X79377492Y-100004446D01*
X79675000Y-100064693D01*
X81675000Y-100064693D01*
X81952933Y-100012396D01*
X82208198Y-99848138D01*
X82379446Y-99597508D01*
X82439693Y-99300000D01*
X82439693Y-98987500D01*
X84094000Y-98987500D01*
X84094000Y-99448775D01*
X84209398Y-99727372D01*
X84422627Y-99940601D01*
X84701224Y-100056000D01*
X85162500Y-100056000D01*
X85352000Y-99866500D01*
X85352000Y-98798000D01*
X86352000Y-98798000D01*
X86352000Y-99866500D01*
X86541500Y-100056000D01*
X87002776Y-100056000D01*
X87281373Y-99940601D01*
X87494602Y-99727372D01*
X87610000Y-99448775D01*
X87610000Y-98987500D01*
X87420500Y-98798000D01*
X86352000Y-98798000D01*
X85352000Y-98798000D01*
X84283500Y-98798000D01*
X84094000Y-98987500D01*
X82439693Y-98987500D01*
X82439693Y-97346000D01*
X83546002Y-97346000D01*
X83546002Y-97088002D01*
X83704000Y-97088002D01*
X83704000Y-96658000D01*
X84420026Y-96658000D01*
X84209398Y-96868628D01*
X84094000Y-97147225D01*
X84094000Y-97608500D01*
X84283500Y-97798000D01*
X85352000Y-97798000D01*
X85352000Y-96729500D01*
X85280500Y-96658000D01*
X85752002Y-96658000D01*
X85752002Y-96500002D01*
X86001633Y-96500002D01*
X86154492Y-96604446D01*
X86422734Y-96658766D01*
X86352000Y-96729500D01*
X86352000Y-97798000D01*
X87420500Y-97798000D01*
X87610000Y-97608500D01*
X87610000Y-97147225D01*
X87494602Y-96868628D01*
X87290667Y-96664693D01*
X87952000Y-96664693D01*
X88229933Y-96612396D01*
X88485198Y-96448138D01*
X88546113Y-96358985D01*
X88678000Y-96385693D01*
X90178000Y-96385693D01*
X90455933Y-96333396D01*
X90680571Y-96188846D01*
X90880492Y-96325446D01*
X91178000Y-96385693D01*
X92678000Y-96385693D01*
X92955933Y-96333396D01*
X93211198Y-96169138D01*
X93382446Y-95918508D01*
X93389322Y-95884556D01*
X93390000Y-95884693D01*
X94890000Y-95884693D01*
X95167933Y-95832396D01*
X95423198Y-95668138D01*
X95489260Y-95571452D01*
X95541862Y-95653198D01*
X95727566Y-95780084D01*
X95705307Y-95890000D01*
X95705307Y-97190000D01*
X95757604Y-97467933D01*
X95921862Y-97723198D01*
X96172492Y-97894446D01*
X96470000Y-97954693D01*
X97970000Y-97954693D01*
X98247933Y-97902396D01*
X98503198Y-97738138D01*
X98569260Y-97641452D01*
X98621862Y-97723198D01*
X98872492Y-97894446D01*
X99170000Y-97954693D01*
X99191551Y-97954693D01*
X99174438Y-97980304D01*
X99041227Y-98650000D01*
X99174438Y-99319696D01*
X99553790Y-99887437D01*
X99984159Y-100175000D01*
X62825000Y-100175000D01*
X62825000Y-97130471D01*
X63919688Y-97130471D01*
X64193145Y-97792286D01*
X64699051Y-98299076D01*
X65360387Y-98573687D01*
X66076471Y-98574312D01*
X66738286Y-98300855D01*
X66747156Y-98292000D01*
X73188000Y-98292000D01*
X73188000Y-98565775D01*
X73303398Y-98844372D01*
X73516627Y-99057601D01*
X73795224Y-99173000D01*
X74131500Y-99173000D01*
X74321000Y-98983500D01*
X74321000Y-98102500D01*
X73377500Y-98102500D01*
X73188000Y-98292000D01*
X66747156Y-98292000D01*
X67245076Y-97794949D01*
X67519687Y-97133613D01*
X67519972Y-96807798D01*
X67616198Y-96711572D01*
X68293149Y-96779592D01*
X68744639Y-96689784D01*
X68938301Y-96414961D01*
X68072000Y-95548660D01*
X67704304Y-95916356D01*
X67202699Y-95414751D01*
X70149579Y-95414751D01*
X70226928Y-95660753D01*
X70816546Y-95771453D01*
X71373072Y-95660753D01*
X71450421Y-95414751D01*
X70800000Y-94764330D01*
X70149579Y-95414751D01*
X67202699Y-95414751D01*
X66643644Y-94855696D01*
X67011340Y-94488000D01*
X69132660Y-94488000D01*
X69353759Y-94709099D01*
X69373247Y-94807072D01*
X69487727Y-94843067D01*
X69998961Y-95354301D01*
X70273784Y-95160639D01*
X70363592Y-94266851D01*
X70357058Y-94234000D01*
X71330330Y-94234000D01*
X71980751Y-94884421D01*
X72226753Y-94807072D01*
X72337453Y-94217454D01*
X72226753Y-93660928D01*
X71980751Y-93583579D01*
X71330330Y-94234000D01*
X70357058Y-94234000D01*
X70273784Y-93815361D01*
X69998961Y-93621699D01*
X69828165Y-93792495D01*
X69619249Y-93583579D01*
X69373247Y-93660928D01*
X69262547Y-94250546D01*
X69280394Y-94340266D01*
X69132660Y-94488000D01*
X67011340Y-94488000D01*
X66145039Y-93621699D01*
X65870216Y-93815361D01*
X65780408Y-94709149D01*
X65830625Y-94961605D01*
X65818145Y-94974085D01*
X65363529Y-94973688D01*
X64701714Y-95247145D01*
X64194924Y-95753051D01*
X63920313Y-96414387D01*
X63919688Y-97130471D01*
X62825000Y-97130471D01*
X62825000Y-92561039D01*
X67205699Y-92561039D01*
X68072000Y-93427340D01*
X68938301Y-92561039D01*
X68744639Y-92286216D01*
X67850851Y-92196408D01*
X67399361Y-92286216D01*
X67205699Y-92561039D01*
X62825000Y-92561039D01*
X62825000Y-82825000D01*
X100058989Y-82825000D01*
X99553790Y-83162563D01*
G36*
X82621000Y-95463000D02*
X82946000Y-95463000D01*
X82946000Y-96213000D01*
X82621000Y-96213000D01*
X82621000Y-96588000D01*
X81971000Y-96588000D01*
X81971000Y-96213000D01*
X81646000Y-96213000D01*
X81646000Y-95463000D01*
X81971000Y-95463000D01*
X81971000Y-95088000D01*
X82621000Y-95088000D01*
X82621000Y-95463000D01*
X82621000Y-95463000D01*
G37*
X82621000Y-95463000D02*
X82946000Y-95463000D01*
X82946000Y-96213000D01*
X82621000Y-96213000D01*
X82621000Y-96588000D01*
X81971000Y-96588000D01*
X81971000Y-96213000D01*
X81646000Y-96213000D01*
X81646000Y-95463000D01*
X81971000Y-95463000D01*
X81971000Y-95088000D01*
X82621000Y-95088000D01*
X82621000Y-95463000D01*
G36*
X84877000Y-94925000D02*
X85252000Y-94925000D01*
X85252000Y-95575000D01*
X84877000Y-95575000D01*
X84877000Y-95900000D01*
X84127000Y-95900000D01*
X84127000Y-95575000D01*
X83752000Y-95575000D01*
X83752000Y-94925000D01*
X84127000Y-94925000D01*
X84127000Y-94651000D01*
X84836000Y-94651000D01*
X84877000Y-94642845D01*
X84877000Y-94925000D01*
X84877000Y-94925000D01*
G37*
X84877000Y-94925000D02*
X85252000Y-94925000D01*
X85252000Y-95575000D01*
X84877000Y-95575000D01*
X84877000Y-95900000D01*
X84127000Y-95900000D01*
X84127000Y-95575000D01*
X83752000Y-95575000D01*
X83752000Y-94925000D01*
X84127000Y-94925000D01*
X84127000Y-94651000D01*
X84836000Y-94651000D01*
X84877000Y-94642845D01*
X84877000Y-94925000D01*
G36*
X97637000Y-87571500D02*
X98580500Y-87571500D01*
X98770000Y-87382000D01*
X98770000Y-87350000D01*
X99041852Y-87350000D01*
X99410307Y-87718455D01*
X99410307Y-88499875D01*
X99267391Y-88685280D01*
X99213192Y-88794577D01*
X99145411Y-88896018D01*
X99133705Y-88954868D01*
X99107048Y-89008624D01*
X99098800Y-89130347D01*
X99075000Y-89250000D01*
X99075000Y-90775000D01*
X99091741Y-90859165D01*
X99090751Y-90944978D01*
X99126607Y-91034449D01*
X99145411Y-91128982D01*
X99193088Y-91200336D01*
X99225012Y-91279994D01*
X99292376Y-91348931D01*
X99345926Y-91429074D01*
X99385307Y-91455388D01*
X99385307Y-91586000D01*
X99437604Y-91863933D01*
X99601862Y-92119198D01*
X99852492Y-92290446D01*
X100150000Y-92350693D01*
X100550000Y-92350693D01*
X100550000Y-93098307D01*
X99346000Y-93098307D01*
X99068067Y-93150604D01*
X98812802Y-93314862D01*
X98641554Y-93565492D01*
X98581307Y-93863000D01*
X98581307Y-95113000D01*
X98627055Y-95356127D01*
X98570740Y-95438548D01*
X98518138Y-95356802D01*
X98332434Y-95229916D01*
X98354693Y-95120000D01*
X98354693Y-93820000D01*
X98302396Y-93542067D01*
X98138138Y-93286802D01*
X98117773Y-93272887D01*
X98247933Y-93248396D01*
X98503198Y-93084138D01*
X98674446Y-92833508D01*
X98734693Y-92536000D01*
X98734693Y-91736000D01*
X98682396Y-91458067D01*
X98641170Y-91394000D01*
X98770002Y-91394000D01*
X98770002Y-90636000D01*
X98728000Y-90636000D01*
X98728000Y-90625500D01*
X98538500Y-90436000D01*
X97745000Y-90436000D01*
X97745000Y-90636000D01*
X97295000Y-90636000D01*
X97295000Y-90436000D01*
X97070000Y-90436000D01*
X97070000Y-90036000D01*
X97295000Y-90036000D01*
X97295000Y-89267500D01*
X97294500Y-89267000D01*
X97745500Y-89267000D01*
X97745000Y-89267500D01*
X97745000Y-90036000D01*
X98538500Y-90036000D01*
X98728000Y-89846500D01*
X98728000Y-89685225D01*
X98612602Y-89406628D01*
X98472974Y-89267000D01*
X98512002Y-89267000D01*
X98512002Y-89080972D01*
X98654602Y-88938372D01*
X98770000Y-88659775D01*
X98770000Y-88386000D01*
X98580500Y-88196500D01*
X97637000Y-88196500D01*
X97637000Y-88509000D01*
X96887000Y-88509000D01*
X96887000Y-88196500D01*
X96512000Y-88196500D01*
X96512000Y-87571500D01*
X96887000Y-87571500D01*
X96887000Y-87350000D01*
X97637000Y-87350000D01*
X97637000Y-87571500D01*
X97637000Y-87571500D01*
G37*
X97637000Y-87571500D02*
X98580500Y-87571500D01*
X98770000Y-87382000D01*
X98770000Y-87350000D01*
X99041852Y-87350000D01*
X99410307Y-87718455D01*
X99410307Y-88499875D01*
X99267391Y-88685280D01*
X99213192Y-88794577D01*
X99145411Y-88896018D01*
X99133705Y-88954868D01*
X99107048Y-89008624D01*
X99098800Y-89130347D01*
X99075000Y-89250000D01*
X99075000Y-90775000D01*
X99091741Y-90859165D01*
X99090751Y-90944978D01*
X99126607Y-91034449D01*
X99145411Y-91128982D01*
X99193088Y-91200336D01*
X99225012Y-91279994D01*
X99292376Y-91348931D01*
X99345926Y-91429074D01*
X99385307Y-91455388D01*
X99385307Y-91586000D01*
X99437604Y-91863933D01*
X99601862Y-92119198D01*
X99852492Y-92290446D01*
X100150000Y-92350693D01*
X100550000Y-92350693D01*
X100550000Y-93098307D01*
X99346000Y-93098307D01*
X99068067Y-93150604D01*
X98812802Y-93314862D01*
X98641554Y-93565492D01*
X98581307Y-93863000D01*
X98581307Y-95113000D01*
X98627055Y-95356127D01*
X98570740Y-95438548D01*
X98518138Y-95356802D01*
X98332434Y-95229916D01*
X98354693Y-95120000D01*
X98354693Y-93820000D01*
X98302396Y-93542067D01*
X98138138Y-93286802D01*
X98117773Y-93272887D01*
X98247933Y-93248396D01*
X98503198Y-93084138D01*
X98674446Y-92833508D01*
X98734693Y-92536000D01*
X98734693Y-91736000D01*
X98682396Y-91458067D01*
X98641170Y-91394000D01*
X98770002Y-91394000D01*
X98770002Y-90636000D01*
X98728000Y-90636000D01*
X98728000Y-90625500D01*
X98538500Y-90436000D01*
X97745000Y-90436000D01*
X97745000Y-90636000D01*
X97295000Y-90636000D01*
X97295000Y-90436000D01*
X97070000Y-90436000D01*
X97070000Y-90036000D01*
X97295000Y-90036000D01*
X97295000Y-89267500D01*
X97294500Y-89267000D01*
X97745500Y-89267000D01*
X97745000Y-89267500D01*
X97745000Y-90036000D01*
X98538500Y-90036000D01*
X98728000Y-89846500D01*
X98728000Y-89685225D01*
X98612602Y-89406628D01*
X98472974Y-89267000D01*
X98512002Y-89267000D01*
X98512002Y-89080972D01*
X98654602Y-88938372D01*
X98770000Y-88659775D01*
X98770000Y-88386000D01*
X98580500Y-88196500D01*
X97637000Y-88196500D01*
X97637000Y-88509000D01*
X96887000Y-88509000D01*
X96887000Y-88196500D01*
X96512000Y-88196500D01*
X96512000Y-87571500D01*
X96887000Y-87571500D01*
X96887000Y-87350000D01*
X97637000Y-87350000D01*
X97637000Y-87571500D01*
G36*
X91041307Y-90008000D02*
X91041307Y-91508000D01*
X91093604Y-91785933D01*
X91257862Y-92041198D01*
X91508492Y-92212446D01*
X91806000Y-92272693D01*
X93106000Y-92272693D01*
X93279849Y-92239981D01*
X93233019Y-92475411D01*
X93215000Y-92566000D01*
X93215000Y-93088236D01*
X93112067Y-93107604D01*
X92856802Y-93271862D01*
X92685554Y-93522492D01*
X92680996Y-93545000D01*
X92454000Y-93545000D01*
X92145786Y-93606307D01*
X91178000Y-93606307D01*
X90900067Y-93658604D01*
X90675429Y-93803154D01*
X90475508Y-93666554D01*
X90178000Y-93606307D01*
X90060693Y-93606307D01*
X90060693Y-92294000D01*
X90008396Y-92016067D01*
X89844138Y-91760802D01*
X89747452Y-91694740D01*
X89829198Y-91642138D01*
X90000446Y-91391508D01*
X90060693Y-91094000D01*
X90060693Y-90272455D01*
X90408148Y-89925000D01*
X91058115Y-89925000D01*
X91041307Y-90008000D01*
X91041307Y-90008000D01*
G37*
X91041307Y-90008000D02*
X91041307Y-91508000D01*
X91093604Y-91785933D01*
X91257862Y-92041198D01*
X91508492Y-92212446D01*
X91806000Y-92272693D01*
X93106000Y-92272693D01*
X93279849Y-92239981D01*
X93233019Y-92475411D01*
X93215000Y-92566000D01*
X93215000Y-93088236D01*
X93112067Y-93107604D01*
X92856802Y-93271862D01*
X92685554Y-93522492D01*
X92680996Y-93545000D01*
X92454000Y-93545000D01*
X92145786Y-93606307D01*
X91178000Y-93606307D01*
X90900067Y-93658604D01*
X90675429Y-93803154D01*
X90475508Y-93666554D01*
X90178000Y-93606307D01*
X90060693Y-93606307D01*
X90060693Y-92294000D01*
X90008396Y-92016067D01*
X89844138Y-91760802D01*
X89747452Y-91694740D01*
X89829198Y-91642138D01*
X90000446Y-91391508D01*
X90060693Y-91094000D01*
X90060693Y-90272455D01*
X90408148Y-89925000D01*
X91058115Y-89925000D01*
X91041307Y-90008000D01*
G36*
X80281307Y-86376000D02*
X80333604Y-86653933D01*
X80497862Y-86909198D01*
X80748492Y-87080446D01*
X81046000Y-87140693D01*
X83546000Y-87140693D01*
X83823933Y-87088396D01*
X84079198Y-86924138D01*
X84250446Y-86673508D01*
X84310693Y-86376000D01*
X84310693Y-86015000D01*
X85325052Y-86015000D01*
X85325604Y-86017933D01*
X85489862Y-86273198D01*
X85740492Y-86444446D01*
X85986712Y-86494307D01*
X85630000Y-86494307D01*
X85352067Y-86546604D01*
X85096802Y-86710862D01*
X84925554Y-86961492D01*
X84865307Y-87259000D01*
X84865307Y-88509000D01*
X84917604Y-88786933D01*
X85081862Y-89042198D01*
X85332492Y-89213446D01*
X85412254Y-89229598D01*
X84304000Y-90337852D01*
X84304000Y-90065500D01*
X84114500Y-89876000D01*
X82921000Y-89876000D01*
X82921000Y-90944500D01*
X83110500Y-91134000D01*
X83696775Y-91134000D01*
X83718121Y-91125158D01*
X83703928Y-91196511D01*
X83614802Y-91253862D01*
X83443554Y-91504492D01*
X83387385Y-91781861D01*
X83243508Y-91683554D01*
X82946000Y-91623307D01*
X81646000Y-91623307D01*
X81368067Y-91675604D01*
X81112802Y-91839862D01*
X80941554Y-92090492D01*
X80916745Y-92213000D01*
X80839948Y-92213000D01*
X80839396Y-92210067D01*
X80675138Y-91954802D01*
X80424508Y-91783554D01*
X80296148Y-91757560D01*
X80156074Y-91547926D01*
X79140074Y-90531926D01*
X78958637Y-90410693D01*
X79486000Y-90410693D01*
X79763933Y-90358396D01*
X80019198Y-90194138D01*
X80107092Y-90065500D01*
X80288000Y-90065500D01*
X80288000Y-90526776D01*
X80403399Y-90805373D01*
X80616628Y-91018602D01*
X80895225Y-91134000D01*
X81481500Y-91134000D01*
X81671000Y-90944500D01*
X81671000Y-89876000D01*
X80477500Y-89876000D01*
X80288000Y-90065500D01*
X80107092Y-90065500D01*
X80190446Y-89943508D01*
X80250693Y-89646000D01*
X80250693Y-88225224D01*
X80288000Y-88225224D01*
X80288000Y-88686500D01*
X80477500Y-88876000D01*
X81671000Y-88876000D01*
X81671000Y-87807500D01*
X82921000Y-87807500D01*
X82921000Y-88876000D01*
X84114500Y-88876000D01*
X84304000Y-88686500D01*
X84304000Y-88225224D01*
X84188601Y-87946627D01*
X83975372Y-87733398D01*
X83696775Y-87618000D01*
X83110500Y-87618000D01*
X82921000Y-87807500D01*
X81671000Y-87807500D01*
X81481500Y-87618000D01*
X80895225Y-87618000D01*
X80616628Y-87733398D01*
X80403399Y-87946627D01*
X80288000Y-88225224D01*
X80250693Y-88225224D01*
X80250693Y-87646000D01*
X80198396Y-87368067D01*
X80034138Y-87112802D01*
X79783508Y-86941554D01*
X79486000Y-86881307D01*
X77486000Y-86881307D01*
X77302064Y-86915917D01*
X77163554Y-86777407D01*
X77188492Y-86794446D01*
X77486000Y-86854693D01*
X79486000Y-86854693D01*
X79763933Y-86802396D01*
X80019198Y-86638138D01*
X80190446Y-86387508D01*
X80250693Y-86090000D01*
X80250693Y-86015000D01*
X80281307Y-86015000D01*
X80281307Y-86376000D01*
X80281307Y-86376000D01*
G37*
X80281307Y-86376000D02*
X80333604Y-86653933D01*
X80497862Y-86909198D01*
X80748492Y-87080446D01*
X81046000Y-87140693D01*
X83546000Y-87140693D01*
X83823933Y-87088396D01*
X84079198Y-86924138D01*
X84250446Y-86673508D01*
X84310693Y-86376000D01*
X84310693Y-86015000D01*
X85325052Y-86015000D01*
X85325604Y-86017933D01*
X85489862Y-86273198D01*
X85740492Y-86444446D01*
X85986712Y-86494307D01*
X85630000Y-86494307D01*
X85352067Y-86546604D01*
X85096802Y-86710862D01*
X84925554Y-86961492D01*
X84865307Y-87259000D01*
X84865307Y-88509000D01*
X84917604Y-88786933D01*
X85081862Y-89042198D01*
X85332492Y-89213446D01*
X85412254Y-89229598D01*
X84304000Y-90337852D01*
X84304000Y-90065500D01*
X84114500Y-89876000D01*
X82921000Y-89876000D01*
X82921000Y-90944500D01*
X83110500Y-91134000D01*
X83696775Y-91134000D01*
X83718121Y-91125158D01*
X83703928Y-91196511D01*
X83614802Y-91253862D01*
X83443554Y-91504492D01*
X83387385Y-91781861D01*
X83243508Y-91683554D01*
X82946000Y-91623307D01*
X81646000Y-91623307D01*
X81368067Y-91675604D01*
X81112802Y-91839862D01*
X80941554Y-92090492D01*
X80916745Y-92213000D01*
X80839948Y-92213000D01*
X80839396Y-92210067D01*
X80675138Y-91954802D01*
X80424508Y-91783554D01*
X80296148Y-91757560D01*
X80156074Y-91547926D01*
X79140074Y-90531926D01*
X78958637Y-90410693D01*
X79486000Y-90410693D01*
X79763933Y-90358396D01*
X80019198Y-90194138D01*
X80107092Y-90065500D01*
X80288000Y-90065500D01*
X80288000Y-90526776D01*
X80403399Y-90805373D01*
X80616628Y-91018602D01*
X80895225Y-91134000D01*
X81481500Y-91134000D01*
X81671000Y-90944500D01*
X81671000Y-89876000D01*
X80477500Y-89876000D01*
X80288000Y-90065500D01*
X80107092Y-90065500D01*
X80190446Y-89943508D01*
X80250693Y-89646000D01*
X80250693Y-88225224D01*
X80288000Y-88225224D01*
X80288000Y-88686500D01*
X80477500Y-88876000D01*
X81671000Y-88876000D01*
X81671000Y-87807500D01*
X82921000Y-87807500D01*
X82921000Y-88876000D01*
X84114500Y-88876000D01*
X84304000Y-88686500D01*
X84304000Y-88225224D01*
X84188601Y-87946627D01*
X83975372Y-87733398D01*
X83696775Y-87618000D01*
X83110500Y-87618000D01*
X82921000Y-87807500D01*
X81671000Y-87807500D01*
X81481500Y-87618000D01*
X80895225Y-87618000D01*
X80616628Y-87733398D01*
X80403399Y-87946627D01*
X80288000Y-88225224D01*
X80250693Y-88225224D01*
X80250693Y-87646000D01*
X80198396Y-87368067D01*
X80034138Y-87112802D01*
X79783508Y-86941554D01*
X79486000Y-86881307D01*
X77486000Y-86881307D01*
X77302064Y-86915917D01*
X77163554Y-86777407D01*
X77188492Y-86794446D01*
X77486000Y-86854693D01*
X79486000Y-86854693D01*
X79763933Y-86802396D01*
X80019198Y-86638138D01*
X80190446Y-86387508D01*
X80250693Y-86090000D01*
X80250693Y-86015000D01*
X80281307Y-86015000D01*
X80281307Y-86376000D01*
G36*
X103800000Y-87612500D02*
X104175000Y-87612500D01*
X104175000Y-88237500D01*
X103800000Y-88237500D01*
X103800000Y-88550000D01*
X103050000Y-88550000D01*
X103050000Y-88237500D01*
X102675000Y-88237500D01*
X102675000Y-87670747D01*
X102744896Y-87612500D01*
X103050000Y-87612500D01*
X103050000Y-87475000D01*
X103800000Y-87475000D01*
X103800000Y-87612500D01*
X103800000Y-87612500D01*
G37*
X103800000Y-87612500D02*
X104175000Y-87612500D01*
X104175000Y-88237500D01*
X103800000Y-88237500D01*
X103800000Y-88550000D01*
X103050000Y-88550000D01*
X103050000Y-88237500D01*
X102675000Y-88237500D01*
X102675000Y-87670747D01*
X102744896Y-87612500D01*
X103050000Y-87612500D01*
X103050000Y-87475000D01*
X103800000Y-87475000D01*
X103800000Y-87612500D01*
G36*
X90823862Y-86273198D02*
X91074492Y-86444446D01*
X91372000Y-86504693D01*
X92872000Y-86504693D01*
X93149933Y-86452396D01*
X93324599Y-86340002D01*
X93571998Y-86340002D01*
X93571998Y-86498000D01*
X93992374Y-86498000D01*
X93734067Y-86546604D01*
X93520906Y-86683769D01*
X93403508Y-86603554D01*
X93106000Y-86543307D01*
X91806000Y-86543307D01*
X91528067Y-86595604D01*
X91272802Y-86759862D01*
X91101554Y-87010492D01*
X91041307Y-87308000D01*
X91041307Y-88075000D01*
X90025000Y-88075000D01*
X89671017Y-88145411D01*
X89594557Y-88196500D01*
X89255000Y-88196500D01*
X89255000Y-88461852D01*
X89207852Y-88509000D01*
X88505000Y-88509000D01*
X88505000Y-88196500D01*
X88130000Y-88196500D01*
X88130000Y-87571500D01*
X88505000Y-87571500D01*
X88505000Y-87259000D01*
X89255000Y-87259000D01*
X89255000Y-87571500D01*
X90198500Y-87571500D01*
X90388000Y-87382000D01*
X90388000Y-87108225D01*
X90272602Y-86829628D01*
X90130002Y-86687028D01*
X90130002Y-86504693D01*
X90238000Y-86504693D01*
X90515933Y-86452396D01*
X90771198Y-86288138D01*
X90803271Y-86241198D01*
X90823862Y-86273198D01*
X90823862Y-86273198D01*
G37*
X90823862Y-86273198D02*
X91074492Y-86444446D01*
X91372000Y-86504693D01*
X92872000Y-86504693D01*
X93149933Y-86452396D01*
X93324599Y-86340002D01*
X93571998Y-86340002D01*
X93571998Y-86498000D01*
X93992374Y-86498000D01*
X93734067Y-86546604D01*
X93520906Y-86683769D01*
X93403508Y-86603554D01*
X93106000Y-86543307D01*
X91806000Y-86543307D01*
X91528067Y-86595604D01*
X91272802Y-86759862D01*
X91101554Y-87010492D01*
X91041307Y-87308000D01*
X91041307Y-88075000D01*
X90025000Y-88075000D01*
X89671017Y-88145411D01*
X89594557Y-88196500D01*
X89255000Y-88196500D01*
X89255000Y-88461852D01*
X89207852Y-88509000D01*
X88505000Y-88509000D01*
X88505000Y-88196500D01*
X88130000Y-88196500D01*
X88130000Y-87571500D01*
X88505000Y-87571500D01*
X88505000Y-87259000D01*
X89255000Y-87259000D01*
X89255000Y-87571500D01*
X90198500Y-87571500D01*
X90388000Y-87382000D01*
X90388000Y-87108225D01*
X90272602Y-86829628D01*
X90130002Y-86687028D01*
X90130002Y-86504693D01*
X90238000Y-86504693D01*
X90515933Y-86452396D01*
X90771198Y-86288138D01*
X90803271Y-86241198D01*
X90823862Y-86273198D01*
G36*
X111750000Y-85364000D02*
X111271998Y-85364000D01*
X111271998Y-85405101D01*
X111092627Y-85479399D01*
X110879398Y-85692628D01*
X110805101Y-85871998D01*
X110764000Y-85871998D01*
X110764000Y-86303500D01*
X110740000Y-86327500D01*
X110740000Y-87146000D01*
X110764000Y-87146000D01*
X110764000Y-87646000D01*
X110740000Y-87646000D01*
X110740000Y-87896000D01*
X110240000Y-87896000D01*
X110240000Y-87646000D01*
X109933000Y-87646000D01*
X109933000Y-87146000D01*
X110240000Y-87146000D01*
X110240000Y-86327500D01*
X110050500Y-86138000D01*
X109839225Y-86138000D01*
X109560628Y-86253398D01*
X109482223Y-86331803D01*
X109325776Y-86267000D01*
X108989500Y-86267000D01*
X108800000Y-86456500D01*
X108800000Y-87350000D01*
X109175000Y-87350000D01*
X109175000Y-88000000D01*
X108800000Y-88000000D01*
X108800000Y-88325000D01*
X108050000Y-88325000D01*
X108050000Y-86456500D01*
X107860500Y-86267000D01*
X107750148Y-86267000D01*
X107583148Y-86100000D01*
X109508773Y-86100000D01*
X110178469Y-85966789D01*
X110746210Y-85587437D01*
X111125562Y-85019696D01*
X111258773Y-84350000D01*
X111125562Y-83680304D01*
X110746210Y-83112563D01*
X110315841Y-82825000D01*
X111750000Y-82825000D01*
X111750000Y-85364000D01*
X111750000Y-85364000D01*
G37*
X111750000Y-85364000D02*
X111271998Y-85364000D01*
X111271998Y-85405101D01*
X111092627Y-85479399D01*
X110879398Y-85692628D01*
X110805101Y-85871998D01*
X110764000Y-85871998D01*
X110764000Y-86303500D01*
X110740000Y-86327500D01*
X110740000Y-87146000D01*
X110764000Y-87146000D01*
X110764000Y-87646000D01*
X110740000Y-87646000D01*
X110740000Y-87896000D01*
X110240000Y-87896000D01*
X110240000Y-87646000D01*
X109933000Y-87646000D01*
X109933000Y-87146000D01*
X110240000Y-87146000D01*
X110240000Y-86327500D01*
X110050500Y-86138000D01*
X109839225Y-86138000D01*
X109560628Y-86253398D01*
X109482223Y-86331803D01*
X109325776Y-86267000D01*
X108989500Y-86267000D01*
X108800000Y-86456500D01*
X108800000Y-87350000D01*
X109175000Y-87350000D01*
X109175000Y-88000000D01*
X108800000Y-88000000D01*
X108800000Y-88325000D01*
X108050000Y-88325000D01*
X108050000Y-86456500D01*
X107860500Y-86267000D01*
X107750148Y-86267000D01*
X107583148Y-86100000D01*
X109508773Y-86100000D01*
X110178469Y-85966789D01*
X110746210Y-85587437D01*
X111125562Y-85019696D01*
X111258773Y-84350000D01*
X111125562Y-83680304D01*
X110746210Y-83112563D01*
X110315841Y-82825000D01*
X111750000Y-82825000D01*
X111750000Y-85364000D01*
G36*
X105653790Y-83112563D02*
X105274438Y-83680304D01*
X105145027Y-84330895D01*
X105025562Y-83730304D01*
X104646210Y-83162563D01*
X104141011Y-82825000D01*
X106084159Y-82825000D01*
X105653790Y-83112563D01*
X105653790Y-83112563D01*
G37*
X105653790Y-83112563D02*
X105274438Y-83680304D01*
X105145027Y-84330895D01*
X105025562Y-83730304D01*
X104646210Y-83162563D01*
X104141011Y-82825000D01*
X106084159Y-82825000D01*
X105653790Y-83112563D01*
M02*
