G04 #@! TF.FileFunction,Copper,L1,Top,Signal*
%FSLAX46Y46*%
G04 Gerber Fmt 4.6, Leading zero omitted, Abs format (unit mm)*
G04 Created by KiCad (PCBNEW 4.0.7) date 04/19/20 17:36:26*
%MOMM*%
%LPD*%
G01*
G04 APERTURE LIST*
%ADD10C,0.100000*%
%ADD11C,3.000000*%
%ADD12R,1.500000X1.250000*%
%ADD13R,1.250000X1.500000*%
%ADD14R,1.000000X1.000000*%
%ADD15R,1.300000X1.500000*%
%ADD16R,0.900000X0.800000*%
%ADD17R,0.800000X0.900000*%
%ADD18R,1.500000X1.300000*%
%ADD19C,2.500000*%
%ADD20R,0.600000X0.450000*%
%ADD21R,2.500000X2.000000*%
%ADD22C,1.500000*%
%ADD23R,3.000000X3.000000*%
%ADD24R,2.000000X2.500000*%
%ADD25C,0.600000*%
%ADD26C,0.350000*%
%ADD27C,0.500000*%
G04 APERTURE END LIST*
D10*
D11*
X56896000Y-93472000D03*
X56896000Y-89662000D03*
X56896000Y-85852000D03*
X52070000Y-93472000D03*
X52070000Y-89662000D03*
X52070000Y-85852000D03*
D12*
X105775000Y-89775000D03*
X108275000Y-89775000D03*
X100096000Y-94488000D03*
X102596000Y-94488000D03*
X91210000Y-96590000D03*
X93710000Y-96590000D03*
X82276000Y-95758000D03*
X79776000Y-95758000D03*
D13*
X68072000Y-93238000D03*
X68072000Y-95738000D03*
D12*
X88880000Y-87884000D03*
X86380000Y-87884000D03*
X58440000Y-101600000D03*
X60940000Y-101600000D03*
D14*
X110490000Y-92182000D03*
X110490000Y-89682000D03*
X110490000Y-97770000D03*
X110490000Y-95270000D03*
D15*
X65350000Y-87530000D03*
X65350000Y-90230000D03*
D14*
X74442000Y-96012000D03*
X76942000Y-96012000D03*
D16*
X102092000Y-92136000D03*
X102092000Y-90236000D03*
X100092000Y-91186000D03*
X95800000Y-92290000D03*
X95800000Y-90390000D03*
X93800000Y-91340000D03*
X86598000Y-93152000D03*
X86598000Y-91252000D03*
X84598000Y-92202000D03*
D17*
X62740000Y-88180000D03*
X60840000Y-88180000D03*
X61790000Y-90180000D03*
D16*
X52086000Y-107254000D03*
X52086000Y-109154000D03*
X54086000Y-108204000D03*
D18*
X108375000Y-92275000D03*
X105675000Y-92275000D03*
X105584000Y-94488000D03*
X108284000Y-94488000D03*
X105725000Y-87675000D03*
X108425000Y-87675000D03*
X94140000Y-94470000D03*
X96840000Y-94470000D03*
X97220000Y-96540000D03*
X99920000Y-96540000D03*
D15*
X91440000Y-88058000D03*
X91440000Y-90758000D03*
X88646000Y-90344000D03*
X88646000Y-93044000D03*
D18*
X85010000Y-95504000D03*
X87710000Y-95504000D03*
X79930000Y-87376000D03*
X82630000Y-87376000D03*
D15*
X82550000Y-93552000D03*
X82550000Y-90852000D03*
X71882000Y-100918000D03*
X71882000Y-98218000D03*
X68072000Y-87042000D03*
X68072000Y-89742000D03*
X65250000Y-95940000D03*
X65250000Y-93240000D03*
D18*
X61040000Y-103632000D03*
X58340000Y-103632000D03*
D15*
X57150000Y-107108000D03*
X57150000Y-109808000D03*
D19*
X76668000Y-90130000D03*
X71628000Y-92630000D03*
X71628000Y-87630000D03*
X138938000Y-98044000D03*
X44750000Y-84600000D03*
D12*
X64242000Y-105664000D03*
X61742000Y-105664000D03*
D18*
X49704000Y-97028000D03*
X52404000Y-97028000D03*
X52404000Y-99314000D03*
X49704000Y-99314000D03*
D20*
X56422000Y-103632000D03*
X54322000Y-103632000D03*
X52866000Y-103632000D03*
X50766000Y-103632000D03*
D19*
X91694000Y-102870000D03*
X91694000Y-108204000D03*
D16*
X47514000Y-107508000D03*
X47514000Y-109408000D03*
X49514000Y-108458000D03*
D15*
X45466000Y-107108000D03*
X45466000Y-109808000D03*
D21*
X46228000Y-102330000D03*
X46228000Y-98330000D03*
D19*
X68072000Y-109728000D03*
X68072000Y-105156000D03*
D12*
X103425000Y-87925000D03*
X100925000Y-87925000D03*
X93746000Y-87884000D03*
X96246000Y-87884000D03*
D13*
X80010000Y-90952000D03*
X80010000Y-93452000D03*
D22*
X80910000Y-101110000D03*
X83450000Y-101110000D03*
D23*
X78624000Y-103838000D03*
D11*
X83704000Y-103838000D03*
D13*
X62540000Y-93400000D03*
X62540000Y-95900000D03*
D24*
X59976000Y-109728000D03*
X63976000Y-109728000D03*
D25*
X74676000Y-83820000D03*
X74676000Y-85598000D03*
X75692000Y-86360000D03*
X75438000Y-87884000D03*
X73152000Y-89408000D03*
X74676000Y-92456000D03*
X75438000Y-93472000D03*
X75692000Y-95250000D03*
X75692000Y-96774000D03*
X75946000Y-97790000D03*
X83820000Y-90678000D03*
X82980000Y-83480000D03*
X83010000Y-85470000D03*
X84040000Y-86390000D03*
X84040000Y-89350000D03*
X87884000Y-97028000D03*
X88290000Y-98130000D03*
X89870000Y-84600000D03*
X90040000Y-85770000D03*
X90110000Y-87460000D03*
X90170000Y-91694000D03*
X90170000Y-90424000D03*
X90170000Y-89154000D03*
X91320000Y-93000000D03*
X91070000Y-94240000D03*
X91320000Y-95160000D03*
X92330000Y-97820000D03*
X98040000Y-83300000D03*
X98020000Y-84520000D03*
X98070000Y-85800000D03*
X98300000Y-87290000D03*
X97790000Y-92010000D03*
X98410000Y-92680000D03*
X98550000Y-94570000D03*
X98410000Y-97660000D03*
X98800000Y-98530000D03*
X110030000Y-100430000D03*
X108470000Y-99020000D03*
X106570000Y-99140000D03*
X103970000Y-99100000D03*
X102150000Y-99250000D03*
X100240000Y-99360000D03*
X97990000Y-99330000D03*
X96320000Y-99250000D03*
X94770000Y-99240000D03*
X92760000Y-99190000D03*
X90830000Y-99270000D03*
X88650000Y-99100000D03*
X86450000Y-99130000D03*
X84880000Y-99020000D03*
X83580000Y-99040000D03*
X81400000Y-98960000D03*
X80140000Y-98920000D03*
X78700000Y-98880000D03*
X76930000Y-98980000D03*
X75490000Y-98940000D03*
X73480000Y-98990000D03*
X69260000Y-98880000D03*
X67670000Y-98800000D03*
X66330000Y-98660000D03*
X64760000Y-98540000D03*
X62590000Y-98350000D03*
X60690000Y-98320000D03*
X58840000Y-98290000D03*
X57190000Y-98100000D03*
X55990000Y-97040000D03*
X55040000Y-95860000D03*
X53340000Y-95690000D03*
X52280000Y-95740000D03*
X50900000Y-95500000D03*
X49550000Y-95510000D03*
X46520000Y-95060000D03*
X44730000Y-95630000D03*
X42580000Y-86500000D03*
X42690000Y-87960000D03*
X42920000Y-90640000D03*
X42970000Y-93040000D03*
X42920000Y-95550000D03*
X43140000Y-98010000D03*
X42920000Y-100080000D03*
X42470000Y-102880000D03*
X42470000Y-105220000D03*
X42790000Y-108070000D03*
X42850000Y-110030000D03*
X42940000Y-111980000D03*
X44460000Y-113500000D03*
X46100000Y-113650000D03*
X48230000Y-113500000D03*
X50670000Y-113840000D03*
X52770000Y-113920000D03*
X55250000Y-113840000D03*
X57110000Y-113920000D03*
X59780000Y-113880000D03*
X62180000Y-113920000D03*
X64390000Y-113880000D03*
X67280000Y-113920000D03*
X68200000Y-112930000D03*
X69380000Y-113960000D03*
X71170000Y-114110000D03*
X72770000Y-114340000D03*
X74870000Y-114220000D03*
X76920000Y-114340000D03*
X79210000Y-114340000D03*
X81150000Y-114410000D03*
X83480000Y-114330000D03*
X86810000Y-114270000D03*
X89520000Y-114050000D03*
X92320000Y-113580000D03*
X112460000Y-99860000D03*
X112320000Y-101730000D03*
X112370000Y-103320000D03*
X112400000Y-104890000D03*
X112400000Y-106720000D03*
X112320000Y-108590000D03*
X112280000Y-110760000D03*
X112360000Y-112240000D03*
X111900000Y-113650000D03*
X109580000Y-113690000D03*
X106220000Y-113390000D03*
X103630000Y-113390000D03*
X101270000Y-113230000D03*
X98830000Y-113580000D03*
X96770000Y-113580000D03*
X94640000Y-113690000D03*
X111750000Y-99060000D03*
X113500000Y-99520000D03*
X115370000Y-99560000D03*
X117460000Y-99560000D03*
X119250000Y-99710000D03*
X120970000Y-99520000D03*
X123290000Y-99630000D03*
X125810000Y-99520000D03*
X127750000Y-99330000D03*
X129500000Y-99290000D03*
X131710000Y-99360000D03*
X133620000Y-99480000D03*
X135710000Y-99590000D03*
X135790000Y-96350000D03*
X133650000Y-96430000D03*
X131290000Y-96470000D03*
X129390000Y-96700000D03*
X128050000Y-96580000D03*
X126340000Y-96500000D03*
X124560000Y-96530000D03*
X122770000Y-96450000D03*
X120980000Y-96370000D03*
X119160000Y-96340000D03*
X117210000Y-96390000D03*
X115230000Y-96340000D03*
X113630000Y-96380000D03*
X113000000Y-95540000D03*
X112880000Y-94350000D03*
X112530000Y-92780000D03*
X112370000Y-91400000D03*
X70800000Y-82260000D03*
X67950000Y-82260000D03*
X64820000Y-82530000D03*
X62140000Y-82420000D03*
X59280000Y-82330000D03*
X56430000Y-82410000D03*
X53760000Y-82220000D03*
X50660000Y-81980000D03*
X48620000Y-82120000D03*
X46800000Y-82050000D03*
X44830000Y-82030000D03*
X42560000Y-82520000D03*
X73760000Y-82310000D03*
X80720000Y-82500000D03*
X84460000Y-82320000D03*
X77520000Y-82410000D03*
X87570000Y-82410000D03*
X90860000Y-82410000D03*
X94060000Y-82540000D03*
X96340000Y-82360000D03*
X97980000Y-82360000D03*
X112320000Y-90250000D03*
X112460000Y-89040000D03*
X112320000Y-86750000D03*
X112510000Y-85080000D03*
X112710000Y-83230000D03*
X111620000Y-82870000D03*
X108740000Y-82530000D03*
X106480000Y-82310000D03*
X104610000Y-82280000D03*
X102960000Y-82240000D03*
X100600000Y-82130000D03*
X49770000Y-109580000D03*
X49930000Y-107010000D03*
X97670000Y-88010000D03*
X97600000Y-89080000D03*
X97160000Y-90310000D03*
X97160000Y-91330000D03*
X101820000Y-89040000D03*
X102930000Y-88960000D03*
X60860000Y-93330000D03*
X60290000Y-92440000D03*
X60310000Y-90950000D03*
X60270000Y-89730000D03*
X103886000Y-90932000D03*
X87884000Y-88900000D03*
X81280000Y-90932000D03*
X89408000Y-94996000D03*
D26*
X76930000Y-98980000D02*
X76930000Y-98774000D01*
X73760000Y-82904000D02*
X73760000Y-82310000D01*
X74676000Y-83820000D02*
X73760000Y-82904000D01*
X74930000Y-85598000D02*
X74676000Y-85598000D01*
X75692000Y-86360000D02*
X74930000Y-85598000D01*
X74676000Y-87884000D02*
X75438000Y-87884000D01*
X73152000Y-89408000D02*
X74676000Y-87884000D01*
X74676000Y-92710000D02*
X74676000Y-92456000D01*
X75438000Y-93472000D02*
X74676000Y-92710000D01*
X75692000Y-96774000D02*
X75692000Y-95250000D01*
X76930000Y-98774000D02*
X75946000Y-97790000D01*
X83820000Y-90678000D02*
X83820000Y-89570000D01*
X83646000Y-90852000D02*
X83820000Y-90678000D01*
X82550000Y-90852000D02*
X83646000Y-90852000D01*
X84140000Y-82320000D02*
X84460000Y-82320000D01*
X82980000Y-83480000D02*
X84140000Y-82320000D01*
X83120000Y-85470000D02*
X83010000Y-85470000D01*
X84040000Y-86390000D02*
X83120000Y-85470000D01*
X83820000Y-89570000D02*
X84040000Y-89350000D01*
X87710000Y-96854000D02*
X87884000Y-97028000D01*
X87710000Y-96854000D02*
X87710000Y-95504000D01*
X87884000Y-97724000D02*
X87884000Y-97028000D01*
X88290000Y-98130000D02*
X87884000Y-97724000D01*
X88880000Y-87884000D02*
X89686000Y-87884000D01*
X89870000Y-85600000D02*
X89870000Y-84600000D01*
X90040000Y-85770000D02*
X89870000Y-85600000D01*
X89686000Y-87884000D02*
X90110000Y-87460000D01*
X92760000Y-99190000D02*
X92760000Y-98250000D01*
X90170000Y-90424000D02*
X90170000Y-91694000D01*
X90170000Y-89154000D02*
X89154000Y-87884000D01*
X90170000Y-91850000D02*
X90170000Y-91694000D01*
X91320000Y-93000000D02*
X90170000Y-91850000D01*
X91070000Y-94910000D02*
X91070000Y-94240000D01*
X91320000Y-95160000D02*
X91070000Y-94910000D01*
X92760000Y-98250000D02*
X92330000Y-97820000D01*
X97670000Y-88010000D02*
X97670000Y-87920000D01*
X97980000Y-83240000D02*
X97980000Y-82360000D01*
X98040000Y-83300000D02*
X97980000Y-83240000D01*
X98020000Y-85750000D02*
X98020000Y-84520000D01*
X98070000Y-85800000D02*
X98020000Y-85750000D01*
X97670000Y-87920000D02*
X98300000Y-87290000D01*
X97990000Y-99330000D02*
X98000000Y-99330000D01*
X97790000Y-92060000D02*
X97790000Y-92010000D01*
X98410000Y-92680000D02*
X97790000Y-92060000D01*
X98550000Y-97520000D02*
X98550000Y-94570000D01*
X98410000Y-97660000D02*
X98550000Y-97520000D01*
X98000000Y-99330000D02*
X98800000Y-98530000D01*
X52280000Y-95740000D02*
X53290000Y-95740000D01*
X110600000Y-99860000D02*
X112460000Y-99860000D01*
X110030000Y-100430000D02*
X110600000Y-99860000D01*
X106690000Y-99020000D02*
X108470000Y-99020000D01*
X106570000Y-99140000D02*
X106690000Y-99020000D01*
X102300000Y-99100000D02*
X103970000Y-99100000D01*
X102150000Y-99250000D02*
X102300000Y-99100000D01*
X98020000Y-99360000D02*
X100240000Y-99360000D01*
X97990000Y-99330000D02*
X98020000Y-99360000D01*
X94780000Y-99250000D02*
X96320000Y-99250000D01*
X94770000Y-99240000D02*
X94780000Y-99250000D01*
X90910000Y-99190000D02*
X92760000Y-99190000D01*
X90830000Y-99270000D02*
X90910000Y-99190000D01*
X86480000Y-99100000D02*
X88650000Y-99100000D01*
X86450000Y-99130000D02*
X86480000Y-99100000D01*
X83600000Y-99020000D02*
X84880000Y-99020000D01*
X83580000Y-99040000D02*
X83600000Y-99020000D01*
X80180000Y-98960000D02*
X81400000Y-98960000D01*
X80140000Y-98920000D02*
X80180000Y-98960000D01*
X77030000Y-98880000D02*
X78700000Y-98880000D01*
X76930000Y-98980000D02*
X77030000Y-98880000D01*
X73530000Y-98940000D02*
X75490000Y-98940000D01*
X73480000Y-98990000D02*
X73530000Y-98940000D01*
X67750000Y-98880000D02*
X69260000Y-98880000D01*
X67670000Y-98800000D02*
X67750000Y-98880000D01*
X64880000Y-98660000D02*
X66330000Y-98660000D01*
X64760000Y-98540000D02*
X64880000Y-98660000D01*
X60720000Y-98350000D02*
X62590000Y-98350000D01*
X60690000Y-98320000D02*
X60720000Y-98350000D01*
X57380000Y-98290000D02*
X58840000Y-98290000D01*
X57190000Y-98100000D02*
X57380000Y-98290000D01*
X55990000Y-96810000D02*
X55990000Y-97040000D01*
X55040000Y-95860000D02*
X55990000Y-96810000D01*
X53290000Y-95740000D02*
X53340000Y-95690000D01*
X52404000Y-95864000D02*
X52280000Y-95740000D01*
X50900000Y-95500000D02*
X50890000Y-95510000D01*
X50890000Y-95510000D02*
X49550000Y-95510000D01*
X52404000Y-95864000D02*
X52404000Y-97028000D01*
X45300000Y-95060000D02*
X46520000Y-95060000D01*
X44730000Y-95630000D02*
X45300000Y-95060000D01*
X42940000Y-111980000D02*
X42940000Y-110120000D01*
X42580000Y-87850000D02*
X42580000Y-86500000D01*
X42690000Y-87960000D02*
X42580000Y-87850000D01*
X42920000Y-92990000D02*
X42920000Y-90640000D01*
X42970000Y-93040000D02*
X42920000Y-92990000D01*
X42920000Y-97790000D02*
X42920000Y-95550000D01*
X43140000Y-98010000D02*
X42920000Y-97790000D01*
X42920000Y-102430000D02*
X42920000Y-100080000D01*
X42470000Y-102880000D02*
X42920000Y-102430000D01*
X42470000Y-107750000D02*
X42470000Y-105220000D01*
X42790000Y-108070000D02*
X42470000Y-107750000D01*
X42940000Y-110120000D02*
X42850000Y-110030000D01*
X69380000Y-113960000D02*
X67320000Y-113960000D01*
X42940000Y-111980000D02*
X45112000Y-109808000D01*
X45950000Y-113500000D02*
X44460000Y-113500000D01*
X46100000Y-113650000D02*
X45950000Y-113500000D01*
X50330000Y-113500000D02*
X48230000Y-113500000D01*
X50670000Y-113840000D02*
X50330000Y-113500000D01*
X55170000Y-113920000D02*
X52770000Y-113920000D01*
X55250000Y-113840000D02*
X55170000Y-113920000D01*
X59740000Y-113920000D02*
X57110000Y-113920000D01*
X59780000Y-113880000D02*
X59740000Y-113920000D01*
X64350000Y-113920000D02*
X62180000Y-113920000D01*
X64390000Y-113880000D02*
X64350000Y-113920000D01*
X67320000Y-113960000D02*
X67280000Y-113920000D01*
X45112000Y-109808000D02*
X45466000Y-109808000D01*
X68072000Y-112802000D02*
X68072000Y-109728000D01*
X68200000Y-112930000D02*
X68072000Y-112802000D01*
X71020000Y-113960000D02*
X69380000Y-113960000D01*
X71170000Y-114110000D02*
X71020000Y-113960000D01*
X74750000Y-114340000D02*
X72770000Y-114340000D01*
X74870000Y-114220000D02*
X74750000Y-114340000D01*
X79210000Y-114340000D02*
X76920000Y-114340000D01*
X83400000Y-114410000D02*
X81150000Y-114410000D01*
X83480000Y-114330000D02*
X83400000Y-114410000D01*
X89300000Y-114270000D02*
X86810000Y-114270000D01*
X89520000Y-114050000D02*
X89300000Y-114270000D01*
X111750000Y-99060000D02*
X111750000Y-99150000D01*
X111750000Y-99150000D02*
X112460000Y-99860000D01*
X112320000Y-101730000D02*
X112370000Y-101780000D01*
X112370000Y-101780000D02*
X112370000Y-103320000D01*
X112400000Y-104890000D02*
X112400000Y-106720000D01*
X112320000Y-108590000D02*
X112280000Y-108630000D01*
X112280000Y-108630000D02*
X112280000Y-110760000D01*
X112360000Y-112240000D02*
X111900000Y-112700000D01*
X111900000Y-112700000D02*
X111900000Y-113650000D01*
X109580000Y-113690000D02*
X109280000Y-113390000D01*
X109280000Y-113390000D02*
X106220000Y-113390000D01*
X103630000Y-113390000D02*
X103470000Y-113230000D01*
X103470000Y-113230000D02*
X101270000Y-113230000D01*
X98830000Y-113580000D02*
X96770000Y-113580000D01*
X94640000Y-113690000D02*
X94530000Y-113580000D01*
X94530000Y-113580000D02*
X92320000Y-113580000D01*
X112320000Y-90250000D02*
X112320000Y-91350000D01*
X111750000Y-99060000D02*
X110490000Y-97800000D01*
X115330000Y-99520000D02*
X113500000Y-99520000D01*
X115370000Y-99560000D02*
X115330000Y-99520000D01*
X119100000Y-99560000D02*
X117460000Y-99560000D01*
X119250000Y-99710000D02*
X119100000Y-99560000D01*
X123180000Y-99520000D02*
X120970000Y-99520000D01*
X123290000Y-99630000D02*
X123180000Y-99520000D01*
X127560000Y-99520000D02*
X125810000Y-99520000D01*
X127750000Y-99330000D02*
X127560000Y-99520000D01*
X131640000Y-99290000D02*
X129500000Y-99290000D01*
X131710000Y-99360000D02*
X131640000Y-99290000D01*
X135600000Y-99480000D02*
X133620000Y-99480000D01*
X135710000Y-99590000D02*
X135600000Y-99480000D01*
X133730000Y-96350000D02*
X135790000Y-96350000D01*
X133650000Y-96430000D02*
X133730000Y-96350000D01*
X131100000Y-96660000D02*
X131290000Y-96470000D01*
X129430000Y-96660000D02*
X131100000Y-96660000D01*
X129390000Y-96700000D02*
X129430000Y-96660000D01*
X126420000Y-96580000D02*
X128050000Y-96580000D01*
X126340000Y-96500000D02*
X126420000Y-96580000D01*
X122850000Y-96530000D02*
X124560000Y-96530000D01*
X122770000Y-96450000D02*
X122850000Y-96530000D01*
X119190000Y-96370000D02*
X120980000Y-96370000D01*
X119160000Y-96340000D02*
X119190000Y-96370000D01*
X115280000Y-96390000D02*
X117210000Y-96390000D01*
X115230000Y-96340000D02*
X115280000Y-96390000D01*
X113630000Y-96170000D02*
X113630000Y-96380000D01*
X113000000Y-95540000D02*
X113630000Y-96170000D01*
X112880000Y-93130000D02*
X112880000Y-94350000D01*
X112530000Y-92780000D02*
X112880000Y-93130000D01*
X112320000Y-91350000D02*
X112370000Y-91400000D01*
X110490000Y-97800000D02*
X110490000Y-97770000D01*
X44750000Y-84600000D02*
X44640000Y-84600000D01*
X44640000Y-84600000D02*
X42560000Y-82520000D01*
X70850000Y-82310000D02*
X73760000Y-82310000D01*
X70800000Y-82260000D02*
X70850000Y-82310000D01*
X65090000Y-82260000D02*
X67950000Y-82260000D01*
X64820000Y-82530000D02*
X65090000Y-82260000D01*
X59370000Y-82420000D02*
X62140000Y-82420000D01*
X59280000Y-82330000D02*
X59370000Y-82420000D01*
X53950000Y-82410000D02*
X56430000Y-82410000D01*
X53760000Y-82220000D02*
X53950000Y-82410000D01*
X48760000Y-81980000D02*
X50660000Y-81980000D01*
X48620000Y-82120000D02*
X48760000Y-81980000D01*
X44850000Y-82050000D02*
X46800000Y-82050000D01*
X44830000Y-82030000D02*
X44850000Y-82050000D01*
X77610000Y-82500000D02*
X80720000Y-82500000D01*
X77520000Y-82410000D02*
X77610000Y-82500000D01*
X84460000Y-82320000D02*
X84550000Y-82410000D01*
X84550000Y-82410000D02*
X87570000Y-82410000D01*
X96340000Y-82360000D02*
X97980000Y-82360000D01*
X90860000Y-82410000D02*
X90990000Y-82540000D01*
X90990000Y-82540000D02*
X94060000Y-82540000D01*
X112040000Y-88620000D02*
X112460000Y-89040000D01*
X112040000Y-87030000D02*
X112040000Y-88620000D01*
X112320000Y-86750000D02*
X112040000Y-87030000D01*
X112510000Y-83430000D02*
X112510000Y-85080000D01*
X112710000Y-83230000D02*
X112510000Y-83430000D01*
X109080000Y-82870000D02*
X111620000Y-82870000D01*
X108740000Y-82530000D02*
X109080000Y-82870000D01*
X104640000Y-82310000D02*
X106480000Y-82310000D01*
X104610000Y-82280000D02*
X104640000Y-82310000D01*
X100710000Y-82240000D02*
X102960000Y-82240000D01*
X100600000Y-82130000D02*
X100710000Y-82240000D01*
X112320000Y-90250000D02*
X111752000Y-89682000D01*
X111752000Y-89682000D02*
X110490000Y-89682000D01*
X49514000Y-108458000D02*
X49514000Y-109324000D01*
X49514000Y-109324000D02*
X49770000Y-109580000D01*
X49514000Y-108458000D02*
X49514000Y-107426000D01*
X49514000Y-107426000D02*
X49930000Y-107010000D01*
X96246000Y-87884000D02*
X97544000Y-87884000D01*
X97544000Y-87884000D02*
X97670000Y-88010000D01*
X97600000Y-89080000D02*
X97160000Y-89520000D01*
X97160000Y-89520000D02*
X97160000Y-90310000D01*
X97160000Y-91330000D02*
X96220000Y-90390000D01*
X96220000Y-90390000D02*
X95800000Y-90390000D01*
X103425000Y-87925000D02*
X103425000Y-88465000D01*
X103425000Y-88465000D02*
X102930000Y-88960000D01*
X60840000Y-88180000D02*
X60840000Y-89160000D01*
X60930000Y-93400000D02*
X62540000Y-93400000D01*
X60860000Y-93330000D02*
X60930000Y-93400000D01*
X60290000Y-90970000D02*
X60290000Y-92440000D01*
X60310000Y-90950000D02*
X60290000Y-90970000D01*
X60840000Y-89160000D02*
X60270000Y-89730000D01*
X103425000Y-87925000D02*
X103425000Y-87931000D01*
X103425000Y-87931000D02*
X103886000Y-88392000D01*
X103886000Y-88392000D02*
X103886000Y-90932000D01*
X88880000Y-87884000D02*
X88880000Y-88920000D01*
X88860000Y-88900000D02*
X87884000Y-88900000D01*
X88880000Y-88920000D02*
X88860000Y-88900000D01*
X88880000Y-87884000D02*
X89154000Y-87884000D01*
X82550000Y-90852000D02*
X81360000Y-90852000D01*
X81360000Y-90852000D02*
X81280000Y-90932000D01*
X87710000Y-95504000D02*
X88900000Y-95504000D01*
X88900000Y-95504000D02*
X89408000Y-94996000D01*
X96246000Y-87884000D02*
X96246000Y-89944000D01*
X96246000Y-89944000D02*
X95800000Y-90390000D01*
X102092000Y-92136000D02*
X105650000Y-92250000D01*
X105650000Y-92250000D02*
X105675000Y-92275000D01*
X105775000Y-89775000D02*
X105775000Y-92175000D01*
X105775000Y-92175000D02*
X105675000Y-92275000D01*
X105725000Y-87675000D02*
X105725000Y-89725000D01*
X105725000Y-89725000D02*
X105775000Y-89775000D01*
X108275000Y-89775000D02*
X108275000Y-90075000D01*
X108275000Y-90075000D02*
X109100000Y-90900000D01*
X109100000Y-90900000D02*
X110225000Y-90900000D01*
X110225000Y-90900000D02*
X110490000Y-91165000D01*
X110490000Y-91165000D02*
X110490000Y-92182000D01*
D27*
X110490000Y-93440000D02*
X110490000Y-95270000D01*
X138938000Y-98044000D02*
X112994000Y-98044000D01*
X110490000Y-93440000D02*
X110490000Y-92182000D01*
X110875000Y-93825000D02*
X110490000Y-93440000D01*
X111550000Y-93825000D02*
X110875000Y-93825000D01*
X111975000Y-94250000D02*
X111550000Y-93825000D01*
X111975000Y-97025000D02*
X111975000Y-94250000D01*
X112994000Y-98044000D02*
X111975000Y-97025000D01*
D26*
X100096000Y-94488000D02*
X100096000Y-96364000D01*
X100096000Y-96364000D02*
X99920000Y-96540000D01*
X100300000Y-96160000D02*
X99920000Y-96540000D01*
X102092000Y-90236000D02*
X101714000Y-90236000D01*
X101714000Y-90236000D02*
X101090000Y-90860000D01*
X101090000Y-92982000D02*
X102596000Y-94488000D01*
X101090000Y-90860000D02*
X101090000Y-92982000D01*
X102092000Y-90236000D02*
X102057000Y-90236000D01*
X102596000Y-94488000D02*
X105270000Y-94575000D01*
X105270000Y-94575000D02*
X105395000Y-94700000D01*
X102346000Y-94238000D02*
X102596000Y-94488000D01*
X91210000Y-96590000D02*
X91160000Y-96590000D01*
X91160000Y-96590000D02*
X90260000Y-95690000D01*
X90260000Y-95690000D02*
X90260000Y-94550000D01*
X90260000Y-94550000D02*
X88754000Y-93044000D01*
X88754000Y-93044000D02*
X88646000Y-93044000D01*
X86598000Y-93152000D02*
X86598000Y-93916000D01*
X86598000Y-93916000D02*
X85010000Y-95504000D01*
X86598000Y-93152000D02*
X88030000Y-93660000D01*
X88030000Y-93660000D02*
X88646000Y-93044000D01*
X86706000Y-93044000D02*
X86598000Y-93152000D01*
X94140000Y-94470000D02*
X94140000Y-96160000D01*
X94140000Y-96160000D02*
X93710000Y-96590000D01*
X91440000Y-90758000D02*
X93218000Y-90758000D01*
X93218000Y-90758000D02*
X93800000Y-91340000D01*
X93800000Y-91340000D02*
X93800000Y-93318000D01*
X93800000Y-93318000D02*
X94140000Y-94470000D01*
X80910000Y-101110000D02*
X80910000Y-101552000D01*
X80910000Y-101552000D02*
X78624000Y-103838000D01*
X82276000Y-95758000D02*
X82276000Y-99744000D01*
X82276000Y-99744000D02*
X80910000Y-101110000D01*
X86598000Y-91252000D02*
X86448000Y-91252000D01*
X86448000Y-91252000D02*
X85630000Y-92070000D01*
X85598000Y-93552000D02*
X82550000Y-93552000D01*
X85630000Y-93520000D02*
X85598000Y-93552000D01*
X85630000Y-92070000D02*
X85630000Y-93520000D01*
X80010000Y-93452000D02*
X80010000Y-95524000D01*
X80010000Y-95524000D02*
X79776000Y-95758000D01*
X82550000Y-93552000D02*
X80110000Y-93552000D01*
X80110000Y-93552000D02*
X80010000Y-93452000D01*
X86598000Y-91252000D02*
X86548000Y-91252000D01*
X80010000Y-90952000D02*
X79482000Y-90952000D01*
X80010000Y-90952000D02*
X80010000Y-89996000D01*
X80010000Y-89996000D02*
X82630000Y-87376000D01*
X71882000Y-98218000D02*
X71882000Y-96012000D01*
X72136000Y-96012000D02*
X71882000Y-96012000D01*
X71882000Y-96012000D02*
X68346000Y-96012000D01*
X68346000Y-96012000D02*
X68072000Y-95738000D01*
X71628000Y-92630000D02*
X71628000Y-96012000D01*
X74442000Y-96012000D02*
X72136000Y-96012000D01*
X72136000Y-96012000D02*
X71628000Y-96012000D01*
X76668000Y-90130000D02*
X74128000Y-90130000D01*
X74128000Y-90130000D02*
X71628000Y-92630000D01*
X50766000Y-103632000D02*
X50766000Y-103224000D01*
X55570000Y-102780000D02*
X56422000Y-103632000D01*
X51210000Y-102780000D02*
X55570000Y-102780000D01*
X50766000Y-103224000D02*
X51210000Y-102780000D01*
X56422000Y-103632000D02*
X56422000Y-103618000D01*
X56422000Y-103618000D02*
X58440000Y-101600000D01*
X60940000Y-101600000D02*
X71200000Y-101600000D01*
X71200000Y-101600000D02*
X71882000Y-100918000D01*
X65350000Y-87530000D02*
X65350000Y-88230000D01*
X65350000Y-88230000D02*
X63400000Y-90180000D01*
X63400000Y-90180000D02*
X61790000Y-90180000D01*
X65350000Y-90230000D02*
X65350000Y-93140000D01*
X65350000Y-93140000D02*
X65250000Y-93240000D01*
X62540000Y-95900000D02*
X65240000Y-95930000D01*
X65240000Y-95930000D02*
X65250000Y-95940000D01*
X58650000Y-87730000D02*
X58650000Y-87930000D01*
X60510000Y-95910000D02*
X62540000Y-95900000D01*
X59230000Y-94630000D02*
X60510000Y-95910000D01*
X59230000Y-88510000D02*
X59230000Y-94630000D01*
X58650000Y-87930000D02*
X59230000Y-88510000D01*
X55180000Y-87730000D02*
X50910000Y-87730000D01*
X49790000Y-91192000D02*
X52070000Y-93472000D01*
X49790000Y-88850000D02*
X49790000Y-91192000D01*
X50910000Y-87730000D02*
X49790000Y-88850000D01*
X86380000Y-87884000D02*
X86380000Y-86690000D01*
X58960000Y-87730000D02*
X58650000Y-87730000D01*
X58650000Y-87730000D02*
X55180000Y-87730000D01*
X61980000Y-84710000D02*
X58960000Y-87730000D01*
X84400000Y-84710000D02*
X61980000Y-84710000D01*
X86380000Y-86690000D02*
X84400000Y-84710000D01*
X49704000Y-99314000D02*
X49704000Y-100584000D01*
X49704000Y-100584000D02*
X49530000Y-100584000D01*
X46228000Y-98330000D02*
X46228000Y-96012000D01*
X46228000Y-96012000D02*
X52070000Y-93472000D01*
X61040000Y-103632000D02*
X60198000Y-103632000D01*
X46228000Y-99822000D02*
X46228000Y-98330000D01*
X46990000Y-100584000D02*
X46228000Y-99822000D01*
X55372000Y-100584000D02*
X49530000Y-100584000D01*
X49530000Y-100584000D02*
X46990000Y-100584000D01*
X55626000Y-100330000D02*
X55372000Y-100584000D01*
X59690000Y-100330000D02*
X55626000Y-100330000D01*
X59690000Y-103124000D02*
X59690000Y-100330000D01*
X60198000Y-103632000D02*
X59690000Y-103124000D01*
X59008000Y-105664000D02*
X61742000Y-105664000D01*
X54086000Y-108204000D02*
X54086000Y-106950000D01*
X59008000Y-105664000D02*
X61040000Y-103632000D01*
X55372000Y-105664000D02*
X59008000Y-105664000D01*
X54086000Y-106950000D02*
X55372000Y-105664000D01*
X88646000Y-90344000D02*
X88058000Y-90344000D01*
X88058000Y-90344000D02*
X86380000Y-88412000D01*
X86380000Y-88412000D02*
X86380000Y-87884000D01*
X84598000Y-92202000D02*
X84598000Y-91424000D01*
X86380000Y-89642000D02*
X86380000Y-87884000D01*
X84598000Y-91424000D02*
X86380000Y-89642000D01*
X88472000Y-90170000D02*
X88646000Y-90344000D01*
X86380000Y-87884000D02*
X86380000Y-87356000D01*
X86380000Y-87356000D02*
X87376000Y-86614000D01*
X92476000Y-86614000D02*
X93746000Y-87884000D01*
X87376000Y-86614000D02*
X92476000Y-86614000D01*
X93746000Y-87884000D02*
X91614000Y-87884000D01*
X91614000Y-87884000D02*
X91440000Y-88058000D01*
X100925000Y-87925000D02*
X100117000Y-87925000D01*
X95016000Y-86614000D02*
X93746000Y-87884000D01*
X98806000Y-86614000D02*
X95016000Y-86614000D01*
X100117000Y-87925000D02*
X98806000Y-86614000D01*
X100925000Y-87925000D02*
X100925000Y-88050000D01*
X100925000Y-88050000D02*
X100000000Y-89250000D01*
X100000000Y-90775000D02*
X100092000Y-91186000D01*
X100000000Y-89250000D02*
X100000000Y-90775000D01*
X108375000Y-92275000D02*
X107525000Y-92275000D01*
X102575000Y-86550000D02*
X100925000Y-87925000D01*
X104850000Y-86550000D02*
X102575000Y-86550000D01*
X105100000Y-86300000D02*
X104850000Y-86550000D01*
X106475000Y-86300000D02*
X105100000Y-86300000D01*
X107125000Y-86950000D02*
X106475000Y-86300000D01*
X107125000Y-91875000D02*
X107125000Y-86950000D01*
X107525000Y-92275000D02*
X107125000Y-91875000D01*
X49704000Y-97028000D02*
X50118000Y-97028000D01*
X50118000Y-97028000D02*
X52404000Y-99314000D01*
X54322000Y-104902000D02*
X57150000Y-104902000D01*
X57150000Y-104902000D02*
X58340000Y-103712000D01*
X58340000Y-103712000D02*
X58340000Y-103632000D01*
X54322000Y-103632000D02*
X54322000Y-104902000D01*
X54322000Y-104902000D02*
X54322000Y-105018000D01*
X54322000Y-105018000D02*
X52086000Y-107254000D01*
X52866000Y-103632000D02*
X52866000Y-104106000D01*
X49104000Y-105918000D02*
X47514000Y-107508000D01*
X51054000Y-105918000D02*
X49104000Y-105918000D01*
X52866000Y-104106000D02*
X51054000Y-105918000D01*
X47514000Y-107508000D02*
X45866000Y-107508000D01*
X45866000Y-107508000D02*
X45466000Y-107108000D01*
X86106000Y-110236000D02*
X86868000Y-110236000D01*
X88900000Y-102870000D02*
X91694000Y-102870000D01*
X88138000Y-103632000D02*
X88900000Y-102870000D01*
X88138000Y-108966000D02*
X88138000Y-103632000D01*
X86868000Y-110236000D02*
X88138000Y-108966000D01*
X52070000Y-89662000D02*
X52578000Y-89662000D01*
X52578000Y-89662000D02*
X54356000Y-91440000D01*
X54356000Y-91440000D02*
X54356000Y-96266000D01*
X54356000Y-96266000D02*
X56646000Y-99350000D01*
X56646000Y-99350000D02*
X66806000Y-99350000D01*
X66806000Y-99350000D02*
X67818000Y-99568000D01*
X67818000Y-99568000D02*
X72644000Y-99568000D01*
X72644000Y-99568000D02*
X73152000Y-100076000D01*
X73152000Y-100076000D02*
X73152000Y-108204000D01*
X73152000Y-108204000D02*
X75184000Y-110236000D01*
X75184000Y-110236000D02*
X86106000Y-110236000D01*
X52086000Y-109712000D02*
X52086000Y-109744000D01*
X52578000Y-110236000D02*
X56722000Y-110236000D01*
X52086000Y-109744000D02*
X52578000Y-110236000D01*
X56722000Y-110236000D02*
X57150000Y-109808000D01*
X52086000Y-109154000D02*
X52086000Y-109712000D01*
X48596000Y-110490000D02*
X47514000Y-109408000D01*
X51308000Y-110490000D02*
X48596000Y-110490000D01*
X52086000Y-109712000D02*
X51308000Y-110490000D01*
X96840000Y-94470000D02*
X96840000Y-93330000D01*
X96840000Y-93330000D02*
X95800000Y-92290000D01*
X96840000Y-94470000D02*
X96840000Y-96160000D01*
X96840000Y-96160000D02*
X97220000Y-96540000D01*
X97056000Y-94254000D02*
X96840000Y-94470000D01*
X68072000Y-87042000D02*
X71040000Y-87042000D01*
X71040000Y-87042000D02*
X71628000Y-87630000D01*
X62740000Y-88180000D02*
X62740000Y-87000000D01*
X67000000Y-85970000D02*
X68072000Y-87042000D01*
X63770000Y-85970000D02*
X67000000Y-85970000D01*
X62740000Y-87000000D02*
X63770000Y-85970000D01*
X57150000Y-107108000D02*
X57356000Y-107108000D01*
X57356000Y-107108000D02*
X59976000Y-109728000D01*
X57738000Y-107696000D02*
X57150000Y-107108000D01*
X68072000Y-105156000D02*
X68072000Y-105632000D01*
X68072000Y-105632000D02*
X63976000Y-109728000D01*
X68072000Y-105156000D02*
X67310000Y-105156000D01*
X76942000Y-96012000D02*
X76962000Y-96012000D01*
X76962000Y-96012000D02*
X78740000Y-94234000D01*
X78740000Y-94234000D02*
X78740000Y-88566000D01*
X78740000Y-88566000D02*
X79930000Y-87376000D01*
X79930000Y-87376000D02*
X79422000Y-87376000D01*
D27*
G36*
X113399151Y-82046259D02*
X113304000Y-82524613D01*
X113304000Y-83083387D01*
X113399151Y-83561741D01*
X113670117Y-83967270D01*
X114015888Y-84198307D01*
X113670117Y-84429344D01*
X113399151Y-84834873D01*
X113304000Y-85313227D01*
X113304000Y-88930773D01*
X113399151Y-89409127D01*
X113670117Y-89814656D01*
X114011858Y-90043000D01*
X113670117Y-90271344D01*
X113399151Y-90676873D01*
X113304000Y-91155227D01*
X113304000Y-94772773D01*
X113399151Y-95251127D01*
X113670117Y-95656656D01*
X114075646Y-95927622D01*
X114554000Y-96022773D01*
X115032354Y-95927622D01*
X115437883Y-95656656D01*
X115708849Y-95251127D01*
X115740004Y-95094502D01*
X115925344Y-95371883D01*
X116330873Y-95642849D01*
X116809227Y-95738000D01*
X120426773Y-95738000D01*
X120905127Y-95642849D01*
X121310656Y-95371883D01*
X121581622Y-94966354D01*
X121676773Y-94488000D01*
X121909227Y-94488000D01*
X122004378Y-94966354D01*
X122275344Y-95371883D01*
X122680873Y-95642849D01*
X123159227Y-95738000D01*
X126776773Y-95738000D01*
X127255127Y-95642849D01*
X127660656Y-95371883D01*
X127889000Y-95030142D01*
X128117344Y-95371883D01*
X128522873Y-95642849D01*
X129001227Y-95738000D01*
X132618773Y-95738000D01*
X133097127Y-95642849D01*
X133502656Y-95371883D01*
X133773622Y-94966354D01*
X133858000Y-94542159D01*
X133942378Y-94966354D01*
X134213344Y-95371883D01*
X134618873Y-95642849D01*
X135097227Y-95738000D01*
X138714773Y-95738000D01*
X139193127Y-95642849D01*
X139598656Y-95371883D01*
X139869622Y-94966354D01*
X139964773Y-94488000D01*
X139869622Y-94009646D01*
X139598656Y-93604117D01*
X139193127Y-93333151D01*
X138714773Y-93238000D01*
X135097227Y-93238000D01*
X134618873Y-93333151D01*
X134213344Y-93604117D01*
X133942378Y-94009646D01*
X133858000Y-94433841D01*
X133773622Y-94009646D01*
X133502656Y-93604117D01*
X133097127Y-93333151D01*
X132618773Y-93238000D01*
X129001227Y-93238000D01*
X128522873Y-93333151D01*
X128117344Y-93604117D01*
X127889000Y-93945858D01*
X127660656Y-93604117D01*
X127255127Y-93333151D01*
X126776773Y-93238000D01*
X123159227Y-93238000D01*
X122680873Y-93333151D01*
X122275344Y-93604117D01*
X122004378Y-94009646D01*
X121909227Y-94488000D01*
X121676773Y-94488000D01*
X121581622Y-94009646D01*
X121310656Y-93604117D01*
X120905127Y-93333151D01*
X120426773Y-93238000D01*
X116809227Y-93238000D01*
X116330873Y-93333151D01*
X115925344Y-93604117D01*
X115804000Y-93785721D01*
X115804000Y-91155227D01*
X115708849Y-90676873D01*
X115437883Y-90271344D01*
X115096142Y-90043000D01*
X115437883Y-89814656D01*
X115708849Y-89409127D01*
X115804000Y-88930773D01*
X115804000Y-85313227D01*
X115708849Y-84834873D01*
X115437883Y-84429344D01*
X115092112Y-84198307D01*
X115437883Y-83967270D01*
X115708849Y-83561741D01*
X115804000Y-83083387D01*
X115804000Y-82524613D01*
X115708849Y-82046259D01*
X115561008Y-81825000D01*
X140175000Y-81825000D01*
X140175000Y-96452262D01*
X140072388Y-96349471D01*
X139337570Y-96044348D01*
X138541921Y-96043654D01*
X137806571Y-96347494D01*
X137243471Y-96909612D01*
X137187668Y-97044000D01*
X113408214Y-97044000D01*
X112975000Y-96610786D01*
X112975000Y-94250000D01*
X112950350Y-94126074D01*
X112898880Y-93867316D01*
X112682107Y-93542893D01*
X112257107Y-93117893D01*
X111932684Y-92901120D01*
X111718930Y-92858602D01*
X111754693Y-92682000D01*
X111754693Y-91682000D01*
X111702396Y-91404067D01*
X111538138Y-91148802D01*
X111391904Y-91048885D01*
X111370245Y-90940000D01*
X111740002Y-90940000D01*
X111740002Y-90352085D01*
X111748000Y-90332776D01*
X111748000Y-90121500D01*
X111558500Y-89932000D01*
X110740000Y-89932000D01*
X110740000Y-90152999D01*
X110578983Y-90045411D01*
X110240000Y-89977984D01*
X110240000Y-89932000D01*
X109990000Y-89932000D01*
X109990000Y-89432000D01*
X110240000Y-89432000D01*
X110240000Y-88613500D01*
X110740000Y-88613500D01*
X110740000Y-89432000D01*
X111558500Y-89432000D01*
X111748000Y-89242500D01*
X111748000Y-89031224D01*
X111632601Y-88752627D01*
X111419372Y-88539398D01*
X111140775Y-88424000D01*
X110929500Y-88424000D01*
X110740000Y-88613500D01*
X110240000Y-88613500D01*
X110050500Y-88424000D01*
X109933000Y-88424000D01*
X109933000Y-88189500D01*
X109743500Y-88000000D01*
X108800000Y-88000000D01*
X108800000Y-88325000D01*
X108050000Y-88325000D01*
X108050000Y-86456500D01*
X108800000Y-86456500D01*
X108800000Y-87350000D01*
X109743500Y-87350000D01*
X109933000Y-87160500D01*
X109933000Y-86874225D01*
X109817602Y-86595628D01*
X109604373Y-86382399D01*
X109325776Y-86267000D01*
X108989500Y-86267000D01*
X108800000Y-86456500D01*
X108050000Y-86456500D01*
X107860500Y-86267000D01*
X107750148Y-86267000D01*
X107583148Y-86100000D01*
X109508773Y-86100000D01*
X110178469Y-85966789D01*
X110746210Y-85587437D01*
X111125562Y-85019696D01*
X111258773Y-84350000D01*
X111125562Y-83680304D01*
X110746210Y-83112563D01*
X110178469Y-82733211D01*
X109508773Y-82600000D01*
X106891227Y-82600000D01*
X106221531Y-82733211D01*
X105653790Y-83112563D01*
X105274438Y-83680304D01*
X105145027Y-84330895D01*
X105025562Y-83730304D01*
X104646210Y-83162563D01*
X104078469Y-82783211D01*
X103408773Y-82650000D01*
X100791227Y-82650000D01*
X100121531Y-82783211D01*
X99553790Y-83162563D01*
X99174438Y-83730304D01*
X99041227Y-84400000D01*
X99174438Y-85069696D01*
X99553790Y-85637437D01*
X100121531Y-86016789D01*
X100791227Y-86150000D01*
X101610104Y-86150000D01*
X101147735Y-86535307D01*
X100175000Y-86535307D01*
X100057554Y-86557406D01*
X99460074Y-85959926D01*
X99159983Y-85759411D01*
X98806000Y-85689000D01*
X95016000Y-85689000D01*
X94662017Y-85759411D01*
X94361926Y-85959926D01*
X93827545Y-86494307D01*
X93664455Y-86494307D01*
X93130074Y-85959926D01*
X92829983Y-85759411D01*
X92476000Y-85689000D01*
X87376000Y-85689000D01*
X87263684Y-85711341D01*
X87149319Y-85717205D01*
X87088295Y-85746228D01*
X87022018Y-85759411D01*
X86926799Y-85823034D01*
X86855223Y-85857075D01*
X85054074Y-84055926D01*
X84753983Y-83855411D01*
X84400000Y-83785000D01*
X61980000Y-83785000D01*
X61626017Y-83855411D01*
X61325926Y-84055926D01*
X59145665Y-86236187D01*
X59146390Y-85406411D01*
X58804569Y-84579142D01*
X58172187Y-83945655D01*
X57345516Y-83602392D01*
X56450411Y-83601610D01*
X55623142Y-83943431D01*
X54989655Y-84575813D01*
X54646392Y-85402484D01*
X54645610Y-86297589D01*
X54855268Y-86805000D01*
X54110544Y-86805000D01*
X54319608Y-86301516D01*
X54320390Y-85406411D01*
X53978569Y-84579142D01*
X53346187Y-83945655D01*
X52519516Y-83602392D01*
X51624411Y-83601610D01*
X50797142Y-83943431D01*
X50163655Y-84575813D01*
X49820392Y-85402484D01*
X49819610Y-86297589D01*
X50161431Y-87124858D01*
X50184193Y-87147659D01*
X49135926Y-88195926D01*
X48935411Y-88496017D01*
X48894026Y-88704074D01*
X48865000Y-88850000D01*
X48865000Y-91192000D01*
X48935411Y-91545983D01*
X49135926Y-91846074D01*
X49964730Y-92674878D01*
X49820392Y-93022484D01*
X49820026Y-93441603D01*
X45859178Y-95163710D01*
X45717400Y-95262060D01*
X45573926Y-95357926D01*
X45569368Y-95364748D01*
X45562627Y-95369424D01*
X45469284Y-95514534D01*
X45373411Y-95658018D01*
X45371810Y-95666065D01*
X45367372Y-95672965D01*
X45336662Y-95842768D01*
X45303000Y-96012000D01*
X45303000Y-96565307D01*
X44978000Y-96565307D01*
X44700067Y-96617604D01*
X44444802Y-96781862D01*
X44273554Y-97032492D01*
X44213307Y-97330000D01*
X44213307Y-99330000D01*
X44265604Y-99607933D01*
X44429862Y-99863198D01*
X44680492Y-100034446D01*
X44978000Y-100094693D01*
X45357242Y-100094693D01*
X45373411Y-100175983D01*
X45573926Y-100476074D01*
X45669852Y-100572000D01*
X44827225Y-100572000D01*
X44548628Y-100687398D01*
X44335399Y-100900627D01*
X44220000Y-101179224D01*
X44220000Y-101640500D01*
X44409500Y-101830000D01*
X45603000Y-101830000D01*
X45603000Y-101330000D01*
X46473503Y-101330000D01*
X46636018Y-101438589D01*
X46853000Y-101481750D01*
X46853000Y-101830000D01*
X48046500Y-101830000D01*
X48236000Y-101640500D01*
X48236000Y-101509000D01*
X55372000Y-101509000D01*
X55725983Y-101438589D01*
X56000743Y-101255000D01*
X56925307Y-101255000D01*
X56925307Y-101806545D01*
X56415000Y-102316852D01*
X56224074Y-102125926D01*
X55923983Y-101925411D01*
X55570000Y-101855000D01*
X51210000Y-101855000D01*
X50856018Y-101925411D01*
X50555926Y-102125926D01*
X50111926Y-102569926D01*
X49911411Y-102870017D01*
X49905756Y-102898444D01*
X49761554Y-103109492D01*
X49701307Y-103407000D01*
X49701307Y-103857000D01*
X49753604Y-104134933D01*
X49917862Y-104390198D01*
X50168492Y-104561446D01*
X50466000Y-104621693D01*
X51042159Y-104621693D01*
X50670852Y-104993000D01*
X49104005Y-104993000D01*
X49104000Y-104992999D01*
X48750018Y-105063411D01*
X48449926Y-105263926D01*
X48449924Y-105263929D01*
X47370545Y-106343307D01*
X47064000Y-106343307D01*
X46880693Y-106377799D01*
X46880693Y-106358000D01*
X46828396Y-106080067D01*
X46664138Y-105824802D01*
X46413508Y-105653554D01*
X46116000Y-105593307D01*
X44816000Y-105593307D01*
X44538067Y-105645604D01*
X44282802Y-105809862D01*
X44111554Y-106060492D01*
X44051307Y-106358000D01*
X44051307Y-107858000D01*
X44103604Y-108135933D01*
X44215998Y-108310599D01*
X44215998Y-108586028D01*
X44173399Y-108628627D01*
X44058000Y-108907224D01*
X44058000Y-109243500D01*
X44247500Y-109433000D01*
X45141000Y-109433000D01*
X45141000Y-109058000D01*
X45791000Y-109058000D01*
X45791000Y-109433000D01*
X46116000Y-109433000D01*
X46116000Y-110183000D01*
X45791000Y-110183000D01*
X45791000Y-111126500D01*
X45980500Y-111316000D01*
X46266775Y-111316000D01*
X46545372Y-111200602D01*
X46687972Y-111058002D01*
X46874000Y-111058002D01*
X46874000Y-110534217D01*
X47064000Y-110572693D01*
X47370545Y-110572693D01*
X47941926Y-111144074D01*
X48242017Y-111344589D01*
X48596000Y-111415000D01*
X51308000Y-111415000D01*
X51661983Y-111344589D01*
X51962074Y-111144074D01*
X52099056Y-111007092D01*
X52224017Y-111090589D01*
X52578000Y-111161000D01*
X56054021Y-111161000D01*
X56202492Y-111262446D01*
X56500000Y-111322693D01*
X57800000Y-111322693D01*
X58077933Y-111270396D01*
X58245978Y-111162262D01*
X58263604Y-111255933D01*
X58427862Y-111511198D01*
X58678492Y-111682446D01*
X58976000Y-111742693D01*
X60976000Y-111742693D01*
X61253933Y-111690396D01*
X61509198Y-111526138D01*
X61680446Y-111275508D01*
X61740693Y-110978000D01*
X61740693Y-108478000D01*
X62211307Y-108478000D01*
X62211307Y-110978000D01*
X62263604Y-111255933D01*
X62427862Y-111511198D01*
X62678492Y-111682446D01*
X62976000Y-111742693D01*
X64976000Y-111742693D01*
X65253933Y-111690396D01*
X65509198Y-111526138D01*
X65590558Y-111407063D01*
X67276820Y-111407063D01*
X67431684Y-111672632D01*
X68224604Y-111769644D01*
X68712316Y-111672632D01*
X68867180Y-111407063D01*
X68072000Y-110611883D01*
X67276820Y-111407063D01*
X65590558Y-111407063D01*
X65680446Y-111275508D01*
X65740693Y-110978000D01*
X65740693Y-109271455D01*
X65794189Y-109217959D01*
X66076847Y-109500616D01*
X66030356Y-109880604D01*
X66127368Y-110368316D01*
X66392937Y-110523180D01*
X67188117Y-109728000D01*
X68955883Y-109728000D01*
X69751063Y-110523180D01*
X70016632Y-110368316D01*
X70113644Y-109575396D01*
X70016632Y-109087684D01*
X69751063Y-108932820D01*
X68955883Y-109728000D01*
X67188117Y-109728000D01*
X66746175Y-109286058D01*
X67630058Y-108402175D01*
X68072000Y-108844117D01*
X68867180Y-108048937D01*
X68712316Y-107783368D01*
X67919396Y-107686356D01*
X67818246Y-107706476D01*
X67561959Y-107450189D01*
X67856336Y-107155812D01*
X68468079Y-107156346D01*
X69203429Y-106852506D01*
X69766529Y-106290388D01*
X70071652Y-105555570D01*
X70072346Y-104759921D01*
X69768506Y-104024571D01*
X69206388Y-103461471D01*
X68471570Y-103156348D01*
X67675921Y-103155654D01*
X66940571Y-103459494D01*
X66377471Y-104021612D01*
X66072348Y-104756430D01*
X66071654Y-105552079D01*
X66297407Y-106098445D01*
X64682545Y-107713307D01*
X62976000Y-107713307D01*
X62698067Y-107765604D01*
X62442802Y-107929862D01*
X62271554Y-108180492D01*
X62211307Y-108478000D01*
X61740693Y-108478000D01*
X61688396Y-108200067D01*
X61524138Y-107944802D01*
X61273508Y-107773554D01*
X60976000Y-107713307D01*
X59269455Y-107713307D01*
X58564693Y-107008545D01*
X58564693Y-106589000D01*
X60293804Y-106589000D01*
X60443862Y-106822198D01*
X60694492Y-106993446D01*
X60992000Y-107053693D01*
X62492000Y-107053693D01*
X62769933Y-107001396D01*
X62905748Y-106914002D01*
X63045028Y-106914002D01*
X63062627Y-106931601D01*
X63341224Y-107047000D01*
X63677500Y-107047000D01*
X63867000Y-106857500D01*
X63867000Y-105976500D01*
X64617000Y-105976500D01*
X64617000Y-106857500D01*
X64806500Y-107047000D01*
X65142776Y-107047000D01*
X65421373Y-106931601D01*
X65634602Y-106718372D01*
X65750000Y-106439775D01*
X65750000Y-106166000D01*
X65560500Y-105976500D01*
X64617000Y-105976500D01*
X63867000Y-105976500D01*
X63492000Y-105976500D01*
X63492000Y-105351500D01*
X63867000Y-105351500D01*
X63867000Y-104470500D01*
X64617000Y-104470500D01*
X64617000Y-105351500D01*
X65560500Y-105351500D01*
X65750000Y-105162000D01*
X65750000Y-104888225D01*
X65634602Y-104609628D01*
X65421373Y-104396399D01*
X65142776Y-104281000D01*
X64806500Y-104281000D01*
X64617000Y-104470500D01*
X63867000Y-104470500D01*
X63677500Y-104281000D01*
X63341224Y-104281000D01*
X63062627Y-104396399D01*
X63045028Y-104413998D01*
X62905778Y-104413998D01*
X62789508Y-104334554D01*
X62553720Y-104286806D01*
X62554693Y-104282000D01*
X62554693Y-102982000D01*
X62502396Y-102704067D01*
X62389873Y-102529201D01*
X62392743Y-102525000D01*
X71200000Y-102525000D01*
X71553983Y-102454589D01*
X71586753Y-102432693D01*
X72227000Y-102432693D01*
X72227000Y-108204000D01*
X72297411Y-108557983D01*
X72497926Y-108858074D01*
X74529926Y-110890074D01*
X74830017Y-111090589D01*
X75184000Y-111161000D01*
X86868000Y-111161000D01*
X87221983Y-111090589D01*
X87522074Y-110890074D01*
X88529085Y-109883063D01*
X90898820Y-109883063D01*
X91053684Y-110148632D01*
X91846604Y-110245644D01*
X92334316Y-110148632D01*
X92406410Y-110025000D01*
X98966227Y-110025000D01*
X99099438Y-110694696D01*
X99478790Y-111262437D01*
X100046531Y-111641789D01*
X100716227Y-111775000D01*
X103333773Y-111775000D01*
X104003469Y-111641789D01*
X104571210Y-111262437D01*
X104950562Y-110694696D01*
X105083773Y-110025000D01*
X105075220Y-109982000D01*
X105145227Y-109982000D01*
X105278438Y-110651696D01*
X105657790Y-111219437D01*
X106225531Y-111598789D01*
X106895227Y-111732000D01*
X109512773Y-111732000D01*
X110182469Y-111598789D01*
X110750210Y-111219437D01*
X111129562Y-110651696D01*
X111262773Y-109982000D01*
X111129562Y-109312304D01*
X110750210Y-108744563D01*
X110182469Y-108365211D01*
X109512773Y-108232000D01*
X106895227Y-108232000D01*
X106225531Y-108365211D01*
X105657790Y-108744563D01*
X105278438Y-109312304D01*
X105145227Y-109982000D01*
X105075220Y-109982000D01*
X104950562Y-109355304D01*
X104571210Y-108787563D01*
X104003469Y-108408211D01*
X103333773Y-108275000D01*
X100716227Y-108275000D01*
X100046531Y-108408211D01*
X99478790Y-108787563D01*
X99099438Y-109355304D01*
X98966227Y-110025000D01*
X92406410Y-110025000D01*
X92489180Y-109883063D01*
X91694000Y-109087883D01*
X90898820Y-109883063D01*
X88529085Y-109883063D01*
X88792074Y-109620074D01*
X88992589Y-109319983D01*
X89063000Y-108966000D01*
X89063000Y-108356604D01*
X89652356Y-108356604D01*
X89749368Y-108844316D01*
X90014937Y-108999180D01*
X90810117Y-108204000D01*
X92577883Y-108204000D01*
X93373063Y-108999180D01*
X93638632Y-108844316D01*
X93735644Y-108051396D01*
X93638632Y-107563684D01*
X93373063Y-107408820D01*
X92577883Y-108204000D01*
X90810117Y-108204000D01*
X90014937Y-107408820D01*
X89749368Y-107563684D01*
X89652356Y-108356604D01*
X89063000Y-108356604D01*
X89063000Y-106524937D01*
X90898820Y-106524937D01*
X91694000Y-107320117D01*
X92489180Y-106524937D01*
X92334316Y-106259368D01*
X91541396Y-106162356D01*
X91053684Y-106259368D01*
X90898820Y-106524937D01*
X89063000Y-106524937D01*
X89063000Y-104015148D01*
X89283148Y-103795000D01*
X89912199Y-103795000D01*
X89997494Y-104001429D01*
X90559612Y-104564529D01*
X91294430Y-104869652D01*
X92090079Y-104870346D01*
X92825429Y-104566506D01*
X93388529Y-104004388D01*
X93693652Y-103269570D01*
X93694346Y-102473921D01*
X93390506Y-101738571D01*
X92828388Y-101175471D01*
X92093570Y-100870348D01*
X91297921Y-100869654D01*
X90562571Y-101173494D01*
X89999471Y-101735612D01*
X89912526Y-101945000D01*
X88900005Y-101945000D01*
X88900000Y-101944999D01*
X88546018Y-102015411D01*
X88245926Y-102215926D01*
X87483926Y-102977926D01*
X87283411Y-103278017D01*
X87283411Y-103278018D01*
X87213000Y-103632000D01*
X87213000Y-104867328D01*
X87010949Y-104664924D01*
X86349613Y-104390313D01*
X86023798Y-104390028D01*
X85927572Y-104293802D01*
X85995592Y-103616851D01*
X85905784Y-103165361D01*
X85630961Y-102971699D01*
X84764660Y-103838000D01*
X85132356Y-104205696D01*
X84071696Y-105266356D01*
X83704000Y-104898660D01*
X82837699Y-105764961D01*
X83031361Y-106039784D01*
X83925149Y-106129592D01*
X84177605Y-106079375D01*
X84190085Y-106091855D01*
X84189688Y-106546471D01*
X84463145Y-107208286D01*
X84969051Y-107715076D01*
X85630387Y-107989687D01*
X86346471Y-107990312D01*
X87008286Y-107716855D01*
X87213000Y-107512498D01*
X87213000Y-108582852D01*
X86484852Y-109311000D01*
X75567148Y-109311000D01*
X74077000Y-107820852D01*
X74077000Y-106660975D01*
X74303145Y-107208286D01*
X74809051Y-107715076D01*
X75470387Y-107989687D01*
X76186471Y-107990312D01*
X76848286Y-107716855D01*
X77355076Y-107210949D01*
X77629687Y-106549613D01*
X77630077Y-106102693D01*
X80124000Y-106102693D01*
X80401933Y-106050396D01*
X80657198Y-105886138D01*
X80828446Y-105635508D01*
X80888693Y-105338000D01*
X80888693Y-104059149D01*
X81412408Y-104059149D01*
X81502216Y-104510639D01*
X81777039Y-104704301D01*
X82643340Y-103838000D01*
X81777039Y-102971699D01*
X81502216Y-103165361D01*
X81412408Y-104059149D01*
X80888693Y-104059149D01*
X80888693Y-102881455D01*
X81159929Y-102610219D01*
X81207059Y-102610260D01*
X81758572Y-102382380D01*
X81850360Y-102290751D01*
X82799579Y-102290751D01*
X82876928Y-102536753D01*
X83466546Y-102647453D01*
X83556266Y-102629606D01*
X83704000Y-102777340D01*
X83925099Y-102556241D01*
X84023072Y-102536753D01*
X84059067Y-102422273D01*
X84570301Y-101911039D01*
X84376639Y-101636216D01*
X83482851Y-101546408D01*
X83031361Y-101636216D01*
X82837699Y-101911039D01*
X83008495Y-102081835D01*
X82799579Y-102290751D01*
X81850360Y-102290751D01*
X82180897Y-101960791D01*
X82264693Y-101758988D01*
X82269249Y-101760421D01*
X82919670Y-101110000D01*
X83980330Y-101110000D01*
X84630751Y-101760421D01*
X84876753Y-101683072D01*
X84987453Y-101093454D01*
X84876753Y-100536928D01*
X84630751Y-100459579D01*
X83980330Y-101110000D01*
X82919670Y-101110000D01*
X82654505Y-100844835D01*
X83184835Y-100314505D01*
X83450000Y-100579670D01*
X84100421Y-99929249D01*
X84023072Y-99683247D01*
X83737378Y-99629608D01*
X83250141Y-99142371D01*
X83201000Y-99191512D01*
X83201000Y-98209500D01*
X109232000Y-98209500D01*
X109232000Y-98420776D01*
X109347399Y-98699373D01*
X109560628Y-98912602D01*
X109839225Y-99028000D01*
X110050500Y-99028000D01*
X110240000Y-98838500D01*
X110240000Y-98020000D01*
X109421500Y-98020000D01*
X109232000Y-98209500D01*
X83201000Y-98209500D01*
X83201000Y-97114764D01*
X83303933Y-97095396D01*
X83559198Y-96931138D01*
X83721415Y-96693725D01*
X83962492Y-96858446D01*
X84260000Y-96918693D01*
X85760000Y-96918693D01*
X86037933Y-96866396D01*
X86212599Y-96754002D01*
X86488028Y-96754002D01*
X86530627Y-96796601D01*
X86809224Y-96912000D01*
X87145500Y-96912000D01*
X87335000Y-96722500D01*
X87335000Y-95829000D01*
X88085000Y-95829000D01*
X88085000Y-96722500D01*
X88274500Y-96912000D01*
X88610776Y-96912000D01*
X88889373Y-96796601D01*
X89102602Y-96583372D01*
X89218000Y-96304775D01*
X89218000Y-96018500D01*
X89028500Y-95829000D01*
X88085000Y-95829000D01*
X87335000Y-95829000D01*
X86960000Y-95829000D01*
X86960000Y-95179000D01*
X87335000Y-95179000D01*
X87335000Y-94854000D01*
X88085000Y-94854000D01*
X88085000Y-95179000D01*
X89028500Y-95179000D01*
X89218000Y-94989500D01*
X89218000Y-94816148D01*
X89335000Y-94933148D01*
X89335000Y-95690000D01*
X89405411Y-96043983D01*
X89605926Y-96344074D01*
X89695307Y-96433455D01*
X89695307Y-97215000D01*
X89747604Y-97492933D01*
X89911862Y-97748198D01*
X90162492Y-97919446D01*
X90460000Y-97979693D01*
X91960000Y-97979693D01*
X92237933Y-97927396D01*
X92462571Y-97782846D01*
X92662492Y-97919446D01*
X92960000Y-97979693D01*
X94460000Y-97979693D01*
X94737933Y-97927396D01*
X94993198Y-97763138D01*
X95164446Y-97512508D01*
X95224693Y-97215000D01*
X95224693Y-95965000D01*
X95196306Y-95814138D01*
X95423198Y-95668138D01*
X95489260Y-95571452D01*
X95541862Y-95653198D01*
X95727566Y-95780084D01*
X95705307Y-95890000D01*
X95705307Y-97190000D01*
X95757604Y-97467933D01*
X95921862Y-97723198D01*
X96172492Y-97894446D01*
X96470000Y-97954693D01*
X97970000Y-97954693D01*
X98247933Y-97902396D01*
X98503198Y-97738138D01*
X98569260Y-97641452D01*
X98621862Y-97723198D01*
X98872492Y-97894446D01*
X99170000Y-97954693D01*
X100670000Y-97954693D01*
X100947933Y-97902396D01*
X101203198Y-97738138D01*
X101374446Y-97487508D01*
X101434693Y-97190000D01*
X101434693Y-95890000D01*
X101402237Y-95717515D01*
X101548492Y-95817446D01*
X101846000Y-95877693D01*
X103346000Y-95877693D01*
X103623933Y-95825396D01*
X103879198Y-95661138D01*
X104016823Y-95459717D01*
X104152621Y-95464135D01*
X104285862Y-95671198D01*
X104536492Y-95842446D01*
X104834000Y-95902693D01*
X106334000Y-95902693D01*
X106611933Y-95850396D01*
X106786599Y-95738002D01*
X107062028Y-95738002D01*
X107104627Y-95780601D01*
X107383224Y-95896000D01*
X107719500Y-95896000D01*
X107909000Y-95706500D01*
X107909000Y-94813000D01*
X107534000Y-94813000D01*
X107534000Y-94163000D01*
X107909000Y-94163000D01*
X107909000Y-93838000D01*
X108659000Y-93838000D01*
X108659000Y-94163000D01*
X109034000Y-94163000D01*
X109034000Y-94813000D01*
X108659000Y-94813000D01*
X108659000Y-95706500D01*
X108848500Y-95896000D01*
X109184776Y-95896000D01*
X109244371Y-95871315D01*
X109277604Y-96047933D01*
X109441862Y-96303198D01*
X109692492Y-96474446D01*
X109877939Y-96512000D01*
X109239998Y-96512000D01*
X109239998Y-97099915D01*
X109232000Y-97119224D01*
X109232000Y-97330500D01*
X109421500Y-97520000D01*
X110240000Y-97520000D01*
X110240000Y-97270000D01*
X110740000Y-97270000D01*
X110740000Y-97520000D01*
X110990000Y-97520000D01*
X110990000Y-98020000D01*
X110740000Y-98020000D01*
X110740000Y-98838500D01*
X110929500Y-99028000D01*
X111140775Y-99028000D01*
X111160084Y-99020002D01*
X111748000Y-99020002D01*
X111748000Y-98212214D01*
X112286893Y-98751107D01*
X112611316Y-98967880D01*
X112994000Y-99044001D01*
X112994005Y-99044000D01*
X137187189Y-99044000D01*
X137241494Y-99175429D01*
X137803612Y-99738529D01*
X138385139Y-99980000D01*
X135051227Y-99980000D01*
X134572873Y-100075151D01*
X134167344Y-100346117D01*
X133896378Y-100751646D01*
X133806022Y-101205895D01*
X133723622Y-100791646D01*
X133452656Y-100386117D01*
X133047127Y-100115151D01*
X132568773Y-100020000D01*
X128951227Y-100020000D01*
X128472873Y-100115151D01*
X128067344Y-100386117D01*
X127796378Y-100791646D01*
X127729441Y-101128158D01*
X127677622Y-100867646D01*
X127406656Y-100462117D01*
X127001127Y-100191151D01*
X126522773Y-100096000D01*
X122905227Y-100096000D01*
X122426873Y-100191151D01*
X122021344Y-100462117D01*
X121750378Y-100867646D01*
X121666000Y-101291841D01*
X121581622Y-100867646D01*
X121310656Y-100462117D01*
X120905127Y-100191151D01*
X120426773Y-100096000D01*
X116809227Y-100096000D01*
X116330873Y-100191151D01*
X115925344Y-100462117D01*
X115654378Y-100867646D01*
X115632657Y-100976844D01*
X115437883Y-100685344D01*
X115032354Y-100414378D01*
X114554000Y-100319227D01*
X114075646Y-100414378D01*
X113670117Y-100685344D01*
X113399151Y-101090873D01*
X113304000Y-101569227D01*
X113304000Y-105186773D01*
X113399151Y-105665127D01*
X113670117Y-106070656D01*
X114011858Y-106299000D01*
X113670117Y-106527344D01*
X113399151Y-106932873D01*
X113304000Y-107411227D01*
X113304000Y-111028773D01*
X113399151Y-111507127D01*
X113670117Y-111912656D01*
X113824476Y-112015796D01*
X113670117Y-112118935D01*
X113399151Y-112524464D01*
X113304000Y-113002818D01*
X113304000Y-114581182D01*
X113399151Y-115059536D01*
X113476302Y-115175000D01*
X41825000Y-115175000D01*
X41825000Y-110372500D01*
X44058000Y-110372500D01*
X44058000Y-110708776D01*
X44173399Y-110987373D01*
X44386628Y-111200602D01*
X44665225Y-111316000D01*
X44951500Y-111316000D01*
X45141000Y-111126500D01*
X45141000Y-110183000D01*
X44247500Y-110183000D01*
X44058000Y-110372500D01*
X41825000Y-110372500D01*
X41825000Y-103019500D01*
X44220000Y-103019500D01*
X44220000Y-103480776D01*
X44335399Y-103759373D01*
X44548628Y-103972602D01*
X44827225Y-104088000D01*
X45413500Y-104088000D01*
X45603000Y-103898500D01*
X45603000Y-102830000D01*
X46853000Y-102830000D01*
X46853000Y-103898500D01*
X47042500Y-104088000D01*
X47628775Y-104088000D01*
X47907372Y-103972602D01*
X48120601Y-103759373D01*
X48236000Y-103480776D01*
X48236000Y-103019500D01*
X48046500Y-102830000D01*
X46853000Y-102830000D01*
X45603000Y-102830000D01*
X44409500Y-102830000D01*
X44220000Y-103019500D01*
X41825000Y-103019500D01*
X41825000Y-86279063D01*
X43954820Y-86279063D01*
X44109684Y-86544632D01*
X44902604Y-86641644D01*
X45390316Y-86544632D01*
X45545180Y-86279063D01*
X44750000Y-85483883D01*
X43954820Y-86279063D01*
X41825000Y-86279063D01*
X41825000Y-84752604D01*
X42708356Y-84752604D01*
X42805368Y-85240316D01*
X43070937Y-85395180D01*
X43866117Y-84600000D01*
X45633883Y-84600000D01*
X46429063Y-85395180D01*
X46694632Y-85240316D01*
X46791644Y-84447396D01*
X46694632Y-83959684D01*
X46429063Y-83804820D01*
X45633883Y-84600000D01*
X43866117Y-84600000D01*
X43070937Y-83804820D01*
X42805368Y-83959684D01*
X42708356Y-84752604D01*
X41825000Y-84752604D01*
X41825000Y-82920937D01*
X43954820Y-82920937D01*
X44750000Y-83716117D01*
X45545180Y-82920937D01*
X45390316Y-82655368D01*
X44597396Y-82558356D01*
X44109684Y-82655368D01*
X43954820Y-82920937D01*
X41825000Y-82920937D01*
X41825000Y-81825000D01*
X113546992Y-81825000D01*
X113399151Y-82046259D01*
X113399151Y-82046259D01*
G37*
X113399151Y-82046259D02*
X113304000Y-82524613D01*
X113304000Y-83083387D01*
X113399151Y-83561741D01*
X113670117Y-83967270D01*
X114015888Y-84198307D01*
X113670117Y-84429344D01*
X113399151Y-84834873D01*
X113304000Y-85313227D01*
X113304000Y-88930773D01*
X113399151Y-89409127D01*
X113670117Y-89814656D01*
X114011858Y-90043000D01*
X113670117Y-90271344D01*
X113399151Y-90676873D01*
X113304000Y-91155227D01*
X113304000Y-94772773D01*
X113399151Y-95251127D01*
X113670117Y-95656656D01*
X114075646Y-95927622D01*
X114554000Y-96022773D01*
X115032354Y-95927622D01*
X115437883Y-95656656D01*
X115708849Y-95251127D01*
X115740004Y-95094502D01*
X115925344Y-95371883D01*
X116330873Y-95642849D01*
X116809227Y-95738000D01*
X120426773Y-95738000D01*
X120905127Y-95642849D01*
X121310656Y-95371883D01*
X121581622Y-94966354D01*
X121676773Y-94488000D01*
X121909227Y-94488000D01*
X122004378Y-94966354D01*
X122275344Y-95371883D01*
X122680873Y-95642849D01*
X123159227Y-95738000D01*
X126776773Y-95738000D01*
X127255127Y-95642849D01*
X127660656Y-95371883D01*
X127889000Y-95030142D01*
X128117344Y-95371883D01*
X128522873Y-95642849D01*
X129001227Y-95738000D01*
X132618773Y-95738000D01*
X133097127Y-95642849D01*
X133502656Y-95371883D01*
X133773622Y-94966354D01*
X133858000Y-94542159D01*
X133942378Y-94966354D01*
X134213344Y-95371883D01*
X134618873Y-95642849D01*
X135097227Y-95738000D01*
X138714773Y-95738000D01*
X139193127Y-95642849D01*
X139598656Y-95371883D01*
X139869622Y-94966354D01*
X139964773Y-94488000D01*
X139869622Y-94009646D01*
X139598656Y-93604117D01*
X139193127Y-93333151D01*
X138714773Y-93238000D01*
X135097227Y-93238000D01*
X134618873Y-93333151D01*
X134213344Y-93604117D01*
X133942378Y-94009646D01*
X133858000Y-94433841D01*
X133773622Y-94009646D01*
X133502656Y-93604117D01*
X133097127Y-93333151D01*
X132618773Y-93238000D01*
X129001227Y-93238000D01*
X128522873Y-93333151D01*
X128117344Y-93604117D01*
X127889000Y-93945858D01*
X127660656Y-93604117D01*
X127255127Y-93333151D01*
X126776773Y-93238000D01*
X123159227Y-93238000D01*
X122680873Y-93333151D01*
X122275344Y-93604117D01*
X122004378Y-94009646D01*
X121909227Y-94488000D01*
X121676773Y-94488000D01*
X121581622Y-94009646D01*
X121310656Y-93604117D01*
X120905127Y-93333151D01*
X120426773Y-93238000D01*
X116809227Y-93238000D01*
X116330873Y-93333151D01*
X115925344Y-93604117D01*
X115804000Y-93785721D01*
X115804000Y-91155227D01*
X115708849Y-90676873D01*
X115437883Y-90271344D01*
X115096142Y-90043000D01*
X115437883Y-89814656D01*
X115708849Y-89409127D01*
X115804000Y-88930773D01*
X115804000Y-85313227D01*
X115708849Y-84834873D01*
X115437883Y-84429344D01*
X115092112Y-84198307D01*
X115437883Y-83967270D01*
X115708849Y-83561741D01*
X115804000Y-83083387D01*
X115804000Y-82524613D01*
X115708849Y-82046259D01*
X115561008Y-81825000D01*
X140175000Y-81825000D01*
X140175000Y-96452262D01*
X140072388Y-96349471D01*
X139337570Y-96044348D01*
X138541921Y-96043654D01*
X137806571Y-96347494D01*
X137243471Y-96909612D01*
X137187668Y-97044000D01*
X113408214Y-97044000D01*
X112975000Y-96610786D01*
X112975000Y-94250000D01*
X112950350Y-94126074D01*
X112898880Y-93867316D01*
X112682107Y-93542893D01*
X112257107Y-93117893D01*
X111932684Y-92901120D01*
X111718930Y-92858602D01*
X111754693Y-92682000D01*
X111754693Y-91682000D01*
X111702396Y-91404067D01*
X111538138Y-91148802D01*
X111391904Y-91048885D01*
X111370245Y-90940000D01*
X111740002Y-90940000D01*
X111740002Y-90352085D01*
X111748000Y-90332776D01*
X111748000Y-90121500D01*
X111558500Y-89932000D01*
X110740000Y-89932000D01*
X110740000Y-90152999D01*
X110578983Y-90045411D01*
X110240000Y-89977984D01*
X110240000Y-89932000D01*
X109990000Y-89932000D01*
X109990000Y-89432000D01*
X110240000Y-89432000D01*
X110240000Y-88613500D01*
X110740000Y-88613500D01*
X110740000Y-89432000D01*
X111558500Y-89432000D01*
X111748000Y-89242500D01*
X111748000Y-89031224D01*
X111632601Y-88752627D01*
X111419372Y-88539398D01*
X111140775Y-88424000D01*
X110929500Y-88424000D01*
X110740000Y-88613500D01*
X110240000Y-88613500D01*
X110050500Y-88424000D01*
X109933000Y-88424000D01*
X109933000Y-88189500D01*
X109743500Y-88000000D01*
X108800000Y-88000000D01*
X108800000Y-88325000D01*
X108050000Y-88325000D01*
X108050000Y-86456500D01*
X108800000Y-86456500D01*
X108800000Y-87350000D01*
X109743500Y-87350000D01*
X109933000Y-87160500D01*
X109933000Y-86874225D01*
X109817602Y-86595628D01*
X109604373Y-86382399D01*
X109325776Y-86267000D01*
X108989500Y-86267000D01*
X108800000Y-86456500D01*
X108050000Y-86456500D01*
X107860500Y-86267000D01*
X107750148Y-86267000D01*
X107583148Y-86100000D01*
X109508773Y-86100000D01*
X110178469Y-85966789D01*
X110746210Y-85587437D01*
X111125562Y-85019696D01*
X111258773Y-84350000D01*
X111125562Y-83680304D01*
X110746210Y-83112563D01*
X110178469Y-82733211D01*
X109508773Y-82600000D01*
X106891227Y-82600000D01*
X106221531Y-82733211D01*
X105653790Y-83112563D01*
X105274438Y-83680304D01*
X105145027Y-84330895D01*
X105025562Y-83730304D01*
X104646210Y-83162563D01*
X104078469Y-82783211D01*
X103408773Y-82650000D01*
X100791227Y-82650000D01*
X100121531Y-82783211D01*
X99553790Y-83162563D01*
X99174438Y-83730304D01*
X99041227Y-84400000D01*
X99174438Y-85069696D01*
X99553790Y-85637437D01*
X100121531Y-86016789D01*
X100791227Y-86150000D01*
X101610104Y-86150000D01*
X101147735Y-86535307D01*
X100175000Y-86535307D01*
X100057554Y-86557406D01*
X99460074Y-85959926D01*
X99159983Y-85759411D01*
X98806000Y-85689000D01*
X95016000Y-85689000D01*
X94662017Y-85759411D01*
X94361926Y-85959926D01*
X93827545Y-86494307D01*
X93664455Y-86494307D01*
X93130074Y-85959926D01*
X92829983Y-85759411D01*
X92476000Y-85689000D01*
X87376000Y-85689000D01*
X87263684Y-85711341D01*
X87149319Y-85717205D01*
X87088295Y-85746228D01*
X87022018Y-85759411D01*
X86926799Y-85823034D01*
X86855223Y-85857075D01*
X85054074Y-84055926D01*
X84753983Y-83855411D01*
X84400000Y-83785000D01*
X61980000Y-83785000D01*
X61626017Y-83855411D01*
X61325926Y-84055926D01*
X59145665Y-86236187D01*
X59146390Y-85406411D01*
X58804569Y-84579142D01*
X58172187Y-83945655D01*
X57345516Y-83602392D01*
X56450411Y-83601610D01*
X55623142Y-83943431D01*
X54989655Y-84575813D01*
X54646392Y-85402484D01*
X54645610Y-86297589D01*
X54855268Y-86805000D01*
X54110544Y-86805000D01*
X54319608Y-86301516D01*
X54320390Y-85406411D01*
X53978569Y-84579142D01*
X53346187Y-83945655D01*
X52519516Y-83602392D01*
X51624411Y-83601610D01*
X50797142Y-83943431D01*
X50163655Y-84575813D01*
X49820392Y-85402484D01*
X49819610Y-86297589D01*
X50161431Y-87124858D01*
X50184193Y-87147659D01*
X49135926Y-88195926D01*
X48935411Y-88496017D01*
X48894026Y-88704074D01*
X48865000Y-88850000D01*
X48865000Y-91192000D01*
X48935411Y-91545983D01*
X49135926Y-91846074D01*
X49964730Y-92674878D01*
X49820392Y-93022484D01*
X49820026Y-93441603D01*
X45859178Y-95163710D01*
X45717400Y-95262060D01*
X45573926Y-95357926D01*
X45569368Y-95364748D01*
X45562627Y-95369424D01*
X45469284Y-95514534D01*
X45373411Y-95658018D01*
X45371810Y-95666065D01*
X45367372Y-95672965D01*
X45336662Y-95842768D01*
X45303000Y-96012000D01*
X45303000Y-96565307D01*
X44978000Y-96565307D01*
X44700067Y-96617604D01*
X44444802Y-96781862D01*
X44273554Y-97032492D01*
X44213307Y-97330000D01*
X44213307Y-99330000D01*
X44265604Y-99607933D01*
X44429862Y-99863198D01*
X44680492Y-100034446D01*
X44978000Y-100094693D01*
X45357242Y-100094693D01*
X45373411Y-100175983D01*
X45573926Y-100476074D01*
X45669852Y-100572000D01*
X44827225Y-100572000D01*
X44548628Y-100687398D01*
X44335399Y-100900627D01*
X44220000Y-101179224D01*
X44220000Y-101640500D01*
X44409500Y-101830000D01*
X45603000Y-101830000D01*
X45603000Y-101330000D01*
X46473503Y-101330000D01*
X46636018Y-101438589D01*
X46853000Y-101481750D01*
X46853000Y-101830000D01*
X48046500Y-101830000D01*
X48236000Y-101640500D01*
X48236000Y-101509000D01*
X55372000Y-101509000D01*
X55725983Y-101438589D01*
X56000743Y-101255000D01*
X56925307Y-101255000D01*
X56925307Y-101806545D01*
X56415000Y-102316852D01*
X56224074Y-102125926D01*
X55923983Y-101925411D01*
X55570000Y-101855000D01*
X51210000Y-101855000D01*
X50856018Y-101925411D01*
X50555926Y-102125926D01*
X50111926Y-102569926D01*
X49911411Y-102870017D01*
X49905756Y-102898444D01*
X49761554Y-103109492D01*
X49701307Y-103407000D01*
X49701307Y-103857000D01*
X49753604Y-104134933D01*
X49917862Y-104390198D01*
X50168492Y-104561446D01*
X50466000Y-104621693D01*
X51042159Y-104621693D01*
X50670852Y-104993000D01*
X49104005Y-104993000D01*
X49104000Y-104992999D01*
X48750018Y-105063411D01*
X48449926Y-105263926D01*
X48449924Y-105263929D01*
X47370545Y-106343307D01*
X47064000Y-106343307D01*
X46880693Y-106377799D01*
X46880693Y-106358000D01*
X46828396Y-106080067D01*
X46664138Y-105824802D01*
X46413508Y-105653554D01*
X46116000Y-105593307D01*
X44816000Y-105593307D01*
X44538067Y-105645604D01*
X44282802Y-105809862D01*
X44111554Y-106060492D01*
X44051307Y-106358000D01*
X44051307Y-107858000D01*
X44103604Y-108135933D01*
X44215998Y-108310599D01*
X44215998Y-108586028D01*
X44173399Y-108628627D01*
X44058000Y-108907224D01*
X44058000Y-109243500D01*
X44247500Y-109433000D01*
X45141000Y-109433000D01*
X45141000Y-109058000D01*
X45791000Y-109058000D01*
X45791000Y-109433000D01*
X46116000Y-109433000D01*
X46116000Y-110183000D01*
X45791000Y-110183000D01*
X45791000Y-111126500D01*
X45980500Y-111316000D01*
X46266775Y-111316000D01*
X46545372Y-111200602D01*
X46687972Y-111058002D01*
X46874000Y-111058002D01*
X46874000Y-110534217D01*
X47064000Y-110572693D01*
X47370545Y-110572693D01*
X47941926Y-111144074D01*
X48242017Y-111344589D01*
X48596000Y-111415000D01*
X51308000Y-111415000D01*
X51661983Y-111344589D01*
X51962074Y-111144074D01*
X52099056Y-111007092D01*
X52224017Y-111090589D01*
X52578000Y-111161000D01*
X56054021Y-111161000D01*
X56202492Y-111262446D01*
X56500000Y-111322693D01*
X57800000Y-111322693D01*
X58077933Y-111270396D01*
X58245978Y-111162262D01*
X58263604Y-111255933D01*
X58427862Y-111511198D01*
X58678492Y-111682446D01*
X58976000Y-111742693D01*
X60976000Y-111742693D01*
X61253933Y-111690396D01*
X61509198Y-111526138D01*
X61680446Y-111275508D01*
X61740693Y-110978000D01*
X61740693Y-108478000D01*
X62211307Y-108478000D01*
X62211307Y-110978000D01*
X62263604Y-111255933D01*
X62427862Y-111511198D01*
X62678492Y-111682446D01*
X62976000Y-111742693D01*
X64976000Y-111742693D01*
X65253933Y-111690396D01*
X65509198Y-111526138D01*
X65590558Y-111407063D01*
X67276820Y-111407063D01*
X67431684Y-111672632D01*
X68224604Y-111769644D01*
X68712316Y-111672632D01*
X68867180Y-111407063D01*
X68072000Y-110611883D01*
X67276820Y-111407063D01*
X65590558Y-111407063D01*
X65680446Y-111275508D01*
X65740693Y-110978000D01*
X65740693Y-109271455D01*
X65794189Y-109217959D01*
X66076847Y-109500616D01*
X66030356Y-109880604D01*
X66127368Y-110368316D01*
X66392937Y-110523180D01*
X67188117Y-109728000D01*
X68955883Y-109728000D01*
X69751063Y-110523180D01*
X70016632Y-110368316D01*
X70113644Y-109575396D01*
X70016632Y-109087684D01*
X69751063Y-108932820D01*
X68955883Y-109728000D01*
X67188117Y-109728000D01*
X66746175Y-109286058D01*
X67630058Y-108402175D01*
X68072000Y-108844117D01*
X68867180Y-108048937D01*
X68712316Y-107783368D01*
X67919396Y-107686356D01*
X67818246Y-107706476D01*
X67561959Y-107450189D01*
X67856336Y-107155812D01*
X68468079Y-107156346D01*
X69203429Y-106852506D01*
X69766529Y-106290388D01*
X70071652Y-105555570D01*
X70072346Y-104759921D01*
X69768506Y-104024571D01*
X69206388Y-103461471D01*
X68471570Y-103156348D01*
X67675921Y-103155654D01*
X66940571Y-103459494D01*
X66377471Y-104021612D01*
X66072348Y-104756430D01*
X66071654Y-105552079D01*
X66297407Y-106098445D01*
X64682545Y-107713307D01*
X62976000Y-107713307D01*
X62698067Y-107765604D01*
X62442802Y-107929862D01*
X62271554Y-108180492D01*
X62211307Y-108478000D01*
X61740693Y-108478000D01*
X61688396Y-108200067D01*
X61524138Y-107944802D01*
X61273508Y-107773554D01*
X60976000Y-107713307D01*
X59269455Y-107713307D01*
X58564693Y-107008545D01*
X58564693Y-106589000D01*
X60293804Y-106589000D01*
X60443862Y-106822198D01*
X60694492Y-106993446D01*
X60992000Y-107053693D01*
X62492000Y-107053693D01*
X62769933Y-107001396D01*
X62905748Y-106914002D01*
X63045028Y-106914002D01*
X63062627Y-106931601D01*
X63341224Y-107047000D01*
X63677500Y-107047000D01*
X63867000Y-106857500D01*
X63867000Y-105976500D01*
X64617000Y-105976500D01*
X64617000Y-106857500D01*
X64806500Y-107047000D01*
X65142776Y-107047000D01*
X65421373Y-106931601D01*
X65634602Y-106718372D01*
X65750000Y-106439775D01*
X65750000Y-106166000D01*
X65560500Y-105976500D01*
X64617000Y-105976500D01*
X63867000Y-105976500D01*
X63492000Y-105976500D01*
X63492000Y-105351500D01*
X63867000Y-105351500D01*
X63867000Y-104470500D01*
X64617000Y-104470500D01*
X64617000Y-105351500D01*
X65560500Y-105351500D01*
X65750000Y-105162000D01*
X65750000Y-104888225D01*
X65634602Y-104609628D01*
X65421373Y-104396399D01*
X65142776Y-104281000D01*
X64806500Y-104281000D01*
X64617000Y-104470500D01*
X63867000Y-104470500D01*
X63677500Y-104281000D01*
X63341224Y-104281000D01*
X63062627Y-104396399D01*
X63045028Y-104413998D01*
X62905778Y-104413998D01*
X62789508Y-104334554D01*
X62553720Y-104286806D01*
X62554693Y-104282000D01*
X62554693Y-102982000D01*
X62502396Y-102704067D01*
X62389873Y-102529201D01*
X62392743Y-102525000D01*
X71200000Y-102525000D01*
X71553983Y-102454589D01*
X71586753Y-102432693D01*
X72227000Y-102432693D01*
X72227000Y-108204000D01*
X72297411Y-108557983D01*
X72497926Y-108858074D01*
X74529926Y-110890074D01*
X74830017Y-111090589D01*
X75184000Y-111161000D01*
X86868000Y-111161000D01*
X87221983Y-111090589D01*
X87522074Y-110890074D01*
X88529085Y-109883063D01*
X90898820Y-109883063D01*
X91053684Y-110148632D01*
X91846604Y-110245644D01*
X92334316Y-110148632D01*
X92406410Y-110025000D01*
X98966227Y-110025000D01*
X99099438Y-110694696D01*
X99478790Y-111262437D01*
X100046531Y-111641789D01*
X100716227Y-111775000D01*
X103333773Y-111775000D01*
X104003469Y-111641789D01*
X104571210Y-111262437D01*
X104950562Y-110694696D01*
X105083773Y-110025000D01*
X105075220Y-109982000D01*
X105145227Y-109982000D01*
X105278438Y-110651696D01*
X105657790Y-111219437D01*
X106225531Y-111598789D01*
X106895227Y-111732000D01*
X109512773Y-111732000D01*
X110182469Y-111598789D01*
X110750210Y-111219437D01*
X111129562Y-110651696D01*
X111262773Y-109982000D01*
X111129562Y-109312304D01*
X110750210Y-108744563D01*
X110182469Y-108365211D01*
X109512773Y-108232000D01*
X106895227Y-108232000D01*
X106225531Y-108365211D01*
X105657790Y-108744563D01*
X105278438Y-109312304D01*
X105145227Y-109982000D01*
X105075220Y-109982000D01*
X104950562Y-109355304D01*
X104571210Y-108787563D01*
X104003469Y-108408211D01*
X103333773Y-108275000D01*
X100716227Y-108275000D01*
X100046531Y-108408211D01*
X99478790Y-108787563D01*
X99099438Y-109355304D01*
X98966227Y-110025000D01*
X92406410Y-110025000D01*
X92489180Y-109883063D01*
X91694000Y-109087883D01*
X90898820Y-109883063D01*
X88529085Y-109883063D01*
X88792074Y-109620074D01*
X88992589Y-109319983D01*
X89063000Y-108966000D01*
X89063000Y-108356604D01*
X89652356Y-108356604D01*
X89749368Y-108844316D01*
X90014937Y-108999180D01*
X90810117Y-108204000D01*
X92577883Y-108204000D01*
X93373063Y-108999180D01*
X93638632Y-108844316D01*
X93735644Y-108051396D01*
X93638632Y-107563684D01*
X93373063Y-107408820D01*
X92577883Y-108204000D01*
X90810117Y-108204000D01*
X90014937Y-107408820D01*
X89749368Y-107563684D01*
X89652356Y-108356604D01*
X89063000Y-108356604D01*
X89063000Y-106524937D01*
X90898820Y-106524937D01*
X91694000Y-107320117D01*
X92489180Y-106524937D01*
X92334316Y-106259368D01*
X91541396Y-106162356D01*
X91053684Y-106259368D01*
X90898820Y-106524937D01*
X89063000Y-106524937D01*
X89063000Y-104015148D01*
X89283148Y-103795000D01*
X89912199Y-103795000D01*
X89997494Y-104001429D01*
X90559612Y-104564529D01*
X91294430Y-104869652D01*
X92090079Y-104870346D01*
X92825429Y-104566506D01*
X93388529Y-104004388D01*
X93693652Y-103269570D01*
X93694346Y-102473921D01*
X93390506Y-101738571D01*
X92828388Y-101175471D01*
X92093570Y-100870348D01*
X91297921Y-100869654D01*
X90562571Y-101173494D01*
X89999471Y-101735612D01*
X89912526Y-101945000D01*
X88900005Y-101945000D01*
X88900000Y-101944999D01*
X88546018Y-102015411D01*
X88245926Y-102215926D01*
X87483926Y-102977926D01*
X87283411Y-103278017D01*
X87283411Y-103278018D01*
X87213000Y-103632000D01*
X87213000Y-104867328D01*
X87010949Y-104664924D01*
X86349613Y-104390313D01*
X86023798Y-104390028D01*
X85927572Y-104293802D01*
X85995592Y-103616851D01*
X85905784Y-103165361D01*
X85630961Y-102971699D01*
X84764660Y-103838000D01*
X85132356Y-104205696D01*
X84071696Y-105266356D01*
X83704000Y-104898660D01*
X82837699Y-105764961D01*
X83031361Y-106039784D01*
X83925149Y-106129592D01*
X84177605Y-106079375D01*
X84190085Y-106091855D01*
X84189688Y-106546471D01*
X84463145Y-107208286D01*
X84969051Y-107715076D01*
X85630387Y-107989687D01*
X86346471Y-107990312D01*
X87008286Y-107716855D01*
X87213000Y-107512498D01*
X87213000Y-108582852D01*
X86484852Y-109311000D01*
X75567148Y-109311000D01*
X74077000Y-107820852D01*
X74077000Y-106660975D01*
X74303145Y-107208286D01*
X74809051Y-107715076D01*
X75470387Y-107989687D01*
X76186471Y-107990312D01*
X76848286Y-107716855D01*
X77355076Y-107210949D01*
X77629687Y-106549613D01*
X77630077Y-106102693D01*
X80124000Y-106102693D01*
X80401933Y-106050396D01*
X80657198Y-105886138D01*
X80828446Y-105635508D01*
X80888693Y-105338000D01*
X80888693Y-104059149D01*
X81412408Y-104059149D01*
X81502216Y-104510639D01*
X81777039Y-104704301D01*
X82643340Y-103838000D01*
X81777039Y-102971699D01*
X81502216Y-103165361D01*
X81412408Y-104059149D01*
X80888693Y-104059149D01*
X80888693Y-102881455D01*
X81159929Y-102610219D01*
X81207059Y-102610260D01*
X81758572Y-102382380D01*
X81850360Y-102290751D01*
X82799579Y-102290751D01*
X82876928Y-102536753D01*
X83466546Y-102647453D01*
X83556266Y-102629606D01*
X83704000Y-102777340D01*
X83925099Y-102556241D01*
X84023072Y-102536753D01*
X84059067Y-102422273D01*
X84570301Y-101911039D01*
X84376639Y-101636216D01*
X83482851Y-101546408D01*
X83031361Y-101636216D01*
X82837699Y-101911039D01*
X83008495Y-102081835D01*
X82799579Y-102290751D01*
X81850360Y-102290751D01*
X82180897Y-101960791D01*
X82264693Y-101758988D01*
X82269249Y-101760421D01*
X82919670Y-101110000D01*
X83980330Y-101110000D01*
X84630751Y-101760421D01*
X84876753Y-101683072D01*
X84987453Y-101093454D01*
X84876753Y-100536928D01*
X84630751Y-100459579D01*
X83980330Y-101110000D01*
X82919670Y-101110000D01*
X82654505Y-100844835D01*
X83184835Y-100314505D01*
X83450000Y-100579670D01*
X84100421Y-99929249D01*
X84023072Y-99683247D01*
X83737378Y-99629608D01*
X83250141Y-99142371D01*
X83201000Y-99191512D01*
X83201000Y-98209500D01*
X109232000Y-98209500D01*
X109232000Y-98420776D01*
X109347399Y-98699373D01*
X109560628Y-98912602D01*
X109839225Y-99028000D01*
X110050500Y-99028000D01*
X110240000Y-98838500D01*
X110240000Y-98020000D01*
X109421500Y-98020000D01*
X109232000Y-98209500D01*
X83201000Y-98209500D01*
X83201000Y-97114764D01*
X83303933Y-97095396D01*
X83559198Y-96931138D01*
X83721415Y-96693725D01*
X83962492Y-96858446D01*
X84260000Y-96918693D01*
X85760000Y-96918693D01*
X86037933Y-96866396D01*
X86212599Y-96754002D01*
X86488028Y-96754002D01*
X86530627Y-96796601D01*
X86809224Y-96912000D01*
X87145500Y-96912000D01*
X87335000Y-96722500D01*
X87335000Y-95829000D01*
X88085000Y-95829000D01*
X88085000Y-96722500D01*
X88274500Y-96912000D01*
X88610776Y-96912000D01*
X88889373Y-96796601D01*
X89102602Y-96583372D01*
X89218000Y-96304775D01*
X89218000Y-96018500D01*
X89028500Y-95829000D01*
X88085000Y-95829000D01*
X87335000Y-95829000D01*
X86960000Y-95829000D01*
X86960000Y-95179000D01*
X87335000Y-95179000D01*
X87335000Y-94854000D01*
X88085000Y-94854000D01*
X88085000Y-95179000D01*
X89028500Y-95179000D01*
X89218000Y-94989500D01*
X89218000Y-94816148D01*
X89335000Y-94933148D01*
X89335000Y-95690000D01*
X89405411Y-96043983D01*
X89605926Y-96344074D01*
X89695307Y-96433455D01*
X89695307Y-97215000D01*
X89747604Y-97492933D01*
X89911862Y-97748198D01*
X90162492Y-97919446D01*
X90460000Y-97979693D01*
X91960000Y-97979693D01*
X92237933Y-97927396D01*
X92462571Y-97782846D01*
X92662492Y-97919446D01*
X92960000Y-97979693D01*
X94460000Y-97979693D01*
X94737933Y-97927396D01*
X94993198Y-97763138D01*
X95164446Y-97512508D01*
X95224693Y-97215000D01*
X95224693Y-95965000D01*
X95196306Y-95814138D01*
X95423198Y-95668138D01*
X95489260Y-95571452D01*
X95541862Y-95653198D01*
X95727566Y-95780084D01*
X95705307Y-95890000D01*
X95705307Y-97190000D01*
X95757604Y-97467933D01*
X95921862Y-97723198D01*
X96172492Y-97894446D01*
X96470000Y-97954693D01*
X97970000Y-97954693D01*
X98247933Y-97902396D01*
X98503198Y-97738138D01*
X98569260Y-97641452D01*
X98621862Y-97723198D01*
X98872492Y-97894446D01*
X99170000Y-97954693D01*
X100670000Y-97954693D01*
X100947933Y-97902396D01*
X101203198Y-97738138D01*
X101374446Y-97487508D01*
X101434693Y-97190000D01*
X101434693Y-95890000D01*
X101402237Y-95717515D01*
X101548492Y-95817446D01*
X101846000Y-95877693D01*
X103346000Y-95877693D01*
X103623933Y-95825396D01*
X103879198Y-95661138D01*
X104016823Y-95459717D01*
X104152621Y-95464135D01*
X104285862Y-95671198D01*
X104536492Y-95842446D01*
X104834000Y-95902693D01*
X106334000Y-95902693D01*
X106611933Y-95850396D01*
X106786599Y-95738002D01*
X107062028Y-95738002D01*
X107104627Y-95780601D01*
X107383224Y-95896000D01*
X107719500Y-95896000D01*
X107909000Y-95706500D01*
X107909000Y-94813000D01*
X107534000Y-94813000D01*
X107534000Y-94163000D01*
X107909000Y-94163000D01*
X107909000Y-93838000D01*
X108659000Y-93838000D01*
X108659000Y-94163000D01*
X109034000Y-94163000D01*
X109034000Y-94813000D01*
X108659000Y-94813000D01*
X108659000Y-95706500D01*
X108848500Y-95896000D01*
X109184776Y-95896000D01*
X109244371Y-95871315D01*
X109277604Y-96047933D01*
X109441862Y-96303198D01*
X109692492Y-96474446D01*
X109877939Y-96512000D01*
X109239998Y-96512000D01*
X109239998Y-97099915D01*
X109232000Y-97119224D01*
X109232000Y-97330500D01*
X109421500Y-97520000D01*
X110240000Y-97520000D01*
X110240000Y-97270000D01*
X110740000Y-97270000D01*
X110740000Y-97520000D01*
X110990000Y-97520000D01*
X110990000Y-98020000D01*
X110740000Y-98020000D01*
X110740000Y-98838500D01*
X110929500Y-99028000D01*
X111140775Y-99028000D01*
X111160084Y-99020002D01*
X111748000Y-99020002D01*
X111748000Y-98212214D01*
X112286893Y-98751107D01*
X112611316Y-98967880D01*
X112994000Y-99044001D01*
X112994005Y-99044000D01*
X137187189Y-99044000D01*
X137241494Y-99175429D01*
X137803612Y-99738529D01*
X138385139Y-99980000D01*
X135051227Y-99980000D01*
X134572873Y-100075151D01*
X134167344Y-100346117D01*
X133896378Y-100751646D01*
X133806022Y-101205895D01*
X133723622Y-100791646D01*
X133452656Y-100386117D01*
X133047127Y-100115151D01*
X132568773Y-100020000D01*
X128951227Y-100020000D01*
X128472873Y-100115151D01*
X128067344Y-100386117D01*
X127796378Y-100791646D01*
X127729441Y-101128158D01*
X127677622Y-100867646D01*
X127406656Y-100462117D01*
X127001127Y-100191151D01*
X126522773Y-100096000D01*
X122905227Y-100096000D01*
X122426873Y-100191151D01*
X122021344Y-100462117D01*
X121750378Y-100867646D01*
X121666000Y-101291841D01*
X121581622Y-100867646D01*
X121310656Y-100462117D01*
X120905127Y-100191151D01*
X120426773Y-100096000D01*
X116809227Y-100096000D01*
X116330873Y-100191151D01*
X115925344Y-100462117D01*
X115654378Y-100867646D01*
X115632657Y-100976844D01*
X115437883Y-100685344D01*
X115032354Y-100414378D01*
X114554000Y-100319227D01*
X114075646Y-100414378D01*
X113670117Y-100685344D01*
X113399151Y-101090873D01*
X113304000Y-101569227D01*
X113304000Y-105186773D01*
X113399151Y-105665127D01*
X113670117Y-106070656D01*
X114011858Y-106299000D01*
X113670117Y-106527344D01*
X113399151Y-106932873D01*
X113304000Y-107411227D01*
X113304000Y-111028773D01*
X113399151Y-111507127D01*
X113670117Y-111912656D01*
X113824476Y-112015796D01*
X113670117Y-112118935D01*
X113399151Y-112524464D01*
X113304000Y-113002818D01*
X113304000Y-114581182D01*
X113399151Y-115059536D01*
X113476302Y-115175000D01*
X41825000Y-115175000D01*
X41825000Y-110372500D01*
X44058000Y-110372500D01*
X44058000Y-110708776D01*
X44173399Y-110987373D01*
X44386628Y-111200602D01*
X44665225Y-111316000D01*
X44951500Y-111316000D01*
X45141000Y-111126500D01*
X45141000Y-110183000D01*
X44247500Y-110183000D01*
X44058000Y-110372500D01*
X41825000Y-110372500D01*
X41825000Y-103019500D01*
X44220000Y-103019500D01*
X44220000Y-103480776D01*
X44335399Y-103759373D01*
X44548628Y-103972602D01*
X44827225Y-104088000D01*
X45413500Y-104088000D01*
X45603000Y-103898500D01*
X45603000Y-102830000D01*
X46853000Y-102830000D01*
X46853000Y-103898500D01*
X47042500Y-104088000D01*
X47628775Y-104088000D01*
X47907372Y-103972602D01*
X48120601Y-103759373D01*
X48236000Y-103480776D01*
X48236000Y-103019500D01*
X48046500Y-102830000D01*
X46853000Y-102830000D01*
X45603000Y-102830000D01*
X44409500Y-102830000D01*
X44220000Y-103019500D01*
X41825000Y-103019500D01*
X41825000Y-86279063D01*
X43954820Y-86279063D01*
X44109684Y-86544632D01*
X44902604Y-86641644D01*
X45390316Y-86544632D01*
X45545180Y-86279063D01*
X44750000Y-85483883D01*
X43954820Y-86279063D01*
X41825000Y-86279063D01*
X41825000Y-84752604D01*
X42708356Y-84752604D01*
X42805368Y-85240316D01*
X43070937Y-85395180D01*
X43866117Y-84600000D01*
X45633883Y-84600000D01*
X46429063Y-85395180D01*
X46694632Y-85240316D01*
X46791644Y-84447396D01*
X46694632Y-83959684D01*
X46429063Y-83804820D01*
X45633883Y-84600000D01*
X43866117Y-84600000D01*
X43070937Y-83804820D01*
X42805368Y-83959684D01*
X42708356Y-84752604D01*
X41825000Y-84752604D01*
X41825000Y-82920937D01*
X43954820Y-82920937D01*
X44750000Y-83716117D01*
X45545180Y-82920937D01*
X45390316Y-82655368D01*
X44597396Y-82558356D01*
X44109684Y-82655368D01*
X43954820Y-82920937D01*
X41825000Y-82920937D01*
X41825000Y-81825000D01*
X113546992Y-81825000D01*
X113399151Y-82046259D01*
G36*
X50871307Y-106854000D02*
X50871307Y-107654000D01*
X50923604Y-107931933D01*
X51087862Y-108187198D01*
X51109175Y-108201761D01*
X51102802Y-108205862D01*
X50931554Y-108456492D01*
X50871307Y-108754000D01*
X50871307Y-109554000D01*
X50873377Y-109565000D01*
X50764002Y-109565000D01*
X50764002Y-108858000D01*
X50722000Y-108858000D01*
X50722000Y-108847500D01*
X50532500Y-108658000D01*
X49739000Y-108658000D01*
X49739000Y-108858000D01*
X49289000Y-108858000D01*
X49289000Y-108658000D01*
X49064000Y-108658000D01*
X49064000Y-108258000D01*
X49289000Y-108258000D01*
X49289000Y-107489500D01*
X49739000Y-107489500D01*
X49739000Y-108258000D01*
X50532500Y-108258000D01*
X50722000Y-108068500D01*
X50722000Y-107907225D01*
X50606602Y-107628628D01*
X50393373Y-107415399D01*
X50114776Y-107300000D01*
X49928500Y-107300000D01*
X49739000Y-107489500D01*
X49289000Y-107489500D01*
X49099500Y-107300000D01*
X49064000Y-107300000D01*
X49064000Y-107266147D01*
X49487147Y-106843000D01*
X50873535Y-106843000D01*
X50871307Y-106854000D01*
X50871307Y-106854000D01*
G37*
X50871307Y-106854000D02*
X50871307Y-107654000D01*
X50923604Y-107931933D01*
X51087862Y-108187198D01*
X51109175Y-108201761D01*
X51102802Y-108205862D01*
X50931554Y-108456492D01*
X50871307Y-108754000D01*
X50871307Y-109554000D01*
X50873377Y-109565000D01*
X50764002Y-109565000D01*
X50764002Y-108858000D01*
X50722000Y-108858000D01*
X50722000Y-108847500D01*
X50532500Y-108658000D01*
X49739000Y-108658000D01*
X49739000Y-108858000D01*
X49289000Y-108858000D01*
X49289000Y-108658000D01*
X49064000Y-108658000D01*
X49064000Y-108258000D01*
X49289000Y-108258000D01*
X49289000Y-107489500D01*
X49739000Y-107489500D01*
X49739000Y-108258000D01*
X50532500Y-108258000D01*
X50722000Y-108068500D01*
X50722000Y-107907225D01*
X50606602Y-107628628D01*
X50393373Y-107415399D01*
X50114776Y-107300000D01*
X49928500Y-107300000D01*
X49739000Y-107489500D01*
X49289000Y-107489500D01*
X49099500Y-107300000D01*
X49064000Y-107300000D01*
X49064000Y-107266147D01*
X49487147Y-106843000D01*
X50873535Y-106843000D01*
X50871307Y-106854000D01*
G36*
X78261307Y-96383000D02*
X78313604Y-96660933D01*
X78477862Y-96916198D01*
X78728492Y-97087446D01*
X79026000Y-97147693D01*
X80526000Y-97147693D01*
X80803933Y-97095396D01*
X81028571Y-96950846D01*
X81228492Y-97087446D01*
X81351000Y-97112255D01*
X81351000Y-99360852D01*
X81101685Y-99610167D01*
X80612941Y-99609740D01*
X80061428Y-99837620D01*
X79639103Y-100259209D01*
X79410261Y-100810323D01*
X79409740Y-101407059D01*
X79478432Y-101573307D01*
X77124000Y-101573307D01*
X76846067Y-101625604D01*
X76590802Y-101789862D01*
X76419554Y-102040492D01*
X76359307Y-102338000D01*
X76359307Y-104460776D01*
X76189613Y-104390313D01*
X75473529Y-104389688D01*
X74811714Y-104663145D01*
X74304924Y-105169051D01*
X74077000Y-105717952D01*
X74077000Y-100076000D01*
X74006589Y-99722018D01*
X73806074Y-99421926D01*
X73806071Y-99421924D01*
X73298074Y-98913926D01*
X73296693Y-98913003D01*
X73296693Y-97468000D01*
X73244396Y-97190067D01*
X73081552Y-96937000D01*
X73324239Y-96937000D01*
X73393862Y-97045198D01*
X73644492Y-97216446D01*
X73942000Y-97276693D01*
X74942000Y-97276693D01*
X75219933Y-97224396D01*
X75475198Y-97060138D01*
X75646446Y-96809508D01*
X75691461Y-96587220D01*
X75729604Y-96789933D01*
X75893862Y-97045198D01*
X76144492Y-97216446D01*
X76442000Y-97276693D01*
X77442000Y-97276693D01*
X77719933Y-97224396D01*
X77975198Y-97060138D01*
X78146446Y-96809508D01*
X78206693Y-96512000D01*
X78206693Y-96075455D01*
X78261307Y-96020841D01*
X78261307Y-96383000D01*
X78261307Y-96383000D01*
G37*
X78261307Y-96383000D02*
X78313604Y-96660933D01*
X78477862Y-96916198D01*
X78728492Y-97087446D01*
X79026000Y-97147693D01*
X80526000Y-97147693D01*
X80803933Y-97095396D01*
X81028571Y-96950846D01*
X81228492Y-97087446D01*
X81351000Y-97112255D01*
X81351000Y-99360852D01*
X81101685Y-99610167D01*
X80612941Y-99609740D01*
X80061428Y-99837620D01*
X79639103Y-100259209D01*
X79410261Y-100810323D01*
X79409740Y-101407059D01*
X79478432Y-101573307D01*
X77124000Y-101573307D01*
X76846067Y-101625604D01*
X76590802Y-101789862D01*
X76419554Y-102040492D01*
X76359307Y-102338000D01*
X76359307Y-104460776D01*
X76189613Y-104390313D01*
X75473529Y-104389688D01*
X74811714Y-104663145D01*
X74304924Y-105169051D01*
X74077000Y-105717952D01*
X74077000Y-100076000D01*
X74006589Y-99722018D01*
X73806074Y-99421926D01*
X73806071Y-99421924D01*
X73298074Y-98913926D01*
X73296693Y-98913003D01*
X73296693Y-97468000D01*
X73244396Y-97190067D01*
X73081552Y-96937000D01*
X73324239Y-96937000D01*
X73393862Y-97045198D01*
X73644492Y-97216446D01*
X73942000Y-97276693D01*
X74942000Y-97276693D01*
X75219933Y-97224396D01*
X75475198Y-97060138D01*
X75646446Y-96809508D01*
X75691461Y-96587220D01*
X75729604Y-96789933D01*
X75893862Y-97045198D01*
X76144492Y-97216446D01*
X76442000Y-97276693D01*
X77442000Y-97276693D01*
X77719933Y-97224396D01*
X77975198Y-97060138D01*
X78146446Y-96809508D01*
X78206693Y-96512000D01*
X78206693Y-96075455D01*
X78261307Y-96020841D01*
X78261307Y-96383000D01*
G36*
X85095143Y-86713291D02*
X84925554Y-86961492D01*
X84865307Y-87259000D01*
X84865307Y-88509000D01*
X84917604Y-88786933D01*
X85081862Y-89042198D01*
X85332492Y-89213446D01*
X85455000Y-89238255D01*
X85455000Y-89258853D01*
X83958000Y-90755852D01*
X83958000Y-89601998D01*
X83771972Y-89601998D01*
X83629372Y-89459398D01*
X83350775Y-89344000D01*
X83064500Y-89344000D01*
X82875000Y-89533500D01*
X82875000Y-90477000D01*
X83200000Y-90477000D01*
X83200000Y-91227000D01*
X82875000Y-91227000D01*
X82875000Y-91602000D01*
X82225000Y-91602000D01*
X82225000Y-91227000D01*
X81900000Y-91227000D01*
X81900000Y-90477000D01*
X82225000Y-90477000D01*
X82225000Y-89533500D01*
X82035500Y-89344000D01*
X81970148Y-89344000D01*
X82523454Y-88790693D01*
X83380000Y-88790693D01*
X83657933Y-88738396D01*
X83913198Y-88574138D01*
X84084446Y-88323508D01*
X84144693Y-88026000D01*
X84144693Y-86726000D01*
X84092396Y-86448067D01*
X83928138Y-86192802D01*
X83677508Y-86021554D01*
X83380000Y-85961307D01*
X81880000Y-85961307D01*
X81602067Y-86013604D01*
X81346802Y-86177862D01*
X81280740Y-86274548D01*
X81228138Y-86192802D01*
X80977508Y-86021554D01*
X80680000Y-85961307D01*
X79180000Y-85961307D01*
X78902067Y-86013604D01*
X78646802Y-86177862D01*
X78475554Y-86428492D01*
X78415307Y-86726000D01*
X78415307Y-87582545D01*
X78085926Y-87911926D01*
X77885411Y-88212017D01*
X77851187Y-88384074D01*
X77834554Y-88467693D01*
X77802388Y-88435471D01*
X77067570Y-88130348D01*
X76271921Y-88129654D01*
X75536571Y-88433494D01*
X74973471Y-88995612D01*
X74886526Y-89205000D01*
X74128000Y-89205000D01*
X73774017Y-89275411D01*
X73473926Y-89475926D01*
X72233849Y-90716003D01*
X72027570Y-90630348D01*
X71231921Y-90629654D01*
X70496571Y-90933494D01*
X69933471Y-91495612D01*
X69628348Y-92230430D01*
X69627654Y-93026079D01*
X69931494Y-93761429D01*
X70493612Y-94324529D01*
X70703000Y-94411474D01*
X70703000Y-95087000D01*
X69461693Y-95087000D01*
X69461693Y-94988000D01*
X69409396Y-94710067D01*
X69322002Y-94574252D01*
X69322002Y-94434972D01*
X69339601Y-94417373D01*
X69455000Y-94138776D01*
X69455000Y-93802500D01*
X69265500Y-93613000D01*
X68384500Y-93613000D01*
X68384500Y-93988000D01*
X67759500Y-93988000D01*
X67759500Y-93613000D01*
X66878500Y-93613000D01*
X66689000Y-93802500D01*
X66689000Y-94138776D01*
X66804399Y-94417373D01*
X66821998Y-94434972D01*
X66821998Y-94574222D01*
X66742554Y-94690492D01*
X66682307Y-94988000D01*
X66682307Y-96488000D01*
X66734604Y-96765933D01*
X66898862Y-97021198D01*
X67149492Y-97192446D01*
X67447000Y-97252693D01*
X68697000Y-97252693D01*
X68974933Y-97200396D01*
X69230198Y-97036138D01*
X69297936Y-96937000D01*
X70687092Y-96937000D01*
X70527554Y-97170492D01*
X70467307Y-97468000D01*
X70467307Y-98643000D01*
X67916498Y-98643000D01*
X67000791Y-98445743D01*
X66902458Y-98444187D01*
X66806000Y-98425000D01*
X57111273Y-98425000D01*
X55281000Y-95960126D01*
X55281000Y-95038940D01*
X55619813Y-95378345D01*
X56446484Y-95721608D01*
X57341589Y-95722390D01*
X58168858Y-95380569D01*
X58451725Y-95098195D01*
X58575926Y-95284074D01*
X59855926Y-96564074D01*
X59857857Y-96565364D01*
X59859156Y-96567288D01*
X60007823Y-96665568D01*
X60156017Y-96764588D01*
X60158294Y-96765041D01*
X60160232Y-96766322D01*
X60335258Y-96800241D01*
X60510000Y-96835000D01*
X60512277Y-96834547D01*
X60514557Y-96834989D01*
X61184494Y-96831689D01*
X61202604Y-96927933D01*
X61366862Y-97183198D01*
X61617492Y-97354446D01*
X61915000Y-97414693D01*
X63165000Y-97414693D01*
X63442933Y-97362396D01*
X63698198Y-97198138D01*
X63869446Y-96947508D01*
X63876866Y-96910866D01*
X63887604Y-96967933D01*
X64051862Y-97223198D01*
X64302492Y-97394446D01*
X64600000Y-97454693D01*
X65900000Y-97454693D01*
X66177933Y-97402396D01*
X66433198Y-97238138D01*
X66604446Y-96987508D01*
X66664693Y-96690000D01*
X66664693Y-95190000D01*
X66612396Y-94912067D01*
X66448138Y-94656802D01*
X66351452Y-94590740D01*
X66433198Y-94538138D01*
X66604446Y-94287508D01*
X66664693Y-93990000D01*
X66664693Y-92490000D01*
X66635947Y-92337224D01*
X66689000Y-92337224D01*
X66689000Y-92673500D01*
X66878500Y-92863000D01*
X67759500Y-92863000D01*
X67759500Y-91919500D01*
X68384500Y-91919500D01*
X68384500Y-92863000D01*
X69265500Y-92863000D01*
X69455000Y-92673500D01*
X69455000Y-92337224D01*
X69339601Y-92058627D01*
X69126372Y-91845398D01*
X68847775Y-91730000D01*
X68574000Y-91730000D01*
X68384500Y-91919500D01*
X67759500Y-91919500D01*
X67570000Y-91730000D01*
X67296225Y-91730000D01*
X67017628Y-91845398D01*
X66804399Y-92058627D01*
X66689000Y-92337224D01*
X66635947Y-92337224D01*
X66612396Y-92212067D01*
X66448138Y-91956802D01*
X66275000Y-91838502D01*
X66275000Y-91692948D01*
X66277933Y-91692396D01*
X66533198Y-91528138D01*
X66704446Y-91277508D01*
X66762263Y-90992002D01*
X66850028Y-90992002D01*
X66992628Y-91134602D01*
X67271225Y-91250000D01*
X67557500Y-91250000D01*
X67747000Y-91060500D01*
X67747000Y-90117000D01*
X68397000Y-90117000D01*
X68397000Y-91060500D01*
X68586500Y-91250000D01*
X68872775Y-91250000D01*
X69151372Y-91134602D01*
X69364601Y-90921373D01*
X69480000Y-90642776D01*
X69480000Y-90306500D01*
X69290500Y-90117000D01*
X68397000Y-90117000D01*
X67747000Y-90117000D01*
X67422000Y-90117000D01*
X67422000Y-89367000D01*
X67747000Y-89367000D01*
X67747000Y-88992000D01*
X68397000Y-88992000D01*
X68397000Y-89367000D01*
X69290500Y-89367000D01*
X69480000Y-89177500D01*
X69480000Y-88841224D01*
X69364601Y-88562627D01*
X69322002Y-88520028D01*
X69322002Y-88242367D01*
X69426446Y-88089508D01*
X69451255Y-87967000D01*
X69627706Y-87967000D01*
X69627654Y-88026079D01*
X69931494Y-88761429D01*
X70493612Y-89324529D01*
X71228430Y-89629652D01*
X72024079Y-89630346D01*
X72759429Y-89326506D01*
X73322529Y-88764388D01*
X73627652Y-88029570D01*
X73628346Y-87233921D01*
X73324506Y-86498571D01*
X72762388Y-85935471D01*
X72038773Y-85635000D01*
X84016852Y-85635000D01*
X85095143Y-86713291D01*
X85095143Y-86713291D01*
G37*
X85095143Y-86713291D02*
X84925554Y-86961492D01*
X84865307Y-87259000D01*
X84865307Y-88509000D01*
X84917604Y-88786933D01*
X85081862Y-89042198D01*
X85332492Y-89213446D01*
X85455000Y-89238255D01*
X85455000Y-89258853D01*
X83958000Y-90755852D01*
X83958000Y-89601998D01*
X83771972Y-89601998D01*
X83629372Y-89459398D01*
X83350775Y-89344000D01*
X83064500Y-89344000D01*
X82875000Y-89533500D01*
X82875000Y-90477000D01*
X83200000Y-90477000D01*
X83200000Y-91227000D01*
X82875000Y-91227000D01*
X82875000Y-91602000D01*
X82225000Y-91602000D01*
X82225000Y-91227000D01*
X81900000Y-91227000D01*
X81900000Y-90477000D01*
X82225000Y-90477000D01*
X82225000Y-89533500D01*
X82035500Y-89344000D01*
X81970148Y-89344000D01*
X82523454Y-88790693D01*
X83380000Y-88790693D01*
X83657933Y-88738396D01*
X83913198Y-88574138D01*
X84084446Y-88323508D01*
X84144693Y-88026000D01*
X84144693Y-86726000D01*
X84092396Y-86448067D01*
X83928138Y-86192802D01*
X83677508Y-86021554D01*
X83380000Y-85961307D01*
X81880000Y-85961307D01*
X81602067Y-86013604D01*
X81346802Y-86177862D01*
X81280740Y-86274548D01*
X81228138Y-86192802D01*
X80977508Y-86021554D01*
X80680000Y-85961307D01*
X79180000Y-85961307D01*
X78902067Y-86013604D01*
X78646802Y-86177862D01*
X78475554Y-86428492D01*
X78415307Y-86726000D01*
X78415307Y-87582545D01*
X78085926Y-87911926D01*
X77885411Y-88212017D01*
X77851187Y-88384074D01*
X77834554Y-88467693D01*
X77802388Y-88435471D01*
X77067570Y-88130348D01*
X76271921Y-88129654D01*
X75536571Y-88433494D01*
X74973471Y-88995612D01*
X74886526Y-89205000D01*
X74128000Y-89205000D01*
X73774017Y-89275411D01*
X73473926Y-89475926D01*
X72233849Y-90716003D01*
X72027570Y-90630348D01*
X71231921Y-90629654D01*
X70496571Y-90933494D01*
X69933471Y-91495612D01*
X69628348Y-92230430D01*
X69627654Y-93026079D01*
X69931494Y-93761429D01*
X70493612Y-94324529D01*
X70703000Y-94411474D01*
X70703000Y-95087000D01*
X69461693Y-95087000D01*
X69461693Y-94988000D01*
X69409396Y-94710067D01*
X69322002Y-94574252D01*
X69322002Y-94434972D01*
X69339601Y-94417373D01*
X69455000Y-94138776D01*
X69455000Y-93802500D01*
X69265500Y-93613000D01*
X68384500Y-93613000D01*
X68384500Y-93988000D01*
X67759500Y-93988000D01*
X67759500Y-93613000D01*
X66878500Y-93613000D01*
X66689000Y-93802500D01*
X66689000Y-94138776D01*
X66804399Y-94417373D01*
X66821998Y-94434972D01*
X66821998Y-94574222D01*
X66742554Y-94690492D01*
X66682307Y-94988000D01*
X66682307Y-96488000D01*
X66734604Y-96765933D01*
X66898862Y-97021198D01*
X67149492Y-97192446D01*
X67447000Y-97252693D01*
X68697000Y-97252693D01*
X68974933Y-97200396D01*
X69230198Y-97036138D01*
X69297936Y-96937000D01*
X70687092Y-96937000D01*
X70527554Y-97170492D01*
X70467307Y-97468000D01*
X70467307Y-98643000D01*
X67916498Y-98643000D01*
X67000791Y-98445743D01*
X66902458Y-98444187D01*
X66806000Y-98425000D01*
X57111273Y-98425000D01*
X55281000Y-95960126D01*
X55281000Y-95038940D01*
X55619813Y-95378345D01*
X56446484Y-95721608D01*
X57341589Y-95722390D01*
X58168858Y-95380569D01*
X58451725Y-95098195D01*
X58575926Y-95284074D01*
X59855926Y-96564074D01*
X59857857Y-96565364D01*
X59859156Y-96567288D01*
X60007823Y-96665568D01*
X60156017Y-96764588D01*
X60158294Y-96765041D01*
X60160232Y-96766322D01*
X60335258Y-96800241D01*
X60510000Y-96835000D01*
X60512277Y-96834547D01*
X60514557Y-96834989D01*
X61184494Y-96831689D01*
X61202604Y-96927933D01*
X61366862Y-97183198D01*
X61617492Y-97354446D01*
X61915000Y-97414693D01*
X63165000Y-97414693D01*
X63442933Y-97362396D01*
X63698198Y-97198138D01*
X63869446Y-96947508D01*
X63876866Y-96910866D01*
X63887604Y-96967933D01*
X64051862Y-97223198D01*
X64302492Y-97394446D01*
X64600000Y-97454693D01*
X65900000Y-97454693D01*
X66177933Y-97402396D01*
X66433198Y-97238138D01*
X66604446Y-96987508D01*
X66664693Y-96690000D01*
X66664693Y-95190000D01*
X66612396Y-94912067D01*
X66448138Y-94656802D01*
X66351452Y-94590740D01*
X66433198Y-94538138D01*
X66604446Y-94287508D01*
X66664693Y-93990000D01*
X66664693Y-92490000D01*
X66635947Y-92337224D01*
X66689000Y-92337224D01*
X66689000Y-92673500D01*
X66878500Y-92863000D01*
X67759500Y-92863000D01*
X67759500Y-91919500D01*
X68384500Y-91919500D01*
X68384500Y-92863000D01*
X69265500Y-92863000D01*
X69455000Y-92673500D01*
X69455000Y-92337224D01*
X69339601Y-92058627D01*
X69126372Y-91845398D01*
X68847775Y-91730000D01*
X68574000Y-91730000D01*
X68384500Y-91919500D01*
X67759500Y-91919500D01*
X67570000Y-91730000D01*
X67296225Y-91730000D01*
X67017628Y-91845398D01*
X66804399Y-92058627D01*
X66689000Y-92337224D01*
X66635947Y-92337224D01*
X66612396Y-92212067D01*
X66448138Y-91956802D01*
X66275000Y-91838502D01*
X66275000Y-91692948D01*
X66277933Y-91692396D01*
X66533198Y-91528138D01*
X66704446Y-91277508D01*
X66762263Y-90992002D01*
X66850028Y-90992002D01*
X66992628Y-91134602D01*
X67271225Y-91250000D01*
X67557500Y-91250000D01*
X67747000Y-91060500D01*
X67747000Y-90117000D01*
X68397000Y-90117000D01*
X68397000Y-91060500D01*
X68586500Y-91250000D01*
X68872775Y-91250000D01*
X69151372Y-91134602D01*
X69364601Y-90921373D01*
X69480000Y-90642776D01*
X69480000Y-90306500D01*
X69290500Y-90117000D01*
X68397000Y-90117000D01*
X67747000Y-90117000D01*
X67422000Y-90117000D01*
X67422000Y-89367000D01*
X67747000Y-89367000D01*
X67747000Y-88992000D01*
X68397000Y-88992000D01*
X68397000Y-89367000D01*
X69290500Y-89367000D01*
X69480000Y-89177500D01*
X69480000Y-88841224D01*
X69364601Y-88562627D01*
X69322002Y-88520028D01*
X69322002Y-88242367D01*
X69426446Y-88089508D01*
X69451255Y-87967000D01*
X69627706Y-87967000D01*
X69627654Y-88026079D01*
X69931494Y-88761429D01*
X70493612Y-89324529D01*
X71228430Y-89629652D01*
X72024079Y-89630346D01*
X72759429Y-89326506D01*
X73322529Y-88764388D01*
X73627652Y-88029570D01*
X73628346Y-87233921D01*
X73324506Y-86498571D01*
X72762388Y-85935471D01*
X72038773Y-85635000D01*
X84016852Y-85635000D01*
X85095143Y-86713291D01*
G36*
X52779000Y-96703000D02*
X53154000Y-96703000D01*
X53154000Y-97353000D01*
X52779000Y-97353000D01*
X52779000Y-97678000D01*
X52076148Y-97678000D01*
X52029000Y-97630852D01*
X52029000Y-97353000D01*
X51751148Y-97353000D01*
X51654000Y-97255852D01*
X51654000Y-96703000D01*
X52029000Y-96703000D01*
X52029000Y-96378000D01*
X52779000Y-96378000D01*
X52779000Y-96703000D01*
X52779000Y-96703000D01*
G37*
X52779000Y-96703000D02*
X53154000Y-96703000D01*
X53154000Y-97353000D01*
X52779000Y-97353000D01*
X52779000Y-97678000D01*
X52076148Y-97678000D01*
X52029000Y-97630852D01*
X52029000Y-97353000D01*
X51751148Y-97353000D01*
X51654000Y-97255852D01*
X51654000Y-96703000D01*
X52029000Y-96703000D01*
X52029000Y-96378000D01*
X52779000Y-96378000D01*
X52779000Y-96703000D01*
G36*
X50793813Y-95378345D02*
X51375785Y-95620000D01*
X51153998Y-95620000D01*
X51153998Y-95777998D01*
X50904367Y-95777998D01*
X50751508Y-95673554D01*
X50454000Y-95613307D01*
X49464883Y-95613307D01*
X50555159Y-95139274D01*
X50793813Y-95378345D01*
X50793813Y-95378345D01*
G37*
X50793813Y-95378345D02*
X51375785Y-95620000D01*
X51153998Y-95620000D01*
X51153998Y-95777998D01*
X50904367Y-95777998D01*
X50751508Y-95673554D01*
X50454000Y-95613307D01*
X49464883Y-95613307D01*
X50555159Y-95139274D01*
X50793813Y-95378345D01*
G36*
X96621000Y-87571500D02*
X97564500Y-87571500D01*
X97597000Y-87539000D01*
X98422852Y-87539000D01*
X99398737Y-88514885D01*
X99267391Y-88685280D01*
X99213192Y-88794577D01*
X99145411Y-88896018D01*
X99133705Y-88954868D01*
X99107048Y-89008624D01*
X99098800Y-89130347D01*
X99075000Y-89250000D01*
X99075000Y-90287333D01*
X98937554Y-90488492D01*
X98877307Y-90786000D01*
X98877307Y-91586000D01*
X98929604Y-91863933D01*
X99093862Y-92119198D01*
X99344492Y-92290446D01*
X99642000Y-92350693D01*
X100165000Y-92350693D01*
X100165000Y-92982000D01*
X100188135Y-93098307D01*
X99346000Y-93098307D01*
X99068067Y-93150604D01*
X98812802Y-93314862D01*
X98641554Y-93565492D01*
X98581307Y-93863000D01*
X98581307Y-95113000D01*
X98627055Y-95356127D01*
X98570740Y-95438548D01*
X98518138Y-95356802D01*
X98332434Y-95229916D01*
X98354693Y-95120000D01*
X98354693Y-93820000D01*
X98302396Y-93542067D01*
X98138138Y-93286802D01*
X97887508Y-93115554D01*
X97715412Y-93080704D01*
X97694589Y-92976017D01*
X97494074Y-92675926D01*
X97014693Y-92196545D01*
X97014693Y-91890000D01*
X96962396Y-91612067D01*
X96921170Y-91548000D01*
X97050002Y-91548000D01*
X97050002Y-90790000D01*
X97008000Y-90790000D01*
X97008000Y-90779500D01*
X96818500Y-90590000D01*
X96025000Y-90590000D01*
X96025000Y-90790000D01*
X95575000Y-90790000D01*
X95575000Y-90590000D01*
X95350000Y-90590000D01*
X95350000Y-90190000D01*
X95575000Y-90190000D01*
X95575000Y-89421500D01*
X95420500Y-89267000D01*
X96179500Y-89267000D01*
X96025000Y-89421500D01*
X96025000Y-90190000D01*
X96818500Y-90190000D01*
X97008000Y-90000500D01*
X97008000Y-89839225D01*
X96892602Y-89560628D01*
X96679373Y-89347399D01*
X96485273Y-89267000D01*
X97496002Y-89267000D01*
X97496002Y-89080972D01*
X97638602Y-88938372D01*
X97754000Y-88659775D01*
X97754000Y-88386000D01*
X97564500Y-88196500D01*
X96621000Y-88196500D01*
X96621000Y-88509000D01*
X95871000Y-88509000D01*
X95871000Y-88196500D01*
X95496000Y-88196500D01*
X95496000Y-87571500D01*
X95871000Y-87571500D01*
X95871000Y-87539000D01*
X96621000Y-87539000D01*
X96621000Y-87571500D01*
X96621000Y-87571500D01*
G37*
X96621000Y-87571500D02*
X97564500Y-87571500D01*
X97597000Y-87539000D01*
X98422852Y-87539000D01*
X99398737Y-88514885D01*
X99267391Y-88685280D01*
X99213192Y-88794577D01*
X99145411Y-88896018D01*
X99133705Y-88954868D01*
X99107048Y-89008624D01*
X99098800Y-89130347D01*
X99075000Y-89250000D01*
X99075000Y-90287333D01*
X98937554Y-90488492D01*
X98877307Y-90786000D01*
X98877307Y-91586000D01*
X98929604Y-91863933D01*
X99093862Y-92119198D01*
X99344492Y-92290446D01*
X99642000Y-92350693D01*
X100165000Y-92350693D01*
X100165000Y-92982000D01*
X100188135Y-93098307D01*
X99346000Y-93098307D01*
X99068067Y-93150604D01*
X98812802Y-93314862D01*
X98641554Y-93565492D01*
X98581307Y-93863000D01*
X98581307Y-95113000D01*
X98627055Y-95356127D01*
X98570740Y-95438548D01*
X98518138Y-95356802D01*
X98332434Y-95229916D01*
X98354693Y-95120000D01*
X98354693Y-93820000D01*
X98302396Y-93542067D01*
X98138138Y-93286802D01*
X97887508Y-93115554D01*
X97715412Y-93080704D01*
X97694589Y-92976017D01*
X97494074Y-92675926D01*
X97014693Y-92196545D01*
X97014693Y-91890000D01*
X96962396Y-91612067D01*
X96921170Y-91548000D01*
X97050002Y-91548000D01*
X97050002Y-90790000D01*
X97008000Y-90790000D01*
X97008000Y-90779500D01*
X96818500Y-90590000D01*
X96025000Y-90590000D01*
X96025000Y-90790000D01*
X95575000Y-90790000D01*
X95575000Y-90590000D01*
X95350000Y-90590000D01*
X95350000Y-90190000D01*
X95575000Y-90190000D01*
X95575000Y-89421500D01*
X95420500Y-89267000D01*
X96179500Y-89267000D01*
X96025000Y-89421500D01*
X96025000Y-90190000D01*
X96818500Y-90190000D01*
X97008000Y-90000500D01*
X97008000Y-89839225D01*
X96892602Y-89560628D01*
X96679373Y-89347399D01*
X96485273Y-89267000D01*
X97496002Y-89267000D01*
X97496002Y-89080972D01*
X97638602Y-88938372D01*
X97754000Y-88659775D01*
X97754000Y-88386000D01*
X97564500Y-88196500D01*
X96621000Y-88196500D01*
X96621000Y-88509000D01*
X95871000Y-88509000D01*
X95871000Y-88196500D01*
X95496000Y-88196500D01*
X95496000Y-87571500D01*
X95871000Y-87571500D01*
X95871000Y-87539000D01*
X96621000Y-87539000D01*
X96621000Y-87571500D01*
G36*
X74971494Y-91261429D02*
X75533612Y-91824529D01*
X76268430Y-92129652D01*
X77064079Y-92130346D01*
X77799429Y-91826506D01*
X77815000Y-91810962D01*
X77815000Y-93850852D01*
X76918545Y-94747307D01*
X76442000Y-94747307D01*
X76164067Y-94799604D01*
X75908802Y-94963862D01*
X75737554Y-95214492D01*
X75692539Y-95436780D01*
X75654396Y-95234067D01*
X75490138Y-94978802D01*
X75239508Y-94807554D01*
X74942000Y-94747307D01*
X73942000Y-94747307D01*
X73664067Y-94799604D01*
X73408802Y-94963862D01*
X73324665Y-95087000D01*
X72553000Y-95087000D01*
X72553000Y-94411801D01*
X72759429Y-94326506D01*
X73322529Y-93764388D01*
X73627652Y-93029570D01*
X73628346Y-92233921D01*
X73541766Y-92024382D01*
X74511148Y-91055000D01*
X74886199Y-91055000D01*
X74971494Y-91261429D01*
X74971494Y-91261429D01*
G37*
X74971494Y-91261429D02*
X75533612Y-91824529D01*
X76268430Y-92129652D01*
X77064079Y-92130346D01*
X77799429Y-91826506D01*
X77815000Y-91810962D01*
X77815000Y-93850852D01*
X76918545Y-94747307D01*
X76442000Y-94747307D01*
X76164067Y-94799604D01*
X75908802Y-94963862D01*
X75737554Y-95214492D01*
X75692539Y-95436780D01*
X75654396Y-95234067D01*
X75490138Y-94978802D01*
X75239508Y-94807554D01*
X74942000Y-94747307D01*
X73942000Y-94747307D01*
X73664067Y-94799604D01*
X73408802Y-94963862D01*
X73324665Y-95087000D01*
X72553000Y-95087000D01*
X72553000Y-94411801D01*
X72759429Y-94326506D01*
X73322529Y-93764388D01*
X73627652Y-93029570D01*
X73628346Y-92233921D01*
X73541766Y-92024382D01*
X74511148Y-91055000D01*
X74886199Y-91055000D01*
X74971494Y-91261429D01*
G36*
X90025307Y-91508000D02*
X90077604Y-91785933D01*
X90241862Y-92041198D01*
X90492492Y-92212446D01*
X90790000Y-92272693D01*
X92090000Y-92272693D01*
X92367933Y-92220396D01*
X92623198Y-92056138D01*
X92643278Y-92026750D01*
X92801862Y-92273198D01*
X92875000Y-92323171D01*
X92875000Y-93260152D01*
X92856802Y-93271862D01*
X92685554Y-93522492D01*
X92625307Y-93820000D01*
X92625307Y-95120000D01*
X92653694Y-95270862D01*
X92457429Y-95397154D01*
X92257508Y-95260554D01*
X91960000Y-95200307D01*
X91185000Y-95200307D01*
X91185000Y-94550005D01*
X91185001Y-94550000D01*
X91114589Y-94196018D01*
X90914074Y-93895926D01*
X90060693Y-93042545D01*
X90060693Y-92294000D01*
X90008396Y-92016067D01*
X89844138Y-91760802D01*
X89747452Y-91694740D01*
X89829198Y-91642138D01*
X90000446Y-91391508D01*
X90025307Y-91268741D01*
X90025307Y-91508000D01*
X90025307Y-91508000D01*
G37*
X90025307Y-91508000D02*
X90077604Y-91785933D01*
X90241862Y-92041198D01*
X90492492Y-92212446D01*
X90790000Y-92272693D01*
X92090000Y-92272693D01*
X92367933Y-92220396D01*
X92623198Y-92056138D01*
X92643278Y-92026750D01*
X92801862Y-92273198D01*
X92875000Y-92323171D01*
X92875000Y-93260152D01*
X92856802Y-93271862D01*
X92685554Y-93522492D01*
X92625307Y-93820000D01*
X92625307Y-95120000D01*
X92653694Y-95270862D01*
X92457429Y-95397154D01*
X92257508Y-95260554D01*
X91960000Y-95200307D01*
X91185000Y-95200307D01*
X91185000Y-94550005D01*
X91185001Y-94550000D01*
X91114589Y-94196018D01*
X90914074Y-93895926D01*
X90060693Y-93042545D01*
X90060693Y-92294000D01*
X90008396Y-92016067D01*
X89844138Y-91760802D01*
X89747452Y-91694740D01*
X89829198Y-91642138D01*
X90000446Y-91391508D01*
X90025307Y-91268741D01*
X90025307Y-91508000D01*
G36*
X60685554Y-89432492D02*
X60625307Y-89730000D01*
X60625307Y-90630000D01*
X60677604Y-90907933D01*
X60841862Y-91163198D01*
X61092492Y-91334446D01*
X61390000Y-91394693D01*
X62190000Y-91394693D01*
X62467933Y-91342396D01*
X62723198Y-91178138D01*
X62773171Y-91105000D01*
X63400000Y-91105000D01*
X63753983Y-91034589D01*
X63935307Y-90913432D01*
X63935307Y-90980000D01*
X63987604Y-91257933D01*
X64151862Y-91513198D01*
X64402492Y-91684446D01*
X64425000Y-91689004D01*
X64425000Y-91758236D01*
X64322067Y-91777604D01*
X64066802Y-91941862D01*
X63923000Y-92152323D01*
X63923000Y-92149998D01*
X63736972Y-92149998D01*
X63594372Y-92007398D01*
X63315775Y-91892000D01*
X63042000Y-91892000D01*
X62852500Y-92081500D01*
X62852500Y-93025000D01*
X63165000Y-93025000D01*
X63165000Y-93775000D01*
X62852500Y-93775000D01*
X62852500Y-94150000D01*
X62227500Y-94150000D01*
X62227500Y-93775000D01*
X61346500Y-93775000D01*
X61157000Y-93964500D01*
X61157000Y-94300776D01*
X61272399Y-94579373D01*
X61289998Y-94596972D01*
X61289998Y-94736222D01*
X61210554Y-94852492D01*
X61184395Y-94981666D01*
X60891258Y-94983110D01*
X60155000Y-94246852D01*
X60155000Y-92499224D01*
X61157000Y-92499224D01*
X61157000Y-92835500D01*
X61346500Y-93025000D01*
X62227500Y-93025000D01*
X62227500Y-92081500D01*
X62038000Y-91892000D01*
X61764225Y-91892000D01*
X61485628Y-92007398D01*
X61272399Y-92220627D01*
X61157000Y-92499224D01*
X60155000Y-92499224D01*
X60155000Y-89430002D01*
X60440000Y-89430002D01*
X60440000Y-89388000D01*
X60715954Y-89388000D01*
X60685554Y-89432492D01*
X60685554Y-89432492D01*
G37*
X60685554Y-89432492D02*
X60625307Y-89730000D01*
X60625307Y-90630000D01*
X60677604Y-90907933D01*
X60841862Y-91163198D01*
X61092492Y-91334446D01*
X61390000Y-91394693D01*
X62190000Y-91394693D01*
X62467933Y-91342396D01*
X62723198Y-91178138D01*
X62773171Y-91105000D01*
X63400000Y-91105000D01*
X63753983Y-91034589D01*
X63935307Y-90913432D01*
X63935307Y-90980000D01*
X63987604Y-91257933D01*
X64151862Y-91513198D01*
X64402492Y-91684446D01*
X64425000Y-91689004D01*
X64425000Y-91758236D01*
X64322067Y-91777604D01*
X64066802Y-91941862D01*
X63923000Y-92152323D01*
X63923000Y-92149998D01*
X63736972Y-92149998D01*
X63594372Y-92007398D01*
X63315775Y-91892000D01*
X63042000Y-91892000D01*
X62852500Y-92081500D01*
X62852500Y-93025000D01*
X63165000Y-93025000D01*
X63165000Y-93775000D01*
X62852500Y-93775000D01*
X62852500Y-94150000D01*
X62227500Y-94150000D01*
X62227500Y-93775000D01*
X61346500Y-93775000D01*
X61157000Y-93964500D01*
X61157000Y-94300776D01*
X61272399Y-94579373D01*
X61289998Y-94596972D01*
X61289998Y-94736222D01*
X61210554Y-94852492D01*
X61184395Y-94981666D01*
X60891258Y-94983110D01*
X60155000Y-94246852D01*
X60155000Y-92499224D01*
X61157000Y-92499224D01*
X61157000Y-92835500D01*
X61346500Y-93025000D01*
X62227500Y-93025000D01*
X62227500Y-92081500D01*
X62038000Y-91892000D01*
X61764225Y-91892000D01*
X61485628Y-92007398D01*
X61272399Y-92220627D01*
X61157000Y-92499224D01*
X60155000Y-92499224D01*
X60155000Y-89430002D01*
X60440000Y-89430002D01*
X60440000Y-89388000D01*
X60715954Y-89388000D01*
X60685554Y-89432492D01*
G36*
X103800000Y-87612500D02*
X104175000Y-87612500D01*
X104175000Y-88237500D01*
X103800000Y-88237500D01*
X103800000Y-89118500D01*
X103989500Y-89308000D01*
X104260307Y-89308000D01*
X104260307Y-90400000D01*
X104312604Y-90677933D01*
X104476862Y-90933198D01*
X104543890Y-90978996D01*
X104391802Y-91076862D01*
X104253161Y-91279770D01*
X103116224Y-91243342D01*
X103090138Y-91202802D01*
X103068825Y-91188239D01*
X103075198Y-91184138D01*
X103246446Y-90933508D01*
X103306693Y-90636000D01*
X103306693Y-89836000D01*
X103254396Y-89558067D01*
X103090138Y-89302802D01*
X102956802Y-89211698D01*
X103050000Y-89118500D01*
X103050000Y-88237500D01*
X102675000Y-88237500D01*
X102675000Y-87670747D01*
X102744896Y-87612500D01*
X103050000Y-87612500D01*
X103050000Y-87475000D01*
X103800000Y-87475000D01*
X103800000Y-87612500D01*
X103800000Y-87612500D01*
G37*
X103800000Y-87612500D02*
X104175000Y-87612500D01*
X104175000Y-88237500D01*
X103800000Y-88237500D01*
X103800000Y-89118500D01*
X103989500Y-89308000D01*
X104260307Y-89308000D01*
X104260307Y-90400000D01*
X104312604Y-90677933D01*
X104476862Y-90933198D01*
X104543890Y-90978996D01*
X104391802Y-91076862D01*
X104253161Y-91279770D01*
X103116224Y-91243342D01*
X103090138Y-91202802D01*
X103068825Y-91188239D01*
X103075198Y-91184138D01*
X103246446Y-90933508D01*
X103306693Y-90636000D01*
X103306693Y-89836000D01*
X103254396Y-89558067D01*
X103090138Y-89302802D01*
X102956802Y-89211698D01*
X103050000Y-89118500D01*
X103050000Y-88237500D01*
X102675000Y-88237500D01*
X102675000Y-87670747D01*
X102744896Y-87612500D01*
X103050000Y-87612500D01*
X103050000Y-87475000D01*
X103800000Y-87475000D01*
X103800000Y-87612500D01*
G36*
X61040000Y-87955000D02*
X61240000Y-87955000D01*
X61240000Y-88405000D01*
X61040000Y-88405000D01*
X61040000Y-88630000D01*
X60640000Y-88630000D01*
X60640000Y-88405000D01*
X60440000Y-88405000D01*
X60440000Y-87955000D01*
X60640000Y-87955000D01*
X60640000Y-87730000D01*
X61040000Y-87730000D01*
X61040000Y-87955000D01*
X61040000Y-87955000D01*
G37*
X61040000Y-87955000D02*
X61240000Y-87955000D01*
X61240000Y-88405000D01*
X61040000Y-88405000D01*
X61040000Y-88630000D01*
X60640000Y-88630000D01*
X60640000Y-88405000D01*
X60440000Y-88405000D01*
X60440000Y-87955000D01*
X60640000Y-87955000D01*
X60640000Y-87730000D01*
X61040000Y-87730000D01*
X61040000Y-87955000D01*
G36*
X89255000Y-87571500D02*
X89630000Y-87571500D01*
X89630000Y-88196500D01*
X89255000Y-88196500D01*
X89255000Y-88509000D01*
X88505000Y-88509000D01*
X88505000Y-88196500D01*
X88130000Y-88196500D01*
X88130000Y-87571500D01*
X88505000Y-87571500D01*
X88505000Y-87539000D01*
X89255000Y-87539000D01*
X89255000Y-87571500D01*
X89255000Y-87571500D01*
G37*
X89255000Y-87571500D02*
X89630000Y-87571500D01*
X89630000Y-88196500D01*
X89255000Y-88196500D01*
X89255000Y-88509000D01*
X88505000Y-88509000D01*
X88505000Y-88196500D01*
X88130000Y-88196500D01*
X88130000Y-87571500D01*
X88505000Y-87571500D01*
X88505000Y-87539000D01*
X89255000Y-87539000D01*
X89255000Y-87571500D01*
M02*
