G04 #@! TF.FileFunction,Legend,Top*
%FSLAX46Y46*%
G04 Gerber Fmt 4.6, Leading zero omitted, Abs format (unit mm)*
G04 Created by KiCad (PCBNEW 4.0.7) date 04/23/20 09:41:11*
%MOMM*%
%LPD*%
G01*
G04 APERTURE LIST*
%ADD10C,0.100000*%
%ADD11C,0.120000*%
%ADD12C,0.150000*%
G04 APERTURE END LIST*
D10*
D11*
X97500000Y-85525000D02*
X96500000Y-85525000D01*
X96500000Y-87225000D02*
X97500000Y-87225000D01*
X83350000Y-93210000D02*
X83350000Y-92010000D01*
X85110000Y-92010000D02*
X85110000Y-93210000D01*
X107060000Y-91880000D02*
X106060000Y-91880000D01*
X106060000Y-93580000D02*
X107060000Y-93580000D01*
X98740000Y-93270000D02*
X97740000Y-93270000D01*
X97740000Y-94970000D02*
X98740000Y-94970000D01*
X90336000Y-92464000D02*
X90336000Y-93464000D01*
X92036000Y-93464000D02*
X92036000Y-92464000D01*
X76446000Y-90336000D02*
X75446000Y-90336000D01*
X75446000Y-92036000D02*
X76446000Y-92036000D01*
X76446000Y-96940000D02*
X75446000Y-96940000D01*
X75446000Y-98640000D02*
X76446000Y-98640000D01*
X85432000Y-87622000D02*
X85432000Y-86622000D01*
X83732000Y-86622000D02*
X83732000Y-87622000D01*
X77846000Y-96608000D02*
X77846000Y-94908000D01*
X77846000Y-94908000D02*
X74696000Y-94908000D01*
X77846000Y-96608000D02*
X74696000Y-96608000D01*
X100650000Y-96380000D02*
X100650000Y-95180000D01*
X102410000Y-95180000D02*
X102410000Y-96380000D01*
X92420000Y-93400000D02*
X92420000Y-92200000D01*
X94180000Y-92200000D02*
X94180000Y-93400000D01*
X96325000Y-89130000D02*
X95125000Y-89130000D01*
X95125000Y-87370000D02*
X96325000Y-87370000D01*
X91470000Y-88500000D02*
X91470000Y-87300000D01*
X93230000Y-87300000D02*
X93230000Y-88500000D01*
X76546000Y-94098000D02*
X75346000Y-94098000D01*
X75346000Y-92338000D02*
X76546000Y-92338000D01*
X71600000Y-81820000D02*
X72800000Y-81820000D01*
X72800000Y-83580000D02*
X71600000Y-83580000D01*
X78000000Y-83450000D02*
X74800000Y-83450000D01*
X74800000Y-81950000D02*
X78000000Y-81950000D01*
X74800000Y-81950000D02*
X74800000Y-83450000D01*
X101300000Y-89320000D02*
X102300000Y-89320000D01*
X102300000Y-87620000D02*
X101300000Y-87620000D01*
X106130000Y-88440000D02*
X106130000Y-89640000D01*
X104370000Y-89640000D02*
X104370000Y-88440000D01*
X87030000Y-93560000D02*
X88230000Y-93560000D01*
X88230000Y-95320000D02*
X87030000Y-95320000D01*
X70900000Y-99580000D02*
X69700000Y-99580000D01*
X69700000Y-97820000D02*
X70900000Y-97820000D01*
X80430000Y-86622000D02*
X80430000Y-87622000D01*
X82130000Y-87622000D02*
X82130000Y-86622000D01*
X102425000Y-87455000D02*
X101225000Y-87455000D01*
X101225000Y-85695000D02*
X102425000Y-85695000D01*
X90990000Y-86980000D02*
X90990000Y-88180000D01*
X89230000Y-88180000D02*
X89230000Y-86980000D01*
X87494000Y-86522000D02*
X87494000Y-87722000D01*
X85734000Y-87722000D02*
X85734000Y-86522000D01*
X100640000Y-89920000D02*
X100640000Y-90850000D01*
X100640000Y-93080000D02*
X100640000Y-92150000D01*
X100640000Y-93080000D02*
X102800000Y-93080000D01*
X100640000Y-89920000D02*
X102100000Y-89920000D01*
X95370000Y-89880000D02*
X95370000Y-90810000D01*
X95370000Y-93040000D02*
X95370000Y-92110000D01*
X95370000Y-93040000D02*
X97530000Y-93040000D01*
X95370000Y-89880000D02*
X96830000Y-89880000D01*
X86780000Y-92320000D02*
X87710000Y-92320000D01*
X89940000Y-92320000D02*
X89010000Y-92320000D01*
X89940000Y-92320000D02*
X89940000Y-90160000D01*
X86780000Y-92320000D02*
X86780000Y-90860000D01*
D12*
X96607334Y-85193143D02*
X96559715Y-85240762D01*
X96416858Y-85288381D01*
X96321620Y-85288381D01*
X96178762Y-85240762D01*
X96083524Y-85145524D01*
X96035905Y-85050286D01*
X95988286Y-84859810D01*
X95988286Y-84716952D01*
X96035905Y-84526476D01*
X96083524Y-84431238D01*
X96178762Y-84336000D01*
X96321620Y-84288381D01*
X96416858Y-84288381D01*
X96559715Y-84336000D01*
X96607334Y-84383619D01*
X97464477Y-84621714D02*
X97464477Y-85288381D01*
X97226381Y-84240762D02*
X96988286Y-84955048D01*
X97607334Y-84955048D01*
X83022381Y-93012857D02*
X82546190Y-93346191D01*
X83022381Y-93584286D02*
X82022381Y-93584286D01*
X82022381Y-93203333D01*
X82070000Y-93108095D01*
X82117619Y-93060476D01*
X82212857Y-93012857D01*
X82355714Y-93012857D01*
X82450952Y-93060476D01*
X82498571Y-93108095D01*
X82546190Y-93203333D01*
X82546190Y-93584286D01*
X83022381Y-92060476D02*
X83022381Y-92631905D01*
X83022381Y-92346191D02*
X82022381Y-92346191D01*
X82165238Y-92441429D01*
X82260476Y-92536667D01*
X82308095Y-92631905D01*
X82022381Y-91441429D02*
X82022381Y-91346190D01*
X82070000Y-91250952D01*
X82117619Y-91203333D01*
X82212857Y-91155714D01*
X82403333Y-91108095D01*
X82641429Y-91108095D01*
X82831905Y-91155714D01*
X82927143Y-91203333D01*
X82974762Y-91250952D01*
X83022381Y-91346190D01*
X83022381Y-91441429D01*
X82974762Y-91536667D01*
X82927143Y-91584286D01*
X82831905Y-91631905D01*
X82641429Y-91679524D01*
X82403333Y-91679524D01*
X82212857Y-91631905D01*
X82117619Y-91584286D01*
X82070000Y-91536667D01*
X82022381Y-91441429D01*
X106339334Y-94702143D02*
X106291715Y-94749762D01*
X106148858Y-94797381D01*
X106053620Y-94797381D01*
X105910762Y-94749762D01*
X105815524Y-94654524D01*
X105767905Y-94559286D01*
X105720286Y-94368810D01*
X105720286Y-94225952D01*
X105767905Y-94035476D01*
X105815524Y-93940238D01*
X105910762Y-93845000D01*
X106053620Y-93797381D01*
X106148858Y-93797381D01*
X106291715Y-93845000D01*
X106339334Y-93892619D01*
X107291715Y-94797381D02*
X106720286Y-94797381D01*
X107006000Y-94797381D02*
X107006000Y-93797381D01*
X106910762Y-93940238D01*
X106815524Y-94035476D01*
X106720286Y-94083095D01*
X99263334Y-96067143D02*
X99215715Y-96114762D01*
X99072858Y-96162381D01*
X98977620Y-96162381D01*
X98834762Y-96114762D01*
X98739524Y-96019524D01*
X98691905Y-95924286D01*
X98644286Y-95733810D01*
X98644286Y-95590952D01*
X98691905Y-95400476D01*
X98739524Y-95305238D01*
X98834762Y-95210000D01*
X98977620Y-95162381D01*
X99072858Y-95162381D01*
X99215715Y-95210000D01*
X99263334Y-95257619D01*
X99596667Y-95162381D02*
X100215715Y-95162381D01*
X99882381Y-95543333D01*
X100025239Y-95543333D01*
X100120477Y-95590952D01*
X100168096Y-95638571D01*
X100215715Y-95733810D01*
X100215715Y-95971905D01*
X100168096Y-96067143D01*
X100120477Y-96114762D01*
X100025239Y-96162381D01*
X99739524Y-96162381D01*
X99644286Y-96114762D01*
X99596667Y-96067143D01*
X91019334Y-96369143D02*
X90971715Y-96416762D01*
X90828858Y-96464381D01*
X90733620Y-96464381D01*
X90590762Y-96416762D01*
X90495524Y-96321524D01*
X90447905Y-96226286D01*
X90400286Y-96035810D01*
X90400286Y-95892952D01*
X90447905Y-95702476D01*
X90495524Y-95607238D01*
X90590762Y-95512000D01*
X90733620Y-95464381D01*
X90828858Y-95464381D01*
X90971715Y-95512000D01*
X91019334Y-95559619D01*
X91924096Y-95464381D02*
X91447905Y-95464381D01*
X91400286Y-95940571D01*
X91447905Y-95892952D01*
X91543143Y-95845333D01*
X91781239Y-95845333D01*
X91876477Y-95892952D01*
X91924096Y-95940571D01*
X91971715Y-96035810D01*
X91971715Y-96273905D01*
X91924096Y-96369143D01*
X91876477Y-96416762D01*
X91781239Y-96464381D01*
X91543143Y-96464381D01*
X91447905Y-96416762D01*
X91400286Y-96369143D01*
X73255143Y-91352666D02*
X73302762Y-91400285D01*
X73350381Y-91543142D01*
X73350381Y-91638380D01*
X73302762Y-91781238D01*
X73207524Y-91876476D01*
X73112286Y-91924095D01*
X72921810Y-91971714D01*
X72778952Y-91971714D01*
X72588476Y-91924095D01*
X72493238Y-91876476D01*
X72398000Y-91781238D01*
X72350381Y-91638380D01*
X72350381Y-91543142D01*
X72398000Y-91400285D01*
X72445619Y-91352666D01*
X72350381Y-90495523D02*
X72350381Y-90686000D01*
X72398000Y-90781238D01*
X72445619Y-90828857D01*
X72588476Y-90924095D01*
X72778952Y-90971714D01*
X73159905Y-90971714D01*
X73255143Y-90924095D01*
X73302762Y-90876476D01*
X73350381Y-90781238D01*
X73350381Y-90590761D01*
X73302762Y-90495523D01*
X73255143Y-90447904D01*
X73159905Y-90400285D01*
X72921810Y-90400285D01*
X72826571Y-90447904D01*
X72778952Y-90495523D01*
X72731333Y-90590761D01*
X72731333Y-90781238D01*
X72778952Y-90876476D01*
X72826571Y-90924095D01*
X72921810Y-90971714D01*
X73557143Y-97766666D02*
X73604762Y-97814285D01*
X73652381Y-97957142D01*
X73652381Y-98052380D01*
X73604762Y-98195238D01*
X73509524Y-98290476D01*
X73414286Y-98338095D01*
X73223810Y-98385714D01*
X73080952Y-98385714D01*
X72890476Y-98338095D01*
X72795238Y-98290476D01*
X72700000Y-98195238D01*
X72652381Y-98052380D01*
X72652381Y-97957142D01*
X72700000Y-97814285D01*
X72747619Y-97766666D01*
X73080952Y-97195238D02*
X73033333Y-97290476D01*
X72985714Y-97338095D01*
X72890476Y-97385714D01*
X72842857Y-97385714D01*
X72747619Y-97338095D01*
X72700000Y-97290476D01*
X72652381Y-97195238D01*
X72652381Y-97004761D01*
X72700000Y-96909523D01*
X72747619Y-96861904D01*
X72842857Y-96814285D01*
X72890476Y-96814285D01*
X72985714Y-96861904D01*
X73033333Y-96909523D01*
X73080952Y-97004761D01*
X73080952Y-97195238D01*
X73128571Y-97290476D01*
X73176190Y-97338095D01*
X73271429Y-97385714D01*
X73461905Y-97385714D01*
X73557143Y-97338095D01*
X73604762Y-97290476D01*
X73652381Y-97195238D01*
X73652381Y-97004761D01*
X73604762Y-96909523D01*
X73557143Y-96861904D01*
X73461905Y-96814285D01*
X73271429Y-96814285D01*
X73176190Y-96861904D01*
X73128571Y-96909523D01*
X73080952Y-97004761D01*
X83507143Y-88616666D02*
X83554762Y-88664285D01*
X83602381Y-88807142D01*
X83602381Y-88902380D01*
X83554762Y-89045238D01*
X83459524Y-89140476D01*
X83364286Y-89188095D01*
X83173810Y-89235714D01*
X83030952Y-89235714D01*
X82840476Y-89188095D01*
X82745238Y-89140476D01*
X82650000Y-89045238D01*
X82602381Y-88902380D01*
X82602381Y-88807142D01*
X82650000Y-88664285D01*
X82697619Y-88616666D01*
X83602381Y-88140476D02*
X83602381Y-87950000D01*
X83554762Y-87854761D01*
X83507143Y-87807142D01*
X83364286Y-87711904D01*
X83173810Y-87664285D01*
X82792857Y-87664285D01*
X82697619Y-87711904D01*
X82650000Y-87759523D01*
X82602381Y-87854761D01*
X82602381Y-88045238D01*
X82650000Y-88140476D01*
X82697619Y-88188095D01*
X82792857Y-88235714D01*
X83030952Y-88235714D01*
X83126190Y-88188095D01*
X83173810Y-88140476D01*
X83221429Y-88045238D01*
X83221429Y-87854761D01*
X83173810Y-87759523D01*
X83126190Y-87711904D01*
X83030952Y-87664285D01*
X73652381Y-96238095D02*
X72652381Y-96238095D01*
X72652381Y-96000000D01*
X72700000Y-95857142D01*
X72795238Y-95761904D01*
X72890476Y-95714285D01*
X73080952Y-95666666D01*
X73223810Y-95666666D01*
X73414286Y-95714285D01*
X73509524Y-95761904D01*
X73604762Y-95857142D01*
X73652381Y-96000000D01*
X73652381Y-96238095D01*
X72652381Y-94761904D02*
X72652381Y-95238095D01*
X73128571Y-95285714D01*
X73080952Y-95238095D01*
X73033333Y-95142857D01*
X73033333Y-94904761D01*
X73080952Y-94809523D01*
X73128571Y-94761904D01*
X73223810Y-94714285D01*
X73461905Y-94714285D01*
X73557143Y-94761904D01*
X73604762Y-94809523D01*
X73652381Y-94904761D01*
X73652381Y-95142857D01*
X73604762Y-95238095D01*
X73557143Y-95285714D01*
X103760381Y-94676666D02*
X103284190Y-95010000D01*
X103760381Y-95248095D02*
X102760381Y-95248095D01*
X102760381Y-94867142D01*
X102808000Y-94771904D01*
X102855619Y-94724285D01*
X102950857Y-94676666D01*
X103093714Y-94676666D01*
X103188952Y-94724285D01*
X103236571Y-94771904D01*
X103284190Y-94867142D01*
X103284190Y-95248095D01*
X102855619Y-94295714D02*
X102808000Y-94248095D01*
X102760381Y-94152857D01*
X102760381Y-93914761D01*
X102808000Y-93819523D01*
X102855619Y-93771904D01*
X102950857Y-93724285D01*
X103046095Y-93724285D01*
X103188952Y-93771904D01*
X103760381Y-94343333D01*
X103760381Y-93724285D01*
X93193334Y-96432381D02*
X92860000Y-95956190D01*
X92621905Y-96432381D02*
X92621905Y-95432381D01*
X93002858Y-95432381D01*
X93098096Y-95480000D01*
X93145715Y-95527619D01*
X93193334Y-95622857D01*
X93193334Y-95765714D01*
X93145715Y-95860952D01*
X93098096Y-95908571D01*
X93002858Y-95956190D01*
X92621905Y-95956190D01*
X94050477Y-95765714D02*
X94050477Y-96432381D01*
X93812381Y-95384762D02*
X93574286Y-96099048D01*
X94193334Y-96099048D01*
X94163334Y-90392381D02*
X93830000Y-89916190D01*
X93591905Y-90392381D02*
X93591905Y-89392381D01*
X93972858Y-89392381D01*
X94068096Y-89440000D01*
X94115715Y-89487619D01*
X94163334Y-89582857D01*
X94163334Y-89725714D01*
X94115715Y-89820952D01*
X94068096Y-89868571D01*
X93972858Y-89916190D01*
X93591905Y-89916190D01*
X95068096Y-89392381D02*
X94591905Y-89392381D01*
X94544286Y-89868571D01*
X94591905Y-89820952D01*
X94687143Y-89773333D01*
X94925239Y-89773333D01*
X95020477Y-89820952D01*
X95068096Y-89868571D01*
X95115715Y-89963810D01*
X95115715Y-90201905D01*
X95068096Y-90297143D01*
X95020477Y-90344762D01*
X94925239Y-90392381D01*
X94687143Y-90392381D01*
X94591905Y-90344762D01*
X94544286Y-90297143D01*
X92263334Y-85412381D02*
X91930000Y-84936190D01*
X91691905Y-85412381D02*
X91691905Y-84412381D01*
X92072858Y-84412381D01*
X92168096Y-84460000D01*
X92215715Y-84507619D01*
X92263334Y-84602857D01*
X92263334Y-84745714D01*
X92215715Y-84840952D01*
X92168096Y-84888571D01*
X92072858Y-84936190D01*
X91691905Y-84936190D01*
X93120477Y-84412381D02*
X92930000Y-84412381D01*
X92834762Y-84460000D01*
X92787143Y-84507619D01*
X92691905Y-84650476D01*
X92644286Y-84840952D01*
X92644286Y-85221905D01*
X92691905Y-85317143D01*
X92739524Y-85364762D01*
X92834762Y-85412381D01*
X93025239Y-85412381D01*
X93120477Y-85364762D01*
X93168096Y-85317143D01*
X93215715Y-85221905D01*
X93215715Y-84983810D01*
X93168096Y-84888571D01*
X93120477Y-84840952D01*
X93025239Y-84793333D01*
X92834762Y-84793333D01*
X92739524Y-84840952D01*
X92691905Y-84888571D01*
X92644286Y-84983810D01*
X73350381Y-93384666D02*
X72874190Y-93718000D01*
X73350381Y-93956095D02*
X72350381Y-93956095D01*
X72350381Y-93575142D01*
X72398000Y-93479904D01*
X72445619Y-93432285D01*
X72540857Y-93384666D01*
X72683714Y-93384666D01*
X72778952Y-93432285D01*
X72826571Y-93479904D01*
X72874190Y-93575142D01*
X72874190Y-93956095D01*
X73350381Y-92908476D02*
X73350381Y-92718000D01*
X73302762Y-92622761D01*
X73255143Y-92575142D01*
X73112286Y-92479904D01*
X72921810Y-92432285D01*
X72540857Y-92432285D01*
X72445619Y-92479904D01*
X72398000Y-92527523D01*
X72350381Y-92622761D01*
X72350381Y-92813238D01*
X72398000Y-92908476D01*
X72445619Y-92956095D01*
X72540857Y-93003714D01*
X72778952Y-93003714D01*
X72874190Y-92956095D01*
X72921810Y-92908476D01*
X72969429Y-92813238D01*
X72969429Y-92622761D01*
X72921810Y-92527523D01*
X72874190Y-92479904D01*
X72778952Y-92432285D01*
X67757143Y-83352381D02*
X67423809Y-82876190D01*
X67185714Y-83352381D02*
X67185714Y-82352381D01*
X67566667Y-82352381D01*
X67661905Y-82400000D01*
X67709524Y-82447619D01*
X67757143Y-82542857D01*
X67757143Y-82685714D01*
X67709524Y-82780952D01*
X67661905Y-82828571D01*
X67566667Y-82876190D01*
X67185714Y-82876190D01*
X68709524Y-83352381D02*
X68138095Y-83352381D01*
X68423809Y-83352381D02*
X68423809Y-82352381D01*
X68328571Y-82495238D01*
X68233333Y-82590476D01*
X68138095Y-82638095D01*
X69566667Y-82685714D02*
X69566667Y-83352381D01*
X69328571Y-82304762D02*
X69090476Y-83019048D01*
X69709524Y-83019048D01*
X79461905Y-83502381D02*
X79461905Y-82502381D01*
X79700000Y-82502381D01*
X79842858Y-82550000D01*
X79938096Y-82645238D01*
X79985715Y-82740476D01*
X80033334Y-82930952D01*
X80033334Y-83073810D01*
X79985715Y-83264286D01*
X79938096Y-83359524D01*
X79842858Y-83454762D01*
X79700000Y-83502381D01*
X79461905Y-83502381D01*
X80890477Y-82502381D02*
X80700000Y-82502381D01*
X80604762Y-82550000D01*
X80557143Y-82597619D01*
X80461905Y-82740476D01*
X80414286Y-82930952D01*
X80414286Y-83311905D01*
X80461905Y-83407143D01*
X80509524Y-83454762D01*
X80604762Y-83502381D01*
X80795239Y-83502381D01*
X80890477Y-83454762D01*
X80938096Y-83407143D01*
X80985715Y-83311905D01*
X80985715Y-83073810D01*
X80938096Y-82978571D01*
X80890477Y-82930952D01*
X80795239Y-82883333D01*
X80604762Y-82883333D01*
X80509524Y-82930952D01*
X80461905Y-82978571D01*
X80414286Y-83073810D01*
X99342143Y-88846666D02*
X99389762Y-88894285D01*
X99437381Y-89037142D01*
X99437381Y-89132380D01*
X99389762Y-89275238D01*
X99294524Y-89370476D01*
X99199286Y-89418095D01*
X99008810Y-89465714D01*
X98865952Y-89465714D01*
X98675476Y-89418095D01*
X98580238Y-89370476D01*
X98485000Y-89275238D01*
X98437381Y-89132380D01*
X98437381Y-89037142D01*
X98485000Y-88894285D01*
X98532619Y-88846666D01*
X98532619Y-88465714D02*
X98485000Y-88418095D01*
X98437381Y-88322857D01*
X98437381Y-88084761D01*
X98485000Y-87989523D01*
X98532619Y-87941904D01*
X98627857Y-87894285D01*
X98723095Y-87894285D01*
X98865952Y-87941904D01*
X99437381Y-88513333D01*
X99437381Y-87894285D01*
X107402381Y-89617857D02*
X106926190Y-89951191D01*
X107402381Y-90189286D02*
X106402381Y-90189286D01*
X106402381Y-89808333D01*
X106450000Y-89713095D01*
X106497619Y-89665476D01*
X106592857Y-89617857D01*
X106735714Y-89617857D01*
X106830952Y-89665476D01*
X106878571Y-89713095D01*
X106926190Y-89808333D01*
X106926190Y-90189286D01*
X107402381Y-88665476D02*
X107402381Y-89236905D01*
X107402381Y-88951191D02*
X106402381Y-88951191D01*
X106545238Y-89046429D01*
X106640476Y-89141667D01*
X106688095Y-89236905D01*
X107402381Y-87713095D02*
X107402381Y-88284524D01*
X107402381Y-87998810D02*
X106402381Y-87998810D01*
X106545238Y-88094048D01*
X106640476Y-88189286D01*
X106688095Y-88284524D01*
X87495143Y-96416381D02*
X87161809Y-95940190D01*
X86923714Y-96416381D02*
X86923714Y-95416381D01*
X87304667Y-95416381D01*
X87399905Y-95464000D01*
X87447524Y-95511619D01*
X87495143Y-95606857D01*
X87495143Y-95749714D01*
X87447524Y-95844952D01*
X87399905Y-95892571D01*
X87304667Y-95940190D01*
X86923714Y-95940190D01*
X88447524Y-96416381D02*
X87876095Y-96416381D01*
X88161809Y-96416381D02*
X88161809Y-95416381D01*
X88066571Y-95559238D01*
X87971333Y-95654476D01*
X87876095Y-95702095D01*
X88828476Y-95511619D02*
X88876095Y-95464000D01*
X88971333Y-95416381D01*
X89209429Y-95416381D01*
X89304667Y-95464000D01*
X89352286Y-95511619D01*
X89399905Y-95606857D01*
X89399905Y-95702095D01*
X89352286Y-95844952D01*
X88780857Y-96416381D01*
X89399905Y-96416381D01*
X71812381Y-88834523D02*
X72526667Y-88834523D01*
X72669524Y-88882143D01*
X72764762Y-88977381D01*
X72812381Y-89120238D01*
X72812381Y-89215476D01*
X71907619Y-88405952D02*
X71860000Y-88358333D01*
X71812381Y-88263095D01*
X71812381Y-88024999D01*
X71860000Y-87929761D01*
X71907619Y-87882142D01*
X72002857Y-87834523D01*
X72098095Y-87834523D01*
X72240952Y-87882142D01*
X72812381Y-88453571D01*
X72812381Y-87834523D01*
X71812381Y-86929761D02*
X71812381Y-87405952D01*
X72288571Y-87453571D01*
X72240952Y-87405952D01*
X72193333Y-87310714D01*
X72193333Y-87072618D01*
X72240952Y-86977380D01*
X72288571Y-86929761D01*
X72383810Y-86882142D01*
X72621905Y-86882142D01*
X72717143Y-86929761D01*
X72764762Y-86977380D01*
X72812381Y-87072618D01*
X72812381Y-87310714D01*
X72764762Y-87405952D01*
X72717143Y-87453571D01*
X69557143Y-97552381D02*
X69223809Y-97076190D01*
X68985714Y-97552381D02*
X68985714Y-96552381D01*
X69366667Y-96552381D01*
X69461905Y-96600000D01*
X69509524Y-96647619D01*
X69557143Y-96742857D01*
X69557143Y-96885714D01*
X69509524Y-96980952D01*
X69461905Y-97028571D01*
X69366667Y-97076190D01*
X68985714Y-97076190D01*
X70509524Y-97552381D02*
X69938095Y-97552381D01*
X70223809Y-97552381D02*
X70223809Y-96552381D01*
X70128571Y-96695238D01*
X70033333Y-96790476D01*
X69938095Y-96838095D01*
X70842857Y-96552381D02*
X71461905Y-96552381D01*
X71128571Y-96933333D01*
X71271429Y-96933333D01*
X71366667Y-96980952D01*
X71414286Y-97028571D01*
X71461905Y-97123810D01*
X71461905Y-97361905D01*
X71414286Y-97457143D01*
X71366667Y-97504762D01*
X71271429Y-97552381D01*
X70985714Y-97552381D01*
X70890476Y-97504762D01*
X70842857Y-97457143D01*
X79887143Y-87764857D02*
X79934762Y-87812476D01*
X79982381Y-87955333D01*
X79982381Y-88050571D01*
X79934762Y-88193429D01*
X79839524Y-88288667D01*
X79744286Y-88336286D01*
X79553810Y-88383905D01*
X79410952Y-88383905D01*
X79220476Y-88336286D01*
X79125238Y-88288667D01*
X79030000Y-88193429D01*
X78982381Y-88050571D01*
X78982381Y-87955333D01*
X79030000Y-87812476D01*
X79077619Y-87764857D01*
X79982381Y-86812476D02*
X79982381Y-87383905D01*
X79982381Y-87098191D02*
X78982381Y-87098191D01*
X79125238Y-87193429D01*
X79220476Y-87288667D01*
X79268095Y-87383905D01*
X78982381Y-85955333D02*
X78982381Y-86145810D01*
X79030000Y-86241048D01*
X79077619Y-86288667D01*
X79220476Y-86383905D01*
X79410952Y-86431524D01*
X79791905Y-86431524D01*
X79887143Y-86383905D01*
X79934762Y-86336286D01*
X79982381Y-86241048D01*
X79982381Y-86050571D01*
X79934762Y-85955333D01*
X79887143Y-85907714D01*
X79791905Y-85860095D01*
X79553810Y-85860095D01*
X79458571Y-85907714D01*
X79410952Y-85955333D01*
X79363333Y-86050571D01*
X79363333Y-86241048D01*
X79410952Y-86336286D01*
X79458571Y-86383905D01*
X79553810Y-86431524D01*
X101608334Y-85327381D02*
X101275000Y-84851190D01*
X101036905Y-85327381D02*
X101036905Y-84327381D01*
X101417858Y-84327381D01*
X101513096Y-84375000D01*
X101560715Y-84422619D01*
X101608334Y-84517857D01*
X101608334Y-84660714D01*
X101560715Y-84755952D01*
X101513096Y-84803571D01*
X101417858Y-84851190D01*
X101036905Y-84851190D01*
X102560715Y-85327381D02*
X101989286Y-85327381D01*
X102275000Y-85327381D02*
X102275000Y-84327381D01*
X102179762Y-84470238D01*
X102084524Y-84565476D01*
X101989286Y-84613095D01*
X89823334Y-85312381D02*
X89490000Y-84836190D01*
X89251905Y-85312381D02*
X89251905Y-84312381D01*
X89632858Y-84312381D01*
X89728096Y-84360000D01*
X89775715Y-84407619D01*
X89823334Y-84502857D01*
X89823334Y-84645714D01*
X89775715Y-84740952D01*
X89728096Y-84788571D01*
X89632858Y-84836190D01*
X89251905Y-84836190D01*
X90156667Y-84312381D02*
X90775715Y-84312381D01*
X90442381Y-84693333D01*
X90585239Y-84693333D01*
X90680477Y-84740952D01*
X90728096Y-84788571D01*
X90775715Y-84883810D01*
X90775715Y-85121905D01*
X90728096Y-85217143D01*
X90680477Y-85264762D01*
X90585239Y-85312381D01*
X90299524Y-85312381D01*
X90204286Y-85264762D01*
X90156667Y-85217143D01*
X84923334Y-84780381D02*
X84590000Y-84304190D01*
X84351905Y-84780381D02*
X84351905Y-83780381D01*
X84732858Y-83780381D01*
X84828096Y-83828000D01*
X84875715Y-83875619D01*
X84923334Y-83970857D01*
X84923334Y-84113714D01*
X84875715Y-84208952D01*
X84828096Y-84256571D01*
X84732858Y-84304190D01*
X84351905Y-84304190D01*
X85256667Y-83780381D02*
X85923334Y-83780381D01*
X85494762Y-84780381D01*
X104179619Y-91281238D02*
X104132000Y-91376476D01*
X104036762Y-91471714D01*
X103893905Y-91614571D01*
X103846286Y-91709810D01*
X103846286Y-91805048D01*
X104084381Y-91757429D02*
X104036762Y-91852667D01*
X103941524Y-91947905D01*
X103751048Y-91995524D01*
X103417714Y-91995524D01*
X103227238Y-91947905D01*
X103132000Y-91852667D01*
X103084381Y-91757429D01*
X103084381Y-91566952D01*
X103132000Y-91471714D01*
X103227238Y-91376476D01*
X103417714Y-91328857D01*
X103751048Y-91328857D01*
X103941524Y-91376476D01*
X104036762Y-91471714D01*
X104084381Y-91566952D01*
X104084381Y-91757429D01*
X104084381Y-90376476D02*
X104084381Y-90947905D01*
X104084381Y-90662191D02*
X103084381Y-90662191D01*
X103227238Y-90757429D01*
X103322476Y-90852667D01*
X103370095Y-90947905D01*
X99099619Y-91535238D02*
X99052000Y-91630476D01*
X98956762Y-91725714D01*
X98813905Y-91868571D01*
X98766286Y-91963810D01*
X98766286Y-92059048D01*
X99004381Y-92011429D02*
X98956762Y-92106667D01*
X98861524Y-92201905D01*
X98671048Y-92249524D01*
X98337714Y-92249524D01*
X98147238Y-92201905D01*
X98052000Y-92106667D01*
X98004381Y-92011429D01*
X98004381Y-91820952D01*
X98052000Y-91725714D01*
X98147238Y-91630476D01*
X98337714Y-91582857D01*
X98671048Y-91582857D01*
X98861524Y-91630476D01*
X98956762Y-91725714D01*
X99004381Y-91820952D01*
X99004381Y-92011429D01*
X98099619Y-91201905D02*
X98052000Y-91154286D01*
X98004381Y-91059048D01*
X98004381Y-90820952D01*
X98052000Y-90725714D01*
X98099619Y-90678095D01*
X98194857Y-90630476D01*
X98290095Y-90630476D01*
X98432952Y-90678095D01*
X99004381Y-91249524D01*
X99004381Y-90630476D01*
X86467619Y-91585238D02*
X86420000Y-91680476D01*
X86324762Y-91775714D01*
X86181905Y-91918571D01*
X86134286Y-92013810D01*
X86134286Y-92109048D01*
X86372381Y-92061429D02*
X86324762Y-92156667D01*
X86229524Y-92251905D01*
X86039048Y-92299524D01*
X85705714Y-92299524D01*
X85515238Y-92251905D01*
X85420000Y-92156667D01*
X85372381Y-92061429D01*
X85372381Y-91870952D01*
X85420000Y-91775714D01*
X85515238Y-91680476D01*
X85705714Y-91632857D01*
X86039048Y-91632857D01*
X86229524Y-91680476D01*
X86324762Y-91775714D01*
X86372381Y-91870952D01*
X86372381Y-92061429D01*
X85372381Y-91299524D02*
X85372381Y-90680476D01*
X85753333Y-91013810D01*
X85753333Y-90870952D01*
X85800952Y-90775714D01*
X85848571Y-90728095D01*
X85943810Y-90680476D01*
X86181905Y-90680476D01*
X86277143Y-90728095D01*
X86324762Y-90775714D01*
X86372381Y-90870952D01*
X86372381Y-91156667D01*
X86324762Y-91251905D01*
X86277143Y-91299524D01*
M02*
