G04 #@! TF.FileFunction,Legend,Top*
%FSLAX46Y46*%
G04 Gerber Fmt 4.6, Leading zero omitted, Abs format (unit mm)*
G04 Created by KiCad (PCBNEW 4.0.7) date 04/20/20 02:57:41*
%MOMM*%
%LPD*%
G01*
G04 APERTURE LIST*
%ADD10C,0.100000*%
%ADD11C,0.120000*%
%ADD12C,0.300000*%
%ADD13C,0.150000*%
%ADD14C,0.200000*%
G04 APERTURE END LIST*
D10*
D11*
X85944000Y-96892000D02*
X84744000Y-96892000D01*
X84744000Y-95132000D02*
X85944000Y-95132000D01*
X108145200Y-91961600D02*
X107145200Y-91961600D01*
X107145200Y-93661600D02*
X108145200Y-93661600D01*
X102240000Y-93050000D02*
X101240000Y-93050000D01*
X101240000Y-94750000D02*
X102240000Y-94750000D01*
X90770000Y-94820000D02*
X89770000Y-94820000D01*
X89770000Y-96520000D02*
X90770000Y-96520000D01*
X76446000Y-90336000D02*
X75446000Y-90336000D01*
X75446000Y-92036000D02*
X76446000Y-92036000D01*
X76446000Y-96940000D02*
X75446000Y-96940000D01*
X75446000Y-98640000D02*
X76446000Y-98640000D01*
X85363420Y-90797000D02*
X85363420Y-89797000D01*
X83663420Y-89797000D02*
X83663420Y-90797000D01*
X77846000Y-96608000D02*
X77846000Y-94908000D01*
X77846000Y-94908000D02*
X74696000Y-94908000D01*
X77846000Y-96608000D02*
X74696000Y-96608000D01*
X102159360Y-87504160D02*
X100959360Y-87504160D01*
X100959360Y-85744160D02*
X102159360Y-85744160D01*
X101203200Y-95132000D02*
X102403200Y-95132000D01*
X102403200Y-96892000D02*
X101203200Y-96892000D01*
X107675000Y-88555000D02*
X106475000Y-88555000D01*
X106475000Y-86795000D02*
X107675000Y-86795000D01*
X96104000Y-95622000D02*
X94904000Y-95622000D01*
X94904000Y-93862000D02*
X96104000Y-93862000D01*
X96358000Y-90542000D02*
X95158000Y-90542000D01*
X95158000Y-88782000D02*
X96358000Y-88782000D01*
X91520000Y-91900000D02*
X91520000Y-90700000D01*
X93280000Y-90700000D02*
X93280000Y-91900000D01*
X89125000Y-88180000D02*
X87925000Y-88180000D01*
X87925000Y-86420000D02*
X89125000Y-86420000D01*
X87850000Y-88295000D02*
X89050000Y-88295000D01*
X89050000Y-90055000D02*
X87850000Y-90055000D01*
X76546000Y-94098000D02*
X75346000Y-94098000D01*
X75346000Y-92338000D02*
X76546000Y-92338000D01*
X94072000Y-85462000D02*
X92872000Y-85462000D01*
X92872000Y-83702000D02*
X94072000Y-83702000D01*
X87100000Y-84225000D02*
X90300000Y-84225000D01*
X90300000Y-85725000D02*
X87100000Y-85725000D01*
X90300000Y-85725000D02*
X90300000Y-84225000D01*
X80816000Y-86376000D02*
X80816000Y-88376000D01*
X83776000Y-88376000D02*
X83776000Y-86376000D01*
X101100000Y-89750000D02*
X102100000Y-89750000D01*
X102100000Y-88050000D02*
X101100000Y-88050000D01*
X95490920Y-86978120D02*
X94490920Y-86978120D01*
X94490920Y-88678120D02*
X95490920Y-88678120D01*
X81272000Y-92368000D02*
X80272000Y-92368000D01*
X80272000Y-94068000D02*
X81272000Y-94068000D01*
D12*
X58420000Y-99094000D02*
X72120000Y-99094000D01*
X72120000Y-84294000D02*
X58420000Y-84294000D01*
X72120000Y-84294000D02*
X72120000Y-99094000D01*
X58420000Y-84294000D02*
X58420000Y-99094000D01*
D11*
X100865000Y-90686000D02*
X100865000Y-90026000D01*
X100865000Y-92356000D02*
X100865000Y-91686000D01*
X100865000Y-92346000D02*
X103600000Y-92346000D01*
X102275000Y-90026000D02*
X100865000Y-90026000D01*
X95565000Y-91500000D02*
X95565000Y-90840000D01*
X95565000Y-93170000D02*
X95565000Y-92500000D01*
X95565000Y-93160000D02*
X98300000Y-93160000D01*
X96975000Y-90840000D02*
X95565000Y-90840000D01*
X84868080Y-93210760D02*
X84868080Y-92550760D01*
X84868080Y-94880760D02*
X84868080Y-94210760D01*
X84868080Y-94870760D02*
X87603080Y-94870760D01*
X86278080Y-92550760D02*
X84868080Y-92550760D01*
X107686400Y-90516600D02*
X106486400Y-90516600D01*
X106486400Y-88756600D02*
X107686400Y-88756600D01*
X89840000Y-91830000D02*
X89840000Y-93030000D01*
X88080000Y-93030000D02*
X88080000Y-91830000D01*
D13*
X80637143Y-96464381D02*
X80303809Y-95988190D01*
X80065714Y-96464381D02*
X80065714Y-95464381D01*
X80446667Y-95464381D01*
X80541905Y-95512000D01*
X80589524Y-95559619D01*
X80637143Y-95654857D01*
X80637143Y-95797714D01*
X80589524Y-95892952D01*
X80541905Y-95940571D01*
X80446667Y-95988190D01*
X80065714Y-95988190D01*
X81589524Y-96464381D02*
X81018095Y-96464381D01*
X81303809Y-96464381D02*
X81303809Y-95464381D01*
X81208571Y-95607238D01*
X81113333Y-95702476D01*
X81018095Y-95750095D01*
X82208571Y-95464381D02*
X82303810Y-95464381D01*
X82399048Y-95512000D01*
X82446667Y-95559619D01*
X82494286Y-95654857D01*
X82541905Y-95845333D01*
X82541905Y-96083429D01*
X82494286Y-96273905D01*
X82446667Y-96369143D01*
X82399048Y-96416762D01*
X82303810Y-96464381D01*
X82208571Y-96464381D01*
X82113333Y-96416762D01*
X82065714Y-96369143D01*
X82018095Y-96273905D01*
X81970476Y-96083429D01*
X81970476Y-95845333D01*
X82018095Y-95654857D01*
X82065714Y-95559619D01*
X82113333Y-95512000D01*
X82208571Y-95464381D01*
X107224534Y-94921343D02*
X107176915Y-94968962D01*
X107034058Y-95016581D01*
X106938820Y-95016581D01*
X106795962Y-94968962D01*
X106700724Y-94873724D01*
X106653105Y-94778486D01*
X106605486Y-94588010D01*
X106605486Y-94445152D01*
X106653105Y-94254676D01*
X106700724Y-94159438D01*
X106795962Y-94064200D01*
X106938820Y-94016581D01*
X107034058Y-94016581D01*
X107176915Y-94064200D01*
X107224534Y-94111819D01*
X108176915Y-95016581D02*
X107605486Y-95016581D01*
X107891200Y-95016581D02*
X107891200Y-94016581D01*
X107795962Y-94159438D01*
X107700724Y-94254676D01*
X107605486Y-94302295D01*
X105106743Y-94172066D02*
X105154362Y-94219685D01*
X105201981Y-94362542D01*
X105201981Y-94457780D01*
X105154362Y-94600638D01*
X105059124Y-94695876D01*
X104963886Y-94743495D01*
X104773410Y-94791114D01*
X104630552Y-94791114D01*
X104440076Y-94743495D01*
X104344838Y-94695876D01*
X104249600Y-94600638D01*
X104201981Y-94457780D01*
X104201981Y-94362542D01*
X104249600Y-94219685D01*
X104297219Y-94172066D01*
X104201981Y-93838733D02*
X104201981Y-93219685D01*
X104582933Y-93553019D01*
X104582933Y-93410161D01*
X104630552Y-93314923D01*
X104678171Y-93267304D01*
X104773410Y-93219685D01*
X105011505Y-93219685D01*
X105106743Y-93267304D01*
X105154362Y-93314923D01*
X105201981Y-93410161D01*
X105201981Y-93695876D01*
X105154362Y-93791114D01*
X105106743Y-93838733D01*
X91119334Y-97551143D02*
X91071715Y-97598762D01*
X90928858Y-97646381D01*
X90833620Y-97646381D01*
X90690762Y-97598762D01*
X90595524Y-97503524D01*
X90547905Y-97408286D01*
X90500286Y-97217810D01*
X90500286Y-97074952D01*
X90547905Y-96884476D01*
X90595524Y-96789238D01*
X90690762Y-96694000D01*
X90833620Y-96646381D01*
X90928858Y-96646381D01*
X91071715Y-96694000D01*
X91119334Y-96741619D01*
X92024096Y-96646381D02*
X91547905Y-96646381D01*
X91500286Y-97122571D01*
X91547905Y-97074952D01*
X91643143Y-97027333D01*
X91881239Y-97027333D01*
X91976477Y-97074952D01*
X92024096Y-97122571D01*
X92071715Y-97217810D01*
X92071715Y-97455905D01*
X92024096Y-97551143D01*
X91976477Y-97598762D01*
X91881239Y-97646381D01*
X91643143Y-97646381D01*
X91547905Y-97598762D01*
X91500286Y-97551143D01*
X73255143Y-91352666D02*
X73302762Y-91400285D01*
X73350381Y-91543142D01*
X73350381Y-91638380D01*
X73302762Y-91781238D01*
X73207524Y-91876476D01*
X73112286Y-91924095D01*
X72921810Y-91971714D01*
X72778952Y-91971714D01*
X72588476Y-91924095D01*
X72493238Y-91876476D01*
X72398000Y-91781238D01*
X72350381Y-91638380D01*
X72350381Y-91543142D01*
X72398000Y-91400285D01*
X72445619Y-91352666D01*
X72350381Y-90495523D02*
X72350381Y-90686000D01*
X72398000Y-90781238D01*
X72445619Y-90828857D01*
X72588476Y-90924095D01*
X72778952Y-90971714D01*
X73159905Y-90971714D01*
X73255143Y-90924095D01*
X73302762Y-90876476D01*
X73350381Y-90781238D01*
X73350381Y-90590761D01*
X73302762Y-90495523D01*
X73255143Y-90447904D01*
X73159905Y-90400285D01*
X72921810Y-90400285D01*
X72826571Y-90447904D01*
X72778952Y-90495523D01*
X72731333Y-90590761D01*
X72731333Y-90781238D01*
X72778952Y-90876476D01*
X72826571Y-90924095D01*
X72921810Y-90971714D01*
X73255143Y-97702666D02*
X73302762Y-97750285D01*
X73350381Y-97893142D01*
X73350381Y-97988380D01*
X73302762Y-98131238D01*
X73207524Y-98226476D01*
X73112286Y-98274095D01*
X72921810Y-98321714D01*
X72778952Y-98321714D01*
X72588476Y-98274095D01*
X72493238Y-98226476D01*
X72398000Y-98131238D01*
X72350381Y-97988380D01*
X72350381Y-97893142D01*
X72398000Y-97750285D01*
X72445619Y-97702666D01*
X72778952Y-97131238D02*
X72731333Y-97226476D01*
X72683714Y-97274095D01*
X72588476Y-97321714D01*
X72540857Y-97321714D01*
X72445619Y-97274095D01*
X72398000Y-97226476D01*
X72350381Y-97131238D01*
X72350381Y-96940761D01*
X72398000Y-96845523D01*
X72445619Y-96797904D01*
X72540857Y-96750285D01*
X72588476Y-96750285D01*
X72683714Y-96797904D01*
X72731333Y-96845523D01*
X72778952Y-96940761D01*
X72778952Y-97131238D01*
X72826571Y-97226476D01*
X72874190Y-97274095D01*
X72969429Y-97321714D01*
X73159905Y-97321714D01*
X73255143Y-97274095D01*
X73302762Y-97226476D01*
X73350381Y-97131238D01*
X73350381Y-96940761D01*
X73302762Y-96845523D01*
X73255143Y-96797904D01*
X73159905Y-96750285D01*
X72969429Y-96750285D01*
X72874190Y-96797904D01*
X72826571Y-96845523D01*
X72778952Y-96940761D01*
X84435654Y-87717903D02*
X84388035Y-87765522D01*
X84245178Y-87813141D01*
X84149940Y-87813141D01*
X84007082Y-87765522D01*
X83911844Y-87670284D01*
X83864225Y-87575046D01*
X83816606Y-87384570D01*
X83816606Y-87241712D01*
X83864225Y-87051236D01*
X83911844Y-86955998D01*
X84007082Y-86860760D01*
X84149940Y-86813141D01*
X84245178Y-86813141D01*
X84388035Y-86860760D01*
X84435654Y-86908379D01*
X84911844Y-87813141D02*
X85102320Y-87813141D01*
X85197559Y-87765522D01*
X85245178Y-87717903D01*
X85340416Y-87575046D01*
X85388035Y-87384570D01*
X85388035Y-87003617D01*
X85340416Y-86908379D01*
X85292797Y-86860760D01*
X85197559Y-86813141D01*
X85007082Y-86813141D01*
X84911844Y-86860760D01*
X84864225Y-86908379D01*
X84816606Y-87003617D01*
X84816606Y-87241712D01*
X84864225Y-87336950D01*
X84911844Y-87384570D01*
X85007082Y-87432189D01*
X85197559Y-87432189D01*
X85292797Y-87384570D01*
X85340416Y-87336950D01*
X85388035Y-87241712D01*
X73350381Y-96496095D02*
X72350381Y-96496095D01*
X72350381Y-96258000D01*
X72398000Y-96115142D01*
X72493238Y-96019904D01*
X72588476Y-95972285D01*
X72778952Y-95924666D01*
X72921810Y-95924666D01*
X73112286Y-95972285D01*
X73207524Y-96019904D01*
X73302762Y-96115142D01*
X73350381Y-96258000D01*
X73350381Y-96496095D01*
X72350381Y-95019904D02*
X72350381Y-95496095D01*
X72826571Y-95543714D01*
X72778952Y-95496095D01*
X72731333Y-95400857D01*
X72731333Y-95162761D01*
X72778952Y-95067523D01*
X72826571Y-95019904D01*
X72921810Y-94972285D01*
X73159905Y-94972285D01*
X73255143Y-95019904D01*
X73302762Y-95067523D01*
X73350381Y-95162761D01*
X73350381Y-95400857D01*
X73302762Y-95496095D01*
X73255143Y-95543714D01*
X99039941Y-86699386D02*
X98563750Y-87032720D01*
X99039941Y-87270815D02*
X98039941Y-87270815D01*
X98039941Y-86889862D01*
X98087560Y-86794624D01*
X98135179Y-86747005D01*
X98230417Y-86699386D01*
X98373274Y-86699386D01*
X98468512Y-86747005D01*
X98516131Y-86794624D01*
X98563750Y-86889862D01*
X98563750Y-87270815D01*
X99039941Y-85747005D02*
X99039941Y-86318434D01*
X99039941Y-86032720D02*
X98039941Y-86032720D01*
X98182798Y-86127958D01*
X98278036Y-86223196D01*
X98325655Y-86318434D01*
X105278181Y-96254866D02*
X104801990Y-96588200D01*
X105278181Y-96826295D02*
X104278181Y-96826295D01*
X104278181Y-96445342D01*
X104325800Y-96350104D01*
X104373419Y-96302485D01*
X104468657Y-96254866D01*
X104611514Y-96254866D01*
X104706752Y-96302485D01*
X104754371Y-96350104D01*
X104801990Y-96445342D01*
X104801990Y-96826295D01*
X104373419Y-95873914D02*
X104325800Y-95826295D01*
X104278181Y-95731057D01*
X104278181Y-95492961D01*
X104325800Y-95397723D01*
X104373419Y-95350104D01*
X104468657Y-95302485D01*
X104563895Y-95302485D01*
X104706752Y-95350104D01*
X105278181Y-95921533D01*
X105278181Y-95302485D01*
X107021334Y-86812381D02*
X106688000Y-86336190D01*
X106449905Y-86812381D02*
X106449905Y-85812381D01*
X106830858Y-85812381D01*
X106926096Y-85860000D01*
X106973715Y-85907619D01*
X107021334Y-86002857D01*
X107021334Y-86145714D01*
X106973715Y-86240952D01*
X106926096Y-86288571D01*
X106830858Y-86336190D01*
X106449905Y-86336190D01*
X107354667Y-85812381D02*
X107973715Y-85812381D01*
X107640381Y-86193333D01*
X107783239Y-86193333D01*
X107878477Y-86240952D01*
X107926096Y-86288571D01*
X107973715Y-86383810D01*
X107973715Y-86621905D01*
X107926096Y-86717143D01*
X107878477Y-86764762D01*
X107783239Y-86812381D01*
X107497524Y-86812381D01*
X107402286Y-86764762D01*
X107354667Y-86717143D01*
X95241334Y-96830381D02*
X94908000Y-96354190D01*
X94669905Y-96830381D02*
X94669905Y-95830381D01*
X95050858Y-95830381D01*
X95146096Y-95878000D01*
X95193715Y-95925619D01*
X95241334Y-96020857D01*
X95241334Y-96163714D01*
X95193715Y-96258952D01*
X95146096Y-96306571D01*
X95050858Y-96354190D01*
X94669905Y-96354190D01*
X96098477Y-96163714D02*
X96098477Y-96830381D01*
X95860381Y-95782762D02*
X95622286Y-96497048D01*
X96241334Y-96497048D01*
X98691334Y-90114381D02*
X98358000Y-89638190D01*
X98119905Y-90114381D02*
X98119905Y-89114381D01*
X98500858Y-89114381D01*
X98596096Y-89162000D01*
X98643715Y-89209619D01*
X98691334Y-89304857D01*
X98691334Y-89447714D01*
X98643715Y-89542952D01*
X98596096Y-89590571D01*
X98500858Y-89638190D01*
X98119905Y-89638190D01*
X99596096Y-89114381D02*
X99119905Y-89114381D01*
X99072286Y-89590571D01*
X99119905Y-89542952D01*
X99215143Y-89495333D01*
X99453239Y-89495333D01*
X99548477Y-89542952D01*
X99596096Y-89590571D01*
X99643715Y-89685810D01*
X99643715Y-89923905D01*
X99596096Y-90019143D01*
X99548477Y-90066762D01*
X99453239Y-90114381D01*
X99215143Y-90114381D01*
X99119905Y-90066762D01*
X99072286Y-90019143D01*
X91130381Y-92114666D02*
X90654190Y-92448000D01*
X91130381Y-92686095D02*
X90130381Y-92686095D01*
X90130381Y-92305142D01*
X90178000Y-92209904D01*
X90225619Y-92162285D01*
X90320857Y-92114666D01*
X90463714Y-92114666D01*
X90558952Y-92162285D01*
X90606571Y-92209904D01*
X90654190Y-92305142D01*
X90654190Y-92686095D01*
X90130381Y-91257523D02*
X90130381Y-91448000D01*
X90178000Y-91543238D01*
X90225619Y-91590857D01*
X90368476Y-91686095D01*
X90558952Y-91733714D01*
X90939905Y-91733714D01*
X91035143Y-91686095D01*
X91082762Y-91638476D01*
X91130381Y-91543238D01*
X91130381Y-91352761D01*
X91082762Y-91257523D01*
X91035143Y-91209904D01*
X90939905Y-91162285D01*
X90701810Y-91162285D01*
X90606571Y-91209904D01*
X90558952Y-91257523D01*
X90511333Y-91352761D01*
X90511333Y-91543238D01*
X90558952Y-91638476D01*
X90606571Y-91686095D01*
X90701810Y-91733714D01*
X91927381Y-87316666D02*
X91451190Y-87650000D01*
X91927381Y-87888095D02*
X90927381Y-87888095D01*
X90927381Y-87507142D01*
X90975000Y-87411904D01*
X91022619Y-87364285D01*
X91117857Y-87316666D01*
X91260714Y-87316666D01*
X91355952Y-87364285D01*
X91403571Y-87411904D01*
X91451190Y-87507142D01*
X91451190Y-87888095D01*
X90927381Y-86983333D02*
X90927381Y-86316666D01*
X91927381Y-86745238D01*
X91652381Y-89466666D02*
X91176190Y-89800000D01*
X91652381Y-90038095D02*
X90652381Y-90038095D01*
X90652381Y-89657142D01*
X90700000Y-89561904D01*
X90747619Y-89514285D01*
X90842857Y-89466666D01*
X90985714Y-89466666D01*
X91080952Y-89514285D01*
X91128571Y-89561904D01*
X91176190Y-89657142D01*
X91176190Y-90038095D01*
X91080952Y-88895238D02*
X91033333Y-88990476D01*
X90985714Y-89038095D01*
X90890476Y-89085714D01*
X90842857Y-89085714D01*
X90747619Y-89038095D01*
X90700000Y-88990476D01*
X90652381Y-88895238D01*
X90652381Y-88704761D01*
X90700000Y-88609523D01*
X90747619Y-88561904D01*
X90842857Y-88514285D01*
X90890476Y-88514285D01*
X90985714Y-88561904D01*
X91033333Y-88609523D01*
X91080952Y-88704761D01*
X91080952Y-88895238D01*
X91128571Y-88990476D01*
X91176190Y-89038095D01*
X91271429Y-89085714D01*
X91461905Y-89085714D01*
X91557143Y-89038095D01*
X91604762Y-88990476D01*
X91652381Y-88895238D01*
X91652381Y-88704761D01*
X91604762Y-88609523D01*
X91557143Y-88561904D01*
X91461905Y-88514285D01*
X91271429Y-88514285D01*
X91176190Y-88561904D01*
X91128571Y-88609523D01*
X91080952Y-88704761D01*
X73350381Y-93384666D02*
X72874190Y-93718000D01*
X73350381Y-93956095D02*
X72350381Y-93956095D01*
X72350381Y-93575142D01*
X72398000Y-93479904D01*
X72445619Y-93432285D01*
X72540857Y-93384666D01*
X72683714Y-93384666D01*
X72778952Y-93432285D01*
X72826571Y-93479904D01*
X72874190Y-93575142D01*
X72874190Y-93956095D01*
X73350381Y-92908476D02*
X73350381Y-92718000D01*
X73302762Y-92622761D01*
X73255143Y-92575142D01*
X73112286Y-92479904D01*
X72921810Y-92432285D01*
X72540857Y-92432285D01*
X72445619Y-92479904D01*
X72398000Y-92527523D01*
X72350381Y-92622761D01*
X72350381Y-92813238D01*
X72398000Y-92908476D01*
X72445619Y-92956095D01*
X72540857Y-93003714D01*
X72778952Y-93003714D01*
X72874190Y-92956095D01*
X72921810Y-92908476D01*
X72969429Y-92813238D01*
X72969429Y-92622761D01*
X72921810Y-92527523D01*
X72874190Y-92479904D01*
X72778952Y-92432285D01*
X96639143Y-85034381D02*
X96305809Y-84558190D01*
X96067714Y-85034381D02*
X96067714Y-84034381D01*
X96448667Y-84034381D01*
X96543905Y-84082000D01*
X96591524Y-84129619D01*
X96639143Y-84224857D01*
X96639143Y-84367714D01*
X96591524Y-84462952D01*
X96543905Y-84510571D01*
X96448667Y-84558190D01*
X96067714Y-84558190D01*
X97591524Y-85034381D02*
X97020095Y-85034381D01*
X97305809Y-85034381D02*
X97305809Y-84034381D01*
X97210571Y-84177238D01*
X97115333Y-84272476D01*
X97020095Y-84320095D01*
X98448667Y-84367714D02*
X98448667Y-85034381D01*
X98210571Y-83986762D02*
X97972476Y-84701048D01*
X98591524Y-84701048D01*
X87374605Y-83766221D02*
X87374605Y-82766221D01*
X87612700Y-82766221D01*
X87755558Y-82813840D01*
X87850796Y-82909078D01*
X87898415Y-83004316D01*
X87946034Y-83194792D01*
X87946034Y-83337650D01*
X87898415Y-83528126D01*
X87850796Y-83623364D01*
X87755558Y-83718602D01*
X87612700Y-83766221D01*
X87374605Y-83766221D01*
X88803177Y-82766221D02*
X88612700Y-82766221D01*
X88517462Y-82813840D01*
X88469843Y-82861459D01*
X88374605Y-83004316D01*
X88326986Y-83194792D01*
X88326986Y-83575745D01*
X88374605Y-83670983D01*
X88422224Y-83718602D01*
X88517462Y-83766221D01*
X88707939Y-83766221D01*
X88803177Y-83718602D01*
X88850796Y-83670983D01*
X88898415Y-83575745D01*
X88898415Y-83337650D01*
X88850796Y-83242411D01*
X88803177Y-83194792D01*
X88707939Y-83147173D01*
X88517462Y-83147173D01*
X88422224Y-83194792D01*
X88374605Y-83242411D01*
X88326986Y-83337650D01*
X81633143Y-87713143D02*
X81585524Y-87760762D01*
X81442667Y-87808381D01*
X81347429Y-87808381D01*
X81204571Y-87760762D01*
X81109333Y-87665524D01*
X81061714Y-87570286D01*
X81014095Y-87379810D01*
X81014095Y-87236952D01*
X81061714Y-87046476D01*
X81109333Y-86951238D01*
X81204571Y-86856000D01*
X81347429Y-86808381D01*
X81442667Y-86808381D01*
X81585524Y-86856000D01*
X81633143Y-86903619D01*
X82585524Y-87808381D02*
X82014095Y-87808381D01*
X82299809Y-87808381D02*
X82299809Y-86808381D01*
X82204571Y-86951238D01*
X82109333Y-87046476D01*
X82014095Y-87094095D01*
X83442667Y-86808381D02*
X83252190Y-86808381D01*
X83156952Y-86856000D01*
X83109333Y-86903619D01*
X83014095Y-87046476D01*
X82966476Y-87236952D01*
X82966476Y-87617905D01*
X83014095Y-87713143D01*
X83061714Y-87760762D01*
X83156952Y-87808381D01*
X83347429Y-87808381D01*
X83442667Y-87760762D01*
X83490286Y-87713143D01*
X83537905Y-87617905D01*
X83537905Y-87379810D01*
X83490286Y-87284571D01*
X83442667Y-87236952D01*
X83347429Y-87189333D01*
X83156952Y-87189333D01*
X83061714Y-87236952D01*
X83014095Y-87284571D01*
X82966476Y-87379810D01*
X104888303Y-89076826D02*
X104935922Y-89124445D01*
X104983541Y-89267302D01*
X104983541Y-89362540D01*
X104935922Y-89505398D01*
X104840684Y-89600636D01*
X104745446Y-89648255D01*
X104554970Y-89695874D01*
X104412112Y-89695874D01*
X104221636Y-89648255D01*
X104126398Y-89600636D01*
X104031160Y-89505398D01*
X103983541Y-89362540D01*
X103983541Y-89267302D01*
X104031160Y-89124445D01*
X104078779Y-89076826D01*
X104078779Y-88695874D02*
X104031160Y-88648255D01*
X103983541Y-88553017D01*
X103983541Y-88314921D01*
X104031160Y-88219683D01*
X104078779Y-88172064D01*
X104174017Y-88124445D01*
X104269255Y-88124445D01*
X104412112Y-88172064D01*
X104983541Y-88743493D01*
X104983541Y-88124445D01*
X93458334Y-86782143D02*
X93410715Y-86829762D01*
X93267858Y-86877381D01*
X93172620Y-86877381D01*
X93029762Y-86829762D01*
X92934524Y-86734524D01*
X92886905Y-86639286D01*
X92839286Y-86448810D01*
X92839286Y-86305952D01*
X92886905Y-86115476D01*
X92934524Y-86020238D01*
X93029762Y-85925000D01*
X93172620Y-85877381D01*
X93267858Y-85877381D01*
X93410715Y-85925000D01*
X93458334Y-85972619D01*
X94315477Y-86210714D02*
X94315477Y-86877381D01*
X94077381Y-85829762D02*
X93839286Y-86544048D01*
X94458334Y-86544048D01*
X80605334Y-91797143D02*
X80557715Y-91844762D01*
X80414858Y-91892381D01*
X80319620Y-91892381D01*
X80176762Y-91844762D01*
X80081524Y-91749524D01*
X80033905Y-91654286D01*
X79986286Y-91463810D01*
X79986286Y-91320952D01*
X80033905Y-91130476D01*
X80081524Y-91035238D01*
X80176762Y-90940000D01*
X80319620Y-90892381D01*
X80414858Y-90892381D01*
X80557715Y-90940000D01*
X80605334Y-90987619D01*
X80938667Y-90892381D02*
X81605334Y-90892381D01*
X81176762Y-91892381D01*
D14*
X64984381Y-92503523D02*
X65698667Y-92503523D01*
X65841524Y-92551143D01*
X65936762Y-92646381D01*
X65984381Y-92789238D01*
X65984381Y-92884476D01*
X65079619Y-92074952D02*
X65032000Y-92027333D01*
X64984381Y-91932095D01*
X64984381Y-91693999D01*
X65032000Y-91598761D01*
X65079619Y-91551142D01*
X65174857Y-91503523D01*
X65270095Y-91503523D01*
X65412952Y-91551142D01*
X65984381Y-92122571D01*
X65984381Y-91503523D01*
X64984381Y-90598761D02*
X64984381Y-91074952D01*
X65460571Y-91122571D01*
X65412952Y-91074952D01*
X65365333Y-90979714D01*
X65365333Y-90741618D01*
X65412952Y-90646380D01*
X65460571Y-90598761D01*
X65555810Y-90551142D01*
X65793905Y-90551142D01*
X65889143Y-90598761D01*
X65936762Y-90646380D01*
X65984381Y-90741618D01*
X65984381Y-90979714D01*
X65936762Y-91074952D01*
X65889143Y-91122571D01*
X63857143Y-95884476D02*
X63904762Y-95932095D01*
X63952381Y-96074952D01*
X63952381Y-96170190D01*
X63904762Y-96313048D01*
X63809524Y-96408286D01*
X63714286Y-96455905D01*
X63523810Y-96503524D01*
X63380952Y-96503524D01*
X63190476Y-96455905D01*
X63095238Y-96408286D01*
X63000000Y-96313048D01*
X62952381Y-96170190D01*
X62952381Y-96074952D01*
X63000000Y-95932095D01*
X63047619Y-95884476D01*
X63952381Y-95313048D02*
X63904762Y-95408286D01*
X63857143Y-95455905D01*
X63761905Y-95503524D01*
X63476190Y-95503524D01*
X63380952Y-95455905D01*
X63333333Y-95408286D01*
X63285714Y-95313048D01*
X63285714Y-95170190D01*
X63333333Y-95074952D01*
X63380952Y-95027333D01*
X63476190Y-94979714D01*
X63761905Y-94979714D01*
X63857143Y-95027333D01*
X63904762Y-95074952D01*
X63952381Y-95170190D01*
X63952381Y-95313048D01*
X63285714Y-94551143D02*
X63952381Y-94551143D01*
X63380952Y-94551143D02*
X63333333Y-94503524D01*
X63285714Y-94408286D01*
X63285714Y-94265428D01*
X63333333Y-94170190D01*
X63428571Y-94122571D01*
X63952381Y-94122571D01*
X63285714Y-93646381D02*
X63952381Y-93646381D01*
X63380952Y-93646381D02*
X63333333Y-93598762D01*
X63285714Y-93503524D01*
X63285714Y-93360666D01*
X63333333Y-93265428D01*
X63428571Y-93217809D01*
X63952381Y-93217809D01*
X64047619Y-92979714D02*
X64047619Y-92217809D01*
X63857143Y-91408285D02*
X63904762Y-91455904D01*
X63952381Y-91598761D01*
X63952381Y-91693999D01*
X63904762Y-91836857D01*
X63809524Y-91932095D01*
X63714286Y-91979714D01*
X63523810Y-92027333D01*
X63380952Y-92027333D01*
X63190476Y-91979714D01*
X63095238Y-91932095D01*
X63000000Y-91836857D01*
X62952381Y-91693999D01*
X62952381Y-91598761D01*
X63000000Y-91455904D01*
X63047619Y-91408285D01*
X63952381Y-90836857D02*
X63904762Y-90932095D01*
X63857143Y-90979714D01*
X63761905Y-91027333D01*
X63476190Y-91027333D01*
X63380952Y-90979714D01*
X63333333Y-90932095D01*
X63285714Y-90836857D01*
X63285714Y-90693999D01*
X63333333Y-90598761D01*
X63380952Y-90551142D01*
X63476190Y-90503523D01*
X63761905Y-90503523D01*
X63857143Y-90551142D01*
X63904762Y-90598761D01*
X63952381Y-90693999D01*
X63952381Y-90836857D01*
X63952381Y-89646380D02*
X63428571Y-89646380D01*
X63333333Y-89693999D01*
X63285714Y-89789237D01*
X63285714Y-89979714D01*
X63333333Y-90074952D01*
X63904762Y-89646380D02*
X63952381Y-89741618D01*
X63952381Y-89979714D01*
X63904762Y-90074952D01*
X63809524Y-90122571D01*
X63714286Y-90122571D01*
X63619048Y-90074952D01*
X63571429Y-89979714D01*
X63571429Y-89741618D01*
X63523810Y-89646380D01*
X63952381Y-89265428D02*
X63285714Y-88741618D01*
X63285714Y-89265428D02*
X63952381Y-88741618D01*
X63952381Y-88360666D02*
X63285714Y-88360666D01*
X62952381Y-88360666D02*
X63000000Y-88408285D01*
X63047619Y-88360666D01*
X63000000Y-88313047D01*
X62952381Y-88360666D01*
X63047619Y-88360666D01*
X63952381Y-87455904D02*
X63428571Y-87455904D01*
X63333333Y-87503523D01*
X63285714Y-87598761D01*
X63285714Y-87789238D01*
X63333333Y-87884476D01*
X63904762Y-87455904D02*
X63952381Y-87551142D01*
X63952381Y-87789238D01*
X63904762Y-87884476D01*
X63809524Y-87932095D01*
X63714286Y-87932095D01*
X63619048Y-87884476D01*
X63571429Y-87789238D01*
X63571429Y-87551142D01*
X63523810Y-87455904D01*
X63952381Y-86836857D02*
X63904762Y-86932095D01*
X63809524Y-86979714D01*
X62952381Y-86979714D01*
D13*
X100004762Y-92927619D02*
X99909524Y-92880000D01*
X99814286Y-92784762D01*
X99671429Y-92641905D01*
X99576190Y-92594286D01*
X99480952Y-92594286D01*
X99528571Y-92832381D02*
X99433333Y-92784762D01*
X99338095Y-92689524D01*
X99290476Y-92499048D01*
X99290476Y-92165714D01*
X99338095Y-91975238D01*
X99433333Y-91880000D01*
X99528571Y-91832381D01*
X99719048Y-91832381D01*
X99814286Y-91880000D01*
X99909524Y-91975238D01*
X99957143Y-92165714D01*
X99957143Y-92499048D01*
X99909524Y-92689524D01*
X99814286Y-92784762D01*
X99719048Y-92832381D01*
X99528571Y-92832381D01*
X100909524Y-92832381D02*
X100338095Y-92832381D01*
X100623809Y-92832381D02*
X100623809Y-91832381D01*
X100528571Y-91975238D01*
X100433333Y-92070476D01*
X100338095Y-92118095D01*
X94138762Y-93765619D02*
X94043524Y-93718000D01*
X93948286Y-93622762D01*
X93805429Y-93479905D01*
X93710190Y-93432286D01*
X93614952Y-93432286D01*
X93662571Y-93670381D02*
X93567333Y-93622762D01*
X93472095Y-93527524D01*
X93424476Y-93337048D01*
X93424476Y-93003714D01*
X93472095Y-92813238D01*
X93567333Y-92718000D01*
X93662571Y-92670381D01*
X93853048Y-92670381D01*
X93948286Y-92718000D01*
X94043524Y-92813238D01*
X94091143Y-93003714D01*
X94091143Y-93337048D01*
X94043524Y-93527524D01*
X93948286Y-93622762D01*
X93853048Y-93670381D01*
X93662571Y-93670381D01*
X94472095Y-92765619D02*
X94519714Y-92718000D01*
X94614952Y-92670381D01*
X94853048Y-92670381D01*
X94948286Y-92718000D01*
X94995905Y-92765619D01*
X95043524Y-92860857D01*
X95043524Y-92956095D01*
X94995905Y-93098952D01*
X94424476Y-93670381D01*
X95043524Y-93670381D01*
X86518762Y-92495619D02*
X86423524Y-92448000D01*
X86328286Y-92352762D01*
X86185429Y-92209905D01*
X86090190Y-92162286D01*
X85994952Y-92162286D01*
X86042571Y-92400381D02*
X85947333Y-92352762D01*
X85852095Y-92257524D01*
X85804476Y-92067048D01*
X85804476Y-91733714D01*
X85852095Y-91543238D01*
X85947333Y-91448000D01*
X86042571Y-91400381D01*
X86233048Y-91400381D01*
X86328286Y-91448000D01*
X86423524Y-91543238D01*
X86471143Y-91733714D01*
X86471143Y-92067048D01*
X86423524Y-92257524D01*
X86328286Y-92352762D01*
X86233048Y-92400381D01*
X86042571Y-92400381D01*
X86804476Y-91400381D02*
X87423524Y-91400381D01*
X87090190Y-91781333D01*
X87233048Y-91781333D01*
X87328286Y-91828952D01*
X87375905Y-91876571D01*
X87423524Y-91971810D01*
X87423524Y-92209905D01*
X87375905Y-92305143D01*
X87328286Y-92352762D01*
X87233048Y-92400381D01*
X86947333Y-92400381D01*
X86852095Y-92352762D01*
X86804476Y-92305143D01*
X106672143Y-91587581D02*
X106338809Y-91111390D01*
X106100714Y-91587581D02*
X106100714Y-90587581D01*
X106481667Y-90587581D01*
X106576905Y-90635200D01*
X106624524Y-90682819D01*
X106672143Y-90778057D01*
X106672143Y-90920914D01*
X106624524Y-91016152D01*
X106576905Y-91063771D01*
X106481667Y-91111390D01*
X106100714Y-91111390D01*
X107624524Y-91587581D02*
X107053095Y-91587581D01*
X107338809Y-91587581D02*
X107338809Y-90587581D01*
X107243571Y-90730438D01*
X107148333Y-90825676D01*
X107053095Y-90873295D01*
X108576905Y-91587581D02*
X108005476Y-91587581D01*
X108291190Y-91587581D02*
X108291190Y-90587581D01*
X108195952Y-90730438D01*
X108100714Y-90825676D01*
X108005476Y-90873295D01*
X90543143Y-94686381D02*
X90209809Y-94210190D01*
X89971714Y-94686381D02*
X89971714Y-93686381D01*
X90352667Y-93686381D01*
X90447905Y-93734000D01*
X90495524Y-93781619D01*
X90543143Y-93876857D01*
X90543143Y-94019714D01*
X90495524Y-94114952D01*
X90447905Y-94162571D01*
X90352667Y-94210190D01*
X89971714Y-94210190D01*
X91495524Y-94686381D02*
X90924095Y-94686381D01*
X91209809Y-94686381D02*
X91209809Y-93686381D01*
X91114571Y-93829238D01*
X91019333Y-93924476D01*
X90924095Y-93972095D01*
X91876476Y-93781619D02*
X91924095Y-93734000D01*
X92019333Y-93686381D01*
X92257429Y-93686381D01*
X92352667Y-93734000D01*
X92400286Y-93781619D01*
X92447905Y-93876857D01*
X92447905Y-93972095D01*
X92400286Y-94114952D01*
X91828857Y-94686381D01*
X92447905Y-94686381D01*
M02*
