G04 #@! TF.FileFunction,Legend,Top*
%FSLAX46Y46*%
G04 Gerber Fmt 4.6, Leading zero omitted, Abs format (unit mm)*
G04 Created by KiCad (PCBNEW 4.0.7) date 04/22/20 12:21:13*
%MOMM*%
%LPD*%
G01*
G04 APERTURE LIST*
%ADD10C,0.100000*%
%ADD11C,0.120000*%
%ADD12C,0.150000*%
G04 APERTURE END LIST*
D10*
D11*
X95512000Y-87210000D02*
X96512000Y-87210000D01*
X96512000Y-85510000D02*
X95512000Y-85510000D01*
X81200000Y-95120000D02*
X82400000Y-95120000D01*
X82400000Y-96880000D02*
X81200000Y-96880000D01*
X107060000Y-91880000D02*
X106060000Y-91880000D01*
X106060000Y-93580000D02*
X107060000Y-93580000D01*
X99734000Y-97290000D02*
X99734000Y-98290000D01*
X101434000Y-98290000D02*
X101434000Y-97290000D01*
X91500000Y-92275000D02*
X91500000Y-91275000D01*
X89800000Y-91275000D02*
X89800000Y-92275000D01*
X76446000Y-90336000D02*
X75446000Y-90336000D01*
X75446000Y-92036000D02*
X76446000Y-92036000D01*
X76446000Y-96940000D02*
X75446000Y-96940000D01*
X75446000Y-98640000D02*
X76446000Y-98640000D01*
X85150000Y-87400000D02*
X84150000Y-87400000D01*
X84150000Y-89100000D02*
X85150000Y-89100000D01*
X77846000Y-96608000D02*
X77846000Y-94908000D01*
X77846000Y-94908000D02*
X74696000Y-94908000D01*
X77846000Y-96608000D02*
X74696000Y-96608000D01*
X101482000Y-98390000D02*
X101482000Y-97190000D01*
X103242000Y-97190000D02*
X103242000Y-98390000D01*
X97800000Y-97180000D02*
X96600000Y-97180000D01*
X96600000Y-95420000D02*
X97800000Y-95420000D01*
X92750000Y-97155000D02*
X91550000Y-97155000D01*
X91550000Y-95395000D02*
X92750000Y-95395000D01*
X96945000Y-90150000D02*
X96945000Y-88950000D01*
X98705000Y-88950000D02*
X98705000Y-90150000D01*
X76546000Y-94098000D02*
X75346000Y-94098000D01*
X75346000Y-92338000D02*
X76546000Y-92338000D01*
X71600000Y-81820000D02*
X72800000Y-81820000D01*
X72800000Y-83580000D02*
X71600000Y-83580000D01*
X78000000Y-83450000D02*
X74800000Y-83450000D01*
X74800000Y-81950000D02*
X78000000Y-81950000D01*
X74800000Y-81950000D02*
X74800000Y-83450000D01*
X101250000Y-85290000D02*
X100250000Y-85290000D01*
X100250000Y-86990000D02*
X101250000Y-86990000D01*
X106130000Y-88440000D02*
X106130000Y-89640000D01*
X104370000Y-89640000D02*
X104370000Y-88440000D01*
X88700000Y-87370000D02*
X89900000Y-87370000D01*
X89900000Y-89130000D02*
X88700000Y-89130000D01*
X102590000Y-89720000D02*
X103790000Y-89720000D01*
X103790000Y-89720000D02*
X103790000Y-92420000D01*
X98990000Y-93720000D02*
X98990000Y-89720000D01*
X98990000Y-89720000D02*
X100190000Y-89720000D01*
X95575000Y-89845000D02*
X96775000Y-89845000D01*
X96775000Y-89845000D02*
X96775000Y-92545000D01*
X91975000Y-93845000D02*
X91975000Y-89845000D01*
X91975000Y-89845000D02*
X93175000Y-89845000D01*
X88200000Y-91720000D02*
X89400000Y-91720000D01*
X89400000Y-91720000D02*
X89400000Y-94420000D01*
X84600000Y-95720000D02*
X84600000Y-91720000D01*
X84600000Y-91720000D02*
X85800000Y-91720000D01*
X70900000Y-99580000D02*
X69700000Y-99580000D01*
X69700000Y-97820000D02*
X70900000Y-97820000D01*
X80025000Y-90625000D02*
X80025000Y-91625000D01*
X81725000Y-91625000D02*
X81725000Y-90625000D01*
X100200000Y-83320000D02*
X101400000Y-83320000D01*
X101400000Y-85080000D02*
X100200000Y-85080000D01*
X89700000Y-85620000D02*
X90900000Y-85620000D01*
X90900000Y-87380000D02*
X89700000Y-87380000D01*
X83750000Y-85520000D02*
X84950000Y-85520000D01*
X84950000Y-87280000D02*
X83750000Y-87280000D01*
D12*
X93657143Y-86566666D02*
X93704762Y-86614285D01*
X93752381Y-86757142D01*
X93752381Y-86852380D01*
X93704762Y-86995238D01*
X93609524Y-87090476D01*
X93514286Y-87138095D01*
X93323810Y-87185714D01*
X93180952Y-87185714D01*
X92990476Y-87138095D01*
X92895238Y-87090476D01*
X92800000Y-86995238D01*
X92752381Y-86852380D01*
X92752381Y-86757142D01*
X92800000Y-86614285D01*
X92847619Y-86566666D01*
X93085714Y-85709523D02*
X93752381Y-85709523D01*
X92704762Y-85947619D02*
X93419048Y-86185714D01*
X93419048Y-85566666D01*
X83752381Y-94242857D02*
X83276190Y-94576191D01*
X83752381Y-94814286D02*
X82752381Y-94814286D01*
X82752381Y-94433333D01*
X82800000Y-94338095D01*
X82847619Y-94290476D01*
X82942857Y-94242857D01*
X83085714Y-94242857D01*
X83180952Y-94290476D01*
X83228571Y-94338095D01*
X83276190Y-94433333D01*
X83276190Y-94814286D01*
X83752381Y-93290476D02*
X83752381Y-93861905D01*
X83752381Y-93576191D02*
X82752381Y-93576191D01*
X82895238Y-93671429D01*
X82990476Y-93766667D01*
X83038095Y-93861905D01*
X82752381Y-92671429D02*
X82752381Y-92576190D01*
X82800000Y-92480952D01*
X82847619Y-92433333D01*
X82942857Y-92385714D01*
X83133333Y-92338095D01*
X83371429Y-92338095D01*
X83561905Y-92385714D01*
X83657143Y-92433333D01*
X83704762Y-92480952D01*
X83752381Y-92576190D01*
X83752381Y-92671429D01*
X83704762Y-92766667D01*
X83657143Y-92814286D01*
X83561905Y-92861905D01*
X83371429Y-92909524D01*
X83133333Y-92909524D01*
X82942857Y-92861905D01*
X82847619Y-92814286D01*
X82800000Y-92766667D01*
X82752381Y-92671429D01*
X106339334Y-94702143D02*
X106291715Y-94749762D01*
X106148858Y-94797381D01*
X106053620Y-94797381D01*
X105910762Y-94749762D01*
X105815524Y-94654524D01*
X105767905Y-94559286D01*
X105720286Y-94368810D01*
X105720286Y-94225952D01*
X105767905Y-94035476D01*
X105815524Y-93940238D01*
X105910762Y-93845000D01*
X106053620Y-93797381D01*
X106148858Y-93797381D01*
X106291715Y-93845000D01*
X106339334Y-93892619D01*
X107291715Y-94797381D02*
X106720286Y-94797381D01*
X107006000Y-94797381D02*
X107006000Y-93797381D01*
X106910762Y-93940238D01*
X106815524Y-94035476D01*
X106720286Y-94083095D01*
X99417143Y-99226666D02*
X99464762Y-99274285D01*
X99512381Y-99417142D01*
X99512381Y-99512380D01*
X99464762Y-99655238D01*
X99369524Y-99750476D01*
X99274286Y-99798095D01*
X99083810Y-99845714D01*
X98940952Y-99845714D01*
X98750476Y-99798095D01*
X98655238Y-99750476D01*
X98560000Y-99655238D01*
X98512381Y-99512380D01*
X98512381Y-99417142D01*
X98560000Y-99274285D01*
X98607619Y-99226666D01*
X98512381Y-98893333D02*
X98512381Y-98274285D01*
X98893333Y-98607619D01*
X98893333Y-98464761D01*
X98940952Y-98369523D01*
X98988571Y-98321904D01*
X99083810Y-98274285D01*
X99321905Y-98274285D01*
X99417143Y-98321904D01*
X99464762Y-98369523D01*
X99512381Y-98464761D01*
X99512381Y-98750476D01*
X99464762Y-98845714D01*
X99417143Y-98893333D01*
X90558334Y-95107143D02*
X90510715Y-95154762D01*
X90367858Y-95202381D01*
X90272620Y-95202381D01*
X90129762Y-95154762D01*
X90034524Y-95059524D01*
X89986905Y-94964286D01*
X89939286Y-94773810D01*
X89939286Y-94630952D01*
X89986905Y-94440476D01*
X90034524Y-94345238D01*
X90129762Y-94250000D01*
X90272620Y-94202381D01*
X90367858Y-94202381D01*
X90510715Y-94250000D01*
X90558334Y-94297619D01*
X91463096Y-94202381D02*
X90986905Y-94202381D01*
X90939286Y-94678571D01*
X90986905Y-94630952D01*
X91082143Y-94583333D01*
X91320239Y-94583333D01*
X91415477Y-94630952D01*
X91463096Y-94678571D01*
X91510715Y-94773810D01*
X91510715Y-95011905D01*
X91463096Y-95107143D01*
X91415477Y-95154762D01*
X91320239Y-95202381D01*
X91082143Y-95202381D01*
X90986905Y-95154762D01*
X90939286Y-95107143D01*
X73255143Y-91352666D02*
X73302762Y-91400285D01*
X73350381Y-91543142D01*
X73350381Y-91638380D01*
X73302762Y-91781238D01*
X73207524Y-91876476D01*
X73112286Y-91924095D01*
X72921810Y-91971714D01*
X72778952Y-91971714D01*
X72588476Y-91924095D01*
X72493238Y-91876476D01*
X72398000Y-91781238D01*
X72350381Y-91638380D01*
X72350381Y-91543142D01*
X72398000Y-91400285D01*
X72445619Y-91352666D01*
X72350381Y-90495523D02*
X72350381Y-90686000D01*
X72398000Y-90781238D01*
X72445619Y-90828857D01*
X72588476Y-90924095D01*
X72778952Y-90971714D01*
X73159905Y-90971714D01*
X73255143Y-90924095D01*
X73302762Y-90876476D01*
X73350381Y-90781238D01*
X73350381Y-90590761D01*
X73302762Y-90495523D01*
X73255143Y-90447904D01*
X73159905Y-90400285D01*
X72921810Y-90400285D01*
X72826571Y-90447904D01*
X72778952Y-90495523D01*
X72731333Y-90590761D01*
X72731333Y-90781238D01*
X72778952Y-90876476D01*
X72826571Y-90924095D01*
X72921810Y-90971714D01*
X73557143Y-97766666D02*
X73604762Y-97814285D01*
X73652381Y-97957142D01*
X73652381Y-98052380D01*
X73604762Y-98195238D01*
X73509524Y-98290476D01*
X73414286Y-98338095D01*
X73223810Y-98385714D01*
X73080952Y-98385714D01*
X72890476Y-98338095D01*
X72795238Y-98290476D01*
X72700000Y-98195238D01*
X72652381Y-98052380D01*
X72652381Y-97957142D01*
X72700000Y-97814285D01*
X72747619Y-97766666D01*
X73080952Y-97195238D02*
X73033333Y-97290476D01*
X72985714Y-97338095D01*
X72890476Y-97385714D01*
X72842857Y-97385714D01*
X72747619Y-97338095D01*
X72700000Y-97290476D01*
X72652381Y-97195238D01*
X72652381Y-97004761D01*
X72700000Y-96909523D01*
X72747619Y-96861904D01*
X72842857Y-96814285D01*
X72890476Y-96814285D01*
X72985714Y-96861904D01*
X73033333Y-96909523D01*
X73080952Y-97004761D01*
X73080952Y-97195238D01*
X73128571Y-97290476D01*
X73176190Y-97338095D01*
X73271429Y-97385714D01*
X73461905Y-97385714D01*
X73557143Y-97338095D01*
X73604762Y-97290476D01*
X73652381Y-97195238D01*
X73652381Y-97004761D01*
X73604762Y-96909523D01*
X73557143Y-96861904D01*
X73461905Y-96814285D01*
X73271429Y-96814285D01*
X73176190Y-96861904D01*
X73128571Y-96909523D01*
X73080952Y-97004761D01*
X81433334Y-88557143D02*
X81385715Y-88604762D01*
X81242858Y-88652381D01*
X81147620Y-88652381D01*
X81004762Y-88604762D01*
X80909524Y-88509524D01*
X80861905Y-88414286D01*
X80814286Y-88223810D01*
X80814286Y-88080952D01*
X80861905Y-87890476D01*
X80909524Y-87795238D01*
X81004762Y-87700000D01*
X81147620Y-87652381D01*
X81242858Y-87652381D01*
X81385715Y-87700000D01*
X81433334Y-87747619D01*
X81909524Y-88652381D02*
X82100000Y-88652381D01*
X82195239Y-88604762D01*
X82242858Y-88557143D01*
X82338096Y-88414286D01*
X82385715Y-88223810D01*
X82385715Y-87842857D01*
X82338096Y-87747619D01*
X82290477Y-87700000D01*
X82195239Y-87652381D01*
X82004762Y-87652381D01*
X81909524Y-87700000D01*
X81861905Y-87747619D01*
X81814286Y-87842857D01*
X81814286Y-88080952D01*
X81861905Y-88176190D01*
X81909524Y-88223810D01*
X82004762Y-88271429D01*
X82195239Y-88271429D01*
X82290477Y-88223810D01*
X82338096Y-88176190D01*
X82385715Y-88080952D01*
X73652381Y-96238095D02*
X72652381Y-96238095D01*
X72652381Y-96000000D01*
X72700000Y-95857142D01*
X72795238Y-95761904D01*
X72890476Y-95714285D01*
X73080952Y-95666666D01*
X73223810Y-95666666D01*
X73414286Y-95714285D01*
X73509524Y-95761904D01*
X73604762Y-95857142D01*
X73652381Y-96000000D01*
X73652381Y-96238095D01*
X72652381Y-94761904D02*
X72652381Y-95238095D01*
X73128571Y-95285714D01*
X73080952Y-95238095D01*
X73033333Y-95142857D01*
X73033333Y-94904761D01*
X73080952Y-94809523D01*
X73128571Y-94761904D01*
X73223810Y-94714285D01*
X73461905Y-94714285D01*
X73557143Y-94761904D01*
X73604762Y-94809523D01*
X73652381Y-94904761D01*
X73652381Y-95142857D01*
X73604762Y-95238095D01*
X73557143Y-95285714D01*
X104592381Y-96686666D02*
X104116190Y-97020000D01*
X104592381Y-97258095D02*
X103592381Y-97258095D01*
X103592381Y-96877142D01*
X103640000Y-96781904D01*
X103687619Y-96734285D01*
X103782857Y-96686666D01*
X103925714Y-96686666D01*
X104020952Y-96734285D01*
X104068571Y-96781904D01*
X104116190Y-96877142D01*
X104116190Y-97258095D01*
X103687619Y-96305714D02*
X103640000Y-96258095D01*
X103592381Y-96162857D01*
X103592381Y-95924761D01*
X103640000Y-95829523D01*
X103687619Y-95781904D01*
X103782857Y-95734285D01*
X103878095Y-95734285D01*
X104020952Y-95781904D01*
X104592381Y-96353333D01*
X104592381Y-95734285D01*
X97877334Y-95194381D02*
X97544000Y-94718190D01*
X97305905Y-95194381D02*
X97305905Y-94194381D01*
X97686858Y-94194381D01*
X97782096Y-94242000D01*
X97829715Y-94289619D01*
X97877334Y-94384857D01*
X97877334Y-94527714D01*
X97829715Y-94622952D01*
X97782096Y-94670571D01*
X97686858Y-94718190D01*
X97305905Y-94718190D01*
X98734477Y-94527714D02*
X98734477Y-95194381D01*
X98496381Y-94146762D02*
X98258286Y-94861048D01*
X98877334Y-94861048D01*
X91958334Y-98502381D02*
X91625000Y-98026190D01*
X91386905Y-98502381D02*
X91386905Y-97502381D01*
X91767858Y-97502381D01*
X91863096Y-97550000D01*
X91910715Y-97597619D01*
X91958334Y-97692857D01*
X91958334Y-97835714D01*
X91910715Y-97930952D01*
X91863096Y-97978571D01*
X91767858Y-98026190D01*
X91386905Y-98026190D01*
X92863096Y-97502381D02*
X92386905Y-97502381D01*
X92339286Y-97978571D01*
X92386905Y-97930952D01*
X92482143Y-97883333D01*
X92720239Y-97883333D01*
X92815477Y-97930952D01*
X92863096Y-97978571D01*
X92910715Y-98073810D01*
X92910715Y-98311905D01*
X92863096Y-98407143D01*
X92815477Y-98454762D01*
X92720239Y-98502381D01*
X92482143Y-98502381D01*
X92386905Y-98454762D01*
X92339286Y-98407143D01*
X97658334Y-92902381D02*
X97325000Y-92426190D01*
X97086905Y-92902381D02*
X97086905Y-91902381D01*
X97467858Y-91902381D01*
X97563096Y-91950000D01*
X97610715Y-91997619D01*
X97658334Y-92092857D01*
X97658334Y-92235714D01*
X97610715Y-92330952D01*
X97563096Y-92378571D01*
X97467858Y-92426190D01*
X97086905Y-92426190D01*
X98515477Y-91902381D02*
X98325000Y-91902381D01*
X98229762Y-91950000D01*
X98182143Y-91997619D01*
X98086905Y-92140476D01*
X98039286Y-92330952D01*
X98039286Y-92711905D01*
X98086905Y-92807143D01*
X98134524Y-92854762D01*
X98229762Y-92902381D01*
X98420239Y-92902381D01*
X98515477Y-92854762D01*
X98563096Y-92807143D01*
X98610715Y-92711905D01*
X98610715Y-92473810D01*
X98563096Y-92378571D01*
X98515477Y-92330952D01*
X98420239Y-92283333D01*
X98229762Y-92283333D01*
X98134524Y-92330952D01*
X98086905Y-92378571D01*
X98039286Y-92473810D01*
X73350381Y-93384666D02*
X72874190Y-93718000D01*
X73350381Y-93956095D02*
X72350381Y-93956095D01*
X72350381Y-93575142D01*
X72398000Y-93479904D01*
X72445619Y-93432285D01*
X72540857Y-93384666D01*
X72683714Y-93384666D01*
X72778952Y-93432285D01*
X72826571Y-93479904D01*
X72874190Y-93575142D01*
X72874190Y-93956095D01*
X73350381Y-92908476D02*
X73350381Y-92718000D01*
X73302762Y-92622761D01*
X73255143Y-92575142D01*
X73112286Y-92479904D01*
X72921810Y-92432285D01*
X72540857Y-92432285D01*
X72445619Y-92479904D01*
X72398000Y-92527523D01*
X72350381Y-92622761D01*
X72350381Y-92813238D01*
X72398000Y-92908476D01*
X72445619Y-92956095D01*
X72540857Y-93003714D01*
X72778952Y-93003714D01*
X72874190Y-92956095D01*
X72921810Y-92908476D01*
X72969429Y-92813238D01*
X72969429Y-92622761D01*
X72921810Y-92527523D01*
X72874190Y-92479904D01*
X72778952Y-92432285D01*
X67757143Y-83352381D02*
X67423809Y-82876190D01*
X67185714Y-83352381D02*
X67185714Y-82352381D01*
X67566667Y-82352381D01*
X67661905Y-82400000D01*
X67709524Y-82447619D01*
X67757143Y-82542857D01*
X67757143Y-82685714D01*
X67709524Y-82780952D01*
X67661905Y-82828571D01*
X67566667Y-82876190D01*
X67185714Y-82876190D01*
X68709524Y-83352381D02*
X68138095Y-83352381D01*
X68423809Y-83352381D02*
X68423809Y-82352381D01*
X68328571Y-82495238D01*
X68233333Y-82590476D01*
X68138095Y-82638095D01*
X69566667Y-82685714D02*
X69566667Y-83352381D01*
X69328571Y-82304762D02*
X69090476Y-83019048D01*
X69709524Y-83019048D01*
X79461905Y-83502381D02*
X79461905Y-82502381D01*
X79700000Y-82502381D01*
X79842858Y-82550000D01*
X79938096Y-82645238D01*
X79985715Y-82740476D01*
X80033334Y-82930952D01*
X80033334Y-83073810D01*
X79985715Y-83264286D01*
X79938096Y-83359524D01*
X79842858Y-83454762D01*
X79700000Y-83502381D01*
X79461905Y-83502381D01*
X80890477Y-82502381D02*
X80700000Y-82502381D01*
X80604762Y-82550000D01*
X80557143Y-82597619D01*
X80461905Y-82740476D01*
X80414286Y-82930952D01*
X80414286Y-83311905D01*
X80461905Y-83407143D01*
X80509524Y-83454762D01*
X80604762Y-83502381D01*
X80795239Y-83502381D01*
X80890477Y-83454762D01*
X80938096Y-83407143D01*
X80985715Y-83311905D01*
X80985715Y-83073810D01*
X80938096Y-82978571D01*
X80890477Y-82930952D01*
X80795239Y-82883333D01*
X80604762Y-82883333D01*
X80509524Y-82930952D01*
X80461905Y-82978571D01*
X80414286Y-83073810D01*
X104157143Y-86266666D02*
X104204762Y-86314285D01*
X104252381Y-86457142D01*
X104252381Y-86552380D01*
X104204762Y-86695238D01*
X104109524Y-86790476D01*
X104014286Y-86838095D01*
X103823810Y-86885714D01*
X103680952Y-86885714D01*
X103490476Y-86838095D01*
X103395238Y-86790476D01*
X103300000Y-86695238D01*
X103252381Y-86552380D01*
X103252381Y-86457142D01*
X103300000Y-86314285D01*
X103347619Y-86266666D01*
X103347619Y-85885714D02*
X103300000Y-85838095D01*
X103252381Y-85742857D01*
X103252381Y-85504761D01*
X103300000Y-85409523D01*
X103347619Y-85361904D01*
X103442857Y-85314285D01*
X103538095Y-85314285D01*
X103680952Y-85361904D01*
X104252381Y-85933333D01*
X104252381Y-85314285D01*
X105642381Y-85938857D02*
X105166190Y-86272191D01*
X105642381Y-86510286D02*
X104642381Y-86510286D01*
X104642381Y-86129333D01*
X104690000Y-86034095D01*
X104737619Y-85986476D01*
X104832857Y-85938857D01*
X104975714Y-85938857D01*
X105070952Y-85986476D01*
X105118571Y-86034095D01*
X105166190Y-86129333D01*
X105166190Y-86510286D01*
X105642381Y-84986476D02*
X105642381Y-85557905D01*
X105642381Y-85272191D02*
X104642381Y-85272191D01*
X104785238Y-85367429D01*
X104880476Y-85462667D01*
X104928095Y-85557905D01*
X105642381Y-84034095D02*
X105642381Y-84605524D01*
X105642381Y-84319810D02*
X104642381Y-84319810D01*
X104785238Y-84415048D01*
X104880476Y-84510286D01*
X104928095Y-84605524D01*
X87852381Y-86742857D02*
X87376190Y-87076191D01*
X87852381Y-87314286D02*
X86852381Y-87314286D01*
X86852381Y-86933333D01*
X86900000Y-86838095D01*
X86947619Y-86790476D01*
X87042857Y-86742857D01*
X87185714Y-86742857D01*
X87280952Y-86790476D01*
X87328571Y-86838095D01*
X87376190Y-86933333D01*
X87376190Y-87314286D01*
X87852381Y-85790476D02*
X87852381Y-86361905D01*
X87852381Y-86076191D02*
X86852381Y-86076191D01*
X86995238Y-86171429D01*
X87090476Y-86266667D01*
X87138095Y-86361905D01*
X86947619Y-85409524D02*
X86900000Y-85361905D01*
X86852381Y-85266667D01*
X86852381Y-85028571D01*
X86900000Y-84933333D01*
X86947619Y-84885714D01*
X87042857Y-84838095D01*
X87138095Y-84838095D01*
X87280952Y-84885714D01*
X87852381Y-85457143D01*
X87852381Y-84838095D01*
X100087619Y-88620238D02*
X100040000Y-88715476D01*
X99944762Y-88810714D01*
X99801905Y-88953571D01*
X99754286Y-89048810D01*
X99754286Y-89144048D01*
X99992381Y-89096429D02*
X99944762Y-89191667D01*
X99849524Y-89286905D01*
X99659048Y-89334524D01*
X99325714Y-89334524D01*
X99135238Y-89286905D01*
X99040000Y-89191667D01*
X98992381Y-89096429D01*
X98992381Y-88905952D01*
X99040000Y-88810714D01*
X99135238Y-88715476D01*
X99325714Y-88667857D01*
X99659048Y-88667857D01*
X99849524Y-88715476D01*
X99944762Y-88810714D01*
X99992381Y-88905952D01*
X99992381Y-89096429D01*
X99992381Y-87715476D02*
X99992381Y-88286905D01*
X99992381Y-88001191D02*
X98992381Y-88001191D01*
X99135238Y-88096429D01*
X99230476Y-88191667D01*
X99278095Y-88286905D01*
X93257619Y-88741238D02*
X93210000Y-88836476D01*
X93114762Y-88931714D01*
X92971905Y-89074571D01*
X92924286Y-89169810D01*
X92924286Y-89265048D01*
X93162381Y-89217429D02*
X93114762Y-89312667D01*
X93019524Y-89407905D01*
X92829048Y-89455524D01*
X92495714Y-89455524D01*
X92305238Y-89407905D01*
X92210000Y-89312667D01*
X92162381Y-89217429D01*
X92162381Y-89026952D01*
X92210000Y-88931714D01*
X92305238Y-88836476D01*
X92495714Y-88788857D01*
X92829048Y-88788857D01*
X93019524Y-88836476D01*
X93114762Y-88931714D01*
X93162381Y-89026952D01*
X93162381Y-89217429D01*
X92257619Y-88407905D02*
X92210000Y-88360286D01*
X92162381Y-88265048D01*
X92162381Y-88026952D01*
X92210000Y-87931714D01*
X92257619Y-87884095D01*
X92352857Y-87836476D01*
X92448095Y-87836476D01*
X92590952Y-87884095D01*
X93162381Y-88455524D01*
X93162381Y-87836476D01*
X85597619Y-90495238D02*
X85550000Y-90590476D01*
X85454762Y-90685714D01*
X85311905Y-90828571D01*
X85264286Y-90923810D01*
X85264286Y-91019048D01*
X85502381Y-90971429D02*
X85454762Y-91066667D01*
X85359524Y-91161905D01*
X85169048Y-91209524D01*
X84835714Y-91209524D01*
X84645238Y-91161905D01*
X84550000Y-91066667D01*
X84502381Y-90971429D01*
X84502381Y-90780952D01*
X84550000Y-90685714D01*
X84645238Y-90590476D01*
X84835714Y-90542857D01*
X85169048Y-90542857D01*
X85359524Y-90590476D01*
X85454762Y-90685714D01*
X85502381Y-90780952D01*
X85502381Y-90971429D01*
X84502381Y-90209524D02*
X84502381Y-89590476D01*
X84883333Y-89923810D01*
X84883333Y-89780952D01*
X84930952Y-89685714D01*
X84978571Y-89638095D01*
X85073810Y-89590476D01*
X85311905Y-89590476D01*
X85407143Y-89638095D01*
X85454762Y-89685714D01*
X85502381Y-89780952D01*
X85502381Y-90066667D01*
X85454762Y-90161905D01*
X85407143Y-90209524D01*
X71812381Y-88834523D02*
X72526667Y-88834523D01*
X72669524Y-88882143D01*
X72764762Y-88977381D01*
X72812381Y-89120238D01*
X72812381Y-89215476D01*
X71907619Y-88405952D02*
X71860000Y-88358333D01*
X71812381Y-88263095D01*
X71812381Y-88024999D01*
X71860000Y-87929761D01*
X71907619Y-87882142D01*
X72002857Y-87834523D01*
X72098095Y-87834523D01*
X72240952Y-87882142D01*
X72812381Y-88453571D01*
X72812381Y-87834523D01*
X71812381Y-86929761D02*
X71812381Y-87405952D01*
X72288571Y-87453571D01*
X72240952Y-87405952D01*
X72193333Y-87310714D01*
X72193333Y-87072618D01*
X72240952Y-86977380D01*
X72288571Y-86929761D01*
X72383810Y-86882142D01*
X72621905Y-86882142D01*
X72717143Y-86929761D01*
X72764762Y-86977380D01*
X72812381Y-87072618D01*
X72812381Y-87310714D01*
X72764762Y-87405952D01*
X72717143Y-87453571D01*
X69557143Y-97552381D02*
X69223809Y-97076190D01*
X68985714Y-97552381D02*
X68985714Y-96552381D01*
X69366667Y-96552381D01*
X69461905Y-96600000D01*
X69509524Y-96647619D01*
X69557143Y-96742857D01*
X69557143Y-96885714D01*
X69509524Y-96980952D01*
X69461905Y-97028571D01*
X69366667Y-97076190D01*
X68985714Y-97076190D01*
X70509524Y-97552381D02*
X69938095Y-97552381D01*
X70223809Y-97552381D02*
X70223809Y-96552381D01*
X70128571Y-96695238D01*
X70033333Y-96790476D01*
X69938095Y-96838095D01*
X70842857Y-96552381D02*
X71461905Y-96552381D01*
X71128571Y-96933333D01*
X71271429Y-96933333D01*
X71366667Y-96980952D01*
X71414286Y-97028571D01*
X71461905Y-97123810D01*
X71461905Y-97361905D01*
X71414286Y-97457143D01*
X71366667Y-97504762D01*
X71271429Y-97552381D01*
X70985714Y-97552381D01*
X70890476Y-97504762D01*
X70842857Y-97457143D01*
X79482143Y-91767857D02*
X79529762Y-91815476D01*
X79577381Y-91958333D01*
X79577381Y-92053571D01*
X79529762Y-92196429D01*
X79434524Y-92291667D01*
X79339286Y-92339286D01*
X79148810Y-92386905D01*
X79005952Y-92386905D01*
X78815476Y-92339286D01*
X78720238Y-92291667D01*
X78625000Y-92196429D01*
X78577381Y-92053571D01*
X78577381Y-91958333D01*
X78625000Y-91815476D01*
X78672619Y-91767857D01*
X79577381Y-90815476D02*
X79577381Y-91386905D01*
X79577381Y-91101191D02*
X78577381Y-91101191D01*
X78720238Y-91196429D01*
X78815476Y-91291667D01*
X78863095Y-91386905D01*
X78577381Y-89958333D02*
X78577381Y-90148810D01*
X78625000Y-90244048D01*
X78672619Y-90291667D01*
X78815476Y-90386905D01*
X79005952Y-90434524D01*
X79386905Y-90434524D01*
X79482143Y-90386905D01*
X79529762Y-90339286D01*
X79577381Y-90244048D01*
X79577381Y-90053571D01*
X79529762Y-89958333D01*
X79482143Y-89910714D01*
X79386905Y-89863095D01*
X79148810Y-89863095D01*
X79053571Y-89910714D01*
X79005952Y-89958333D01*
X78958333Y-90053571D01*
X78958333Y-90244048D01*
X79005952Y-90339286D01*
X79053571Y-90386905D01*
X79148810Y-90434524D01*
X104252381Y-84066666D02*
X103776190Y-84400000D01*
X104252381Y-84638095D02*
X103252381Y-84638095D01*
X103252381Y-84257142D01*
X103300000Y-84161904D01*
X103347619Y-84114285D01*
X103442857Y-84066666D01*
X103585714Y-84066666D01*
X103680952Y-84114285D01*
X103728571Y-84161904D01*
X103776190Y-84257142D01*
X103776190Y-84638095D01*
X104252381Y-83114285D02*
X104252381Y-83685714D01*
X104252381Y-83400000D02*
X103252381Y-83400000D01*
X103395238Y-83495238D01*
X103490476Y-83590476D01*
X103538095Y-83685714D01*
X91333334Y-85352381D02*
X91000000Y-84876190D01*
X90761905Y-85352381D02*
X90761905Y-84352381D01*
X91142858Y-84352381D01*
X91238096Y-84400000D01*
X91285715Y-84447619D01*
X91333334Y-84542857D01*
X91333334Y-84685714D01*
X91285715Y-84780952D01*
X91238096Y-84828571D01*
X91142858Y-84876190D01*
X90761905Y-84876190D01*
X91666667Y-84352381D02*
X92285715Y-84352381D01*
X91952381Y-84733333D01*
X92095239Y-84733333D01*
X92190477Y-84780952D01*
X92238096Y-84828571D01*
X92285715Y-84923810D01*
X92285715Y-85161905D01*
X92238096Y-85257143D01*
X92190477Y-85304762D01*
X92095239Y-85352381D01*
X91809524Y-85352381D01*
X91714286Y-85304762D01*
X91666667Y-85257143D01*
X80933334Y-86902381D02*
X80600000Y-86426190D01*
X80361905Y-86902381D02*
X80361905Y-85902381D01*
X80742858Y-85902381D01*
X80838096Y-85950000D01*
X80885715Y-85997619D01*
X80933334Y-86092857D01*
X80933334Y-86235714D01*
X80885715Y-86330952D01*
X80838096Y-86378571D01*
X80742858Y-86426190D01*
X80361905Y-86426190D01*
X81266667Y-85902381D02*
X81933334Y-85902381D01*
X81504762Y-86902381D01*
M02*
