M48
;DRILL file {KiCad 4.0.7} date 04/28/20 21:40:39
;FORMAT={-:-/ absolute / metric / decimal}
FMAT,2
METRIC,TZ
T1C0.400
T2C1.000
%
G90
G05
M71
T1
X66.4Y-98.6
X66.6Y-97.6
X66.7Y-100.3
X67.4Y-96.9
X67.8Y-100.6
X68.4Y-84.8
X68.55Y-87.45
X68.55Y-94.95
X68.9Y-83.7
X69.3Y-81.7
X69.3Y-100.6
X71.Y-81.45
X71.Y-100.6
X72.7Y-100.6
X72.76Y-95.36
X73.125Y-81.4
X73.8Y-100.5
X73.87Y-94.84
X73.99Y-93.97
X74.625Y-100.35
X76.085Y-81.375
X76.1Y-100.5
X76.11Y-96.97
X77.37Y-97.12
X78.43Y-100.65
X78.51Y-81.475
X78.55Y-97.11
X79.55Y-88.575
X79.9Y-100.71
X80.95Y-82.225
X81.29Y-87.22
X81.65Y-100.66
X82.26Y-89.39
X83.115Y-100.66
X83.25Y-94.5
X83.312Y-85.852
X83.312Y-87.122
X83.55Y-82.2
X83.75Y-92.
X84.44Y-100.66
X85.498Y-81.65
X85.598Y-87.122
X86.025Y-100.5
X87.5Y-81.5
X87.5Y-100.475
X89.2Y-100.5
X90.125Y-81.45
X90.725Y-100.5
X91.68Y-82.31
X92.225Y-100.5
X92.9Y-81.4
X92.964Y-87.884
X93.675Y-100.425
X94.234Y-87.122
X94.44Y-81.43
X95.375Y-100.45
X95.758Y-88.138
X96.4Y-100.4
X97.Y-81.5
X97.028Y-86.36
X97.43Y-100.45
X98.6Y-100.5
X98.8Y-81.5
X98.806Y-87.376
X99.314Y-85.598
X100.1Y-100.5
X100.24Y-97.2
X100.45Y-81.5
X100.54Y-82.69
X101.41Y-98.65
X101.7Y-100.6
X101.854Y-87.122
X101.854Y-87.884
X101.854Y-88.9
X102.3Y-81.4
X102.55Y-82.48
X102.77Y-97.09
X103.Y-100.6
T2
X74.168Y-85.09
X74.168Y-88.646
X77.7Y-85.075
X77.725Y-88.7
X80.62Y-99.15
X83.62Y-99.09
X115.57Y-84.074
X115.57Y-92.964
T0
M30
