M48
;DRILL file {KiCad 4.0.7} date 04/20/20 02:57:42
;FORMAT={-:-/ absolute / metric / decimal}
FMAT,2
METRIC,TZ
T1C0.400
T2C0.900
T3C1.000
T4C1.520
%
G90
G05
M71
T1
X63.525Y-88.175
X63.575Y-86.725
X63.75Y-89.65
X63.85Y-91.025
X63.95Y-85.1
X64.7Y-92.25
X65.175Y-83.525
X65.975Y-93.4
X67.35Y-83.05
X67.75Y-98.675
X67.85Y-97.2
X68.Y-100.075
X69.6Y-82.95
X69.85Y-100.1
X71.7Y-82.95
X71.9Y-99.95
X73.875Y-83.15
X74.325Y-99.85
X76.05Y-83.15
X76.35Y-99.85
X76.575Y-99.85
X78.Y-99.875
X78.5Y-83.15
X79.75Y-100.
X80.264Y-88.9
X80.325Y-89.95
X80.625Y-83.375
X81.5Y-99.95
X82.65Y-83.375
X83.075Y-99.95
X84.275Y-87.3
X84.4Y-99.95
X85.225Y-83.425
X85.925Y-100.1
X86.05Y-97.7
X86.502Y-83.289
X87.25Y-97.6
X87.4Y-100.075
X87.884Y-97.028
X88.525Y-88.9
X88.85Y-100.075
X89.675Y-83.55
X90.17Y-93.218
X90.225Y-96.715
X90.475Y-98.6
X90.525Y-100.
X90.678Y-90.678
X91.425Y-83.425
X91.725Y-85.775
X92.025Y-100.
X93.475Y-99.925
X93.675Y-83.192
X94.996Y-83.058
X95.175Y-99.95
X95.387Y-86.639
X95.799Y-89.611
X96.5Y-100.
X96.515Y-86.502
X96.916Y-84.699
X96.975Y-83.1
X97.536Y-99.06
X97.577Y-86.299
X97.597Y-88.407
X98.5Y-95.7
X98.5Y-96.7
X98.525Y-97.85
X98.664Y-88.549
X98.725Y-83.05
X98.77Y-94.74
X98.9Y-91.91
X99.Y-90.9
X99.06Y-89.916
X99.06Y-93.218
X99.365Y-97.13
X100.4Y-82.95
X101.559Y-87.813
X101.702Y-95.91
X102.125Y-82.9
X103.925Y-82.925
X104.287Y-87.615
X104.287Y-89.992
X104.882Y-83.515
X105.049Y-84.536
X105.247Y-85.232
X105.893Y-85.893
X108.963Y-86.228
T2
X70.8Y-91.694
X70.8Y-94.234
T3
X74.168Y-85.09
X74.168Y-88.646
X78.486Y-85.09
X78.486Y-88.646
X80.675Y-98.3
X83.5Y-98.4
X112.446Y-93.98
X112.624Y-87.63
T4
X68.072Y-89.408
X68.072Y-94.488
T0
M30
